  0
SECTION
  2
HEADER
  9
$ACADVER
  1
AC1015
  9
$ACADMAINTVER
 70
     6
  9
$DWGCODEPAGE
  3
ANSI_1252
  9
$INSBASE
 10
0.0
 20
0.0
 30
0.0
  9
$EXTMIN
 10
0.0
 20
0.0
 30
0.0
  9
$EXTMAX
 10
1260.0
 20
891.0
 30
0.0
  9
$LIMMIN
 10
0.0
 20
0.0
  9
$LIMMAX
 10
1260.0
 20
891.0
  9
$ORTHOMODE
 70
     0
  9
$REGENMODE
 70
     1
  9
$FILLMODE
 70
     1
  9
$QTEXTMODE
 70
     0
  9
$MIRRTEXT
 70
     1
  9
$LTSCALE
 40
3.0
  9
$ATTMODE
 70
     1
  9
$TEXTSIZE
 40
9.0
  9
$TRACEWID
 40
1.0
  9
$TEXTSTYLE
  7
Standard
  9
$CLAYER
  8
0
  9
$CELTYPE
  6
ByLayer
  9
$CECOLOR
 62
   256
  9
$CELTSCALE
 40
1.0
  9
$DISPSILH
 70
     0
  9
$DIMSCALE
 40
1.0
  9
$DIMASZ
 40
8.4
  9
$DIMEXO
 40
3.0
  9
$DIMDLI
 40
3.75
  9
$DIMRND
 40
0.0
  9
$DIMDLE
 40
0.0
  9
$DIMEXE
 40
3.0
  9
$DIMTP
 40
0.0
  9
$DIMTM
 40
0.0
  9
$DIMTXT
 40
8.4
  9
$DIMCEN
 40
2.5
  9
$DIMTSZ
 40
0.0
  9
$DIMTOL
 70
     0
  9
$DIMLIM
 70
     0
  9
$DIMTIH
 70
     1
  9
$DIMTOH
 70
     1
  9
$DIMSE1
 70
     0
  9
$DIMSE2
 70
     0
  9
$DIMTAD
 70
     1
  9
$DIMZIN
 70
     0
  9
$DIMBLK
  1

  9
$DIMASO
 70
     1
  9
$DIMSHO
 70
     1
  9
$DIMPOST
  1

  9
$DIMAPOST
  1

  9
$DIMALT
 70
     0
  9
$DIMALTD
 70
     3
  9
$DIMALTF
 40
0.0393700787
  9
$DIMLFAC
 40
1.0
  9
$DIMTOFL
 70
     1
  9
$DIMTVP
 40
0.0
  9
$DIMTIX
 70
     0
  9
$DIMSOXD
 70
     0
  9
$DIMSAH
 70
     0
  9
$DIMBLK1
  1

  9
$DIMBLK2
  1

  9
$DIMSTYLE
  2
ISO-25
  9
$DIMCLRD
 70
     0
  9
$DIMCLRE
 70
     0
  9
$DIMCLRT
 70
     0
  9
$DIMTFAC
 40
1.0
  9
$DIMGAP
 40
4.572
  9
$DIMJUST
 70
     0
  9
$DIMSD1
 70
     0
  9
$DIMSD2
 70
     0
  9
$DIMTOLJ
 70
     0
  9
$DIMTZIN
 70
     0
  9
$DIMALTZ
 70
     0
  9
$DIMALTTZ
 70
     0
  9
$DIMUPT
 70
     0
  9
$DIMDEC
 70
     2
  9
$DIMTDEC
 70
     2
  9
$DIMALTU
 70
     2
  9
$DIMALTTD
 70
     3
  9
$DIMTXSTY
  7
Standard
  9
$DIMAUNIT
 70
     0
  9
$DIMADEC
 70
     2
  9
$DIMALTRND
 40
0.0
  9
$DIMAZIN
 70
     0
  9
$DIMDSEP
 70
    44
  9
$DIMATFIT
 70
     3
  9
$DIMFRAC
 70
     0
  9
$DIMLDRBLK
  1

  9
$DIMLUNIT
 70
     2
  9
$DIMLWD
 70
    -2
  9
$DIMLWE
 70
    -2
  9
$DIMTMOVE
 70
     0
  9
$LUNITS
 70
     2
  9
$LUPREC
 70
     3
  9
$SKETCHINC
 40
1.0
  9
$FILLETRAD
 40
0.0
  9
$AUNITS
 70
     0
  9
$AUPREC
 70
     2
  9
$MENU
  1
.
  9
$ELEVATION
 40
0.0
  9
$PELEVATION
 40
0.0
  9
$THICKNESS
 40
0.0
  9
$LIMCHECK
 70
     0
  9
$CHAMFERA
 40
0.0
  9
$CHAMFERB
 40
0.0
  9
$CHAMFERC
 40
0.0
  9
$CHAMFERD
 40
0.0
  9
$SKPOLY
 70
     0
  9
$TDCREATE
 40
2460663.498952257
  9
$TDUCREATE
 40
2460663.457285591
  9
$TDUPDATE
 40
2460663.498954086
  9
$TDUUPDATE
 40
2460663.457287419
  9
$TDINDWG
 40
0.0000000116
  9
$TDUSRTIMER
 40
0.0000000116
  9
$USRTIMER
 70
     1
  9
$ANGBASE
 50
0.0
  9
$ANGDIR
 70
     0
  9
$PDMODE
 70
     0
  9
$PDSIZE
 40
-1.0
  9
$PLINEWID
 40
0.0
  9
$SPLFRAME
 70
     0
  9
$SPLINETYPE
 70
     6
  9
$SPLINESEGS
 70
     8
  9
$HANDSEED
  5
3C9
  9
$SURFTAB1
 70
     6
  9
$SURFTAB2
 70
     6
  9
$SURFTYPE
 70
     6
  9
$SURFU
 70
     6
  9
$SURFV
 70
     6
  9
$UCSBASE
  2

  9
$UCSNAME
  2

  9
$UCSORG
 10
0.0
 20
0.0
 30
0.0
  9
$UCSXDIR
 10
1.0
 20
0.0
 30
0.0
  9
$UCSYDIR
 10
0.0
 20
1.0
 30
0.0
  9
$UCSORTHOREF
  2

  9
$UCSORTHOVIEW
 70
     0
  9
$UCSORGTOP
 10
0.0
 20
0.0
 30
0.0
  9
$UCSORGBOTTOM
 10
0.0
 20
0.0
 30
0.0
  9
$UCSORGLEFT
 10
0.0
 20
0.0
 30
0.0
  9
$UCSORGRIGHT
 10
0.0
 20
0.0
 30
0.0
  9
$UCSORGFRONT
 10
0.0
 20
0.0
 30
0.0
  9
$UCSORGBACK
 10
0.0
 20
0.0
 30
0.0
  9
$PUCSBASE
  2

  9
$PUCSNAME
  2

  9
$PUCSORG
 10
0.0
 20
0.0
 30
0.0
  9
$PUCSXDIR
 10
1.0
 20
0.0
 30
0.0
  9
$PUCSYDIR
 10
0.0
 20
1.0
 30
0.0
  9
$PUCSORTHOREF
  2

  9
$PUCSORTHOVIEW
 70
     0
  9
$PUCSORGTOP
 10
0.0
 20
0.0
 30
0.0
  9
$PUCSORGBOTTOM
 10
0.0
 20
0.0
 30
0.0
  9
$PUCSORGLEFT
 10
0.0
 20
0.0
 30
0.0
  9
$PUCSORGRIGHT
 10
0.0
 20
0.0
 30
0.0
  9
$PUCSORGFRONT
 10
0.0
 20
0.0
 30
0.0
  9
$PUCSORGBACK
 10
0.0
 20
0.0
 30
0.0
  9
$USERI1
 70
     0
  9
$USERI2
 70
     0
  9
$USERI3
 70
     0
  9
$USERI4
 70
     0
  9
$USERI5
 70
     0
  9
$USERR1
 40
0.0
  9
$USERR2
 40
0.0
  9
$USERR3
 40
0.0
  9
$USERR4
 40
0.0
  9
$USERR5
 40
0.0
  9
$WORLDVIEW
 70
     1
  9
$SHADEDGE
 70
     3
  9
$SHADEDIF
 70
    70
  9
$TILEMODE
 70
     1
  9
$MAXACTVP
 70
    64
  9
$PINSBASE
 10
0.0
 20
0.0
 30
0.0
  9
$PLIMCHECK
 70
     0
  9
$PEXTMIN
 10
1.0000000000E+20
 20
1.0000000000E+20
 30
1.0000000000E+20
  9
$PEXTMAX
 10
-1.0000000000E+20
 20
-1.0000000000E+20
 30
-1.0000000000E+20
  9
$PLIMMIN
 10
0.0
 20
0.0
  9
$PLIMMAX
 10
420.0
 20
297.0
  9
$UNITMODE
 70
     0
  9
$VISRETAIN
 70
     1
  9
$PLINEGEN
 70
     0
  9
$PSLTSCALE
 70
     1
  9
$TREEDEPTH
 70
  3020
  9
$CMLSTYLE
  2
Standard
  9
$CMLJUST
 70
     0
  9
$CMLSCALE
 40
20.0
  9
$PROXYGRAPHICS
 70
     1
  9
$MEASUREMENT
 70
     1
  9
$CELWEIGHT
370
    -1
  9
$ENDCAPS
280
     0
  9
$JOINSTYLE
280
     0
  9
$LWDISPLAY
290
     1
  9
$INSUNITS
 70
     4
  9
$HYPERLINKBASE
  1

  9
$STYLESHEET
  1

  9
$XEDIT
290
     1
  9
$CEPSNTYPE
380
     0
  9
$PSTYLEMODE
290
     1
  9
$FINGERPRINTGUID
  2
{571e9927-060e-4806-9ed1-404f3522051f}
  9
$VERSIONGUID
  2
{FAEB1C32-E019-11D5-929B-00C0DF256EC4}
  9
$EXTNAMES
290
     1
  9
$PSVPSCALE
 40
0.0
  9
$OLESTARTUP
290
     0
  0
ENDSEC
  0
SECTION
  2
CLASSES
  0
CLASS
  1
ACDBDICTIONARYWDFLT
  2
AcDbDictionaryWithDefault
  3
ObjectDBX Classes
 90
        0
280
     0
281
     0
  0
CLASS
  1
VISUALSTYLE
  2
AcDbVisualStyle
  3
ObjectDBX Classes
 90
     4095
280
     0
281
     0
  0
CLASS
  1
MATERIAL
  2
AcDbMaterial
  3
ObjectDBX Classes
 90
     1153
280
     0
281
     0
  0
CLASS
  1
SCALE
  2
AcDbScale
  3
ObjectDBX Classes
 90
     1153
280
     0
281
     0
  0
CLASS
  1
TABLESTYLE
  2
AcDbTableStyle
  3
ObjectDBX Classes
 90
     4095
280
     0
281
     0
  0
CLASS
  1
MLEADERSTYLE
  2
AcDbMLeaderStyle
  3
ACDB_MLEADERSTYLE_CLASS
 90
     4095
280
     0
281
     0
  0
CLASS
  1
SUN
  2
AcDbSun
  3
SCENEOE
 90
     1153
280
     0
281
     0
  0
CLASS
  1
ACDBPLACEHOLDER
  2
AcDbPlaceHolder
  3
ObjectDBX Classes
 90
        0
280
     0
281
     0
  0
CLASS
  1
LAYOUT
  2
AcDbLayout
  3
ObjectDBX Classes
 90
        0
280
     0
281
     0
  0
ENDSEC
  0
SECTION
  2
TABLES
  0
TABLE
  2
VPORT
  5
8
330
0
100
AcDbSymbolTable
 70
     1
  0
VPORT
  5
29
330
8
100
AcDbSymbolTableRecord
100
AcDbViewportTableRecord
  2
*Active
 70
     0
 10
0.0
 20
0.0
 11
1.0
 21
1.0
 12
630.0
 22
445.5
 13
0.0
 23
0.0
 14
10.0
 24
10.0
 15
10.0
 25
10.0
 16
0.0
 26
0.0
 36
1.0
 17
0.0
 27
0.0
 37
0.0
 40
891.0
 41
1.4141414141
 42
50.0
 43
0.0
 44
0.0
 50
0.0
 51
0.0
 71
     0
 72
  2000
 73
     1
 74
     3
 75
     0
 76
     0
 77
     0
 78
     0
281
     0
 65
     1
110
0.0
120
0.0
130
0.0
111
1.0
121
0.0
131
0.0
112
0.0
122
1.0
132
0.0
 79
     0
146
0.0
  0
ENDTAB
  0
TABLE
  2
LTYPE
  5
5
330
0
100
AcDbSymbolTable
 70
     6
  0
LTYPE
  5
14
330
5
100
AcDbSymbolTableRecord
100
AcDbLinetypeTableRecord
  2
ByBlock
 70
     0
  3

 72
    65
 73
     0
 40
0.0
  0
LTYPE
  5
15
330
5
100
AcDbSymbolTableRecord
100
AcDbLinetypeTableRecord
  2
ByLayer
 70
     0
  3

 72
    65
 73
     0
 40
0.0
  0
LTYPE
  5
16
330
5
100
AcDbSymbolTableRecord
100
AcDbLinetypeTableRecord
  2
Continuous
 70
     0
  3
Solid line
 72
    65
 73
     0
 40
0.0
  0
LTYPE
  5
5E
330
5
100
AcDbSymbolTableRecord
100
AcDbLinetypeTableRecord
  2
HIDDEN
 70
     0
  3
Hidden __ __ __ __ __ __ __ __ __ __ __ __ __ __
 72
    65
 73
     2
 40
1.905
 49
1.27
 74
     0
 49
-0.635
 74
     0
  0
LTYPE
  5
5F
330
5
100
AcDbSymbolTableRecord
100
AcDbLinetypeTableRecord
  2
PHANTOM
 70
     0
  3
Phantom ______  __  __  ______  __  __  ______
 72
    65
 73
     6
 40
12.7
 49
6.35
 74
     0
 49
-1.27
 74
     0
 49
1.27
 74
     0
 49
-1.27
 74
     0
 49
1.27
 74
     0
 49
-1.27
 74
     0
  0
LTYPE
  5
60
330
5
100
AcDbSymbolTableRecord
100
AcDbLinetypeTableRecord
  2
CENTER
 70
     0
  3
Center ____ _ ____ _ ____ _ ____ _ ____ _ ____
 72
    65
 73
     4
 40
10.16
 49
6.35
 74
     0
 49
-1.27
 74
     0
 49
1.27
 74
     0
 49
-1.27
 74
     0
  0
LTYPE
  5
61
330
5
100
AcDbSymbolTableRecord
100
AcDbLinetypeTableRecord
  2
CENTERX2
 70
     0
  3
Center (2x) ________  __  ________  __  _____
 72
    65
 73
     4
 40
20.32
 49
12.7
 74
     0
 49
-2.54
 74
     0
 49
2.54
 74
     0
 49
-2.54
 74
     0
  0
LTYPE
  5
62
330
5
100
AcDbSymbolTableRecord
100
AcDbLinetypeTableRecord
  2
DOT2
 70
     0
  3
Dot (.5x) ........................................
 72
    65
 73
     2
 40
0.635
 49
0.0
 74
     0
 49
-0.635
 74
     0
  0
ENDTAB
  0
TABLE
  2
LAYER
  5
2
330
0
100
AcDbSymbolTable
 70
     3
  0
LAYER
  5
10
330
2
100
AcDbSymbolTableRecord
100
AcDbLayerTableRecord
  2
0
 70
     0
 62
     7
  6
Continuous
370
    -3
390
F
  0
LAYER
  5
63
330
2
100
AcDbSymbolTableRecord
100
AcDbLayerTableRecord
  2
FORMAT
 70
     0
 62
     7
  6
Continuous
370
    -3
390
F
  0
LAYER
  5
64
330
2
100
AcDbSymbolTableRecord
100
AcDbLayerTableRecord
  2
TESTO
 70
     0
 62
   179
  6
Continuous
370
    -3
390
F
  0
ENDTAB
  0
TABLE
  2
STYLE
  5
3
330
0
100
AcDbSymbolTable
 70
     9
  0
STYLE
  5
11
330
3
100
AcDbSymbolTableRecord
100
AcDbTextStyleTableRecord
  2
Standard
 70
     0
 40
0.0
 41
1.0
 50
0.0
 71
     0
 42
9.0
  3
txt
  4

  0
STYLE
  5
6B
330
3
100
AcDbSymbolTableRecord
100
AcDbTextStyleTableRecord
  2
SLDTEXTSTYLE0
 70
     0
 40
0.0
 41
0.75
 50
0.0
 71
     0
 42
9.0
  3
TXT
  4

  0
STYLE
  5
FF
330
3
100
AcDbSymbolTableRecord
100
AcDbTextStyleTableRecord
  2
SLDTEXTSTYLE1
 70
     0
 40
0.0
 41
0.7329842932
 50
0.0
 71
     0
 42
9.0
  3
TXT
  4

  0
STYLE
  5
101
330
3
100
AcDbSymbolTableRecord
100
AcDbTextStyleTableRecord
  2
SLDTEXTSTYLE2
 70
     0
 40
0.0
 41
0.6436170213
 50
0.0
 71
     0
 42
9.0
  3
TXT
  4

  0
STYLE
  5
117
330
3
100
AcDbSymbolTableRecord
100
AcDbTextStyleTableRecord
  2
SLDTEXTSTYLE3
 70
     0
 40
0.0
 41
0.6944444444
 50
0.0
 71
     0
 42
9.0
  3
TXT
  4

  0
STYLE
  5
11E
330
3
100
AcDbSymbolTableRecord
100
AcDbTextStyleTableRecord
  2
SLDTEXTSTYLE4
 70
     0
 40
0.0
 41
0.6923076923
 50
0.0
 71
     0
 42
9.0
  3
TXT
  4

  0
STYLE
  5
12E
330
3
100
AcDbSymbolTableRecord
100
AcDbTextStyleTableRecord
  2
SLDTEXTSTYLE5
 70
     0
 40
0.0
 41
0.605
 50
0.0
 71
     0
 42
9.0
  3
TXT
  4

  0
STYLE
  5
38F
330
3
100
AcDbSymbolTableRecord
100
AcDbTextStyleTableRecord
  2
SLDTEXTSTYLE6
 70
     0
 40
0.0
 41
0.6458333333
 50
0.0
 71
     0
 42
9.0
  3
TXT
  4

  0
STYLE
  5
392
330
3
100
AcDbSymbolTableRecord
100
AcDbTextStyleTableRecord
  2
SLDTEXTSTYLE7
 70
     0
 40
0.0
 41
0.6607142857
 50
0.0
 71
     0
 42
9.0
  3
TXT
  4

  0
ENDTAB
  0
TABLE
  2
VIEW
  5
6
330
0
100
AcDbSymbolTable
 70
     0
  0
ENDTAB
  0
TABLE
  2
UCS
  5
7
330
0
100
AcDbSymbolTable
 70
     0
  0
ENDTAB
  0
TABLE
  2
APPID
  5
9
330
0
100
AcDbSymbolTable
 70
     1
  0
APPID
  5
12
330
9
100
AcDbSymbolTableRecord
100
AcDbRegAppTableRecord
  2
ACAD
 70
     0
  0
ENDTAB
  0
TABLE
  2
DIMSTYLE
  5
A
330
0
100
AcDbSymbolTable
 70
    10
100
AcDbDimStyleTable
  0
DIMSTYLE
105
27
330
A
100
AcDbSymbolTableRecord
100
AcDbDimStyleTableRecord
  2
ISO-25
 70
     0
 41
2.5
 42
0.625
 43
3.75
 44
1.25
 73
     0
 74
     0
 77
     1
 78
     8
140
2.5
141
2.5
143
0.0393700787
147
0.625
171
     3
172
     1
178
     0
271
     2
272
     2
274
     3
278
    44
283
     0
284
     8
340
11
  0
DIMSTYLE
105
1EC
102
{ACAD_REACTORS
330
1EB
330
1F6
330
200
330
217
330
221
330
22B
330
235
330
2AF
330
2B9
330
2C3
330
337
102
}
330
A
100
AcDbSymbolTableRecord
100
AcDbDimStyleTableRecord
  2
SLDDIMSTYLE0
 70
     0
 41
8.4
 44
0.0
 45
0.000000001
 73
     0
 74
     0
 77
     1
 78
    12
 79
     3
140
8.4
147
2.1
173
     1
178
     0
271
     2
272
     2
276
     2
284
    12
340
6B
  0
DIMSTYLE
105
20B
102
{ACAD_REACTORS
330
20A
330
2E0
330
32B
330
3BC
102
}
330
A
100
AcDbSymbolTableRecord
100
AcDbDimStyleTableRecord
  2
SLDDIMSTYLE1
 70
     0
 41
8.4
 44
0.0
 45
0.000000001
 73
     0
 74
     0
 77
     1
 78
    12
 79
     3
140
8.4
147
2.1
172
     1
173
     1
178
     0
271
     2
272
     2
276
     2
284
    12
289
     0
340
6B
  0
DIMSTYLE
105
240
102
{ACAD_REACTORS
330
23F
330
34D
102
}
330
A
100
AcDbSymbolTableRecord
100
AcDbDimStyleTableRecord
  2
SLDDIMSTYLE2
 70
     0
 41
8.4
 44
0.0
 45
0.000000001
 73
     0
 74
     0
 77
     1
 78
    12
 79
     3
140
8.4
141
0.0
147
2.1
173
     1
178
     0
271
     2
272
     2
276
     2
284
    12
340
6B
  0
DIMSTYLE
105
249
102
{ACAD_REACTORS
330
248
330
251
330
341
102
}
330
A
100
AcDbSymbolTableRecord
100
AcDbDimStyleTableRecord
  2
SLDDIMSTYLE3
 70
     0
 41
8.4
 44
0.0
 73
     0
 74
     0
 77
     1
 78
    12
 79
     3
140
8.4
144
3.0
147
2.1
173
     1
178
     0
179
     2
272
     2
276
     2
284
    12
340
6B
  0
DIMSTYLE
105
25A
102
{ACAD_REACTORS
330
259
330
261
102
}
330
A
100
AcDbSymbolTableRecord
100
AcDbDimStyleTableRecord
  2
SLDDIMSTYLE4
 70
     0
 41
8.4
 44
0.0
 45
0.000000001
 73
     0
 74
     0
 77
     1
 78
    12
 79
     3
140
8.4
141
0.0
147
2.1
173
     1
178
     0
271
     2
272
     2
276
     2
279
     1
284
    12
340
6B
  0
DIMSTYLE
105
2CE
102
{ACAD_REACTORS
330
2CD
330
2D7
102
}
330
A
100
AcDbSymbolTableRecord
100
AcDbDimStyleTableRecord
  2
SLDDIMSTYLE5
 70
     0
 41
8.4
 44
0.0
 73
     0
 74
     0
 77
     1
 78
    12
 79
     3
140
8.4
144
3.0
147
2.1
173
     1
178
     0
179
     2
272
     2
276
     2
284
    12
340
6B
  0
DIMSTYLE
105
2ED
102
{ACAD_REACTORS
330
2EC
330
2F5
102
}
330
A
100
AcDbSymbolTableRecord
100
AcDbDimStyleTableRecord
  2
SLDDIMSTYLE6
 70
     0
 41
8.4
 44
0.0
 45
0.000000001
 73
     0
 74
     0
 77
     1
 78
    12
 79
     3
140
8.4
141
0.0
147
2.1
173
     1
178
     0
271
     2
272
     2
276
     2
279
     1
284
    12
340
6B
  0
DIMSTYLE
105
385
102
{ACAD_REACTORS
330
384
330
3B2
102
}
330
A
100
AcDbSymbolTableRecord
100
AcDbDimStyleTableRecord
  2
SLDDIMSTYLE7
 70
     0
 41
8.4
 44
0.0
 45
0.000000001
 73
     0
 74
     0
 77
     1
 78
    12
 79
     3
140
8.4
147
2.1
173
     1
178
     0
271
     1
272
     1
276
     2
284
    12
340
6B
  0
DIMSTYLE
105
39B
330
A
100
AcDbSymbolTableRecord
100
AcDbDimStyleTableRecord
  2
SLDDIMSTYLE8
 70
     0
 41
2.5846153846
 44
0.0
 45
0.000000001
146
2.5846153846
147
0.0
173
     1
178
     0
271
     0
272
     0
276
     2
340
11
341
39C
343
39C
344
39C
  0
ENDTAB
  0
TABLE
  2
BLOCK_RECORD
  5
1
330
0
100
AcDbSymbolTable
 70
    33
  0
BLOCK_RECORD
  5
1F
330
1
100
AcDbSymbolTableRecord
100
AcDbBlockTableRecord
  2
*Model_Space
340
22
  0
BLOCK_RECORD
  5
1B
330
1
100
AcDbSymbolTableRecord
100
AcDbBlockTableRecord
  2
*Paper_Space
340
1E
  0
BLOCK_RECORD
  5
23
330
1
100
AcDbSymbolTableRecord
100
AcDbBlockTableRecord
  2
*Paper_Space0
340
26
  0
BLOCK_RECORD
  5
65
330
1
100
AcDbSymbolTableRecord
100
AcDbBlockTableRecord
  2
Particolare privo di bave e dif.sup.
340
0
102
{BLKREFS
331
192
102
}
  0
BLOCK_RECORD
  5
68
330
1
100
AcDbSymbolTableRecord
100
AcDbBlockTableRecord
  2
SW_NOTE_0
340
0
102
{BLKREFS
331
6D
102
}
  0
BLOCK_RECORD
  5
1ED
330
1
100
AcDbSymbolTableRecord
100
AcDbBlockTableRecord
  2
_D
340
0
  0
BLOCK_RECORD
  5
1F7
330
1
100
AcDbSymbolTableRecord
100
AcDbBlockTableRecord
  2
_D_1
340
0
  0
BLOCK_RECORD
  5
201
330
1
100
AcDbSymbolTableRecord
100
AcDbBlockTableRecord
  2
_D_2
340
0
  0
BLOCK_RECORD
  5
20C
330
1
100
AcDbSymbolTableRecord
100
AcDbBlockTableRecord
  2
_D_3
340
0
  0
BLOCK_RECORD
  5
218
330
1
100
AcDbSymbolTableRecord
100
AcDbBlockTableRecord
  2
_D_4
340
0
  0
BLOCK_RECORD
  5
222
330
1
100
AcDbSymbolTableRecord
100
AcDbBlockTableRecord
  2
_D_5
340
0
  0
BLOCK_RECORD
  5
22C
330
1
100
AcDbSymbolTableRecord
100
AcDbBlockTableRecord
  2
_D_6
340
0
  0
BLOCK_RECORD
  5
236
330
1
100
AcDbSymbolTableRecord
100
AcDbBlockTableRecord
  2
_D_7
340
0
  0
BLOCK_RECORD
  5
241
330
1
100
AcDbSymbolTableRecord
100
AcDbBlockTableRecord
  2
_D_8
340
0
  0
BLOCK_RECORD
  5
24A
330
1
100
AcDbSymbolTableRecord
100
AcDbBlockTableRecord
  2
_D_9
340
0
  0
BLOCK_RECORD
  5
252
330
1
100
AcDbSymbolTableRecord
100
AcDbBlockTableRecord
  2
_D_10
340
0
  0
BLOCK_RECORD
  5
25B
330
1
100
AcDbSymbolTableRecord
100
AcDbBlockTableRecord
  2
_D_11
340
0
  0
BLOCK_RECORD
  5
262
330
1
100
AcDbSymbolTableRecord
100
AcDbBlockTableRecord
  2
_D_12
340
0
  0
BLOCK_RECORD
  5
2B0
330
1
100
AcDbSymbolTableRecord
100
AcDbBlockTableRecord
  2
_D_13
340
0
  0
BLOCK_RECORD
  5
2BA
330
1
100
AcDbSymbolTableRecord
100
AcDbBlockTableRecord
  2
_D_14
340
0
  0
BLOCK_RECORD
  5
2C4
330
1
100
AcDbSymbolTableRecord
100
AcDbBlockTableRecord
  2
_D_15
340
0
  0
BLOCK_RECORD
  5
2CF
330
1
100
AcDbSymbolTableRecord
100
AcDbBlockTableRecord
  2
_D_16
340
0
  0
BLOCK_RECORD
  5
2D8
330
1
100
AcDbSymbolTableRecord
100
AcDbBlockTableRecord
  2
_D_17
340
0
  0
BLOCK_RECORD
  5
2E1
330
1
100
AcDbSymbolTableRecord
100
AcDbBlockTableRecord
  2
_D_18
340
0
  0
BLOCK_RECORD
  5
2EE
330
1
100
AcDbSymbolTableRecord
100
AcDbBlockTableRecord
  2
_D_19
340
0
  0
BLOCK_RECORD
  5
2F6
330
1
100
AcDbSymbolTableRecord
100
AcDbBlockTableRecord
  2
_D_20
340
0
  0
BLOCK_RECORD
  5
32C
330
1
100
AcDbSymbolTableRecord
100
AcDbBlockTableRecord
  2
_D_21
340
0
  0
BLOCK_RECORD
  5
338
330
1
100
AcDbSymbolTableRecord
100
AcDbBlockTableRecord
  2
_D_22
340
0
  0
BLOCK_RECORD
  5
342
330
1
100
AcDbSymbolTableRecord
100
AcDbBlockTableRecord
  2
_D_23
340
0
  0
BLOCK_RECORD
  5
34E
330
1
100
AcDbSymbolTableRecord
100
AcDbBlockTableRecord
  2
_D_24
340
0
  0
BLOCK_RECORD
  5
386
330
1
100
AcDbSymbolTableRecord
100
AcDbBlockTableRecord
  2
_D_25
340
0
  0
BLOCK_RECORD
  5
396
330
1
100
AcDbSymbolTableRecord
100
AcDbBlockTableRecord
  2
SW_NOTE_0_1
340
0
102
{BLKREFS
331
39A
102
}
  0
BLOCK_RECORD
  5
39C
330
1
100
AcDbSymbolTableRecord
100
AcDbBlockTableRecord
  2
_Dot
340
0
  0
BLOCK_RECORD
  5
3B3
330
1
100
AcDbSymbolTableRecord
100
AcDbBlockTableRecord
  2
_D_26
340
0
  0
BLOCK_RECORD
  5
3BD
330
1
100
AcDbSymbolTableRecord
100
AcDbBlockTableRecord
  2
_D_27
340
0
  0
ENDTAB
  0
ENDSEC
  0
SECTION
  2
BLOCKS
  0
BLOCK
  5
20
330
1F
100
AcDbEntity
  8
0
100
AcDbBlockBegin
  2
*Model_Space
 70
     0
 10
0.0
 20
0.0
 30
0.0
  3
*Model_Space
  1

  0
ENDBLK
  5
21
330
1F
100
AcDbEntity
  8
0
100
AcDbBlockEnd
  0
BLOCK
  5
1C
330
1B
100
AcDbEntity
 67
     1
  8
0
100
AcDbBlockBegin
  2
*Paper_Space
 70
     0
 10
0.0
 20
0.0
 30
0.0
  3
*Paper_Space
  1

  0
ENDBLK
  5
1D
330
1B
100
AcDbEntity
 67
     1
  8
0
100
AcDbBlockEnd
  0
BLOCK
  5
24
330
23
100
AcDbEntity
  8
0
100
AcDbBlockBegin
  2
*Paper_Space0
 70
     0
 10
0.0
 20
0.0
 30
0.0
  3
*Paper_Space0
  1

  0
ENDBLK
  5
25
330
23
100
AcDbEntity
  8
0
100
AcDbBlockEnd
  0
BLOCK
  5
66
330
65
100
AcDbEntity
  8
0
100
AcDbBlockBegin
  2
Particolare privo di bave e dif.sup.
 70
     0
 10
0.0
 20
0.0
 30
0.0
  3
Particolare privo di bave e dif.sup.
  1

  0
INSERT
  5
6D
330
65
100
AcDbEntity
  8
0
  6
Continuous
 62
     7
370
     0
100
AcDbBlockReference
  2
SW_NOTE_0
 10
8.1905429594
 20
-5.8164371902
 30
0.0
  0
ENDBLK
  5
67
330
65
100
AcDbEntity
  8
0
100
AcDbBlockEnd
  0
BLOCK
  5
69
330
68
100
AcDbEntity
  8
0
100
AcDbBlockBegin
  2
SW_NOTE_0
 70
     0
 10
0.0
 20
0.0
 30
0.0
  3
SW_NOTE_0
  1

  0
MTEXT
  5
6C
330
68
100
AcDbEntity
  8
0
  6
Continuous
 62
     0
370
     0
100
AcDbMText
 10
0.0
 20
116.0160965795
 30
0.0
 40
90.0
 41
0.0
 71
     1
 72
     1
  1
PARTICOLARE PRIVO DI BAVE E DIFETTI SUPERFICIALI
  7
SLDTEXTSTYLE0
 73
     1
 44
1.0
  0
ENDBLK
  5
6A
330
68
100
AcDbEntity
  8
0
100
AcDbBlockEnd
  0
BLOCK
  5
1EE
330
1ED
100
AcDbEntity
  8
0
100
AcDbBlockBegin
  2
_D
 70
     0
 10
0.0
 20
0.0
 30
0.0
  3
_D
  1

  0
SOLID
  5
1F0
330
1ED
100
AcDbEntity
  8
0
  6
Continuous
 62
     7
370
    18
100
AcDbTrace
 10
868.2125737052
 20
478.9641992032
 30
0.0
 11
876.6125737052
 21
477.6718915109
 31
0.0
 12
876.6125737052
 22
480.2565068955
 32
0.0
 13
876.6125737052
 23
480.2565068955
 33
0.0
  0
SOLID
  5
1F1
330
1ED
100
AcDbEntity
  8
0
  6
Continuous
 62
     7
370
    18
100
AcDbTrace
 10
903.2125737052
 20
478.9641992032
 30
0.0
 11
894.8125737052
 21
480.2565068955
 31
0.0
 12
894.8125737052
 22
477.6718915109
 32
0.0
 13
894.8125737052
 23
477.6718915109
 33
0.0
  0
LINE
  5
1F2
330
1ED
100
AcDbEntity
  8
0
  6
Continuous
 62
     7
370
     0
100
AcDbLine
 10
868.2125737052
 20
463.9641992032
 30
0.0
 11
868.2125737052
 21
481.9641992032
 31
0.0
  0
LINE
  5
1F3
330
1ED
100
AcDbEntity
  8
0
  6
Continuous
 62
     7
370
     0
100
AcDbLine
 10
903.2125737052
 20
447.9641992032
 30
0.0
 11
903.2125737052
 21
481.9641992032
 31
0.0
  0
LINE
  5
1F4
330
1ED
100
AcDbEntity
  8
0
  6
Continuous
 62
     7
370
     0
100
AcDbLine
 10
868.2125737052
 20
478.9641992032
 30
0.0
 11
903.2125737052
 21
478.9641992032
 31
0.0
  0
MTEXT
  5
1F5
330
1ED
100
AcDbEntity
  8
0
  6
Continuous
 62
     7
370
    18
100
AcDbMText
 10
879.5059071201
 20
489.7923682173
 30
0.0
 40
8.4
 41
0.0
 71
     1
 72
     1
  1
35
  7
SLDTEXTSTYLE0
 73
     1
 44
1.0
  0
ENDBLK
  5
1EF
330
1ED
100
AcDbEntity
  8
0
100
AcDbBlockEnd
  0
BLOCK
  5
1F8
330
1F7
100
AcDbEntity
  8
0
100
AcDbBlockBegin
  2
_D_1
 70
     0
 10
0.0
 20
0.0
 30
0.0
  3
_D_1
  1

  0
SOLID
  5
1FA
330
1F7
100
AcDbEntity
  8
0
  6
Continuous
 62
     7
370
    18
100
AcDbTrace
 10
933.2125737052
 20
460.9641992032
 30
0.0
 11
931.9202660129
 21
452.5641992032
 31
0.0
 12
934.5048813975
 22
452.5641992032
 32
0.0
 13
934.5048813975
 23
452.5641992032
 33
0.0
  0
SOLID
  5
1FB
330
1F7
100
AcDbEntity
  8
0
  6
Continuous
 62
     7
370
    18
100
AcDbTrace
 10
933.2125737052
 20
340.9641992032
 30
0.0
 11
934.5048813975
 21
349.3641992032
 31
0.0
 12
931.9202660129
 22
349.3641992032
 32
0.0
 13
931.9202660129
 23
349.3641992032
 33
0.0
  0
LINE
  5
1FC
330
1F7
100
AcDbEntity
  8
0
  6
Continuous
 62
     7
370
     0
100
AcDbLine
 10
873.2125737052
 20
460.9641992032
 30
0.0
 11
936.2125737052
 21
460.9641992032
 31
0.0
  0
LINE
  5
1FD
330
1F7
100
AcDbEntity
  8
0
  6
Continuous
 62
     7
370
     0
100
AcDbLine
 10
869.2125737052
 20
340.9641992032
 30
0.0
 11
936.2125737052
 21
340.9641992032
 31
0.0
  0
LINE
  5
1FE
330
1F7
100
AcDbEntity
  8
0
  6
Continuous
 62
     7
370
     0
100
AcDbLine
 10
933.2125737052
 20
460.9641992032
 30
0.0
 11
933.2125737052
 21
340.9641992032
 31
0.0
  0
MTEXT
  5
1FF
330
1F7
100
AcDbEntity
  8
0
  6
Continuous
 62
     7
370
    18
100
AcDbMText
 10
922.3844046911
 20
391.6541993256
 30
0.0
 40
8.4
 41
0.0
 71
     1
 72
     1
  1
120
  7
SLDTEXTSTYLE0
 11
-7.044195017643634E-15
 21
1.0
 31
0.0
 73
     1
 44
1.0
  0
ENDBLK
  5
1F9
330
1F7
100
AcDbEntity
  8
0
100
AcDbBlockEnd
  0
BLOCK
  5
202
330
201
100
AcDbEntity
  8
0
100
AcDbBlockBegin
  2
_D_2
 70
     0
 10
0.0
 20
0.0
 30
0.0
  3
_D_2
  1

  0
SOLID
  5
204
330
201
100
AcDbEntity
  8
0
  6
Continuous
 62
     7
370
    18
100
AcDbTrace
 10
921.2125737052
 20
351.9641992032
 30
0.0
 11
922.5048813975
 21
360.3641992032
 31
0.0
 12
919.9202660129
 22
360.3641992032
 32
0.0
 13
919.9202660129
 23
360.3641992032
 33
0.0
  0
SOLID
  5
205
330
201
100
AcDbEntity
  8
0
  6
Continuous
 62
     7
370
    18
100
AcDbTrace
 10
921.2125737052
 20
449.9641992032
 30
0.0
 11
919.9202660129
 21
441.5641992032
 31
0.0
 12
922.5048813975
 22
441.5641992032
 32
0.0
 13
922.5048813975
 23
441.5641992032
 33
0.0
  0
LINE
  5
206
330
201
100
AcDbEntity
  8
0
  6
Continuous
 62
     7
370
     0
100
AcDbLine
 10
901.2125737052
 20
351.9641992032
 30
0.0
 11
924.2125737052
 21
351.9641992032
 31
0.0
  0
LINE
  5
207
330
201
100
AcDbEntity
  8
0
  6
Continuous
 62
     7
370
     0
100
AcDbLine
 10
901.2125737052
 20
449.9641992032
 30
0.0
 11
924.2125737052
 21
449.9641992032
 31
0.0
  0
LINE
  5
208
330
201
100
AcDbEntity
  8
0
  6
Continuous
 62
     7
370
     0
100
AcDbLine
 10
921.2125737052
 20
351.9641992032
 30
0.0
 11
921.2125737052
 21
449.9641992032
 31
0.0
  0
MTEXT
  5
209
330
201
100
AcDbEntity
  8
0
  6
Continuous
 62
     7
370
    18
100
AcDbMText
 10
910.3844046911
 20
394.7575326181
 30
0.0
 40
8.4
 41
0.0
 71
     1
 72
     1
  1
98
  7
SLDTEXTSTYLE0
 11
3.391901413832837E-15
 21
1.0
 31
0.0
 73
     1
 44
1.0
  0
ENDBLK
  5
203
330
201
100
AcDbEntity
  8
0
100
AcDbBlockEnd
  0
BLOCK
  5
20D
330
20C
100
AcDbEntity
  8
0
100
AcDbBlockBegin
  2
_D_3
 70
     0
 10
0.0
 20
0.0
 30
0.0
  3
_D_3
  1

  0
SOLID
  5
20F
330
20C
100
AcDbEntity
  8
0
  6
Continuous
 62
     7
370
    18
100
AcDbTrace
 10
921.2125737052
 20
449.9641992032
 30
0.0
 11
919.9202660129
 21
441.5641992032
 31
0.0
 12
922.5048813975
 22
441.5641992032
 32
0.0
 13
922.5048813975
 23
441.5641992032
 33
0.0
  0
SOLID
  5
210
330
20C
100
AcDbEntity
  8
0
  6
Continuous
 62
     7
370
    18
100
AcDbTrace
 10
921.2125737052
 20
460.9641992032
 30
0.0
 11
922.5048813975
 21
469.3641992032
 31
0.0
 12
919.9202660129
 22
469.3641992032
 32
0.0
 13
919.9202660129
 23
469.3641992032
 33
0.0
  0
LINE
  5
211
330
20C
100
AcDbEntity
  8
0
  6
Continuous
 62
     7
370
     0
100
AcDbLine
 10
901.2125737052
 20
449.9641992032
 30
0.0
 11
924.2125737052
 21
449.9641992032
 31
0.0
  0
LINE
  5
212
330
20C
100
AcDbEntity
  8
0
  6
Continuous
 62
     7
370
     0
100
AcDbLine
 10
873.2125737052
 20
460.9641992032
 30
0.0
 11
924.2125737052
 21
460.9641992032
 31
0.0
  0
LINE
  5
213
330
20C
100
AcDbEntity
  8
0
  6
Continuous
 62
     7
370
     0
100
AcDbLine
 10
921.2125737052
 20
449.9641992032
 30
0.0
 11
921.2125737052
 21
433.8103530493
 31
0.0
  0
LINE
  5
214
330
20C
100
AcDbEntity
  8
0
  6
Continuous
 62
     7
370
     0
100
AcDbLine
 10
921.2125737052
 20
449.9641992032
 30
0.0
 11
921.2125737052
 21
460.9641992032
 31
0.0
  0
LINE
  5
215
330
20C
100
AcDbEntity
  8
0
  6
Continuous
 62
     7
370
     0
100
AcDbLine
 10
921.2125737052
 20
460.9641992032
 30
0.0
 11
921.2125737052
 21
485.1708657882
 31
0.0
  0
MTEXT
  5
216
330
20C
100
AcDbEntity
  8
0
  6
Continuous
 62
     7
370
    18
100
AcDbMText
 10
910.3844046911
 20
472.7575326181
 30
0.0
 40
8.4
 41
0.0
 71
     1
 72
     1
  1
11
  7
SLDTEXTSTYLE0
 11
3.391901413832837E-15
 21
1.0
 31
0.0
 73
     1
 44
1.0
  0
ENDBLK
  5
20E
330
20C
100
AcDbEntity
  8
0
100
AcDbBlockEnd
  0
BLOCK
  5
219
330
218
100
AcDbEntity
  8
0
100
AcDbBlockBegin
  2
_D_4
 70
     0
 10
0.0
 20
0.0
 30
0.0
  3
_D_4
  1

  0
SOLID
  5
21B
330
218
100
AcDbEntity
  8
0
  6
Continuous
 62
     7
370
    18
100
AcDbTrace
 10
540.4125737052
 20
322.9641992032
 30
0.0
 11
548.8125737052
 21
321.6718915109
 31
0.0
 12
548.8125737052
 22
324.2565068955
 32
0.0
 13
548.8125737052
 23
324.2565068955
 33
0.0
  0
SOLID
  5
21C
330
218
100
AcDbEntity
  8
0
  6
Continuous
 62
     7
370
    18
100
AcDbTrace
 10
870.2125737052
 20
322.9641992032
 30
0.0
 11
861.8125737052
 21
324.2565068955
 31
0.0
 12
861.8125737052
 22
321.6718915109
 32
0.0
 13
861.8125737052
 23
321.6718915109
 33
0.0
  0
LINE
  5
21D
330
218
100
AcDbEntity
  8
0
  6
Continuous
 62
     7
370
     0
100
AcDbLine
 10
540.4125737052
 20
341.9641992032
 30
0.0
 11
540.4125737052
 21
319.9641992032
 31
0.0
  0
LINE
  5
21E
330
218
100
AcDbEntity
  8
0
  6
Continuous
 62
     7
370
     0
100
AcDbLine
 10
870.2125737052
 20
341.9641992032
 30
0.0
 11
870.2125737052
 21
319.9641992032
 31
0.0
  0
LINE
  5
21F
330
218
100
AcDbEntity
  8
0
  6
Continuous
 62
     7
370
     0
100
AcDbLine
 10
540.4125737052
 20
322.9641992032
 30
0.0
 11
870.2125737052
 21
322.9641992032
 31
0.0
  0
MTEXT
  5
220
330
218
100
AcDbEntity
  8
0
  6
Continuous
 62
     7
370
    18
100
AcDbMText
 10
688.244241644
 20
333.7923682173
 30
0.0
 40
8.4
 41
0.0
 71
     1
 72
     1
  1
329,80
  7
SLDTEXTSTYLE0
 73
     1
 44
1.0
  0
ENDBLK
  5
21A
330
218
100
AcDbEntity
  8
0
100
AcDbBlockEnd
  0
BLOCK
  5
223
330
222
100
AcDbEntity
  8
0
100
AcDbBlockBegin
  2
_D_5
 70
     0
 10
0.0
 20
0.0
 30
0.0
  3
_D_5
  1

  0
SOLID
  5
225
330
222
100
AcDbEntity
  8
0
  6
Continuous
 62
     7
370
    18
100
AcDbTrace
 10
903.2125737052
 20
310.9641992032
 30
0.0
 11
894.8125737052
 21
312.2565068955
 31
0.0
 12
894.8125737052
 22
309.6718915109
 32
0.0
 13
894.8125737052
 23
309.6718915109
 33
0.0
  0
SOLID
  5
226
330
222
100
AcDbEntity
  8
0
  6
Continuous
 62
     7
370
    18
100
AcDbTrace
 10
507.4125737052
 20
310.9641992032
 30
0.0
 11
515.8125737052
 21
309.6718915109
 31
0.0
 12
515.8125737052
 22
312.2565068955
 32
0.0
 13
515.8125737052
 23
312.2565068955
 33
0.0
  0
LINE
  5
227
330
222
100
AcDbEntity
  8
0
  6
Continuous
 62
     7
370
     0
100
AcDbLine
 10
903.2125737052
 20
353.9641992032
 30
0.0
 11
903.2125737052
 21
307.9641992032
 31
0.0
  0
LINE
  5
228
330
222
100
AcDbEntity
  8
0
  6
Continuous
 62
     7
370
     0
100
AcDbLine
 10
507.4125737052
 20
353.9641992032
 30
0.0
 11
507.4125737052
 21
307.9641992032
 31
0.0
  0
LINE
  5
229
330
222
100
AcDbEntity
  8
0
  6
Continuous
 62
     7
370
     0
100
AcDbLine
 10
903.2125737052
 20
310.9641992032
 30
0.0
 11
507.4125737052
 21
310.9641992032
 31
0.0
  0
MTEXT
  5
22A
330
222
100
AcDbEntity
  8
0
  6
Continuous
 62
     7
370
    18
100
AcDbMText
 10
688.244241644
 20
321.7923682173
 30
0.0
 40
8.4
 41
0.0
 71
     1
 72
     1
  1
395,80
  7
SLDTEXTSTYLE0
 73
     1
 44
1.0
  0
ENDBLK
  5
224
330
222
100
AcDbEntity
  8
0
100
AcDbBlockEnd
  0
BLOCK
  5
22D
330
22C
100
AcDbEntity
  8
0
100
AcDbBlockBegin
  2
_D_6
 70
     0
 10
0.0
 20
0.0
 30
0.0
  3
_D_6
  1

  0
SOLID
  5
22F
330
22C
100
AcDbEntity
  8
0
  6
Continuous
 62
     7
370
    18
100
AcDbTrace
 10
490.5525737052
 20
340.9641992032
 30
0.0
 11
491.8448813975
 21
349.3641992032
 31
0.0
 12
489.2602660129
 22
349.3641992032
 32
0.0
 13
489.2602660129
 23
349.3641992032
 33
0.0
  0
SOLID
  5
230
330
22C
100
AcDbEntity
  8
0
  6
Continuous
 62
     7
370
    18
100
AcDbTrace
 10
490.5525737052
 20
460.9641992032
 30
0.0
 11
489.2602660129
 21
452.5641992032
 31
0.0
 12
491.8448813975
 22
452.5641992032
 32
0.0
 13
491.8448813975
 23
452.5641992032
 33
0.0
  0
LINE
  5
231
330
22C
100
AcDbEntity
  8
0
  6
Continuous
 62
     7
370
     0
100
AcDbLine
 10
541.4125737052
 20
340.9641992032
 30
0.0
 11
487.5525737052
 21
340.9641992032
 31
0.0
  0
LINE
  5
232
330
22C
100
AcDbEntity
  8
0
  6
Continuous
 62
     7
370
     0
100
AcDbLine
 10
537.4125737052
 20
460.9641992032
 30
0.0
 11
487.5525737052
 21
460.9641992032
 31
0.0
  0
LINE
  5
233
330
22C
100
AcDbEntity
  8
0
  6
Continuous
 62
     7
370
     0
100
AcDbLine
 10
490.5525737052
 20
340.9641992032
 30
0.0
 11
490.5525737052
 21
460.9641992032
 31
0.0
  0
MTEXT
  5
234
330
22C
100
AcDbEntity
  8
0
  6
Continuous
 62
     7
370
    18
100
AcDbMText
 10
479.7244046911
 20
391.6541993256
 30
0.0
 40
8.4
 41
0.0
 71
     1
 72
     1
  1
120
  7
SLDTEXTSTYLE0
 11
6.123233995736766E-17
 21
1.0
 31
0.0
 73
     1
 44
1.0
  0
ENDBLK
  5
22E
330
22C
100
AcDbEntity
  8
0
100
AcDbBlockEnd
  0
BLOCK
  5
237
330
236
100
AcDbEntity
  8
0
100
AcDbBlockBegin
  2
_D_7
 70
     0
 10
0.0
 20
0.0
 30
0.0
  3
_D_7
  1

  0
SOLID
  5
239
330
236
100
AcDbEntity
  8
0
  6
Continuous
 62
     7
370
    18
100
AcDbTrace
 10
542.4125737052
 20
478.9641992032
 30
0.0
 11
534.0125737052
 21
480.2565068955
 31
0.0
 12
534.0125737052
 22
477.6718915109
 32
0.0
 13
534.0125737052
 23
477.6718915109
 33
0.0
  0
SOLID
  5
23A
330
236
100
AcDbEntity
  8
0
  6
Continuous
 62
     7
370
    18
100
AcDbTrace
 10
507.4125737052
 20
478.9641992032
 30
0.0
 11
515.8125737052
 21
477.6718915109
 31
0.0
 12
515.8125737052
 22
480.2565068955
 32
0.0
 13
515.8125737052
 23
480.2565068955
 33
0.0
  0
LINE
  5
23B
330
236
100
AcDbEntity
  8
0
  6
Continuous
 62
     7
370
     0
100
AcDbLine
 10
542.4125737052
 20
463.9641992032
 30
0.0
 11
542.4125737052
 21
481.9641992032
 31
0.0
  0
LINE
  5
23C
330
236
100
AcDbEntity
  8
0
  6
Continuous
 62
     7
370
     0
100
AcDbLine
 10
507.4125737052
 20
447.9641992032
 30
0.0
 11
507.4125737052
 21
481.9641992032
 31
0.0
  0
LINE
  5
23D
330
236
100
AcDbEntity
  8
0
  6
Continuous
 62
     7
370
     0
100
AcDbLine
 10
542.4125737052
 20
478.9641992032
 30
0.0
 11
507.4125737052
 21
478.9641992032
 31
0.0
  0
MTEXT
  5
23E
330
236
100
AcDbEntity
  8
0
  6
Continuous
 62
     7
370
    18
100
AcDbMText
 10
518.7059071201
 20
489.7923682173
 30
0.0
 40
8.4
 41
0.0
 71
     1
 72
     1
  1
35
  7
SLDTEXTSTYLE0
 73
     1
 44
1.0
  0
ENDBLK
  5
238
330
236
100
AcDbEntity
  8
0
100
AcDbBlockEnd
  0
BLOCK
  5
242
330
241
100
AcDbEntity
  8
0
100
AcDbBlockBegin
  2
_D_8
 70
     0
 10
0.0
 20
0.0
 30
0.0
  3
_D_8
  1

  0
SOLID
  5
244
330
241
100
AcDbEntity
  8
0
  6
Continuous
 62
     7
370
    18
100
AcDbTrace
 10
900.7125737052
 20
352.6340721843
 30
0.0
 11
903.7934024141
 21
344.7133049463
 31
0.0
 12
906.0317449962
 22
346.0056126386
 32
0.0
 13
906.0317449962
 23
346.0056126386
 33
0.0
  0
LINE
  5
245
330
241
100
AcDbEntity
  8
0
  6
Continuous
 62
     7
370
     0
100
AcDbLine
 10
900.7125737052
 20
352.6340721843
 30
0.0
 11
916.1854482585
 21
325.8342673187
 31
0.0
  0
LINE
  5
246
330
241
100
AcDbEntity
  8
0
  6
Continuous
 62
     7
370
     0
100
AcDbLine
 10
900.7125737052
 20
352.6340721843
 30
0.0
 11
898.2125737052
 21
356.9641992032
 31
0.0
  0
MTEXT
  5
247
330
241
100
AcDbEntity
  8
0
  6
Continuous
 62
     7
370
    18
100
AcDbMText
 10
918.9225577885
 20
342.4352682187
 30
0.0
 40
8.4
 41
0.0
 71
     1
 72
     1
  1
R5
  7
SLDTEXTSTYLE0
 11
0.5000000000000054
 21
-0.8660254037844355
 31
0.0
 73
     1
 44
1.0
  0
ENDBLK
  5
243
330
241
100
AcDbEntity
  8
0
100
AcDbBlockEnd
  0
BLOCK
  5
24B
330
24A
100
AcDbEntity
  8
0
100
AcDbBlockBegin
  2
_D_9
 70
     0
 10
0.0
 20
0.0
 30
0.0
  3
_D_9
  1

  0
ARC
  5
24D
330
24A
100
AcDbEntity
  8
0
  6
Continuous
 62
     7
370
    18
100
AcDbCircle
 10
542.4125737052
 20
342.9641992032
 30
0.0
 40
41.50052644375717
100
AcDbArc
 50
0.0
 51
90.0
  0
SOLID
  5
24E
330
24A
100
AcDbEntity
  8
0
  6
Continuous
 62
     7
370
    18
100
AcDbTrace
 10
583.9131001489
 20
342.9641992032
 30
0.0
 11
584.3615859482
 21
351.4511845136
 31
0.0
 12
581.7898453555
 22
351.1935277453
 32
0.0
 13
581.7898453555
 23
351.1935277453
 33
0.0
  0
SOLID
  5
24F
330
24A
100
AcDbEntity
  8
0
  6
Continuous
 62
     7
370
    18
100
AcDbTrace
 10
542.4125737052
 20
384.4647256469
 30
0.0
 11
550.6419022473
 21
382.3414708535
 31
0.0
 12
550.8995590156
 22
384.9132114462
 32
0.0
 13
550.8995590156
 23
384.9132114462
 33
0.0
  0
MTEXT
  5
250
330
24A
100
AcDbEntity
  8
0
  6
Continuous
 62
     7
370
    18
100
AcDbMText
 10
573.441853851
 20
385.9388698751
 30
0.0
 40
8.4
 41
0.0
 71
     1
 72
     1
  1
90°
  7
SLDTEXTSTYLE0
 11
0.7071067811865438
 21
-0.7071067811865512
 31
0.0
 73
     1
 44
1.0
  0
ENDBLK
  5
24C
330
24A
100
AcDbEntity
  8
0
100
AcDbBlockEnd
  0
BLOCK
  5
253
330
252
100
AcDbEntity
  8
0
100
AcDbBlockBegin
  2
_D_10
 70
     0
 10
0.0
 20
0.0
 30
0.0
  3
_D_10
  1

  0
ARC
  5
255
330
252
100
AcDbEntity
  8
0
  6
Continuous
 62
     7
370
    18
100
AcDbCircle
 10
868.2125737052
 20
342.9641992032
 30
0.0
 40
46.67662545851022
100
AcDbArc
 50
90.0
 51
180.0
  0
SOLID
  5
256
330
252
100
AcDbEntity
  8
0
  6
Continuous
 62
     7
370
    18
100
AcDbTrace
 10
868.2125737052
 20
389.6408246617
 30
0.0
 11
859.7309412836
 21
390.1811677343
 31
0.0
 12
859.9607402408
 22
387.6067883672
 32
0.0
 13
859.9607402408
 23
387.6067883672
 33
0.0
  0
SOLID
  5
257
330
252
100
AcDbEntity
  8
0
  6
Continuous
 62
     7
370
    18
100
AcDbTrace
 10
821.5359482467
 20
342.9641992032
 30
0.0
 11
823.5699845411
 21
351.2160326676
 31
0.0
 12
820.9956051741
 22
351.4458316248
 32
0.0
 13
820.9956051741
 23
351.4458316248
 33
0.0
  0
MTEXT
  5
258
330
252
100
AcDbEntity
  8
0
  6
Continuous
 62
     7
370
    18
100
AcDbMText
 10
821.5778483198
 20
377.6535340625
 30
0.0
 40
8.4
 41
0.0
 71
     1
 72
     1
  1
90°
  7
SLDTEXTSTYLE0
 11
0.7071067811865438
 21
0.7071067811865512
 31
0.0
 73
     1
 44
1.0
  0
ENDBLK
  5
254
330
252
100
AcDbEntity
  8
0
100
AcDbBlockEnd
  0
BLOCK
  5
25C
330
25B
100
AcDbEntity
  8
0
100
AcDbBlockBegin
  2
_D_11
 70
     0
 10
0.0
 20
0.0
 30
0.0
  3
_D_11
  1

  0
SOLID
  5
25E
330
25B
100
AcDbEntity
  8
0
  6
Continuous
 62
     7
370
    18
100
AcDbTrace
 10
543.1447146263
 20
343.4174175909
 30
0.0
 11
549.5267612952
 21
349.0298626452
 31
0.0
 12
547.5446600457
 22
350.6886306588
 32
0.0
 13
547.5446600457
 23
350.6886306588
 33
0.0
  0
LINE
  5
25F
330
25B
100
AcDbEntity
  8
0
  6
Continuous
 62
     7
370
     0
100
AcDbLine
 10
543.1447146263
 20
343.4174175909
 30
0.0
 11
561.8371879282
 21
365.7534973715
 31
0.0
  0
MTEXT
  5
260
330
25B
100
AcDbEntity
  8
0
  6
Continuous
 62
     7
370
    18
100
AcDbMText
 10
545.216414547
 20
362.557267848
 30
0.0
 40
8.4
 41
0.0
 71
     1
 72
     1
  1
R2
  7
SLDTEXTSTYLE0
 11
0.6339295394483195
 21
0.7733908061354502
 31
0.0
 73
     1
 44
1.0
  0
ENDBLK
  5
25D
330
25B
100
AcDbEntity
  8
0
100
AcDbBlockEnd
  0
BLOCK
  5
263
330
262
100
AcDbEntity
  8
0
100
AcDbBlockBegin
  2
_D_12
 70
     0
 10
0.0
 20
0.0
 30
0.0
  3
_D_12
  1

  0
SOLID
  5
265
330
262
100
AcDbEntity
  8
0
  6
Continuous
 62
     7
370
    18
100
AcDbTrace
 10
867.6267872676
 20
343.5499856408
 30
0.0
 11
862.512903344
 21
350.3380818679
 31
0.0
 12
860.7090309023
 22
348.487060285
 32
0.0
 13
860.7090309023
 23
348.487060285
 33
0.0
  0
LINE
  5
266
330
262
100
AcDbEntity
  8
0
  6
Continuous
 62
     7
370
     0
100
AcDbLine
 10
867.6267872676
 20
343.5499856408
 30
0.0
 11
848.1468195678
 21
362.5337604517
 31
0.0
  0
MTEXT
  5
267
330
262
100
AcDbEntity
  8
0
  6
Continuous
 62
     7
370
    18
100
AcDbMText
 10
855.8034913055
 20
370.1904321894
 30
0.0
 40
8.4
 41
0.0
 71
     1
 72
     1
  1
R2
  7
SLDTEXTSTYLE0
 11
0.7071067811865447
 21
-0.7071067811865503
 31
0.0
 73
     1
 44
1.0
  0
ENDBLK
  5
264
330
262
100
AcDbEntity
  8
0
100
AcDbBlockEnd
  0
BLOCK
  5
2B1
330
2B0
100
AcDbEntity
  8
0
100
AcDbBlockBegin
  2
_D_13
 70
     0
 10
0.0
 20
0.0
 30
0.0
  3
_D_13
  1

  0
SOLID
  5
2B3
330
2B0
100
AcDbEntity
  8
0
  6
Continuous
 62
     7
370
    18
100
AcDbTrace
 10
870.2125737052
 20
618.1214206482
 30
0.0
 11
861.8125737052
 21
619.4137283405
 31
0.0
 12
861.8125737052
 22
616.8291129559
 32
0.0
 13
861.8125737052
 23
616.8291129559
 33
0.0
  0
SOLID
  5
2B4
330
2B0
100
AcDbEntity
  8
0
  6
Continuous
 62
     7
370
    18
100
AcDbTrace
 10
540.4125737052
 20
618.1214206482
 30
0.0
 11
548.8125737052
 21
616.8291129559
 31
0.0
 12
548.8125737052
 22
619.4137283405
 32
0.0
 13
548.8125737052
 23
619.4137283405
 33
0.0
  0
LINE
  5
2B5
330
2B0
100
AcDbEntity
  8
0
  6
Continuous
 62
     7
370
     0
100
AcDbLine
 10
870.2125737052
 20
657.3284410169
 30
0.0
 11
870.2125737052
 21
615.1214206482
 31
0.0
  0
LINE
  5
2B6
330
2B0
100
AcDbEntity
  8
0
  6
Continuous
 62
     7
370
     0
100
AcDbLine
 10
540.4125737052
 20
657.3284410169
 30
0.0
 11
540.4125737052
 21
615.1214206482
 31
0.0
  0
LINE
  5
2B7
330
2B0
100
AcDbEntity
  8
0
  6
Continuous
 62
     7
370
     0
100
AcDbLine
 10
870.2125737052
 20
618.1214206482
 30
0.0
 11
540.4125737052
 21
618.1214206482
 31
0.0
  0
MTEXT
  5
2B8
330
2B0
100
AcDbEntity
  8
0
  6
Continuous
 62
     7
370
    18
100
AcDbMText
 10
688.244241644
 20
628.9495896623
 30
0.0
 40
8.4
 41
0.0
 71
     1
 72
     1
  1
329,80
  7
SLDTEXTSTYLE0
 73
     1
 44
1.0
  0
ENDBLK
  5
2B2
330
2B0
100
AcDbEntity
  8
0
100
AcDbBlockEnd
  0
BLOCK
  5
2BB
330
2BA
100
AcDbEntity
  8
0
100
AcDbBlockBegin
  2
_D_14
 70
     0
 10
0.0
 20
0.0
 30
0.0
  3
_D_14
  1

  0
SOLID
  5
2BD
330
2BA
100
AcDbEntity
  8
0
  6
Continuous
 62
     7
370
    18
100
AcDbTrace
 10
507.4125737052
 20
606.1214206482
 30
0.0
 11
515.8125737052
 21
604.8291129559
 31
0.0
 12
515.8125737052
 22
607.4137283405
 32
0.0
 13
515.8125737052
 23
607.4137283405
 33
0.0
  0
SOLID
  5
2BE
330
2BA
100
AcDbEntity
  8
0
  6
Continuous
 62
     7
370
    18
100
AcDbTrace
 10
903.2125737052
 20
606.1214206482
 30
0.0
 11
894.8125737052
 21
607.4137283405
 31
0.0
 12
894.8125737052
 22
604.8291129559
 32
0.0
 13
894.8125737052
 23
604.8291129559
 33
0.0
  0
LINE
  5
2BF
330
2BA
100
AcDbEntity
  8
0
  6
Continuous
 62
     7
370
     0
100
AcDbLine
 10
507.4125737052
 20
654.723133094
 30
0.0
 11
507.4125737052
 21
603.1214206482
 31
0.0
  0
LINE
  5
2C0
330
2BA
100
AcDbEntity
  8
0
  6
Continuous
 62
     7
370
     0
100
AcDbLine
 10
903.2125737052
 20
654.723133094
 30
0.0
 11
903.2125737052
 21
603.1214206482
 31
0.0
  0
LINE
  5
2C1
330
2BA
100
AcDbEntity
  8
0
  6
Continuous
 62
     7
370
     0
100
AcDbLine
 10
507.4125737052
 20
606.1214206482
 30
0.0
 11
903.2125737052
 21
606.1214206482
 31
0.0
  0
MTEXT
  5
2C2
330
2BA
100
AcDbEntity
  8
0
  6
Continuous
 62
     7
370
    18
100
AcDbMText
 10
688.244241644
 20
616.9495896623
 30
0.0
 40
8.4
 41
0.0
 71
     1
 72
     1
  1
395,80
  7
SLDTEXTSTYLE0
 73
     1
 44
1.0
  0
ENDBLK
  5
2BC
330
2BA
100
AcDbEntity
  8
0
100
AcDbBlockEnd
  0
BLOCK
  5
2C5
330
2C4
100
AcDbEntity
  8
0
100
AcDbBlockBegin
  2
_D_15
 70
     0
 10
0.0
 20
0.0
 30
0.0
  3
_D_15
  1

  0
SOLID
  5
2C7
330
2C4
100
AcDbEntity
  8
0
  6
Continuous
 62
     7
370
    18
100
AcDbTrace
 10
921.2125737052
 20
657.723133094
 30
0.0
 11
922.5048813975
 21
666.123133094
 31
0.0
 12
919.9202660129
 22
666.123133094
 32
0.0
 13
919.9202660129
 23
666.123133094
 33
0.0
  0
SOLID
  5
2C8
330
2C4
100
AcDbEntity
  8
0
  6
Continuous
 62
     7
370
    18
100
AcDbTrace
 10
921.2125737052
 20
779.623133094
 30
0.0
 11
919.9202660129
 21
771.223133094
 31
0.0
 12
922.5048813975
 22
771.223133094
 32
0.0
 13
922.5048813975
 23
771.223133094
 33
0.0
  0
LINE
  5
2C9
330
2C4
100
AcDbEntity
  8
0
  6
Continuous
 62
     7
370
     0
100
AcDbLine
 10
906.2125737052
 20
657.723133094
 30
0.0
 11
924.2125737052
 21
657.723133094
 31
0.0
  0
LINE
  5
2CA
330
2C4
100
AcDbEntity
  8
0
  6
Continuous
 62
     7
370
     0
100
AcDbLine
 10
873.2125737052
 20
779.623133094
 30
0.0
 11
924.2125737052
 21
779.623133094
 31
0.0
  0
LINE
  5
2CB
330
2C4
100
AcDbEntity
  8
0
  6
Continuous
 62
     7
370
     0
100
AcDbLine
 10
921.2125737052
 20
657.723133094
 30
0.0
 11
921.2125737052
 21
779.623133094
 31
0.0
  0
MTEXT
  5
2CC
330
2C4
100
AcDbEntity
  8
0
  6
Continuous
 62
     7
370
    18
100
AcDbMText
 10
910.3844046911
 20
701.6048010329
 30
0.0
 40
8.4
 41
0.0
 71
     1
 72
     1
  1
121,90
  7
SLDTEXTSTYLE0
 11
6.123233995736766E-17
 21
1.0
 31
0.0
 73
     1
 44
1.0
  0
ENDBLK
  5
2C6
330
2C4
100
AcDbEntity
  8
0
100
AcDbBlockEnd
  0
BLOCK
  5
2D0
330
2CF
100
AcDbEntity
  8
0
100
AcDbBlockBegin
  2
_D_16
 70
     0
 10
0.0
 20
0.0
 30
0.0
  3
_D_16
  1

  0
ARC
  5
2D2
330
2CF
100
AcDbEntity
  8
0
  6
Continuous
 62
     7
370
    18
100
AcDbCircle
 10
870.2125737052
 20
659.723133094
 30
0.0
 40
38.33917588593454
100
AcDbArc
 50
0.0
 51
90.0
  0
SOLID
  5
2D3
330
2CF
100
AcDbEntity
  8
0
  6
Continuous
 62
     7
370
    18
100
AcDbTrace
 10
908.5517495911
 20
659.723133094
 30
0.0
 11
908.9324112392
 21
668.2134308439
 31
0.0
 12
906.3628113769
 22
667.9352344491
 32
0.0
 13
906.3628113769
 23
667.9352344491
 33
0.0
  0
SOLID
  5
2D4
330
2CF
100
AcDbEntity
  8
0
  6
Continuous
 62
     7
370
    18
100
AcDbTrace
 10
870.2125737052
 20
698.06230898
 30
0.0
 11
878.4246750602
 21
695.8733707657
 31
0.0
 12
878.702871455
 22
698.442970628
 32
0.0
 13
878.702871455
 23
698.442970628
 33
0.0
  0
LINE
  5
2D5
330
2CF
100
AcDbEntity
  8
0
  6
Continuous
 62
     7
370
     0
100
AcDbLine
 10
906.2125737052
 20
659.723133094
 30
0.0
 11
911.5517495911
 21
659.723133094
 31
0.0
  0
MTEXT
  5
2D6
330
2CF
100
AcDbEntity
  8
0
  6
Continuous
 62
     7
370
    18
100
AcDbMText
 10
899.0064414339
 20
700.4623913488
 30
0.0
 40
8.4
 41
0.0
 71
     1
 72
     1
  1
90°
  7
SLDTEXTSTYLE0
 11
0.7071067811865441
 21
-0.707106781186551
 31
0.0
 73
     1
 44
1.0
  0
ENDBLK
  5
2D1
330
2CF
100
AcDbEntity
  8
0
100
AcDbBlockEnd
  0
BLOCK
  5
2D9
330
2D8
100
AcDbEntity
  8
0
100
AcDbBlockBegin
  2
_D_17
 70
     0
 10
0.0
 20
0.0
 30
0.0
  3
_D_17
  1

  0
ARC
  5
2DB
330
2D8
100
AcDbEntity
  8
0
  6
Continuous
 62
     7
370
    18
100
AcDbCircle
 10
540.4125737052
 20
659.723133094
 30
0.0
 40
39.34652289017947
100
AcDbArc
 50
90.0
 51
180.0
  0
SOLID
  5
2DC
330
2D8
100
AcDbEntity
  8
0
  6
Continuous
 62
     7
370
    18
100
AcDbTrace
 10
540.4125737052
 20
699.0696559842
 30
0.0
 11
531.9233263368
 21
699.4730643254
 31
0.0
 12
532.1946370027
 22
696.9027283145
 32
0.0
 13
532.1946370027
 23
696.9027283145
 33
0.0
  0
SOLID
  5
2DD
330
2D8
100
AcDbEntity
  8
0
  6
Continuous
 62
     7
370
    18
100
AcDbTrace
 10
501.066050815
 20
659.723133094
 30
0.0
 11
503.2329784847
 21
667.9410697965
 31
0.0
 12
500.6626424738
 22
668.2123804624
 32
0.0
 13
500.6626424738
 23
668.2123804624
 33
0.0
  0
LINE
  5
2DE
330
2D8
100
AcDbEntity
  8
0
  6
Continuous
 62
     7
370
     0
100
AcDbLine
 10
504.4125737052
 20
659.723133094
 30
0.0
 11
498.066050815
 21
659.723133094
 31
0.0
  0
MTEXT
  5
2DF
330
2D8
100
AcDbEntity
  8
0
  6
Continuous
 62
     7
370
    18
100
AcDbMText
 10
498.9610135527
 20
689.2293027205
 30
0.0
 40
8.4
 41
0.0
 71
     1
 72
     1
  1
90°
  7
SLDTEXTSTYLE0
 11
0.7071067811865416
 21
0.7071067811865535
 31
0.0
 73
     1
 44
1.0
  0
ENDBLK
  5
2DA
330
2D8
100
AcDbEntity
  8
0
100
AcDbBlockEnd
  0
BLOCK
  5
2E2
330
2E1
100
AcDbEntity
  8
0
100
AcDbBlockBegin
  2
_D_18
 70
     0
 10
0.0
 20
0.0
 30
0.0
  3
_D_18
  1

  0
SOLID
  5
2E4
330
2E1
100
AcDbEntity
  8
0
  6
Continuous
 62
     7
370
    18
100
AcDbTrace
 10
479.8514318641
 20
657.723133094
 30
0.0
 11
478.5591241718
 21
649.323133094
 31
0.0
 12
481.1437395564
 22
649.323133094
 32
0.0
 13
481.1437395564
 23
649.323133094
 33
0.0
  0
SOLID
  5
2E5
330
2E1
100
AcDbEntity
  8
0
  6
Continuous
 62
     7
370
    18
100
AcDbTrace
 10
479.8514318641
 20
659.723133094
 30
0.0
 11
481.1437395564
 21
668.123133094
 31
0.0
 12
478.5591241718
 22
668.123133094
 32
0.0
 13
478.5591241718
 23
668.123133094
 33
0.0
  0
LINE
  5
2E6
330
2E1
100
AcDbEntity
  8
0
  6
Continuous
 62
     7
370
     0
100
AcDbLine
 10
504.4125737052
 20
657.723133094
 30
0.0
 11
476.8514318641
 21
657.723133094
 31
0.0
  0
LINE
  5
2E7
330
2E1
100
AcDbEntity
  8
0
  6
Continuous
 62
     7
370
     0
100
AcDbLine
 10
504.4125737052
 20
659.723133094
 30
0.0
 11
476.8514318641
 21
659.723133094
 31
0.0
  0
LINE
  5
2E8
330
2E1
100
AcDbEntity
  8
0
  6
Continuous
 62
     7
370
     0
100
AcDbLine
 10
479.8514318641
 20
657.723133094
 30
0.0
 11
479.8514318641
 21
641.5692869402
 31
0.0
  0
LINE
  5
2E9
330
2E1
100
AcDbEntity
  8
0
  6
Continuous
 62
     7
370
     0
100
AcDbLine
 10
479.8514318641
 20
657.723133094
 30
0.0
 11
479.8514318641
 21
659.723133094
 31
0.0
  0
LINE
  5
2EA
330
2E1
100
AcDbEntity
  8
0
  6
Continuous
 62
     7
370
     0
100
AcDbLine
 10
479.8514318641
 20
659.723133094
 30
0.0
 11
479.8514318641
 21
679.2383750848
 31
0.0
  0
MTEXT
  5
2EB
330
2E1
100
AcDbEntity
  8
0
  6
Continuous
 62
     7
370
    18
100
AcDbMText
 10
469.02326285
 20
673.0317084997
 30
0.0
 40
8.4
 41
0.0
 71
     1
 72
     1
  1
2
  7
SLDTEXTSTYLE0
 11
6.123233995736766E-17
 21
1.0
 31
0.0
 73
     1
 44
1.0
  0
ENDBLK
  5
2E3
330
2E1
100
AcDbEntity
  8
0
100
AcDbBlockEnd
  0
BLOCK
  5
2EF
330
2EE
100
AcDbEntity
  8
0
100
AcDbBlockBegin
  2
_D_19
 70
     0
 10
0.0
 20
0.0
 30
0.0
  3
_D_19
  1

  0
SOLID
  5
2F1
330
2EE
100
AcDbEntity
  8
0
  6
Continuous
 62
     7
370
    18
100
AcDbTrace
 10
870.5786272021
 20
660.5697819658
 30
0.0
 11
862.8574988554
 21
657.0181293609
 31
0.0
 12
864.2820940128
 22
654.8615660477
 32
0.0
 13
864.2820940128
 23
654.8615660477
 33
0.0
  0
LINE
  5
2F2
330
2EE
100
AcDbEntity
  8
0
  6
Continuous
 62
     7
370
     0
100
AcDbLine
 10
870.5786272021
 20
660.5697819658
 30
0.0
 11
888.1883688763
 21
672.2025277139
 31
0.0
  0
LINE
  5
2F3
330
2EE
100
AcDbEntity
  8
0
  6
Continuous
 62
     7
370
     0
100
AcDbLine
 10
870.5786272021
 20
660.5697819658
 30
0.0
 11
857.1001064945
 21
651.6660622321
 31
0.0
  0
MTEXT
  5
2F4
330
2EE
100
AcDbEntity
  8
0
  6
Continuous
 62
     7
370
    18
100
AcDbMText
 10
871.3165676868
 20
673.5472639628
 30
0.0
 40
8.4
 41
0.0
 71
     1
 72
     1
  1
R2
  7
SLDTEXTSTYLE0
 11
0.8169732515630317
 21
0.5766755641004111
 31
0.0
 73
     1
 44
1.0
  0
ENDBLK
  5
2F0
330
2EE
100
AcDbEntity
  8
0
100
AcDbBlockEnd
  0
BLOCK
  5
2F7
330
2F6
100
AcDbEntity
  8
0
100
AcDbBlockBegin
  2
_D_20
 70
     0
 10
0.0
 20
0.0
 30
0.0
  3
_D_20
  1

  0
SOLID
  5
2F9
330
2F6
100
AcDbEntity
  8
0
  6
Continuous
 62
     7
370
    18
100
AcDbTrace
 10
540.1446245127
 20
660.723133094
 30
0.0
 11
546.9327386276
 21
655.6092729146
 31
0.0
 12
548.1559514393
 22
657.8861099979
 32
0.0
 13
548.1559514393
 23
657.8861099979
 33
0.0
  0
LINE
  5
2FA
330
2F6
100
AcDbEntity
  8
0
  6
Continuous
 62
     7
370
     0
100
AcDbLine
 10
540.1446245127
 20
660.723133094
 30
0.0
 11
521.5052538855
 21
670.7369883317
 31
0.0
  0
LINE
  5
2FB
330
2F6
100
AcDbEntity
  8
0
  6
Continuous
 62
     7
370
     0
100
AcDbLine
 10
540.1446245127
 20
660.723133094
 30
0.0
 11
554.3748562833
 21
653.0780530214
 31
0.0
  0
MTEXT
  5
2FC
330
2F6
100
AcDbEntity
  8
0
  6
Continuous
 62
     7
370
    18
100
AcDbMText
 10
526.9193383925
 20
680.1144577744
 30
0.0
 40
8.4
 41
0.0
 71
     1
 72
     1
  1
R2
  7
SLDTEXTSTYLE0
 11
0.8660254037844405
 21
-0.4999999999999968
 31
0.0
 73
     1
 44
1.0
  0
ENDBLK
  5
2F8
330
2F6
100
AcDbEntity
  8
0
100
AcDbBlockEnd
  0
BLOCK
  5
32D
330
32C
100
AcDbEntity
  8
0
100
AcDbBlockBegin
  2
_D_21
 70
     0
 10
0.0
 20
0.0
 30
0.0
  3
_D_21
  1

  0
SOLID
  5
32F
330
32C
100
AcDbEntity
  8
0
  6
Continuous
 62
     7
370
    18
100
AcDbTrace
 10
1190.8683865094
 20
646.2825267359
 30
0.0
 11
1194.9557277156
 21
653.7339494884
 31
0.0
 12
1192.5269837111
 22
654.6179400127
 32
0.0
 13
1192.5269837111
 23
654.6179400127
 33
0.0
  0
SOLID
  5
330
330
32C
100
AcDbEntity
  8
0
  6
Continuous
 62
     7
370
    18
100
AcDbTrace
 10
1182.3181275432
 20
622.7908832959
 30
0.0
 11
1178.230786337
 21
615.3394605434
 31
0.0
 12
1180.6595303415
 22
614.4554700191
 32
0.0
 13
1180.6595303415
 23
614.4554700191
 33
0.0
  0
LINE
  5
331
330
32C
100
AcDbEntity
  8
0
  6
Continuous
 62
     7
370
     0
100
AcDbLine
 10
1157.0050098375
 20
658.6077878762
 30
0.0
 11
1193.6874643718
 21
645.2564663059
 31
0.0
  0
LINE
  5
332
330
32C
100
AcDbEntity
  8
0
  6
Continuous
 62
     7
370
     0
100
AcDbLine
 10
1148.5118550409
 20
635.0953602182
 30
0.0
 11
1185.1372054056
 21
621.7648228659
 31
0.0
  0
LINE
  5
333
330
32C
100
AcDbEntity
  8
0
  6
Continuous
 62
     7
370
     0
100
AcDbLine
 10
1190.8683865094
 20
646.2825267359
 30
0.0
 11
1196.3933272862
 21
661.462176764
 31
0.0
  0
LINE
  5
334
330
32C
100
AcDbEntity
  8
0
  6
Continuous
 62
     7
370
     0
100
AcDbLine
 10
1190.8683865094
 20
646.2825267359
 30
0.0
 11
1182.3181275432
 21
622.7908832959
 31
0.0
  0
LINE
  5
335
330
32C
100
AcDbEntity
  8
0
  6
Continuous
 62
     7
370
     0
100
AcDbLine
 10
1182.3181275432
 20
622.7908832959
 30
0.0
 11
1176.7931867664
 21
607.6112332678
 31
0.0
  0
MTEXT
  5
336
330
32C
100
AcDbEntity
  8
0
  6
Continuous
 62
     7
370
    18
100
AcDbMText
 10
1174.2953015122
 20
632.4077981444
 30
0.0
 40
8.4
 41
0.0
 71
     1
 72
     1
  1
25
  7
SLDTEXTSTYLE0
 11
0.3420201433256726
 21
0.939692620785907
 31
0.0
 73
     1
 44
1.0
  0
ENDBLK
  5
32E
330
32C
100
AcDbEntity
  8
0
100
AcDbBlockEnd
  0
BLOCK
  5
339
330
338
100
AcDbEntity
  8
0
100
AcDbBlockBegin
  2
_D_22
 70
     0
 10
0.0
 20
0.0
 30
0.0
  3
_D_22
  1

  0
SOLID
  5
33B
330
338
100
AcDbEntity
  8
0
  6
Continuous
 62
     7
370
    18
100
AcDbTrace
 10
1034.2467009631
 20
570.1214206482
 30
0.0
 11
1042.6467009631
 21
568.8291129559
 31
0.0
 12
1042.6467009631
 22
571.4137283405
 32
0.0
 13
1042.6467009631
 23
571.4137283405
 33
0.0
  0
SOLID
  5
33C
330
338
100
AcDbEntity
  8
0
  6
Continuous
 62
     7
370
    18
100
AcDbTrace
 10
1154.2467009631
 20
570.1214206482
 30
0.0
 11
1145.8467009631
 21
571.4137283405
 31
0.0
 12
1145.8467009631
 22
568.8291129559
 32
0.0
 13
1145.8467009631
 23
568.8291129559
 33
0.0
  0
LINE
  5
33D
330
338
100
AcDbEntity
  8
0
  6
Continuous
 62
     7
370
     0
100
AcDbLine
 10
1034.2467009631
 20
657.3284410169
 30
0.0
 11
1034.2467009631
 21
567.1214206482
 31
0.0
  0
LINE
  5
33E
330
338
100
AcDbEntity
  8
0
  6
Continuous
 62
     7
370
     0
100
AcDbLine
 10
1154.2467009631
 20
657.3284410169
 30
0.0
 11
1154.2467009631
 21
567.1214206482
 31
0.0
  0
LINE
  5
33F
330
338
100
AcDbEntity
  8
0
  6
Continuous
 62
     7
370
     0
100
AcDbLine
 10
1034.2467009631
 20
570.1214206482
 30
0.0
 11
1154.2467009631
 21
570.1214206482
 31
0.0
  0
MTEXT
  5
340
330
338
100
AcDbEntity
  8
0
  6
Continuous
 62
     7
370
    18
100
AcDbMText
 10
1084.9367010855
 20
580.9495896622
 30
0.0
 40
8.4
 41
0.0
 71
     1
 72
     1
  1
120
  7
SLDTEXTSTYLE0
 73
     1
 44
1.0
  0
ENDBLK
  5
33A
330
338
100
AcDbEntity
  8
0
100
AcDbBlockEnd
  0
BLOCK
  5
343
330
342
100
AcDbEntity
  8
0
100
AcDbBlockBegin
  2
_D_23
 70
     0
 10
0.0
 20
0.0
 30
0.0
  3
_D_23
  1

  0
ARC
  5
345
330
342
100
AcDbEntity
  8
0
  6
Continuous
 62
     7
370
    18
100
AcDbCircle
 10
1154.2467009631
 20
659.623133094
 30
0.0
 40
72.14788848231905
100
AcDbArc
 50
250.0
 51
270.0
  0
ARC
  5
346
330
342
100
AcDbEntity
  8
0
  6
Continuous
 62
     7
370
    18
100
AcDbCircle
 10
1154.2467009631
 20
659.623133094
 30
0.0
 40
72.14788848231905
100
AcDbArc
 50
237.2400198423
 51
250.0
  0
ARC
  5
347
330
342
100
AcDbEntity
  8
0
  6
Continuous
 62
     7
370
    18
100
AcDbCircle
 10
1154.2467009631
 20
659.623133094
 30
0.0
 40
72.147888482319
100
AcDbArc
 50
270.0
 51
282.7599801577
  0
SOLID
  5
348
330
342
100
AcDbEntity
  8
0
  6
Continuous
 62
     7
370
    18
100
AcDbTrace
 10
1129.5706698037
 20
591.8262946819
 30
0.0
 11
1122.3684969513
 21
596.3383635394
 31
0.0
 12
1121.3453166173
 22
593.964897995
 32
0.0
 13
1121.3453166173
 23
593.964897995
 33
0.0
  0
SOLID
  5
349
330
342
100
AcDbEntity
  8
0
  6
Continuous
 62
     7
370
    18
100
AcDbTrace
 10
1154.2467009631
 20
587.4752446117
 30
0.0
 11
1162.7074500673
 21
586.6716378881
 31
0.0
 12
1162.5577480835
 22
589.2519142303
 32
0.0
 13
1162.5577480835
 23
589.2519142303
 33
0.0
  0
LINE
  5
34A
330
342
100
AcDbEntity
  8
0
  6
Continuous
 62
     7
370
     0
100
AcDbLine
 10
1144.6667167485
 20
633.3023427858
 30
0.0
 11
1128.5446093737
 21
589.0072168196
 31
0.0
  0
LINE
  5
34B
330
342
100
AcDbEntity
  8
0
  6
Continuous
 62
     7
370
     0
100
AcDbLine
 10
1154.2467009631
 20
657.3284410169
 30
0.0
 11
1154.2467009631
 21
584.4752446117
 31
0.0
  0
MTEXT
  5
34C
330
342
100
AcDbEntity
  8
0
  6
Continuous
 62
     7
370
    18
100
AcDbMText
 10
1135.2803006234
 20
600.7017462194
 30
0.0
 40
8.4
 41
0.0
 71
     1
 72
     1
  1
20°
  7
SLDTEXTSTYLE0
 11
0.9848077530122104
 21
-0.1736481776669173
 31
0.0
 73
     1
 44
1.0
  0
ENDBLK
  5
344
330
342
100
AcDbEntity
  8
0
100
AcDbBlockEnd
  0
BLOCK
  5
34F
330
34E
100
AcDbEntity
  8
0
100
AcDbBlockBegin
  2
_D_24
 70
     0
 10
0.0
 20
0.0
 30
0.0
  3
_D_24
  1

  0
SOLID
  5
351
330
34E
100
AcDbEntity
  8
0
  6
Continuous
 62
     7
370
    18
100
AcDbTrace
 10
1148.5146501555
 20
661.3284410169
 30
0.0
 11
1141.8861906099
 21
666.6476123079
 31
0.0
 12
1140.5938829176
 22
664.4092697258
 32
0.0
 13
1140.5938829176
 23
664.4092697258
 33
0.0
  0
LINE
  5
352
330
34E
100
AcDbEntity
  8
0
  6
Continuous
 62
     7
370
     0
100
AcDbLine
 10
1148.5146501555
 20
661.3284410169
 30
0.0
 11
1127.4289309549
 21
673.5022866734
 31
0.0
  0
LINE
  5
353
330
34E
100
AcDbEntity
  8
0
  6
Continuous
 62
     7
370
     0
100
AcDbLine
 10
1148.5146501555
 20
661.3284410169
 30
0.0
 11
1150.2467009631
 21
660.3284410169
 31
0.0
  0
MTEXT
  5
354
330
34E
100
AcDbEntity
  8
0
  6
Continuous
 62
     7
370
    18
100
AcDbMText
 10
1132.6843941468
 20
682.6050159392
 30
0.0
 40
8.4
 41
0.0
 71
     1
 72
     1
  1
R2
  7
SLDTEXTSTYLE0
 11
0.8660254037844354
 21
-0.5000000000000057
 31
0.0
 73
     1
 44
1.0
  0
ENDBLK
  5
350
330
34E
100
AcDbEntity
  8
0
100
AcDbBlockEnd
  0
BLOCK
  5
387
330
386
100
AcDbEntity
  8
0
100
AcDbBlockBegin
  2
_D_25
 70
     0
 10
0.0
 20
0.0
 30
0.0
  3
_D_25
  1

  0
SOLID
  5
389
330
386
100
AcDbEntity
  8
0
  6
Continuous
 62
     7
370
    18
100
AcDbTrace
 10
291.9534586884
 20
784.8268637994
 30
0.0
 11
290.6611509961
 21
776.4268637994
 31
0.0
 12
293.2457663807
 22
776.4268637994
 32
0.0
 13
293.2457663807
 23
776.4268637994
 33
0.0
  0
SOLID
  5
38A
330
386
100
AcDbEntity
  8
0
  6
Continuous
 62
     7
370
    18
100
AcDbTrace
 10
291.9534586884
 20
222.9843866063
 30
0.0
 11
293.2457663807
 21
231.3843866063
 31
0.0
 12
290.6611509961
 22
231.3843866063
 32
0.0
 13
290.6611509961
 23
231.3843866063
 33
0.0
  0
LINE
  5
38B
330
386
100
AcDbEntity
  8
0
  6
Continuous
 62
     7
370
     0
100
AcDbLine
 10
243.326912169
 20
784.8268637994
 30
0.0
 11
294.9534586884
 21
784.8268637994
 31
0.0
  0
LINE
  5
38C
330
386
100
AcDbEntity
  8
0
  6
Continuous
 62
     7
370
     0
100
AcDbLine
 10
243.326912169
 20
222.9843866063
 30
0.0
 11
294.9534586884
 21
222.9843866063
 31
0.0
  0
LINE
  5
38D
330
386
100
AcDbEntity
  8
0
  6
Continuous
 62
     7
370
     0
100
AcDbLine
 10
291.9534586884
 20
784.8268637994
 30
0.0
 11
291.9534586884
 21
222.9843866063
 31
0.0
  0
MTEXT
  5
38E
330
386
100
AcDbEntity
  8
0
  6
Continuous
 62
     7
370
    18
100
AcDbMText
 10
281.1252896743
 20
489.9406257357
 30
0.0
 40
8.4
 41
0.0
 71
     1
 72
     1
  1
561,8
  7
SLDTEXTSTYLE0
 11
-2.569594183134626E-14
 21
1.0
 31
0.0
 73
     1
 44
1.0
  0
ENDBLK
  5
388
330
386
100
AcDbEntity
  8
0
100
AcDbBlockEnd
  0
BLOCK
  5
397
330
396
100
AcDbEntity
  8
0
100
AcDbBlockBegin
  2
SW_NOTE_0_1
 70
     0
 10
0.0
 20
0.0
 30
0.0
  3
SW_NOTE_0_1
  1

  0
MTEXT
  5
399
330
396
100
AcDbEntity
  8
0
  6
Continuous
 62
     0
370
     0
100
AcDbMText
 10
-38.8902041258
 20
4.5771936574
 30
0.0
 40
9.0
 41
0.0
 71
     2
 72
     1
  1
CPPBPA0043
  7
SLDTEXTSTYLE0
 73
     1
 44
1.0
  0
ENDBLK
  5
398
330
396
100
AcDbEntity
  8
0
100
AcDbBlockEnd
  0
BLOCK
  5
39D
330
39C
100
AcDbEntity
  8
0
100
AcDbBlockBegin
  2
_Dot
 70
     0
 10
0.0
 20
0.0
 30
0.0
  3
_Dot
  1

  0
LWPOLYLINE
  5
39F
330
39C
100
AcDbEntity
  8
0
  6
ByBlock
 62
     0
100
AcDbPolyline
 90
        2
 70
     1
 43
0.5
 10
-0.25
 20
0.0
 42
1.0
 10
0.25
 20
0.0
 42
1.0
  0
LINE
  5
3A0
330
39C
100
AcDbEntity
  8
0
  6
ByBlock
 62
     0
370
    -2
100
AcDbLine
 10
-0.5
 20
0.0
 30
0.0
 11
-1.0
 21
0.0
 31
0.0
  0
ENDBLK
  5
39E
330
39C
100
AcDbEntity
  8
0
100
AcDbBlockEnd
  0
BLOCK
  5
3B4
330
3B3
100
AcDbEntity
  8
0
100
AcDbBlockBegin
  2
_D_26
 70
     0
 10
0.0
 20
0.0
 30
0.0
  3
_D_26
  1

  0
SOLID
  5
3B6
330
3B3
100
AcDbEntity
  8
0
  6
Continuous
 62
     7
370
    18
100
AcDbTrace
 10
121.0322200918
 20
143.3359744509
 30
0.0
 11
129.4322200918
 21
142.0436667586
 31
0.0
 12
129.4322200918
 22
144.6282821432
 32
0.0
 13
129.4322200918
 23
144.6282821432
 33
0.0
  0
SOLID
  5
3B7
330
3B3
100
AcDbEntity
  8
0
  6
Continuous
 62
     7
370
    18
100
AcDbTrace
 10
273.9534586884
 20
143.3359744509
 30
0.0
 11
265.5534586884
 21
144.6282821432
 31
0.0
 12
265.5534586884
 22
142.0436667586
 32
0.0
 13
265.5534586884
 23
142.0436667586
 33
0.0
  0
LINE
  5
3B8
330
3B3
100
AcDbEntity
  8
0
  6
Continuous
 62
     7
370
     0
100
AcDbLine
 10
121.0322200918
 20
158.3359744509
 30
0.0
 11
121.0322200918
 21
140.3359744509
 31
0.0
  0
LINE
  5
3B9
330
3B3
100
AcDbEntity
  8
0
  6
Continuous
 62
     7
370
     0
100
AcDbLine
 10
273.9534586884
 20
158.3359744509
 30
0.0
 11
273.9534586884
 21
140.3359744509
 31
0.0
  0
LINE
  5
3BA
330
3B3
100
AcDbEntity
  8
0
  6
Continuous
 62
     7
370
     0
100
AcDbLine
 10
121.0322200918
 20
143.3359744509
 30
0.0
 11
273.9534586884
 21
143.3359744509
 31
0.0
  0
MTEXT
  5
3BB
330
3B3
100
AcDbEntity
  8
0
  6
Continuous
 62
     7
370
    18
100
AcDbMText
 10
183.527839923
 20
154.164143465
 30
0.0
 40
8.4
 41
0.0
 71
     1
 72
     1
  1
152,9
  7
SLDTEXTSTYLE0
 73
     1
 44
1.0
  0
ENDBLK
  5
3B5
330
3B3
100
AcDbEntity
  8
0
100
AcDbBlockEnd
  0
BLOCK
  5
3BE
330
3BD
100
AcDbEntity
  8
0
100
AcDbBlockBegin
  2
_D_27
 70
     0
 10
0.0
 20
0.0
 30
0.0
  3
_D_27
  1

  0
SOLID
  5
3C0
330
3BD
100
AcDbEntity
  8
0
  6
Continuous
 62
     7
370
    18
100
AcDbTrace
 10
103.0322200918
 20
161.3359744509
 30
0.0
 11
101.7399123995
 21
152.9359744509
 31
0.0
 12
104.3245277841
 22
152.9359744509
 32
0.0
 13
104.3245277841
 23
152.9359744509
 33
0.0
  0
SOLID
  5
3C1
330
3BD
100
AcDbEntity
  8
0
  6
Continuous
 62
     7
370
    18
100
AcDbTrace
 10
103.0322200918
 20
163.3359744509
 30
0.0
 11
104.3245277841
 21
171.7359744509
 31
0.0
 12
101.7399123995
 22
171.7359744509
 32
0.0
 13
101.7399123995
 23
171.7359744509
 33
0.0
  0
LINE
  5
3C2
330
3BD
100
AcDbEntity
  8
0
  6
Continuous
 62
     7
370
     0
100
AcDbLine
 10
118.0322200918
 20
161.3359744509
 30
0.0
 11
100.0322200918
 21
161.3359744509
 31
0.0
  0
LINE
  5
3C3
330
3BD
100
AcDbEntity
  8
0
  6
Continuous
 62
     7
370
     0
100
AcDbLine
 10
118.0322200918
 20
163.3359744509
 30
0.0
 11
100.0322200918
 21
163.3359744509
 31
0.0
  0
LINE
  5
3C4
330
3BD
100
AcDbEntity
  8
0
  6
Continuous
 62
     7
370
     0
100
AcDbLine
 10
103.0322200918
 20
161.3359744509
 30
0.0
 11
103.0322200918
 21
145.182128297
 31
0.0
  0
LINE
  5
3C5
330
3BD
100
AcDbEntity
  8
0
  6
Continuous
 62
     7
370
     0
100
AcDbLine
 10
103.0322200918
 20
161.3359744509
 30
0.0
 11
103.0322200918
 21
163.3359744509
 31
0.0
  0
LINE
  5
3C6
330
3BD
100
AcDbEntity
  8
0
  6
Continuous
 62
     7
370
     0
100
AcDbLine
 10
103.0322200918
 20
163.3359744509
 30
0.0
 11
103.0322200918
 21
181.9234042196
 31
0.0
  0
MTEXT
  5
3C7
330
3BD
100
AcDbEntity
  8
0
  6
Continuous
 62
     7
370
    18
100
AcDbMText
 10
92.2040510778
 20
175.7167376346
 30
0.0
 40
8.4
 41
0.0
 71
     1
 72
     1
  1
2
  7
SLDTEXTSTYLE0
 11
-6.822150412718603E-15
 21
1.0
 31
0.0
 73
     1
 44
1.0
  0
ENDBLK
  5
3BF
330
3BD
100
AcDbEntity
  8
0
100
AcDbBlockEnd
  0
ENDSEC
  0
SECTION
  2
ENTITIES
  0
LINE
  5
6E
330
1F
100
AcDbEntity
  8
0
  6
Continuous
 62
     7
370
    18
100
AcDbLine
 10
1179.0077369101
 20
40.4725313445
 30
0.0
 11
1230.0077369101
 21
40.4725313445
 31
0.0
  0
LINE
  5
6F
330
1F
100
AcDbEntity
  8
0
  6
Continuous
 62
     7
370
    18
100
AcDbLine
 10
1179.0077369101
 20
58.4725313445
 30
0.0
 11
1230.0077369101
 21
58.4725313445
 31
0.0
  0
LINE
  5
70
330
1F
100
AcDbEntity
  8
0
  6
Continuous
 62
     7
370
    18
100
AcDbLine
 10
1179.0077369101
 20
68.9725313445
 30
0.0
 11
1230.0077369101
 21
68.9725313445
 31
0.0
  0
LINE
  5
71
330
1F
100
AcDbEntity
  8
0
  6
Continuous
 62
     7
370
    18
100
AcDbLine
 10
1230.0
 20
861.0
 30
0.0
 11
1230.0
 21
30.0
 31
0.0
  0
LINE
  5
72
330
1F
100
AcDbEntity
  8
0
  6
Continuous
 62
     7
370
    18
100
AcDbLine
 10
668.3984486978
 20
29.9994075627
 30
0.0
 11
1229.9993003434
 21
29.9994075627
 31
0.0
  0
LINE
  5
73
330
1F
100
AcDbEntity
  8
0
  6
Continuous
 62
     7
370
    18
100
AcDbLine
 10
668.3993003434
 20
29.9994075627
 30
0.0
 11
1229.9993003434
 21
29.9994075627
 31
0.0
  0
LINE
  5
74
330
1F
100
AcDbEntity
  8
0
  6
Continuous
 62
     7
370
    18
100
AcDbLine
 10
1179.0077369101
 20
68.9725313445
 30
0.0
 11
1179.0077369101
 21
29.9725313445
 31
0.0
  0
LINE
  5
75
330
1F
100
AcDbEntity
  8
0
  6
Continuous
 62
     7
370
    18
100
AcDbLine
 10
1229.9993003434
 20
162.5994075627
 30
0.0
 11
1229.9993003434
 21
29.9994075627
 31
0.0
  0
LINE
  5
76
330
1F
100
AcDbEntity
  8
0
  6
Continuous
 62
     7
370
    18
100
AcDbLine
 10
668.4077369101
 20
29.9725313445
 30
0.0
 11
1230.0077369101
 21
29.9725313445
 31
0.0
  0
LINE
  5
77
330
1F
100
AcDbEntity
  8
0
  6
Continuous
 62
     7
370
    18
100
AcDbLine
 10
668.4068852645
 20
29.9725313445
 30
0.0
 11
1230.0077369101
 21
29.9725313445
 31
0.0
  0
LINE
  5
78
330
1F
100
AcDbEntity
  8
0
  6
Continuous
 62
     7
370
    18
100
AcDbLine
 10
1230.0077369101
 20
162.5725313445
 30
0.0
 11
1230.0077369101
 21
29.9725313445
 31
0.0
  0
LINE
  5
79
330
1F
100
AcDbEntity
  8
0
  6
Continuous
 62
     7
370
    18
100
AcDbLine
 10
1179.0068852645
 20
114.5697915061
 30
0.0
 11
1179.0068852645
 21
29.9725313445
 31
0.0
  0
LINE
  5
7A
330
1F
100
AcDbEntity
  8
0
  6
Continuous
 62
     7
370
    18
100
AcDbLine
 10
1179.0068852645
 20
68.9725313445
 30
0.0
 11
1230.0077369101
 21
68.9725313445
 31
0.0
  0
LINE
  5
7B
330
1F
100
AcDbEntity
  8
0
  6
Continuous
 62
     7
370
    18
100
AcDbLine
 10
668.4068852645
 20
162.5725313445
 30
0.0
 11
668.4068852645
 21
29.9725313445
 31
0.0
  0
LINE
  5
7C
330
1F
100
AcDbEntity
  8
0
  6
Continuous
 62
     7
370
    18
100
AcDbLine
 10
743.6064620266
 20
114.5697915061
 30
0.0
 11
743.6064620266
 21
96.5725313445
 31
0.0
  0
LINE
  5
7D
330
1F
100
AcDbEntity
  8
0
  6
Continuous
 62
     7
370
    18
100
AcDbLine
 10
668.4068852645
 20
96.5725313445
 30
0.0
 11
846.9068852645
 21
96.5725313445
 31
0.0
  0
LINE
  5
7E
330
1F
100
AcDbEntity
  8
0
  6
Continuous
 62
     7
370
    18
100
AcDbLine
 10
668.4068852645
 20
47.9725313445
 30
0.0
 11
847.1033723873
 21
47.9725313445
 31
0.0
  0
LINE
  5
7F
330
1F
100
AcDbEntity
  8
0
  6
Continuous
 62
     7
370
    18
100
AcDbLine
 10
846.9068852645
 20
96.5725313445
 30
0.0
 11
846.9068852645
 21
29.9725313445
 31
0.0
  0
LINE
  5
80
330
1F
100
AcDbEntity
  8
0
  6
CENTERX2
 62
     7
370
    18
100
AcDbLine
 10
1183.8089471403
 20
83.2430716936
 30
0.0
 11
1224.3019028033
 21
83.2430716936
 31
0.0
  0
LINE
  5
81
330
1F
100
AcDbEntity
  8
0
  6
CENTERX2
 62
     7
370
    18
100
AcDbLine
 10
1214.9882093579
 20
92.9991094173
 30
0.0
 11
1214.9882093579
 21
73.2144571517
 31
0.0
  0
LINE
  5
82
330
1F
100
AcDbEntity
  8
0
  6
Continuous
 62
     7
370
    18
100
AcDbLine
 10
846.9068852645
 20
96.5725313445
 30
0.0
 11
1179.0068852645
 21
96.5725313445
 31
0.0
  0
LINE
  5
83
330
1F
100
AcDbEntity
  8
TESTO
100
AcDbLine
 10
728.2563220441
 20
75.0474585291
 30
0.0
 11
715.6637003109
 21
65.3735686441
 31
0.0
  0
LINE
  5
84
330
1F
100
AcDbEntity
  8
0
  6
Continuous
 62
     7
370
    18
100
AcDbLine
 10
846.9068852645
 20
53.9725313445
 30
0.0
 11
1179.0068852645
 21
53.9725313445
 31
0.0
  0
LINE
  5
85
330
1F
100
AcDbEntity
  8
TESTO
100
AcDbLine
 10
704.2641050287
 20
74.4539851972
 30
0.0
 11
707.9282126271
 21
71.5864227289
 31
0.0
  0
LINE
  5
86
330
1F
100
AcDbEntity
  8
0
  6
Continuous
 62
     7
370
    18
100
AcDbLine
 10
1229.9993003434
 20
29.9994075627
 30
0.0
 11
1229.9993003434
 21
222.5821125627
 31
0.0
  0
LINE
  5
87
330
1F
100
AcDbEntity
  8
0
  6
Continuous
 62
     7
370
    18
100
AcDbLine
 10
1099.8995325788
 20
96.5725313445
 30
0.0
 11
1099.8995325788
 21
82.3725313445
 31
0.0
  0
LINE
  5
88
330
1F
100
AcDbEntity
  8
0
  6
Continuous
 62
     7
370
    18
100
AcDbLine
 10
1099.8995325788
 20
82.3725313445
 30
0.0
 11
1099.8995325788
 21
68.1725313445
 31
0.0
  0
LINE
  5
89
330
1F
100
AcDbEntity
  8
0
  6
Continuous
 62
     7
370
    18
100
AcDbLine
 10
1188.6697367453
 20
86.9072464889
 30
0.0
 11
1188.6697367453
 21
79.4072464889
 31
0.0
  0
LINE
  5
8A
330
1F
100
AcDbEntity
  8
0
  6
Continuous
 62
     7
370
    18
100
AcDbLine
 10
1201.4320587315
 20
89.1572464889
 30
0.0
 11
1201.3709949899
 21
77.1572464889
 31
0.0
  0
LINE
  5
8B
330
1F
100
AcDbEntity
  8
0
  6
Continuous
 62
     7
370
    18
100
AcDbLine
 10
1201.4320587315
 20
89.1572464889
 30
0.0
 11
1188.6697367453
 21
86.9072464889
 31
0.0
  0
LINE
  5
8C
330
1F
100
AcDbEntity
  8
0
  6
Continuous
 62
     7
370
    18
100
AcDbLine
 10
1201.3709949899
 20
77.1572464889
 30
0.0
 11
1188.6697367453
 21
79.4072464889
 31
0.0
  0
LINE
  5
8D
330
1F
100
AcDbEntity
  8
0
  6
Continuous
 62
     7
370
    18
100
AcDbLine
 10
1099.8995325788
 20
68.1725313445
 30
0.0
 11
1099.8995325788
 21
53.9725313445
 31
0.0
  0
LINE
  5
8E
330
1F
100
AcDbEntity
  8
0
  6
Continuous
 62
     7
370
    18
100
AcDbLine
 10
1099.8995325788
 20
82.3725313445
 30
0.0
 11
1179.0068852645
 21
82.3725313445
 31
0.0
  0
LINE
  5
8F
330
1F
100
AcDbEntity
  8
0
  6
Continuous
 62
     7
370
    18
100
AcDbLine
 10
1099.8995325788
 20
68.1725313445
 30
0.0
 11
1179.0068852645
 21
68.1725313445
 31
0.0
  0
LINE
  5
90
330
1F
100
AcDbEntity
  8
0
  6
Continuous
 62
     7
370
    18
100
AcDbLine
 10
1134.9257173242
 20
53.9725313445
 30
0.0
 11
1134.9257173242
 21
29.9725313445
 31
0.0
  0
LINE
  5
91
330
1F
100
AcDbEntity
  8
0
  6
Continuous
 62
     7
370
    18
100
AcDbLine
 10
963.9696463499
 20
53.9725313445
 30
0.0
 11
963.9696463499
 21
29.9725313445
 31
0.0
  0
LINE
  5
92
330
1F
100
AcDbEntity
  8
0
  6
Continuous
 62
     7
370
    18
100
AcDbLine
 10
963.9696463499
 20
41.9725313445
 30
0.0
 11
846.9068852645
 21
41.9725313445
 31
0.0
  0
LINE
  5
93
330
1F
100
AcDbEntity
  8
0
  6
Continuous
 62
     7
370
    18
100
AcDbLine
 10
848.4068852645
 20
162.5725313445
 30
0.0
 11
848.4068852645
 21
138.5725313445
 31
0.0
  0
LINE
  5
94
330
1F
100
AcDbEntity
  8
0
  6
Continuous
 62
     7
370
    18
100
AcDbLine
 10
1245.0
 20
876.0
 30
0.0
 11
15.0
 21
876.0
 31
0.0
  0
LINE
  5
95
330
1F
100
AcDbEntity
  8
0
  6
Continuous
 62
     7
370
    18
100
AcDbLine
 10
1230.0
 20
861.0
 30
0.0
 11
30.0
 21
861.0
 31
0.0
  0
LINE
  5
96
330
1F
100
AcDbEntity
  8
0
  6
Continuous
 62
     7
370
    18
100
AcDbLine
 10
15.0
 20
876.0
 30
0.0
 11
15.0
 21
15.0
 31
0.0
  0
LINE
  5
97
330
1F
100
AcDbEntity
  8
0
  6
Continuous
 62
     7
370
    18
100
AcDbLine
 10
30.0
 20
861.0
 30
0.0
 11
30.0
 21
30.0
 31
0.0
  0
LINE
  5
98
330
1F
100
AcDbEntity
  8
0
  6
Continuous
 62
     7
370
    18
100
AcDbLine
 10
30.0
 20
145.5
 30
0.0
 11
15.0
 21
145.5
 31
0.0
  0
LINE
  5
99
330
1F
100
AcDbEntity
  8
0
  6
Continuous
 62
     7
370
    18
100
AcDbLine
 10
15.0
 20
295.5
 30
0.0
 11
30.0
 21
295.5
 31
0.0
  0
LINE
  5
9A
330
1F
100
AcDbEntity
  8
0
  6
Continuous
 62
     7
370
    18
100
AcDbLine
 10
15.0
 20
595.5
 30
0.0
 11
30.0
 21
595.5
 31
0.0
  0
LINE
  5
9B
330
1F
100
AcDbEntity
  8
0
  6
Continuous
 62
     7
370
    18
100
AcDbLine
 10
15.0
 20
445.5
 30
0.0
 11
45.0
 21
445.5
 31
0.0
  0
LINE
  5
9C
330
1F
100
AcDbEntity
  8
0
  6
Continuous
 62
     7
370
    18
100
AcDbLine
 10
15.0
 20
15.0
 30
0.0
 11
1245.0
 21
15.0
 31
0.0
  0
LINE
  5
9D
330
1F
100
AcDbEntity
  8
0
  6
Continuous
 62
     7
370
    18
100
AcDbLine
 10
30.0
 20
30.0
 30
0.0
 11
1230.0
 21
30.0
 31
0.0
  0
LINE
  5
9E
330
1F
100
AcDbEntity
  8
0
  6
Continuous
 62
     7
370
    18
100
AcDbLine
 10
180.0
 20
15.0
 30
0.0
 11
180.0
 21
30.0
 31
0.0
  0
LINE
  5
9F
330
1F
100
AcDbEntity
  8
0
  6
Continuous
 62
     7
370
    18
100
AcDbLine
 10
330.0
 20
30.0
 30
0.0
 11
330.0
 21
15.0
 31
0.0
  0
LINE
  5
A0
330
1F
100
AcDbEntity
  8
0
  6
Continuous
 62
     7
370
    18
100
AcDbLine
 10
480.0
 20
15.0
 30
0.0
 11
480.0
 21
30.0
 31
0.0
  0
LINE
  5
A1
330
1F
100
AcDbEntity
  8
0
  6
Continuous
 62
     7
370
    18
100
AcDbLine
 10
30.0
 20
745.5
 30
0.0
 11
15.0
 21
745.5
 31
0.0
  0
LINE
  5
A2
330
1F
100
AcDbEntity
  8
0
  6
Continuous
 62
     7
370
    18
100
AcDbLine
 10
180.0
 20
861.0
 30
0.0
 11
180.0
 21
876.0
 31
0.0
  0
LINE
  5
A3
330
1F
100
AcDbEntity
  8
0
  6
Continuous
 62
     7
370
    18
100
AcDbLine
 10
330.0
 20
876.0
 30
0.0
 11
330.0
 21
861.0
 31
0.0
  0
LINE
  5
A4
330
1F
100
AcDbEntity
  8
0
  6
Continuous
 62
     7
370
    18
100
AcDbLine
 10
480.0
 20
861.0
 30
0.0
 11
480.0
 21
876.0
 31
0.0
  0
LINE
  5
A5
330
1F
100
AcDbEntity
  8
0
  6
Continuous
 62
     7
370
    18
100
AcDbLine
 10
780.0
 20
861.0
 30
0.0
 11
780.0
 21
876.0
 31
0.0
  0
LINE
  5
A6
330
1F
100
AcDbEntity
  8
0
  6
Continuous
 62
     7
370
    18
100
AcDbLine
 10
1245.0
 20
15.0
 30
0.0
 11
1245.0
 21
876.0
 31
0.0
  0
LINE
  5
A7
330
1F
100
AcDbEntity
  8
0
  6
Continuous
 62
     7
370
    18
100
AcDbLine
 10
630.0
 20
15.0
 30
0.0
 11
630.0
 21
30.0
 31
0.0
  0
LINE
  5
A8
330
1F
100
AcDbEntity
  8
0
  6
Continuous
 62
     7
370
    18
100
AcDbLine
 10
1230.0
 20
595.5
 30
0.0
 11
1245.0
 21
595.5
 31
0.0
  0
LINE
  5
A9
330
1F
100
AcDbEntity
  8
0
  6
Continuous
 62
     7
370
    18
100
AcDbLine
 10
1230.0
 20
295.5
 30
0.0
 11
1245.0
 21
295.5
 31
0.0
  0
LINE
  5
AA
330
1F
100
AcDbEntity
  8
0
  6
Continuous
 62
     7
370
    18
100
AcDbLine
 10
1245.0
 20
445.5
 30
0.0
 11
1215.0
 21
445.5
 31
0.0
  0
LINE
  5
AB
330
1F
100
AcDbEntity
  8
0
  6
Continuous
 62
     7
370
    18
100
AcDbLine
 10
930.0
 20
876.0
 30
0.0
 11
930.0
 21
861.0
 31
0.0
  0
LINE
  5
AC
330
1F
100
AcDbEntity
  8
0
  6
Continuous
 62
     7
370
    18
100
AcDbLine
 10
1080.0
 20
861.0
 30
0.0
 11
1080.0
 21
876.0
 31
0.0
  0
LINE
  5
AD
330
1F
100
AcDbEntity
  8
0
  6
Continuous
 62
     7
370
    18
100
AcDbLine
 10
668.4068852645
 20
114.5697915061
 30
0.0
 11
1230.0077369101
 21
114.5697915061
 31
0.0
  0
LINE
  5
AE
330
1F
100
AcDbEntity
  8
0
  6
Continuous
 62
     7
370
    18
100
AcDbLine
 10
1245.0
 20
745.5
 30
0.0
 11
1230.0
 21
745.5
 31
0.0
  0
LINE
  5
AF
330
1F
100
AcDbEntity
  8
TESTO
100
AcDbLine
 10
680.8614874929
 20
92.3965555644
 30
0.0
 11
747.0746745451
 21
92.3965555644
 31
0.0
  0
LINE
  5
B0
330
1F
100
AcDbEntity
  8
TESTO
100
AcDbLine
 10
680.8614874929
 20
92.3965555644
 30
0.0
 11
687.0906460429
 21
87.6111983
 31
0.0
  0
LINE
  5
B1
330
1F
100
AcDbEntity
  8
0
  6
Continuous
 62
     7
370
    18
100
AcDbLine
 10
834.1989634887
 20
114.5697915061
 30
0.0
 11
834.1989634887
 21
96.5725313445
 31
0.0
  0
LINE
  5
B2
330
1F
100
AcDbEntity
  8
0
  6
Continuous
 62
     7
370
    18
100
AcDbLine
 10
1028.4562160905
 20
114.5697915061
 30
0.0
 11
1028.4562160905
 21
96.5725313445
 31
0.0
  0
LINE
  5
B3
330
1F
100
AcDbEntity
  8
0
  6
Continuous
 62
     7
370
    18
100
AcDbLine
 10
1108.8416338073
 20
114.5697915061
 30
0.0
 11
1108.8416338073
 21
96.5725313445
 31
0.0
  0
LINE
  5
B4
330
1F
100
AcDbEntity
  8
0
  6
Continuous
 62
     7
370
    18
100
AcDbLine
 10
668.4068852645
 20
138.5725313445
 30
0.0
 11
1230.0077369101
 21
138.5725313445
 31
0.0
  0
LINE
  5
B5
330
1F
100
AcDbEntity
  8
TESTO
100
AcDbLine
 10
747.0746745451
 20
92.3965555644
 30
0.0
 11
740.7908537935
 21
87.5692057641
 31
0.0
  0
LINE
  5
B6
330
1F
100
AcDbEntity
  8
TESTO
100
AcDbLine
 10
696.5500383515
 20
80.3443144443
 30
0.0
 11
701.9712105518
 21
76.1796675563
 31
0.0
  0
LINE
  5
B7
330
1F
100
AcDbEntity
  8
0
  6
Continuous
 62
     7
370
    18
100
AcDbLine
 10
668.4068852645
 20
162.5725313445
 30
0.0
 11
1230.0077369101
 21
162.5725313445
 31
0.0
  0
LINE
  5
B8
330
1F
100
AcDbEntity
  8
0
  6
Continuous
 62
     7
370
    18
100
AcDbLine
 10
780.0
 20
15.0
 30
0.0
 11
780.0
 21
30.0
 31
0.0
  0
LINE
  5
B9
330
1F
100
AcDbEntity
  8
0
  6
Continuous
 62
     7
370
    18
100
AcDbLine
 10
930.0
 20
15.0
 30
0.0
 11
930.0
 21
30.0
 31
0.0
  0
LINE
  5
BA
330
1F
100
AcDbEntity
  8
0
  6
Continuous
 62
     7
370
    18
100
AcDbLine
 10
1080.0
 20
15.0
 30
0.0
 11
1080.0
 21
30.0
 31
0.0
  0
LINE
  5
BB
330
1F
100
AcDbEntity
  8
0
  6
Continuous
 62
     7
370
    18
100
AcDbLine
 10
1230.0
 20
145.5
 30
0.0
 11
1245.0
 21
145.5
 31
0.0
  0
LINE
  5
BC
330
1F
100
AcDbEntity
  8
0
  6
Continuous
 62
     7
370
    18
100
AcDbLine
 10
941.4068852645
 20
162.5725313445
 30
0.0
 11
941.4068852645
 21
138.5725313445
 31
0.0
  0
LINE
  5
BD
330
1F
100
AcDbEntity
  8
0
  6
Continuous
 62
     7
370
    18
100
AcDbLine
 10
1028.4068852645
 20
138.5725313445
 30
0.0
 11
1028.4068852645
 21
114.5697915061
 31
0.0
  0
LINE
  5
BE
330
1F
100
AcDbEntity
  8
0
  6
Continuous
 62
     7
370
    18
100
AcDbLine
 10
1028.4068852645
 20
138.5725313445
 30
0.0
 11
1028.4068852645
 21
162.5725313445
 31
0.0
  0
LINE
  5
BF
330
1F
100
AcDbEntity
  8
0
  6
Continuous
 62
     7
370
    18
100
AcDbLine
 10
1028.4068852645
 20
126.5725313445
 30
0.0
 11
1230.0077369101
 21
126.5725313445
 31
0.0
  0
LINE
  5
C0
330
1F
100
AcDbEntity
  8
0
  6
Continuous
 62
     7
370
    18
100
AcDbLine
 10
927.1392221112
 20
114.5697915061
 30
0.0
 11
927.1392221112
 21
96.5725313445
 31
0.0
  0
LINE
  5
C1
330
1F
100
AcDbEntity
  8
0
  6
Continuous
 62
     7
370
    18
100
AcDbLine
 10
1229.9993003434
 20
222.5994075627
 30
0.0
 11
668.3993003434
 21
222.5994075627
 31
0.0
  0
LINE
  5
C2
330
1F
100
AcDbEntity
  8
0
  6
Continuous
 62
     7
370
    18
100
AcDbLine
 10
716.3993003434
 20
207.5994075627
 30
0.0
 11
716.3993003434
 21
222.5994075627
 31
0.0
  0
LINE
  5
C3
330
1F
100
AcDbEntity
  8
0
  6
Continuous
 62
     7
370
    18
100
AcDbLine
 10
668.3993003434
 20
207.5994075627
 30
0.0
 11
1229.9993003434
 21
207.5994075627
 31
0.0
  0
LINE
  5
C4
330
1F
100
AcDbEntity
  8
0
  6
Continuous
 62
     7
370
    18
100
AcDbLine
 10
1229.9993003434
 20
207.5994075627
 30
0.0
 11
1229.9993003434
 21
222.5994075627
 31
0.0
  0
LINE
  5
C5
330
1F
100
AcDbEntity
  8
0
  6
Continuous
 62
     7
370
    18
100
AcDbLine
 10
668.3993003434
 20
207.5994075627
 30
0.0
 11
668.3993003434
 21
222.5994075627
 31
0.0
  0
LINE
  5
C6
330
1F
100
AcDbEntity
  8
0
  6
Continuous
 62
     7
370
    18
100
AcDbLine
 10
668.3993003434
 20
222.5994075627
 30
0.0
 11
1229.9993003434
 21
222.5994075627
 31
0.0
  0
LINE
  5
C7
330
1F
100
AcDbEntity
  8
0
  6
Continuous
 62
     7
370
    18
100
AcDbLine
 10
1229.9993003434
 20
207.5994075627
 30
0.0
 11
1229.9993003434
 21
222.5994075627
 31
0.0
  0
LINE
  5
C8
330
1F
100
AcDbEntity
  8
0
  6
Continuous
 62
     7
370
    18
100
AcDbLine
 10
1181.9993003434
 20
207.5994075627
 30
0.0
 11
1181.9993003434
 21
222.5994075627
 31
0.0
  0
LINE
  5
C9
330
1F
100
AcDbEntity
  8
0
  6
Continuous
 62
     7
370
    18
100
AcDbLine
 10
1093.2350376449
 20
207.5994075627
 30
0.0
 11
1093.2350376449
 21
222.5994075627
 31
0.0
  0
LINE
  5
CA
330
1F
100
AcDbEntity
  8
0
  6
Continuous
 62
     7
370
    18
100
AcDbLine
 10
668.3993003434
 20
192.5994075627
 30
0.0
 11
1229.9993003434
 21
192.5994075627
 31
0.0
  0
LINE
  5
CB
330
1F
100
AcDbEntity
  8
0
  6
Continuous
 62
     7
370
    18
100
AcDbLine
 10
668.3993003434
 20
177.5994075627
 30
0.0
 11
1229.9993003434
 21
177.5994075627
 31
0.0
  0
LINE
  5
CC
330
1F
100
AcDbEntity
  8
0
  6
Continuous
 62
     7
370
    18
100
AcDbLine
 10
668.3993003434
 20
162.5994075627
 30
0.0
 11
1229.9993003434
 21
162.5994075627
 31
0.0
  0
LINE
  5
CD
330
1F
100
AcDbEntity
  8
0
  6
Continuous
 62
     7
370
    18
100
AcDbLine
 10
668.3993003434
 20
207.5994075627
 30
0.0
 11
668.3993003434
 21
162.5994075627
 31
0.0
  0
LINE
  5
CE
330
1F
100
AcDbEntity
  8
0
  6
Continuous
 62
     7
370
    18
100
AcDbLine
 10
1229.9993003434
 20
207.5994075627
 30
0.0
 11
1229.9993003434
 21
162.5994075627
 31
0.0
  0
LINE
  5
CF
330
1F
100
AcDbEntity
  8
0
  6
Continuous
 62
     7
370
    18
100
AcDbLine
 10
716.3993003434
 20
207.5994075627
 30
0.0
 11
716.3993003434
 21
162.5994075627
 31
0.0
  0
LINE
  5
D0
330
1F
100
AcDbEntity
  8
0
  6
Continuous
 62
     7
370
    18
100
AcDbLine
 10
1093.2350376449
 20
207.5994075627
 30
0.0
 11
1093.2350376449
 21
162.5994075627
 31
0.0
  0
LINE
  5
D1
330
1F
100
AcDbEntity
  8
0
  6
Continuous
 62
     7
370
    18
100
AcDbLine
 10
1181.9993003434
 20
207.5994075627
 30
0.0
 11
1181.9993003434
 21
162.5994075627
 31
0.0
  0
LINE
  5
D2
330
1F
100
AcDbEntity
  8
0
  6
Continuous
 62
     7
370
    18
100
AcDbLine
 10
1229.9993003434
 20
207.5994075627
 30
0.0
 11
1229.9993003434
 21
162.5994075627
 31
0.0
  0
LINE
  5
D3
330
1F
100
AcDbEntity
  8
0
  6
Continuous
 62
     7
370
    18
100
AcDbLine
 10
846.9068852645
 20
63.2725313445
 30
0.0
 11
1099.8995325788
 21
63.2725313445
 31
0.0
  0
LINE
  5
D4
330
1F
100
AcDbEntity
  8
0
  6
Continuous
 62
     7
370
    18
100
AcDbLine
 10
1030.1968206423
 20
63.2725313445
 30
0.0
 11
1030.1968206423
 21
53.9725313445
 31
0.0
  0
LINE
  5
D5
330
1F
100
AcDbEntity
  8
0
  6
Continuous
 62
     7
370
    18
100
AcDbLine
 10
668.4
 20
15.0
 30
0.0
 11
683.4
 21
15.0
 31
0.0
  0
CIRCLE
  5
D6
330
1F
100
AcDbEntity
  8
0
  6
Continuous
 62
     7
370
    18
100
AcDbCircle
 10
1214.9882093579
 20
83.2430716936
 30
0.0
 40
3.750000000000064
  0
CIRCLE
  5
D7
330
1F
100
AcDbEntity
  8
0
  6
Continuous
 62
     7
370
    18
100
AcDbCircle
 10
1214.9882093579
 20
83.2430716936
 30
0.0
 40
6.000000000000145
  0
MTEXT
  5
D8
330
1F
100
AcDbEntity
  8
0
  6
Continuous
 62
     7
370
     0
100
AcDbMText
 10
20.0
 20
374.0040612107
 30
0.0
 40
5.55625
 41
0.0
 71
     1
 72
     1
  1
D
  7
SLDTEXTSTYLE0
 73
     1
 44
1.0
  0
MTEXT
  5
D9
330
1F
100
AcDbEntity
  8
0
  6
Continuous
 62
     7
370
     0
100
AcDbMText
 10
20.0
 20
224.0040612107
 30
0.0
 40
5.55625
 41
0.0
 71
     1
 72
     1
  1
E
  7
SLDTEXTSTYLE0
 73
     1
 44
1.0
  0
MTEXT
  5
DA
330
1F
100
AcDbEntity
  8
0
  6
Continuous
 62
     7
370
     0
100
AcDbMText
 10
20.0
 20
74.0040612107
 30
0.0
 40
5.55625
 41
0.0
 71
     1
 72
     1
  1
F
  7
SLDTEXTSTYLE0
 73
     1
 44
1.0
  0
MTEXT
  5
DB
330
1F
100
AcDbEntity
  8
0
  6
Continuous
 62
     7
370
     0
100
AcDbMText
 10
20.0
 20
524.0040612107
 30
0.0
 40
5.55625
 41
0.0
 71
     1
 72
     1
  1
C
  7
SLDTEXTSTYLE0
 73
     1
 44
1.0
  0
MTEXT
  5
DC
330
1F
100
AcDbEntity
  8
0
  6
Continuous
 62
     7
370
     0
100
AcDbMText
 10
103.75
 20
26.0040732107
 30
0.0
 40
5.55625
 41
0.0
 71
     1
 72
     1
  1
1
  7
SLDTEXTSTYLE0
 73
     1
 44
1.0
  0
MTEXT
  5
DD
330
1F
100
AcDbEntity
  8
0
  6
Continuous
 62
     7
370
     0
100
AcDbMText
 10
252.5
 20
26.0040732107
 30
0.0
 40
5.55625
 41
0.0
 71
     1
 72
     1
  1
2
  7
SLDTEXTSTYLE0
 73
     1
 44
1.0
  0
MTEXT
  5
DE
330
1F
100
AcDbEntity
  8
0
  6
Continuous
 62
     7
370
     0
100
AcDbMText
 10
402.5
 20
26.0040732107
 30
0.0
 40
5.55625
 41
0.0
 71
     1
 72
     1
  1
3
  7
SLDTEXTSTYLE0
 73
     1
 44
1.0
  0
MTEXT
  5
DF
330
1F
100
AcDbEntity
  8
0
  6
Continuous
 62
     7
370
     0
100
AcDbMText
 10
553.6746262157
 20
24.829446995
 30
0.0
 40
5.55625
 41
0.0
 71
     1
 72
     1
  1
4
  7
SLDTEXTSTYLE0
 73
     1
 44
1.0
  0
MTEXT
  5
E0
330
1F
100
AcDbEntity
  8
0
  6
Continuous
 62
     7
370
     0
100
AcDbMText
 10
20.0
 20
674.0040612107
 30
0.0
 40
5.55625
 41
0.0
 71
     1
 72
     1
  1
B
  7
SLDTEXTSTYLE0
 73
     1
 44
1.0
  0
MTEXT
  5
E1
330
1F
100
AcDbEntity
  8
0
  6
Continuous
 62
     7
370
     0
100
AcDbMText
 10
20.0
 20
824.0040612107
 30
0.0
 40
5.55625
 41
0.0
 71
     1
 72
     1
  1
A
  7
SLDTEXTSTYLE0
 73
     1
 44
1.0
  0
MTEXT
  5
E2
330
1F
100
AcDbEntity
  8
0
  6
Continuous
 62
     7
370
     0
100
AcDbMText
 10
402.5
 20
872.0040732107
 30
0.0
 40
5.55625
 41
0.0
 71
     1
 72
     1
  1
3
  7
SLDTEXTSTYLE0
 73
     1
 44
1.0
  0
MTEXT
  5
E3
330
1F
100
AcDbEntity
  8
0
  6
Continuous
 62
     7
370
     0
100
AcDbMText
 10
252.5
 20
872.0040732107
 30
0.0
 40
5.55625
 41
0.0
 71
     1
 72
     1
  1
2
  7
SLDTEXTSTYLE0
 73
     1
 44
1.0
  0
MTEXT
  5
E4
330
1F
100
AcDbEntity
  8
0
  6
Continuous
 62
     7
370
     0
100
AcDbMText
 10
103.75
 20
872.0040732107
 30
0.0
 40
5.55625
 41
0.0
 71
     1
 72
     1
  1
1
  7
SLDTEXTSTYLE0
 73
     1
 44
1.0
  0
MTEXT
  5
E5
330
1F
100
AcDbEntity
  8
0
  6
Continuous
 62
     7
370
     0
100
AcDbMText
 10
702.5
 20
872.0040732107
 30
0.0
 40
5.55625
 41
0.0
 71
     1
 72
     1
  1
5
  7
SLDTEXTSTYLE0
 73
     1
 44
1.0
  0
MTEXT
  5
E6
330
1F
100
AcDbEntity
  8
0
  6
Continuous
 62
     7
370
     0
100
AcDbMText
 10
1235.0
 20
524.0040612107
 30
0.0
 40
5.55625
 41
0.0
 71
     1
 72
     1
  1
C
  7
SLDTEXTSTYLE0
 73
     1
 44
1.0
  0
MTEXT
  5
E7
330
1F
100
AcDbEntity
  8
0
  6
Continuous
 62
     7
370
     0
100
AcDbMText
 10
1235.5057441528
 20
367.191262136
 30
0.0
 40
5.55625
 41
0.0
 71
     1
 72
     1
  1
D
  7
SLDTEXTSTYLE0
 73
     1
 44
1.0
  0
MTEXT
  5
E8
330
1F
100
AcDbEntity
  8
0
  6
Continuous
 62
     7
370
     0
100
AcDbMText
 10
552.5
 20
872.0040732107
 30
0.0
 40
5.55625
 41
0.0
 71
     1
 72
     1
  1
4
  7
SLDTEXTSTYLE0
 73
     1
 44
1.0
  0
MTEXT
  5
E9
330
1F
100
AcDbEntity
  8
0
  6
Continuous
 62
     7
370
     0
100
AcDbMText
 10
852.5
 20
872.0040732107
 30
0.0
 40
5.55625
 41
0.0
 71
     1
 72
     1
  1
6
  7
SLDTEXTSTYLE0
 73
     1
 44
1.0
  0
MTEXT
  5
EA
330
1F
100
AcDbEntity
  8
0
  6
Continuous
 62
     7
370
     0
100
AcDbMText
 10
1002.5
 20
872.0040732107
 30
0.0
 40
5.55625
 41
0.0
 71
     1
 72
     1
  1
7
  7
SLDTEXTSTYLE0
 73
     1
 44
1.0
  0
MTEXT
  5
EB
330
1F
100
AcDbEntity
  8
0
  6
Continuous
 62
     7
370
     0
100
AcDbMText
 10
1152.5
 20
872.0040732107
 30
0.0
 40
5.55625
 41
0.0
 71
     1
 72
     1
  1
8
  7
SLDTEXTSTYLE0
 73
     1
 44
1.0
  0
MTEXT
  5
EC
330
1F
100
AcDbEntity
  8
0
  6
Continuous
 62
     7
370
     0
100
AcDbMText
 10
1235.0
 20
824.0040612107
 30
0.0
 40
5.55625
 41
0.0
 71
     1
 72
     1
  1
A
  7
SLDTEXTSTYLE0
 73
     1
 44
1.0
  0
MTEXT
  5
ED
330
1F
100
AcDbEntity
  8
0
  6
Continuous
 62
     7
370
     0
100
AcDbMText
 10
1235.0
 20
674.0040612107
 30
0.0
 40
5.55625
 41
0.0
 71
     1
 72
     1
  1
B
  7
SLDTEXTSTYLE0
 73
     1
 44
1.0
  0
MTEXT
  5
EE
330
1F
100
AcDbEntity
  8
0
  6
Continuous
 62
     7
370
     0
100
AcDbMText
 10
1196.1236713693
 20
54.588979374
 30
0.0
 40
8.73125
 41
0.0
 71
     1
 72
     1
  1
A3
  7
SLDTEXTSTYLE0
 73
     1
 44
1.0
  0
MTEXT
  5
EF
330
1F
100
AcDbEntity
  8
0
  6
Continuous
 62
     7
370
     0
100
AcDbMText
 10
702.1606230673
 20
24.9699826552
 30
0.0
 40
5.55625
 41
0.0
 71
     1
 72
     1
  1
5
  7
SLDTEXTSTYLE0
 73
     1
 44
1.0
  0
MTEXT
  5
F0
330
1F
100
AcDbEntity
  8
0
  6
Continuous
 62
     7
370
     0
100
AcDbMText
 10
855.7042813261
 20
25.0224711066
 30
0.0
 40
5.55625
 41
0.0
 71
     1
 72
     1
  1
6
  7
SLDTEXTSTYLE0
 73
     1
 44
1.0
  0
MTEXT
  5
F1
330
1F
100
AcDbEntity
  8
0
  6
Continuous
 62
     7
370
     0
100
AcDbMText
 10
1010.6694431263
 20
25.748912768
 30
0.0
 40
5.55625
 41
0.0
 71
     1
 72
     1
  1
7
  7
SLDTEXTSTYLE0
 73
     1
 44
1.0
  0
MTEXT
  5
F2
330
1F
100
AcDbEntity
  8
0
  6
Continuous
 62
     7
370
     0
100
AcDbMText
 10
1168.8862006611
 20
24.3208847591
 30
0.0
 40
5.55625
 41
0.0
 71
     1
 72
     1
  1
8
  7
SLDTEXTSTYLE0
 73
     1
 44
1.0
  0
MTEXT
  5
F3
330
1F
100
AcDbEntity
  8
0
  6
Continuous
 62
     7
370
     0
100
AcDbMText
 10
1235.4997627333
 20
218.8790679648
 30
0.0
 40
5.55625
 41
0.0
 71
     1
 72
     1
  1
E
  7
SLDTEXTSTYLE0
 73
     1
 44
1.0
  0
MTEXT
  5
F4
330
1F
100
AcDbEntity
  8
0
  6
Continuous
 62
     7
370
     0
100
AcDbMText
 10
1236.7020065534
 20
82.375725895
 30
0.0
 40
5.55625
 41
0.0
 71
     1
 72
     1
  1
F
  7
SLDTEXTSTYLE0
 73
     1
 44
1.0
  0
MTEXT
  5
F5
330
1F
100
AcDbEntity
  8
0
  6
Continuous
 62
     7
370
     0
100
AcDbMText
 10
1172.4485553016
 20
66.5850099436
 30
0.0
 40
7.14375
 41
0.0
 71
     3
 72
     1
  1
2
  7
SLDTEXTSTYLE0
 73
     1
 44
1.0
  0
MTEXT
  5
F6
330
1F
100
AcDbEntity
  8
0
  6
Continuous
 62
     7
370
     0
100
AcDbMText
 10
895.6804135497
 20
107.1790562172
 30
0.0
 40
7.9375
 41
0.0
 71
     1
 72
     1
  1
IT10
  7
SLDTEXTSTYLE0
 73
     1
 44
1.0
  0
MTEXT
  5
F7
330
1F
100
AcDbEntity
  8
0
  6
Continuous
 62
     7
370
     0
100
AcDbMText
 10
841.115940116
 20
112.7311875296
 30
0.0
 40
3.96875
 41
0.0
 71
     1
 72
     1
  1
Grado Tolleranza
  7
SLDTEXTSTYLE0
 73
     1
 44
1.0
  0
MTEXT
  5
F8
330
1F
100
AcDbEntity
  8
0
  6
Continuous
 62
     7
370
     0
100
AcDbMText
 10
937.225744486
 20
155.381007768
 30
0.0
 40
7.9375
 41
0.0
 71
     3
 72
     1
  1
1.195
  7
SLDTEXTSTYLE0
 73
     1
 44
1.0
  0
MTEXT
  5
F9
330
1F
100
AcDbEntity
  8
0
  6
Continuous
 62
     7
370
     0
100
AcDbMText
 10
1099.0748636618
 20
61.8264659972
 30
0.0
 40
5.55625
 41
0.0
 71
     3
 72
     1
  1
00
  7
SLDTEXTSTYLE0
 73
     1
 44
1.0
  0
MTEXT
  5
FA
330
1F
100
AcDbEntity
  8
0
  6
Continuous
 62
     7
370
     0
100
AcDbMText
 10
702.4403248251
 20
155.381007768
 30
0.0
 40
7.9375
 41
0.0
 71
     1
 72
     1
  1
1.0037 (S235JR)
  7
SLDTEXTSTYLE0
 73
     1
 44
1.0
  0
MTEXT
  5
FB
330
1F
100
AcDbEntity
  8
0
  6
Continuous
 62
     7
370
     0
100
AcDbMText
 10
886.0156529713
 20
39.2833882146
 30
0.0
 40
5.55625
 41
0.0
 71
     1
 72
     1
  1
02/12/2024
  7
SLDTEXTSTYLE0
 73
     1
 44
1.0
  0
MTEXT
  5
FC
330
1F
100
AcDbEntity
  8
0
  6
Continuous
 62
     7
370
     0
100
AcDbMText
 10
886.0156529713
 20
51.3395156453
 30
0.0
 40
5.55625
 41
0.0
 71
     1
 72
     1
  1
Marco Monaco
  7
SLDTEXTSTYLE0
 73
     1
 44
1.0
  0
MTEXT
  5
FD
330
1F
100
AcDbEntity
  8
0
  6
Continuous
 62
     7
370
     0
100
AcDbMText
 10
855.6391000894
 20
76.1266081008
 30
0.0
 40
6.35
 41
0.0
 71
     1
 72
     1
  1
330x120 H120
  7
SLDTEXTSTYLE0
 73
     1
 44
1.0
  0
MTEXT
  5
FE
330
1F
100
AcDbEntity
  8
0
  6
Continuous
 62
     7
370
     0
100
AcDbMText
 10
855.6391000894
 20
84.7148763515
 30
0.0
 40
6.35
 41
0.0
 71
     1
 72
     1
  1
Lamiera frontale bocca ingresso prodotto
  7
SLDTEXTSTYLE0
 73
     1
 44
1.0
  0
MTEXT
  5
100
330
1F
100
AcDbEntity
  8
TESTO
100
AcDbMText
 10
732.5801428291
 20
91.038088518
 30
0.0
 40
14.4
 41
0.0
 71
     1
 72
     1
  1
A
  7
SLDTEXTSTYLE1
 73
     1
 44
1.0
  0
MTEXT
  5
102
330
1F
100
AcDbEntity
  8
FORMAT
100
AcDbMText
 10
757.5869289366
 20
73.8502241016
 30
0.0
 40
4.05
 41
0.0
 71
     1
 72
     1
  1
Tel. 0341/632080
  7
SLDTEXTSTYLE2
 73
     1
 44
1.0
  0
MTEXT
  5
103
330
1F
100
AcDbEntity
  8
FORMAT
100
AcDbMText
 10
757.9758985469
 20
55.5990557482
 30
0.0
 40
4.05
 41
0.0
 71
     1
 72
     1
  1
E-mail: info@decasrl.biz
  7
SLDTEXTSTYLE2
 73
     1
 44
1.0
  0
MTEXT
  5
104
330
1F
100
AcDbEntity
  8
FORMAT
100
AcDbMText
 10
682.9134848229
 20
63.9930709728
 30
0.0
 40
4.05
 41
0.0
 71
     1
 72
     1
  1
VIBROALIMENTATORI
  7
SLDTEXTSTYLE2
 73
     1
 44
1.0
  0
MTEXT
  5
105
330
1F
100
AcDbEntity
  8
FORMAT
100
AcDbMText
 10
696.9846789815
 20
57.2668110297
 30
0.0
 40
4.05
 41
0.0
 71
     1
 72
     1
  1
ELEVATORI
  7
SLDTEXTSTYLE2
 73
     1
 44
1.0
  0
MTEXT
  5
106
330
1F
100
AcDbEntity
  8
FORMAT
100
AcDbMText
 10
756.9842195016
 20
85.6496544113
 30
0.0
 40
4.05
 41
0.0
 71
     1
 72
     1
  1
23804 Monte Marenzo (Lc)
  7
SLDTEXTSTYLE2
 73
     1
 44
1.0
  0
MTEXT
  5
107
330
1F
100
AcDbEntity
  8
FORMAT
100
AcDbMText
 10
756.9842195016
 20
93.3289385625
 30
0.0
 40
4.05
 41
0.0
 71
     1
 72
     1
  1
Via Della Fontana,6
  7
SLDTEXTSTYLE2
 73
     1
 44
1.0
  0
MTEXT
  5
108
330
1F
100
AcDbEntity
  8
TESTO
100
AcDbMText
 10
717.887041296
 20
91.4580875251
 30
0.0
 40
14.4
 41
0.0
 71
     1
 72
     1
  1
C
  7
SLDTEXTSTYLE1
 73
     1
 44
1.0
  0
MTEXT
  5
109
330
1F
100
AcDbEntity
  8
TESTO
100
AcDbMText
 10
702.4403248251
 20
90.719470466
 30
0.0
 40
14.4
 41
0.0
 71
     1
 72
     1
  1
E
  7
SLDTEXTSTYLE1
 73
     1
 44
1.0
  0
MTEXT
  5
10A
330
1F
100
AcDbEntity
  8
TESTO
100
AcDbMText
 10
708.5478585939
 20
73.5109177605
 30
0.0
 40
6.0
 41
0.0
 71
     1
 72
     1
  1
s.r.l.
  7
SLDTEXTSTYLE1
 73
     1
 44
1.0
  0
MTEXT
  5
10B
330
1F
100
AcDbEntity
  8
TESTO
100
AcDbMText
 10
687.7354249273
 20
91.038088518
 30
0.0
 40
14.4
 41
0.0
 71
     1
 72
     1
  1
D
  7
SLDTEXTSTYLE1
 73
     1
 44
1.0
  0
MTEXT
  5
10C
330
1F
100
AcDbEntity
  8
0
  6
Continuous
 62
     7
370
     0
100
AcDbMText
 10
670.0316310748
 20
44.1482744111
 30
0.0
 40
3.175
 41
0.0
 71
     1
 72
     1
  1
Deca S.r.l. si riserva tutti i diritti sul presente documento e con quanto rappresentato.
  7
SLDTEXTSTYLE0
 73
     1
 44
1.0
  0
MTEXT
  5
10D
330
1F
100
AcDbEntity
  8
0
  6
Continuous
 62
     7
370
     0
100
AcDbMText
 10
670.0316310748
 20
36.9149413357
 30
0.0
 40
3.175
 41
0.0
 71
     1
 72
     1
  1
E' vietato riprodurlo, utilizzarlo e renderlo accessibile a terzi senza autorizzazione scritta
  7
SLDTEXTSTYLE0
 73
     1
 44
1.0
  0
MTEXT
  5
10E
330
1F
100
AcDbEntity
  8
0
  6
Continuous
 62
     7
370
     0
100
AcDbMText
 10
1138.9570956685
 20
51.1752556844
 30
0.0
 40
3.96875
 41
0.0
 71
     1
 72
     1
  1
Revisione
  7
SLDTEXTSTYLE0
 73
     1
 44
1.0
  0
MTEXT
  5
10F
330
1F
100
AcDbEntity
  8
0
  6
Continuous
 62
     7
370
     0
100
AcDbMText
 10
852.4287070696
 20
60.247501324
 30
0.0
 40
3.96875
 41
0.0
 71
     1
 72
     1
  1
Disegno
  7
SLDTEXTSTYLE0
 73
     1
 44
1.0
  0
MTEXT
  5
110
330
1F
100
AcDbEntity
  8
0
  6
Continuous
 62
     7
370
     0
100
AcDbMText
 10
1102.7089467954
 20
90.8115955388
 30
0.0
 40
3.96875
 41
0.0
 71
     1
 72
     1
  1
Lunghezza:
  7
SLDTEXTSTYLE0
 73
     1
 44
1.0
  0
MTEXT
  5
111
330
1F
100
AcDbEntity
  8
0
  6
Continuous
 62
     7
370
     0
100
AcDbMText
 10
1102.7567366273
 20
77.3094116538
 30
0.0
 40
3.96875
 41
0.0
 71
     1
 72
     1
  1
Larghezza:
  7
SLDTEXTSTYLE0
 73
     1
 44
1.0
  0
MTEXT
  5
112
330
1F
100
AcDbEntity
  8
0
  6
Continuous
 62
     7
370
     0
100
AcDbMText
 10
1102.7567366273
 20
63.4270806844
 30
0.0
 40
3.96875
 41
0.0
 71
     1
 72
     1
  1
Sp./Ø:
  7
SLDTEXTSTYLE0
 73
     1
 44
1.0
  0
MTEXT
  5
113
330
1F
100
AcDbEntity
  8
0
  6
Continuous
 62
     7
370
     0
100
AcDbMText
 10
852.4287070696
 20
49.7605509721
 30
0.0
 40
3.96875
 41
0.0
 71
     1
 72
     1
  1
Disegnatore
  7
SLDTEXTSTYLE0
 73
     1
 44
1.0
  0
MTEXT
  5
114
330
1F
100
AcDbEntity
  8
0
  6
Continuous
 62
     7
370
     0
100
AcDbMText
 10
852.4287070696
 20
37.7044235413
 30
0.0
 40
3.96875
 41
0.0
 71
     1
 72
     1
  1
Data
  7
SLDTEXTSTYLE0
 73
     1
 44
1.0
  0
MTEXT
  5
115
330
1F
100
AcDbEntity
  8
0
  6
Continuous
 62
     7
370
     0
100
AcDbMText
 10
852.4287070696
 20
90.8115955388
 30
0.0
 40
3.96875
 41
0.0
 71
     1
 72
     1
  1
Descrizione
  7
SLDTEXTSTYLE0
 73
     1
 44
1.0
  0
MTEXT
  5
116
330
1F
100
AcDbEntity
  8
0
  6
Continuous
 62
     7
370
     0
100
AcDbMText
 10
1192.4213252497
 20
109.8404128667
 30
0.0
 40
3.96875
 41
0.0
 71
     1
 72
     1
  1
Sistema E
  7
SLDTEXTSTYLE0
 73
     1
 44
1.0
  0
MTEXT
  5
118
330
1F
100
AcDbEntity
  8
0
  6
Continuous
 62
     7
370
     0
100
AcDbMText
 10
1192.4213252497
 20
101.5487464708
 30
0.0
 40
3.96875
 41
0.0
 71
     1
 72
     1
  1
UNI  3970
  7
SLDTEXTSTYLE3
 73
     1
 44
1.0
  0
MTEXT
  5
119
330
1F
100
AcDbEntity
  8
0
  6
Continuous
 62
     7
370
     0
100
AcDbMText
 10
671.2429231364
 20
112.7311875296
 30
0.0
 40
3.96875
 41
0.0
 71
     1
 72
     1
  1
Tolleranze generali lineari
  7
SLDTEXTSTYLE0
 73
     1
 44
1.0
  0
MTEXT
  5
11A
330
1F
100
AcDbEntity
  8
0
  6
Continuous
 62
     7
370
     0
100
AcDbMText
 10
930.8783118652
 20
112.7311875296
 30
0.0
 40
3.96875
 41
0.0
 71
     1
 72
     1
  1
Tolleranze angolari
  7
SLDTEXTSTYLE0
 73
     1
 44
1.0
  0
MTEXT
  5
11B
330
1F
100
AcDbEntity
  8
0
  6
Continuous
 62
     7
370
     0
100
AcDbMText
 10
1043.0576271322
 20
112.7311875296
 30
0.0
 40
3.96875
 41
0.0
 71
     1
 72
     1
  1
Smussi non quotati
  7
SLDTEXTSTYLE0
 73
     1
 44
1.0
  0
MTEXT
  5
11C
330
1F
100
AcDbEntity
  8
0
  6
Continuous
 62
     7
370
     0
100
AcDbMText
 10
1119.7455593042
 20
112.7311875296
 30
0.0
 40
3.96875
 41
0.0
 71
     1
 72
     1
  1
Raggi non quotati
  7
SLDTEXTSTYLE0
 73
     1
 44
1.0
  0
MTEXT
  5
11D
330
1F
100
AcDbEntity
  8
0
  6
Continuous
 62
     7
370
     0
100
AcDbMText
 10
748.8361375558
 20
112.7311875296
 30
0.0
 40
3.96875
 41
0.0
 71
     1
 72
     1
  1
Tolleranze generali geometriche
  7
SLDTEXTSTYLE0
 73
     1
 44
1.0
  0
MTEXT
  5
11F
330
1F
100
AcDbEntity
  8
0
  6
Continuous
 62
     7
370
     0
100
AcDbMText
 10
764.7801626239
 20
104.8106093383
 30
0.0
 40
5.55625
 41
0.0
 71
     1
 72
     1
  1
UNI EN 2768 H
  7
SLDTEXTSTYLE4
 73
     1
 44
1.0
  0
MTEXT
  5
120
330
1F
100
AcDbEntity
  8
0
  6
Continuous
 62
     7
370
     0
100
AcDbMText
 10
673.435395005
 20
104.8106093383
 30
0.0
 40
5.55625
 41
0.0
 71
     1
 72
     1
  1
ISO 286-1 ISO 8015
  7
SLDTEXTSTYLE0
 73
     1
 44
1.0
  0
MTEXT
  5
121
330
1F
100
AcDbEntity
  8
0
  6
Continuous
 62
     7
370
     0
100
AcDbMText
 10
671.954109815
 20
136.291322318
 30
0.0
 40
3.96875
 41
0.0
 71
     1
 72
     1
  1
Note
  7
SLDTEXTSTYLE0
 73
     1
 44
1.0
  0
MTEXT
  5
122
330
1F
100
AcDbEntity
  8
0
  6
Continuous
 62
     7
370
     0
100
AcDbMText
 10
671.954109815
 20
158.8907552092
 30
0.0
 40
3.96875
 41
0.0
 71
     1
 72
     1
  1
Materiale
  7
SLDTEXTSTYLE0
 73
     1
 44
1.0
  0
MTEXT
  5
123
330
1F
100
AcDbEntity
  8
0
  6
Continuous
 62
     7
370
     0
100
AcDbMText
 10
851.015393856
 20
158.8907552092
 30
0.0
 40
3.96875
 41
0.0
 71
     1
 72
     1
  1
Peso Kg
  7
SLDTEXTSTYLE0
 73
     1
 44
1.0
  0
MTEXT
  5
124
330
1F
100
AcDbEntity
  8
0
  6
Continuous
 62
     7
370
     0
100
AcDbMText
 10
1031.4068852645
 20
158.8907552092
 30
0.0
 40
3.96875
 41
0.0
 71
     1
 72
     1
  1
Trattamento
  7
SLDTEXTSTYLE0
 73
     1
 44
1.0
  0
MTEXT
  5
125
330
1F
100
AcDbEntity
  8
0
  6
Continuous
 62
     7
370
     0
100
AcDbMText
 10
1031.3800911955
 20
133.6573360186
 30
0.0
 40
3.96875
 41
0.0
 71
     1
 72
     1
  1
Durezza
  7
SLDTEXTSTYLE0
 73
     1
 44
1.0
  0
MTEXT
  5
126
330
1F
100
AcDbEntity
  8
0
  6
Continuous
 62
     7
370
     0
100
AcDbMText
 10
1031.3800911955
 20
120.8988251397
 30
0.0
 40
3.96875
 41
0.0
 71
     1
 72
     1
  1
Profondità
  7
SLDTEXTSTYLE0
 73
     1
 44
1.0
  0
MTEXT
  5
127
330
1F
100
AcDbEntity
  8
0
  6
Continuous
 62
     7
370
     0
100
AcDbMText
 10
944.6033122652
 20
158.8907552092
 30
0.0
 40
3.96875
 41
0.0
 71
     1
 72
     1
  1
Grado di finitura
  7
SLDTEXTSTYLE0
 73
     1
 44
1.0
  0
MTEXT
  5
128
330
1F
100
AcDbEntity
  8
0
  6
Continuous
 62
     7
370
     0
100
AcDbMText
 10
1189.9588772106
 20
66.3316877137
 30
0.0
 40
4.5
 41
0.0
 71
     1
 72
     1
  1
SCALA:1:3
  7
SLDTEXTSTYLE0
 73
     1
 44
1.0
  0
MTEXT
  5
129
330
1F
100
AcDbEntity
  8
0
  6
Continuous
 62
     7
370
     0
100
AcDbMText
 10
1184.1772865375
 20
37.4259766753
 30
0.0
 40
4.5
 41
0.0
 71
     1
 72
     1
  1
FOGLIO 1 DI 1
  7
SLDTEXTSTYLE4
 73
     1
 44
1.0
  0
MTEXT
  5
12A
330
1F
100
AcDbEntity
  8
0
  6
Continuous
 62
     7
370
     0
100
AcDbMText
 10
1183.621828313
 20
202.3292089811
 30
0.0
 40
6.35
 41
0.0
 71
     1
 72
     1
  1
02/12/2024
  7
SLDTEXTSTYLE0
 73
     1
 44
1.0
  0
MTEXT
  5
12B
330
1F
100
AcDbEntity
  8
0
  6
Continuous
 62
     7
370
     0
100
AcDbMText
 10
1096.2341178015
 20
202.3292089811
 30
0.0
 40
6.35
 41
0.0
 71
     1
 72
     1
  1
Marco Monaco
  7
SLDTEXTSTYLE0
 73
     1
 44
1.0
  0
MTEXT
  5
12C
330
1F
100
AcDbEntity
  8
0
  6
Continuous
 62
     7
370
     0
100
AcDbMText
 10
687.8615783862
 20
203.9081732177
 30
0.0
 40
7.9375
 41
0.0
 71
     1
 72
     1
  1
00
  7
SLDTEXTSTYLE0
 73
     1
 44
1.0
  0
MTEXT
  5
12D
330
1F
100
AcDbEntity
  8
0
  6
Continuous
 62
     7
370
     0
100
AcDbMText
 10
721.7437520962
 20
203.9081732177
 30
0.0
 40
7.9375
 41
0.0
 71
     1
 72
     1
  1
EMISSIONE
  7
SLDTEXTSTYLE0
 73
     1
 44
1.0
  0
MTEXT
  5
12F
330
1F
100
AcDbEntity
  8
0
  6
Continuous
 62
     7
370
     0
100
AcDbMText
 10
673.7378028632
 20
218.4858211003
 30
0.0
 40
6.35
 41
0.0
 71
     1
 72
     1
  1
Revisione
  7
SLDTEXTSTYLE5
 73
     1
 44
1.0
  0
MTEXT
  5
130
330
1F
100
AcDbEntity
  8
0
  6
Continuous
 62
     7
370
     0
100
AcDbMText
 10
721.7437520962
 20
218.4308680668
 30
0.0
 40
6.35
 41
0.0
 71
     1
 72
     1
  1
Descrizione revisione
  7
SLDTEXTSTYLE5
 73
     1
 44
1.0
  0
MTEXT
  5
131
330
1F
100
AcDbEntity
  8
0
  6
Continuous
 62
     7
370
     0
100
AcDbMText
 10
1113.2219817109
 20
218.4308680668
 30
0.0
 40
6.35
 41
0.0
 71
     1
 72
     1
  1
Disegnatore
  7
SLDTEXTSTYLE5
 73
     1
 44
1.0
  0
MTEXT
  5
132
330
1F
100
AcDbEntity
  8
0
  6
Continuous
 62
     7
370
     0
100
AcDbMText
 10
1187.3777957792
 20
218.4308680668
 30
0.0
 40
6.35
 41
0.0
 71
     1
 72
     1
  1
Data
  7
SLDTEXTSTYLE5
 73
     1
 44
1.0
  0
MTEXT
  5
133
330
1F
100
AcDbEntity
  8
0
  6
Continuous
 62
     7
370
     0
100
AcDbMText
 10
971.814553354
 20
49.7605509721
 30
0.0
 40
3.96875
 41
0.0
 71
     1
 72
     1
  1
Codice
  7
SLDTEXTSTYLE0
 73
     1
 44
1.0
  0
MTEXT
  5
134
330
1F
100
AcDbEntity
  8
0
  6
Continuous
 62
     7
370
     0
100
AcDbMText
 10
989.1712056358
 20
41.6518349189
 30
0.0
 40
7.9375
 41
0.0
 71
     1
 72
     1
  1
CPPBPA0042
  7
SLDTEXTSTYLE0
 73
     1
 44
1.0
  0
MTEXT
  5
135
330
1F
100
AcDbEntity
  8
0
  6
Continuous
 62
     7
370
     0
100
AcDbMText
 10
1176.3996651856
 20
41.6518349189
 30
0.0
 40
7.9375
 41
0.0
 71
     3
 72
     1
  1
00
  7
SLDTEXTSTYLE0
 73
     1
 44
1.0
  0
MTEXT
  5
136
330
1F
100
AcDbEntity
  8
0
  6
Continuous
 62
     7
370
     0
100
AcDbMText
 10
1033.3077630054
 20
60.247501324
 30
0.0
 40
3.96875
 41
0.0
 71
     1
 72
     1
  1
Revisione disegno
  7
SLDTEXTSTYLE0
 73
     1
 44
1.0
  0
LINE
  5
137
330
1F
100
AcDbEntity
  8
0
  6
Continuous
 62
     7
370
    25
100
AcDbLine
 10
579.4049996246
 20
64.2410486399
 30
0.0
 11
580.1097690902
 21
65.0525372824
 31
0.0
  0
LINE
  5
138
330
1F
100
AcDbEntity
  8
0
  6
Continuous
 62
     7
370
    25
100
AcDbLine
 10
599.5208319294
 20
175.4708890446
 30
0.0
 11
598.2217938237
 21
175.6650033285
 31
0.0
  0
LINE
  5
139
330
1F
100
AcDbEntity
  8
0
  6
Continuous
 62
     7
370
    25
100
AcDbLine
 10
638.8558917723
 20
92.5667553634
 30
0.0
 11
638.8558917723
 21
94.0156441029
 31
0.0
  0
LINE
  5
13A
330
1F
100
AcDbEntity
  8
0
  6
Continuous
 62
     7
370
    25
100
AcDbLine
 10
364.8060508781
 20
198.4045507378
 30
0.0
 11
364.8060508781
 21
111.9821827253
 31
0.0
  0
LINE
  5
13B
330
1F
100
AcDbEntity
  8
0
  6
Continuous
 62
     7
370
    25
100
AcDbLine
 10
386.6084864089
 20
207.2862201639
 30
0.0
 11
385.3094483033
 21
207.4803344477
 31
0.0
  0
LINE
  5
13C
330
1F
100
AcDbEntity
  8
0
  6
Continuous
 62
     7
370
    25
100
AcDbLine
 10
347.7714411873
 20
116.6667941623
 30
0.0
 11
347.7714411873
 21
115.2179054229
 31
0.0
  0
ARC
  5
13D
330
1F
100
AcDbEntity
  8
0
  6
Continuous
 62
     7
370
    25
100
AcDbCircle
 10
576.7796372339
 20
175.1586071089
 30
0.0
 40
8.781419506733787
100
AcDbArc
 50
260.4404372344
 51
287.4938243672
  0
LINE
  5
13E
330
1F
100
AcDbEntity
  8
0
  6
Continuous
 62
     7
370
    25
100
AcDbLine
 10
579.4193582929
 20
166.7833339024
 30
0.0
 11
579.4193582929
 21
80.3609658899
 31
0.0
  0
ARC
  5
13F
330
1F
100
AcDbEntity
  8
0
  6
Continuous
 62
     7
370
    25
100
AcDbCircle
 10
576.7796372339
 20
88.7362390965
 30
0.0
 40
8.781419506734725
100
AcDbArc
 50
260.4404372344
 51
287.4938243672
  0
LINE
  5
140
330
1F
100
AcDbEntity
  8
0
  6
Continuous
 62
     7
370
    25
100
AcDbLine
 10
575.3212820815
 20
80.0767628535
 30
0.0
 11
575.3212820815
 21
166.4991308659
 31
0.0
  0
LINE
  5
141
330
1F
100
AcDbEntity
  8
0
  6
Continuous
 62
     7
370
    25
100
AcDbLine
 10
576.0712820815
 20
166.8353466679
 30
0.0
 11
575.3212820815
 21
166.4991308659
 31
0.0
  0
ARC
  5
142
330
1F
100
AcDbEntity
  8
0
  6
Continuous
 62
     7
370
    25
100
AcDbCircle
 10
576.8004596577
 20
171.1650847894
 30
0.0
 40
4.390709753366802
100
AcDbArc
 50
260.4404372344
 51
287.4938243672
  0
LINE
  5
143
330
1F
100
AcDbEntity
  8
0
  6
Continuous
 62
     7
370
    25
100
AcDbLine
 10
578.1203201872
 20
166.9774481862
 30
0.0
 11
579.4193582929
 21
166.7833339024
 31
0.0
  0
LINE
  5
144
330
1F
100
AcDbEntity
  8
0
  6
Continuous
 62
     7
370
    25
100
AcDbLine
 10
575.3212820815
 20
166.4991308659
 30
0.0
 11
366.3060508781
 21
197.7321191336
 31
0.0
  0
LINE
  5
145
330
1F
100
AcDbEntity
  8
0
  6
Continuous
 62
     7
370
    25
100
AcDbLine
 10
367.0560508781
 20
198.0683349357
 30
0.0
 11
366.3060508781
 21
197.7321191336
 31
0.0
  0
LINE
  5
146
330
1F
100
AcDbEntity
  8
0
  6
Continuous
 62
     7
370
    25
100
AcDbLine
 10
576.0712820815
 20
166.8353466679
 30
0.0
 11
367.0560508781
 21
198.0683349357
 31
0.0
  0
LINE
  5
147
330
1F
100
AcDbEntity
  8
0
  6
Continuous
 62
     7
370
    25
100
AcDbLine
 10
575.3212820815
 20
80.0767628535
 30
0.0
 11
366.3060508781
 21
111.3097511212
 31
0.0
  0
LINE
  5
148
330
1F
100
AcDbEntity
  8
0
  6
Continuous
 62
     7
370
    25
100
AcDbLine
 10
366.3060508781
 20
197.7321191336
 30
0.0
 11
366.3060508781
 21
111.3097511212
 31
0.0
  0
LINE
  5
149
330
1F
100
AcDbEntity
  8
0
  6
Continuous
 62
     7
370
    25
100
AcDbLine
 10
622.9193582929
 20
121.0838571475
 30
0.0
 11
622.9193582929
 21
99.8614824096
 31
0.0
  0
LINE
  5
14A
330
1F
100
AcDbEntity
  8
0
  6
Continuous
 62
     7
370
    25
100
AcDbLine
 10
622.9193582929
 20
99.8614824096
 30
0.0
 11
619.1693582929
 21
98.1804033993
 31
0.0
  0
LINE
  5
14B
330
1F
100
AcDbEntity
  8
0
  6
Continuous
 62
     7
370
    25
100
AcDbLine
 10
619.1693582929
 20
98.1804033993
 30
0.0
 11
619.1693582929
 21
99.1907802221
 31
0.0
  0
LWPOLYLINE
  5
14C
330
1F
100
AcDbEntity
  8
0
  6
Continuous
 62
     7
370
    25
100
AcDbPolyline
 90
        9
 70
   128
 43
0.0
 10
619.1693582929
 20
99.1907802221
 10
619.1550857052
 20
99.3229984251
 10
619.1144408143
 20
99.4222911532
 10
619.0536114364
 20
99.4735419887
 10
618.9818582929
 20
99.4689484564
 10
618.9101051493
 20
99.4092098801
 10
618.8492757714
 20
99.3034209164
 10
618.8086308805
 20
99.167686976
 10
618.7943582929
 20
99.022672321
  0
LINE
  5
14D
330
1F
100
AcDbEntity
  8
0
  6
Continuous
 62
     7
370
    25
100
AcDbLine
 10
618.7943582929
 20
99.022672321
 30
0.0
 11
582.0443582929
 21
82.54809802
 31
0.0
  0
LWPOLYLINE
  5
14E
330
1F
100
AcDbEntity
  8
0
  6
Continuous
 62
     7
370
    25
100
AcDbPolyline
 90
        9
 70
   128
 43
0.0
 10
582.0443582929
 20
82.54809802
 10
582.0300857052
 20
82.6803162229
 10
581.9894408143
 20
82.7796089511
 10
581.9286114364
 20
82.8308597865
 10
581.8568582929
 20
82.8262662543
 10
581.7851051493
 20
82.766527678
 10
581.7242757714
 20
82.6607387143
 10
581.6836308805
 20
82.5250047739
 10
581.6693582929
 20
82.3799901189
  0
LINE
  5
14F
330
1F
100
AcDbEntity
  8
0
  6
Continuous
 62
     7
370
    25
100
AcDbLine
 10
581.6693582929
 20
82.3799901189
 30
0.0
 11
581.6693582929
 21
81.3696132961
 31
0.0
  0
LINE
  5
150
330
1F
100
AcDbEntity
  8
0
  6
Continuous
 62
     7
370
    25
100
AcDbLine
 10
581.6693582929
 20
81.3696132961
 30
0.0
 11
579.4193582929
 21
80.3609658899
 31
0.0
  0
LINE
  5
151
330
1F
100
AcDbEntity
  8
0
  6
Continuous
 62
     7
370
    25
100
AcDbLine
 10
579.4193582929
 20
166.7833339024
 30
0.0
 11
598.4124191985
 21
175.2976901771
 31
0.0
  0
LWPOLYLINE
  5
152
330
1F
100
AcDbEntity
  8
0
  6
Continuous
 62
     7
370
    25
100
AcDbPolyline
 90
        9
 70
   128
 43
0.0
 10
601.5326078023
 20
173.4704831056
 10
601.2541930357
 20
174.0540299967
 10
600.9329443292
 20
174.5471273254
 10
600.5737038515
 20
174.9423426561
 10
600.1818864193
 20
175.2337189244
 10
599.7633978807
 20
175.4168642277
 10
599.3245460962
 20
175.4890180245
 10
598.8719458606
 20
175.4490927436
 10
598.4124191985
 20
175.2976901771
  0
LINE
  5
153
330
1F
100
AcDbEntity
  8
0
  6
Continuous
 62
     7
370
    25
100
AcDbLine
 10
601.5326078023
 20
173.4704831056
 30
0.0
 11
622.9193582929
 21
121.0838571475
 31
0.0
  0
LINE
  5
154
330
1F
100
AcDbEntity
  8
0
  6
Continuous
 62
     7
370
    25
100
AcDbLine
 10
578.1203201872
 20
166.9774481862
 30
0.0
 11
597.1133810929
 21
175.4918044609
 31
0.0
  0
LINE
  5
155
330
1F
100
AcDbEntity
  8
0
  6
Continuous
 62
     7
370
    25
100
AcDbLine
 10
598.4124191985
 20
175.2976901771
 30
0.0
 11
597.1133810929
 21
175.4918044609
 31
0.0
  0
ARC
  5
156
330
1F
100
AcDbEntity
  8
0
  6
Continuous
 62
     7
370
    25
100
AcDbCircle
 10
602.0538357128
 20
89.2059546107
 30
0.0
 40
10.97677438341851
100
AcDbArc
 50
260.4404372344
 51
287.4938243672
  0
LINE
  5
157
330
1F
100
AcDbEntity
  8
0
  6
Continuous
 62
     7
370
    25
100
AcDbLine
 10
583.3433963986
 20
80.9050949967
 30
0.0
 11
600.2308917723
 21
78.381609307
 31
0.0
  0
LINE
  5
158
330
1F
100
AcDbEntity
  8
0
  6
Continuous
 62
     7
370
    25
100
AcDbLine
 10
583.3433963986
 20
80.9050949967
 30
0.0
 11
620.0933963986
 21
97.3796692978
 31
0.0
  0
LINE
  5
159
330
1F
100
AcDbEntity
  8
0
  6
Continuous
 62
     7
370
    25
100
AcDbLine
 10
636.9808917723
 20
94.856183608
 30
0.0
 11
620.0933963986
 21
97.3796692978
 31
0.0
  0
LWPOLYLINE
  5
15A
330
1F
100
AcDbEntity
  8
0
  6
Continuous
 62
     7
370
    25
100
AcDbPolyline
 90
        9
 70
   128
 43
0.0
 10
638.3534870365
 20
93.5303583933
 10
638.656879758
 20
93.7036641449
 10
638.8238100025
 20
93.8889591113
 10
638.8478627345
 20
94.0791225108
 10
638.7281136209
 20
94.2668464708
 10
638.4691645531
 20
94.4449168646
 10
638.0809667984
 20
94.6064905469
 10
637.578438579
 20
94.7453583318
 10
636.9808917723
 20
94.856183608
  0
LINE
  5
15B
330
1F
100
AcDbEntity
  8
0
  6
Continuous
 62
     7
370
    25
100
AcDbLine
 10
605.3534870365
 20
78.7368631025
 30
0.0
 11
638.3534870365
 21
93.5303583933
 31
0.0
  0
LWPOLYLINE
  5
15C
330
1F
100
AcDbEntity
  8
0
  6
Continuous
 62
     7
370
    25
100
AcDbPolyline
 90
       22
 70
   128
 43
0.0
 10
604.4980079399
 20
82.002710851
 10
604.7838770244
 20
82.1912301266
 10
604.8423512225
 20
82.3931824728
 10
604.6682348451
 20
82.5906235372
 10
604.2769988964
 20
82.7660098149
 10
603.7034064073
 20
82.9037574655
 10
602.9984235878
 20
82.9916270056
 10
602.2246912549
 20
83.0218108411
 10
601.4509589221
 20
82.9916270056
 10
600.7459761025
 20
82.9037574655
 10
600.1723836134
 20
82.7660098149
 10
599.7811476647
 20
82.5906235372
 10
599.6070312873
 20
82.3931824728
 10
599.6655054854
 20
82.1912301266
 10
599.95137457
 20
82.002710851
 10
600.4392378183
 20
81.8443754108
 10
601.0857464397
 20
81.7302926048
 10
601.8334553062
 20
81.6705991909
 10
602.6159272036
 20
81.6705991909
 10
603.3636360701
 20
81.7302926048
 10
604.0101446916
 20
81.8443754108
 10
604.4980079399
 20
82.002710851
  0
LWPOLYLINE
  5
15D
330
1F
100
AcDbEntity
  8
0
  6
Continuous
 62
     7
370
    25
100
AcDbPolyline
 90
       22
 70
   128
 43
0.0
 10
626.9980079399
 20
92.0891849129
 10
627.2838770244
 20
92.2777041885
 10
627.3423512225
 20
92.4796565346
 10
627.1682348451
 20
92.6770975991
 10
626.7769988964
 20
92.8524838768
 10
626.2034064073
 20
92.9902315274
 10
625.4984235878
 20
93.0781010675
 10
624.7246912549
 20
93.108284903
 10
623.9509589221
 20
93.0781010675
 10
623.2459761025
 20
92.9902315274
 10
622.6723836134
 20
92.8524838768
 10
622.2811476647
 20
92.6770975991
 10
622.1070312873
 20
92.4796565346
 10
622.1655054854
 20
92.2777041885
 10
622.45137457
 20
92.0891849129
 10
622.9392378183
 20
91.9308494727
 10
623.5857464397
 20
91.8167666667
 10
624.3334553062
 20
91.7570732528
 10
625.1159272036
 20
91.7570732528
 10
625.8636360701
 20
91.8167666667
 10
626.5101446916
 20
91.9308494727
 10
626.9980079399
 20
92.0891849129
  0
LINE
  5
15E
330
1F
100
AcDbEntity
  8
0
  6
Continuous
 62
     7
370
    25
100
AcDbLine
 10
600.2308917723
 20
76.9327205675
 30
0.0
 11
600.2308917723
 21
78.381609307
 31
0.0
  0
LINE
  5
15F
330
1F
100
AcDbEntity
  8
0
  6
Continuous
 62
     7
370
    25
100
AcDbLine
 10
605.3534870365
 20
78.7368631025
 30
0.0
 11
605.3534870365
 21
77.2879743631
 31
0.0
  0
ARC
  5
160
330
1F
100
AcDbEntity
  8
0
  6
Continuous
 62
     7
370
    25
100
AcDbCircle
 10
602.0538357128
 20
87.7570658713
 30
0.0
 40
10.97677438341878
100
AcDbArc
 50
260.4404372344
 51
287.4938243672
  0
LINE
  5
161
330
1F
100
AcDbEntity
  8
0
  6
Continuous
 62
     7
370
    25
100
AcDbLine
 10
583.3433963986
 20
80.9050949967
 30
0.0
 11
583.3433963986
 21
79.4562062573
 31
0.0
  0
LINE
  5
162
330
1F
100
AcDbEntity
  8
0
  6
Continuous
 62
     7
370
    25
100
AcDbLine
 10
583.3433963986
 20
79.4562062573
 30
0.0
 11
600.2308917723
 21
76.9327205675
 31
0.0
  0
LINE
  5
163
330
1F
100
AcDbEntity
  8
0
  6
Continuous
 62
     7
370
    25
100
AcDbLine
 10
638.3534870365
 20
92.0814696539
 30
0.0
 11
638.3534870365
 21
93.5303583933
 31
0.0
  0
LINE
  5
164
330
1F
100
AcDbEntity
  8
0
  6
Continuous
 62
     7
370
    25
100
AcDbLine
 10
605.3534870365
 20
77.2879743631
 30
0.0
 11
638.3534870365
 21
92.0814696539
 31
0.0
  0
LINE
  5
165
330
1F
100
AcDbEntity
  8
0
  6
Continuous
 62
     7
370
    25
100
AcDbLine
 10
577.4155507216
 20
79.7435915313
 30
0.0
 11
576.710781256
 21
78.9321028887
 31
0.0
  0
LINE
  5
166
330
1F
100
AcDbEntity
  8
0
  6
Continuous
 62
     7
370
    25
100
AcDbLine
 10
577.4155507216
 20
79.7435915313
 30
0.0
 11
580.2762959645
 21
65.8419972514
 31
0.0
  0
LINE
  5
167
330
1F
100
AcDbEntity
  8
0
  6
Continuous
 62
     7
370
    25
100
AcDbLine
 10
579.5715264989
 20
65.0305086089
 30
0.0
 11
580.2762959645
 21
65.8419972514
 31
0.0
  0
LINE
  5
168
330
1F
100
AcDbEntity
  8
0
  6
Continuous
 62
     7
370
    25
100
AcDbLine
 10
576.710781256
 20
78.9321028887
 30
0.0
 11
579.5715264989
 21
65.0305086089
 31
0.0
  0
LINE
  5
169
330
1F
100
AcDbEntity
  8
0
  6
Continuous
 62
     7
370
    25
100
AcDbLine
 10
577.4155507216
 20
79.7435915313
 30
0.0
 11
576.1165126159
 21
79.9377058151
 31
0.0
  0
LINE
  5
16A
330
1F
100
AcDbEntity
  8
0
  6
Continuous
 62
     7
370
    25
100
AcDbLine
 10
576.710781256
 20
78.9321028887
 30
0.0
 11
575.4117431503
 21
79.1262171726
 31
0.0
  0
LINE
  5
16B
330
1F
100
AcDbEntity
  8
0
  6
Continuous
 62
     7
370
    25
100
AcDbLine
 10
575.4117431503
 20
79.1262171726
 30
0.0
 11
576.1165126159
 21
79.9377058151
 31
0.0
  0
LINE
  5
16C
330
1F
100
AcDbEntity
  8
0
  6
Continuous
 62
     7
370
    25
100
AcDbLine
 10
366.396511947
 20
110.3592054403
 30
0.0
 11
365.0974738413
 21
110.5533197241
 31
0.0
  0
LINE
  5
16D
330
1F
100
AcDbEntity
  8
0
  6
Continuous
 62
     7
370
    25
100
AcDbLine
 10
575.4117431503
 20
79.1262171726
 30
0.0
 11
366.396511947
 21
110.3592054403
 31
0.0
  0
ARC
  5
16E
330
1F
100
AcDbEntity
  8
0
  6
Continuous
 62
     7
370
    25
100
AcDbCircle
 10
578.7484432603
 20
64.80329518
 30
0.0
 40
0.8538688189690558
100
AcDbArc
 50
255.1081873924
 51
15.4322511668
  0
LINE
  5
16F
330
1F
100
AcDbEntity
  8
0
  6
Continuous
 62
     7
370
    25
100
AcDbLine
 10
578.5290035007
 20
63.9781054128
 30
0.0
 11
369.5137722974
 21
95.2110936805
 31
0.0
  0
ARC
  5
170
330
1F
100
AcDbEntity
  8
0
  6
Continuous
 62
     7
370
    25
100
AcDbCircle
 10
369.8579284031
 20
97.1428406022
 30
0.0
 40
1.962164517727617
100
AcDbArc
 50
194.4948243739
 51
259.8982874846
  0
LINE
  5
171
330
1F
100
AcDbEntity
  8
0
  6
Continuous
 62
     7
370
    25
100
AcDbLine
 10
365.0974738413
 20
110.5533197241
 30
0.0
 11
367.9582190842
 21
96.6517254443
 31
0.0
  0
LWPOLYLINE
  5
172
330
1F
100
AcDbEntity
  8
0
  6
Continuous
 62
     7
370
    25
100
AcDbPolyline
 90
        3
 70
   128
 43
0.0
 10
576.1055897269
 20
79.9951561645
 10
576.1059943685
 20
79.9928505013
 10
576.1165126159
 20
79.9377058151
  0
ARC
  5
173
330
1F
100
AcDbEntity
  8
0
  6
Continuous
 62
     7
370
    25
100
AcDbCircle
 10
580.0698929165
 20
80.0490990208
 30
0.0
 40
4.748691414484344
100
AcDbArc
 50
179.6662175566
 51
191.2064310706
  0
ARC
  5
174
330
1F
100
AcDbEntity
  8
0
  6
Continuous
 62
     7
370
    25
100
AcDbCircle
 10
371.0546617131
 20
111.2820872885
 30
0.0
 40
4.74869141447866
100
AcDbArc
 50
179.6662175566
 51
191.2064310707
  0
LINE
  5
175
330
1F
100
AcDbEntity
  8
0
  6
Continuous
 62
     7
370
    25
100
AcDbLine
 10
582.0443582929
 20
82.54809802
 30
0.0
 11
581.7021203937
 21
82.599238371
 31
0.0
  0
ARC
  5
176
330
1F
100
AcDbEntity
  8
0
  6
Continuous
 62
     7
370
    25
100
AcDbCircle
 10
583.6932962869
 20
82.5167857348
 30
0.0
 40
1.649235267399012
100
AcDbArc
 50
178.9121202896
 51
257.7511024666
  0
ARC
  5
177
330
1F
100
AcDbEntity
  8
0
  6
Continuous
 62
     7
370
    25
100
AcDbCircle
 10
583.9357512138
 20
82.5079527314
 30
0.0
 40
3.108704033726922
100
AcDbArc
 50
206.2041406572
 51
259.0152807597
  0
ARC
  5
178
330
1F
100
AcDbEntity
  8
0
  6
Continuous
 62
     7
370
    25
100
AcDbCircle
 10
620.4432962869
 20
98.9913600359
 30
0.0
 40
1.649235267399241
100
AcDbArc
 50
178.9121202896
 51
257.7511024666
  0
ARC
  5
179
330
1F
100
AcDbEntity
  8
0
  6
Continuous
 62
     7
370
    25
100
AcDbCircle
 10
579.4071517571
 20
65.6130391533
 30
0.0
 40
0.8987955629618243
100
AcDbArc
 50
321.4194385544
 51
14.758108051
  0
ARC
  5
17A
330
1F
100
AcDbEntity
  8
0
  6
Continuous
 62
     7
370
    25
100
AcDbCircle
 10
597.956089751
 20
173.7320892007
 30
0.0
 40
1.951090894715661
100
AcDbArc
 50
82.1730070781
 51
115.5892576842
  0
ARC
  5
17B
330
1F
100
AcDbEntity
  8
0
  6
Continuous
 62
     7
370
    25
100
AcDbCircle
 10
638.2211883625
 20
92.7211420025
 30
0.0
 40
0.6532102668622364
100
AcDbArc
 50
281.6853038369
 51
346.3287505543
  0
LINE
  5
17C
330
1F
100
AcDbEntity
  8
0
  6
Continuous
 62
     7
370
    25
100
AcDbLine
 10
618.8271203937
 20
99.2419205731
 30
0.0
 11
619.1693582929
 21
99.1907802221
 31
0.0
  0
LINE
  5
17D
330
1F
100
AcDbEntity
  8
0
  6
Continuous
 62
     7
370
    25
100
AcDbLine
 10
619.0022539855
 20
98.2053736698
 30
0.0
 11
619.1693582929
 21
98.1804033993
 31
0.0
  0
LWPOLYLINE
  5
17E
330
1F
100
AcDbEntity
  8
0
  6
Continuous
 62
     7
370
    25
100
AcDbPolyline
 90
        7
 70
   128
 43
0.0
 10
366.3060508781
 20
111.3097511212
 10
365.8280134328
 20
111.3984113422
 10
365.4259908573
 20
111.5095055701
 10
365.1154326535
 20
111.638764516
 10
364.9082733993
 20
111.781220831
 10
364.8124741084
 20
111.931399999
 10
364.8060508781
 20
111.9821827253
  0
LWPOLYLINE
  5
17F
330
1F
100
AcDbEntity
  8
0
  6
Continuous
 62
     7
370
    25
100
AcDbPolyline
 90
        9
 70
   128
 43
0.0
 10
365.2079746668
 20
198.7927793054
 10
364.9652604897
 20
198.6541347042
 10
364.831716294
 20
198.505898731
 10
364.8124741084
 20
198.3537680114
 10
364.9082733993
 20
198.2035888434
 10
365.1154326535
 20
198.0611325284
 10
365.4259908573
 20
197.9318735825
 10
365.8280134328
 20
197.8207793546
 10
366.3060508781
 20
197.7321191336
  0
LINE
  5
180
330
1F
100
AcDbEntity
  8
0
  6
Continuous
 62
     7
370
    25
100
AcDbLine
 10
366.5070127725
 20
198.5986650216
 30
0.0
 11
365.2079746668
 21
198.7927793054
 31
0.0
  0
LWPOLYLINE
  5
181
330
1F
100
AcDbEntity
  8
0
  6
Continuous
 62
     7
370
    25
100
AcDbPolyline
 90
        9
 70
   128
 43
0.0
 10
366.5070127725
 20
198.5986650216
 10
366.3856556839
 20
198.529342721
 10
366.3188835861
 20
198.4552247344
 10
366.3092624933
 20
198.3791593746
 10
366.3571621387
 20
198.3040697906
 10
366.4607417658
 20
198.2328416331
 10
366.6160208677
 20
198.1682121601
 10
366.8170321555
 20
198.1126650462
 10
367.0560508781
 20
198.0683349357
  0
LINE
  5
182
330
1F
100
AcDbEntity
  8
0
  6
Continuous
 62
     7
370
    25
100
AcDbLine
 10
366.5070127725
 20
198.2104364539
 30
0.0
 11
366.5070127725
 21
198.5986650216
 31
0.0
  0
LINE
  5
183
330
1F
100
AcDbEntity
  8
0
  6
Continuous
 62
     7
370
    25
100
AcDbLine
 10
384.2010355725
 20
207.3071355801
 30
0.0
 11
365.2079746668
 21
198.7927793054
 31
0.0
  0
LINE
  5
184
330
1F
100
AcDbEntity
  8
0
  6
Continuous
 62
     7
370
    25
100
AcDbLine
 10
385.5000736781
 20
207.1130212963
 30
0.0
 11
384.2010355725
 21
207.3071355801
 31
0.0
  0
LINE
  5
185
330
1F
100
AcDbEntity
  8
0
  6
Continuous
 62
     7
370
    25
100
AcDbLine
 10
385.5000736781
 20
207.1130212963
 30
0.0
 11
366.5070127725
 21
198.5986650216
 31
0.0
  0
LWPOLYLINE
  5
186
330
1F
100
AcDbEntity
  8
0
  6
Continuous
 62
     7
370
    25
100
AcDbPolyline
 90
        9
 70
   128
 43
0.0
 10
388.6202622819
 20
205.2858142248
 10
388.3418475153
 20
205.8693611159
 10
388.0205988088
 20
206.3624584447
 10
387.661358331
 20
206.7576737753
 10
387.2695408989
 20
207.0490500436
 10
386.8510523603
 20
207.2321953469
 10
386.4122005758
 20
207.3043491437
 10
385.9596003402
 20
207.2644238628
 10
385.5000736781
 20
207.1130212963
  0
LINE
  5
187
330
1F
100
AcDbEntity
  8
0
  6
Continuous
 62
     7
370
    25
100
AcDbLine
 10
388.6202622819
 20
205.2858142248
 30
0.0
 11
393.1591877309
 21
194.1677628942
 31
0.0
  0
LINE
  5
188
330
1F
100
AcDbEntity
  8
0
  6
Continuous
 62
     7
370
    25
100
AcDbLine
 10
365.0974738413
 20
110.5533197241
 30
0.0
 11
365.8022433069
 21
111.3648083667
 31
0.0
  0
LINE
  5
189
330
1F
100
AcDbEntity
  8
0
  6
Continuous
 62
     7
370
    25
100
AcDbLine
 10
366.3060874975
 20
111.2895193095
 30
0.0
 11
365.8022433069
 21
111.3648083667
 31
0.0
  0
LINE
  5
18A
330
1F
100
AcDbEntity
  8
0
  6
Continuous
 62
     7
370
    25
100
AcDbLine
 10
349.6464411873
 20
114.3773659177
 30
0.0
 11
364.8060508781
 21
112.1120768817
 31
0.0
  0
LINE
  5
18B
330
1F
100
AcDbEntity
  8
0
  6
Continuous
 62
     7
370
    25
100
AcDbLine
 10
349.6464411873
 20
115.8262546572
 30
0.0
 11
349.6464411873
 21
114.3773659177
 31
0.0
  0
LINE
  5
18C
330
1F
100
AcDbEntity
  8
0
  6
Continuous
 62
     7
370
    25
100
AcDbLine
 10
349.6464411873
 20
115.8262546572
 30
0.0
 11
364.8060508781
 21
113.5609656211
 31
0.0
  0
LWPOLYLINE
  5
18D
330
1F
100
AcDbEntity
  8
0
  6
Continuous
 62
     7
370
    25
100
AcDbPolyline
 90
        9
 70
   128
 43
0.0
 10
348.2738459231
 20
117.1520798719
 10
347.9704532017
 20
116.9787741203
 10
347.8035229572
 20
116.7934791539
 10
347.7794702252
 20
116.6033157544
 10
347.8992193387
 20
116.4155917944
 10
348.1581684066
 20
116.2375214006
 10
348.5463661612
 20
116.0759477182
 10
349.0488943807
 20
115.9370799334
 10
349.6464411873
 20
115.8262546572
  0
LINE
  5
18E
330
1F
100
AcDbEntity
  8
0
  6
Continuous
 62
     7
370
    25
100
AcDbLine
 10
364.8060508781
 20
124.5632646036
 30
0.0
 11
348.2738459231
 21
117.1520798719
 31
0.0
  0
LWPOLYLINE
  5
18F
330
1F
100
AcDbEntity
  8
0
  6
Continuous
 62
     7
370
    25
100
AcDbPolyline
 90
       22
 70
   128
 43
0.0
 10
359.6293250198
 20
118.5932533523
 10
360.1171882681
 20
118.7515887925
 10
360.7636968896
 20
118.8656715985
 10
361.511405756
 20
118.9253650124
 10
362.2938776535
 20
118.9253650124
 10
363.0415865199
 20
118.8656715985
 10
363.6880951414
 20
118.7515887925
 10
364.1759583897
 20
118.5932533523
 10
364.4618274742
 20
118.4047340767
 10
364.5203016723
 20
118.2027817306
 10
364.3461852949
 20
118.0053406661
 10
363.9549493462
 20
117.8299543884
 10
363.3813568572
 20
117.6922067378
 10
362.6763740376
 20
117.6043371977
 10
361.9026417047
 20
117.5741533622
 10
361.1289093719
 20
117.6043371977
 10
360.4239265523
 20
117.6922067378
 10
359.8503340633
 20
117.8299543884
 10
359.4590981146
 20
118.0053406661
 10
359.2849817371
 20
118.2027817306
 10
359.3434559353
 20
118.4047340767
 10
359.6293250198
 20
118.5932533523
  0
ARC
  5
190
330
1F
100
AcDbEntity
  8
0
  6
Continuous
 62
     7
370
    25
100
AcDbCircle
 10
385.0437442306
 20
205.5474203199
 30
0.0
 40
1.951090894714988
100
AcDbArc
 50
82.1730070781
 51
115.5892576842
  0
LWPOLYLINE
  5
191
330
1F
100
AcDbEntity
  8
0
  6
Continuous
 62
     7
370
    25
100
AcDbPolyline
 90
        7
 70
   128
 43
0.0
 10
349.6464411873
 20
114.3773659177
 10
349.0488943807
 20
114.488191194
 10
348.5463661612
 20
114.6270589788
 10
348.1581684066
 20
114.7886326611
 10
347.8992193387
 20
114.966703055
 10
347.7794702252
 20
115.1544270149
 10
347.7714411873
 20
115.2179054229
  0
INSERT
  5
192
330
1F
100
AcDbEntity
  8
0
  6
Continuous
 62
     7
100
AcDbBlockReference
  2
Particolare privo di bave e dif.sup.
 10
672.9400135478
 20
228.0296088061
 30
0.0
 41
0.1
 42
0.1
 43
0.1
  0
LINE
  5
193
330
1F
100
AcDbEntity
  8
0
  6
Continuous
 62
     7
370
    25
100
AcDbLine
 10
866.2125737052
 20
340.9641992032
 30
0.0
 11
544.4125737052
 21
340.9641992032
 31
0.0
  0
LINE
  5
194
330
1F
100
AcDbEntity
  8
0
  6
Continuous
 62
     7
370
    25
100
AcDbLine
 10
866.2125737052
 20
342.9641992032
 30
0.0
 11
544.4125737052
 21
342.9641992032
 31
0.0
  0
LINE
  5
195
330
1F
100
AcDbEntity
  8
0
  6
Continuous
 62
     7
370
    25
100
AcDbLine
 10
868.2125737052
 20
344.9641992032
 30
0.0
 11
868.2125737052
 21
395.6123616183
 31
0.0
  0
LINE
  5
196
330
1F
100
AcDbEntity
  8
0
  6
Continuous
 62
     7
370
    25
100
AcDbLine
 10
870.2125737052
 20
344.9641992032
 30
0.0
 11
870.2125737052
 21
395.6123616183
 31
0.0
  0
LINE
  5
197
330
1F
100
AcDbEntity
  8
0
  6
Continuous
 62
     7
370
    25
100
AcDbLine
 10
870.2125737052
 20
403.9328645617
 30
0.0
 11
870.2125737052
 21
395.6123616183
 31
0.0
  0
LINE
  5
198
330
1F
100
AcDbEntity
  8
0
  6
Continuous
 62
     7
370
    25
100
AcDbLine
 10
868.2125737052
 20
395.6123616183
 30
0.0
 11
868.2125737052
 21
403.9328645617
 31
0.0
  0
ARC
  5
199
330
1F
100
AcDbEntity
  8
0
  6
Continuous
 62
     7
370
    25
100
AcDbCircle
 10
866.2125737052
 20
344.9641992032
 30
0.0
 40
2.0
100
AcDbArc
 50
270.0
 51
0.0
  0
ARC
  5
19A
330
1F
100
AcDbEntity
  8
0
  6
Continuous
 62
     7
370
    25
100
AcDbCircle
 10
866.2125737052
 20
344.9641992032
 30
0.0
 40
4.000000000000114
100
AcDbArc
 50
270.0
 51
0.0
  0
ARC
  5
19B
330
1F
100
AcDbEntity
  8
0
  6
Continuous
 62
     7
370
    25
100
AcDbCircle
 10
544.4125737052
 20
344.9641992032
 30
0.0
 40
4.000000000000057
100
AcDbArc
 50
180.0
 51
270.0
  0
ARC
  5
19C
330
1F
100
AcDbEntity
  8
0
  6
Continuous
 62
     7
370
    25
100
AcDbCircle
 10
544.4125737052
 20
344.9641992032
 30
0.0
 40
2.000000000000057
100
AcDbArc
 50
180.0
 51
270.0
  0
LINE
  5
19D
330
1F
100
AcDbEntity
  8
0
  6
Continuous
 62
     7
370
    25
100
AcDbLine
 10
542.4125737052
 20
403.9328645617
 30
0.0
 11
542.4125737052
 21
395.6123616183
 31
0.0
  0
LINE
  5
19E
330
1F
100
AcDbEntity
  8
0
  6
Continuous
 62
     7
370
    25
100
AcDbLine
 10
540.4125737052
 20
395.6123616183
 30
0.0
 11
540.4125737052
 21
403.9328645617
 31
0.0
  0
LINE
  5
19F
330
1F
100
AcDbEntity
  8
0
  6
Continuous
 62
     7
370
    25
100
AcDbLine
 10
540.4125737052
 20
395.6123616183
 30
0.0
 11
540.4125737052
 21
344.9641992032
 31
0.0
  0
LINE
  5
1A0
330
1F
100
AcDbEntity
  8
0
  6
Continuous
 62
     7
370
    25
100
AcDbLine
 10
542.4125737052
 20
395.6123616183
 30
0.0
 11
542.4125737052
 21
344.9641992032
 31
0.0
  0
LINE
  5
1A1
330
1F
100
AcDbEntity
  8
0
  6
Continuous
 62
     7
370
    25
100
AcDbLine
 10
540.4125737052
 20
460.9641992032
 30
0.0
 11
542.4125737052
 21
460.9641992032
 31
0.0
  0
LINE
  5
1A2
330
1F
100
AcDbEntity
  8
0
  6
Continuous
 62
     7
370
    25
100
AcDbLine
 10
540.4125737052
 20
403.9328645617
 30
0.0
 11
540.4125737052
 21
460.9641992032
 31
0.0
  0
LINE
  5
1A3
330
1F
100
AcDbEntity
  8
0
  6
Continuous
 62
     7
370
    25
100
AcDbLine
 10
542.4125737052
 20
403.9328645617
 30
0.0
 11
542.4125737052
 21
460.9641992032
 31
0.0
  0
LINE
  5
1A4
330
1F
100
AcDbEntity
  8
0
  6
Continuous
 62
     7
370
    25
100
AcDbLine
 10
868.2125737052
 20
460.9641992032
 30
0.0
 11
870.2125737052
 21
460.9641992032
 31
0.0
  0
LINE
  5
1A5
330
1F
100
AcDbEntity
  8
0
  6
Continuous
 62
     7
370
    25
100
AcDbLine
 10
870.2125737052
 20
403.9328645617
 30
0.0
 11
870.2125737052
 21
460.9641992032
 31
0.0
  0
LINE
  5
1A6
330
1F
100
AcDbEntity
  8
0
  6
Continuous
 62
     7
370
    25
100
AcDbLine
 10
868.2125737052
 20
403.9328645617
 30
0.0
 11
868.2125737052
 21
460.9641992032
 31
0.0
  0
LINE
  5
1A7
330
1F
100
AcDbEntity
  8
0
  6
Continuous
 62
     7
370
    25
100
AcDbLine
 10
540.4125737052
 20
449.9641992032
 30
0.0
 11
538.4125737052
 21
449.9641992032
 31
0.0
  0
LINE
  5
1A8
330
1F
100
AcDbEntity
  8
0
  6
Continuous
 62
     7
370
    25
100
AcDbLine
 10
538.4125737052
 20
351.9641992032
 30
0.0
 11
540.4125737052
 21
351.9641992032
 31
0.0
  0
LINE
  5
1A9
330
1F
100
AcDbEntity
  8
0
  6
Continuous
 62
     7
370
    25
100
AcDbLine
 10
870.2125737052
 20
351.9641992032
 30
0.0
 11
872.2125737052
 21
351.9641992032
 31
0.0
  0
LINE
  5
1AA
330
1F
100
AcDbEntity
  8
0
  6
Continuous
 62
     7
370
    25
100
AcDbLine
 10
872.2125737052
 20
449.9641992032
 30
0.0
 11
870.2125737052
 21
449.9641992032
 31
0.0
  0
ARC
  5
1AB
330
1F
100
AcDbEntity
  8
0
  6
Continuous
 62
     7
370
    25
100
AcDbCircle
 10
898.2125737052
 20
356.9641992032
 30
0.0
 40
5.000000000000114
100
AcDbArc
 50
270.0
 51
0.0
  0
ARC
  5
1AC
330
1F
100
AcDbEntity
  8
0
  6
Continuous
 62
     7
370
    25
100
AcDbCircle
 10
898.2125737052
 20
444.9641992032
 30
0.0
 40
5.000000000000114
100
AcDbArc
 50
0.0
 51
90.0
  0
LINE
  5
1AD
330
1F
100
AcDbEntity
  8
0
  6
Continuous
 62
     7
370
    25
100
AcDbLine
 10
903.2125737052
 20
356.9641992032
 30
0.0
 11
903.2125737052
 21
444.9641992032
 31
0.0
  0
CIRCLE
  5
1AE
330
1F
100
AcDbEntity
  8
0
  6
Continuous
 62
     7
370
    25
100
AcDbCircle
 10
890.3125737052
 20
370.9641992032
 30
0.0
 40
3.500000000000114
  0
CIRCLE
  5
1AF
330
1F
100
AcDbEntity
  8
0
  6
Continuous
 62
     7
370
    25
100
AcDbCircle
 10
890.3125737052
 20
430.9641992032
 30
0.0
 40
3.500000000000114
  0
LINE
  5
1B0
330
1F
100
AcDbEntity
  8
0
  6
Continuous
 62
     7
370
    25
100
AcDbLine
 10
898.2125737052
 20
449.9641992032
 30
0.0
 11
872.2125737052
 21
449.9641992032
 31
0.0
  0
LINE
  5
1B1
330
1F
100
AcDbEntity
  8
0
  6
Continuous
 62
     7
370
    25
100
AcDbLine
 10
872.2125737052
 20
351.9641992032
 30
0.0
 11
898.2125737052
 21
351.9641992032
 31
0.0
  0
ARC
  5
1B2
330
1F
100
AcDbEntity
  8
0
  6
Continuous
 62
     7
370
    25
100
AcDbCircle
 10
512.4125737052
 20
356.9641992032
 30
0.0
 40
5.0
100
AcDbArc
 50
180.0
 51
270.0
  0
LINE
  5
1B3
330
1F
100
AcDbEntity
  8
0
  6
Continuous
 62
     7
370
    25
100
AcDbLine
 10
507.4125737052
 20
444.9641992032
 30
0.0
 11
507.4125737052
 21
356.9641992032
 31
0.0
  0
ARC
  5
1B4
330
1F
100
AcDbEntity
  8
0
  6
Continuous
 62
     7
370
    25
100
AcDbCircle
 10
512.4125737052
 20
444.9641992032
 30
0.0
 40
5.000000000000057
100
AcDbArc
 50
90.0
 51
180.0
  0
CIRCLE
  5
1B5
330
1F
100
AcDbEntity
  8
0
  6
Continuous
 62
     7
370
    25
100
AcDbCircle
 10
520.3125737052
 20
430.9641992032
 30
0.0
 40
3.5
  0
CIRCLE
  5
1B6
330
1F
100
AcDbEntity
  8
0
  6
Continuous
 62
     7
370
    25
100
AcDbCircle
 10
520.3125737052
 20
370.9641992032
 30
0.0
 40
3.5
  0
LINE
  5
1B7
330
1F
100
AcDbEntity
  8
0
  6
Continuous
 62
     7
370
    25
100
AcDbLine
 10
538.4125737052
 20
449.9641992032
 30
0.0
 11
512.4125737052
 21
449.9641992032
 31
0.0
  0
LINE
  5
1B8
330
1F
100
AcDbEntity
  8
0
  6
Continuous
 62
     7
370
    25
100
AcDbLine
 10
512.4125737052
 20
351.9641992032
 30
0.0
 11
538.4125737052
 21
351.9641992032
 31
0.0
  0
LINE
  5
1B9
330
1F
100
AcDbEntity
  8
0
  6
Continuous
 62
     7
370
    25
100
AcDbLine
 10
866.8966139918
 20
343.0848139616
 30
0.0
 11
866.2125737052
 21
343.0848139616
 31
0.0
  0
LINE
  5
1BA
330
1F
100
AcDbEntity
  8
0
  6
Continuous
 62
     7
370
    25
100
AcDbLine
 10
868.2125737052
 20
341.500097588
 30
0.0
 11
868.2125737052
 21
341.20542872
 31
0.0
  0
LINE
  5
1BB
330
1F
100
AcDbEntity
  8
0
  6
Continuous
 62
     7
370
    25
100
AcDbLine
 10
868.2125737052
 20
341.20542872
 30
0.0
 11
867.5806542785
 21
341.20542872
 31
0.0
  0
LINE
  5
1BC
330
1F
100
AcDbEntity
  8
0
  6
Continuous
 62
     7
370
    25
100
AcDbLine
 10
543.0444931319
 20
341.20542872
 30
0.0
 11
542.4125737052
 21
341.20542872
 31
0.0
  0
LINE
  5
1BD
330
1F
100
AcDbEntity
  8
0
  6
Continuous
 62
     7
370
    25
100
AcDbLine
 10
542.4125737052
 20
341.20542872
 30
0.0
 11
542.4125737052
 21
341.500097588
 31
0.0
  0
LINE
  5
1BE
330
1F
100
AcDbEntity
  8
0
  6
Continuous
 62
     7
370
    25
100
AcDbLine
 10
544.4125737052
 20
343.0848139616
 30
0.0
 11
543.7285334185
 21
343.0848139616
 31
0.0
  0
LWPOLYLINE
  5
1BF
330
1F
100
AcDbEntity
  8
0
  6
Continuous
 62
     7
370
    25
100
AcDbPolyline
 90
        9
 70
   128
 43
0.0
 10
868.2125737052
 20
350.7134679427
 10
868.174144266
 20
350.8469175825
 10
868.0603327702
 20
350.9752388275
 10
867.8755129298
 20
351.0935003641
 10
867.6267872676
 20
351.197157468
 10
867.3237141712
 20
351.2822266546
 10
866.9779405699
 20
351.3454387629
 10
866.6027543492
 20
351.384364587
 10
866.2125737052
 20
351.3975082293
  0
LWPOLYLINE
  5
1C0
330
1F
100
AcDbEntity
  8
0
  6
Continuous
 62
     7
370
    25
100
AcDbPolyline
 90
        9
 70
   128
 43
0.0
 10
544.4125737052
 20
351.3975082293
 10
544.0223930611
 20
351.384364587
 10
543.6472068404
 20
351.3454387629
 10
543.3014332391
 20
351.2822266546
 10
542.9983601428
 20
351.197157468
 10
542.7496344806
 20
351.0935003641
 10
542.5648146402
 20
350.9752388275
 10
542.4510031444
 20
350.8469175825
 10
542.4125737052
 20
350.7134679427
  0
LINE
  5
1C1
330
1F
100
AcDbEntity
  8
0
  6
Continuous
 62
     7
370
    25
100
AcDbLine
 10
866.2125737052
 20
351.3975082293
 30
0.0
 11
544.4125737052
 21
351.3975082293
 31
0.0
  0
LINE
  5
1C2
330
1F
100
AcDbEntity
  8
0
  6
PHANTOM
 62
     8
370
    18
100
AcDbLine
 10
866.2125737052
 20
342.9641992032
 30
0.0
 11
866.2125737052
 21
340.9641992032
 31
0.0
  0
LINE
  5
1C3
330
1F
100
AcDbEntity
  8
0
  6
PHANTOM
 62
     8
370
    18
100
AcDbLine
 10
544.4125737052
 20
342.9641992032
 30
0.0
 11
544.4125737052
 21
340.9641992032
 31
0.0
  0
LINE
  5
1C4
330
1F
100
AcDbEntity
  8
0
  6
PHANTOM
 62
     8
370
    18
100
AcDbLine
 10
868.2125737052
 20
344.9641992032
 30
0.0
 11
870.2125737052
 21
344.9641992032
 31
0.0
  0
LINE
  5
1C5
330
1F
100
AcDbEntity
  8
0
  6
PHANTOM
 62
     8
370
    18
100
AcDbLine
 10
870.2125737052
 20
395.6123616183
 30
0.0
 11
868.2125737052
 21
395.6123616183
 31
0.0
  0
LINE
  5
1C6
330
1F
100
AcDbEntity
  8
0
  6
PHANTOM
 62
     8
370
    18
100
AcDbLine
 10
868.2125737052
 20
403.9328645617
 30
0.0
 11
870.2125737052
 21
403.9328645617
 31
0.0
  0
LINE
  5
1C7
330
1F
100
AcDbEntity
  8
0
  6
PHANTOM
 62
     8
370
    18
100
AcDbLine
 10
542.4125737052
 20
344.9641992032
 30
0.0
 11
540.4125737052
 21
344.9641992032
 31
0.0
  0
LINE
  5
1C8
330
1F
100
AcDbEntity
  8
0
  6
PHANTOM
 62
     8
370
    18
100
AcDbLine
 10
540.4125737052
 20
403.9328645617
 30
0.0
 11
542.4125737052
 21
403.9328645617
 31
0.0
  0
LINE
  5
1C9
330
1F
100
AcDbEntity
  8
0
  6
PHANTOM
 62
     8
370
    18
100
AcDbLine
 10
542.4125737052
 20
395.6123616183
 30
0.0
 11
540.4125737052
 21
395.6123616183
 31
0.0
  0
LINE
  5
1CA
330
1F
100
AcDbEntity
  8
0
  6
PHANTOM
 62
     8
370
    18
100
AcDbLine
 10
538.4125737052
 20
449.9641992032
 30
0.0
 11
538.4125737052
 21
351.9641992032
 31
0.0
  0
LINE
  5
1CB
330
1F
100
AcDbEntity
  8
0
  6
PHANTOM
 62
     8
370
    18
100
AcDbLine
 10
872.2125737052
 20
351.9641992032
 30
0.0
 11
872.2125737052
 21
449.9641992032
 31
0.0
  0
LINE
  5
1CC
330
1F
100
AcDbEntity
  8
0
  6
PHANTOM
 62
     8
370
    18
100
AcDbLine
 10
866.2125737052
 20
343.0848139616
 30
0.0
 11
544.4125737052
 21
343.0848139616
 31
0.0
  0
LINE
  5
1CD
330
1F
100
AcDbEntity
  8
0
  6
HIDDEN
 62
     7
370
    18
100
AcDbLine
 10
540.4125737052
 20
449.9641992032
 30
0.0
 11
542.4125737052
 21
449.9641992032
 31
0.0
  0
LINE
  5
1CE
330
1F
100
AcDbEntity
  8
0
  6
HIDDEN
 62
     7
370
    18
100
AcDbLine
 10
540.4125737052
 20
450.9641992032
 30
0.0
 11
542.4125737052
 21
450.9641992032
 31
0.0
  0
LINE
  5
1CF
330
1F
100
AcDbEntity
  8
0
  6
HIDDEN
 62
     7
370
    18
100
AcDbLine
 10
542.4125737052
 20
351.9641992032
 30
0.0
 11
540.4125737052
 21
351.9641992032
 31
0.0
  0
LINE
  5
1D0
330
1F
100
AcDbEntity
  8
0
  6
HIDDEN
 62
     7
370
    18
100
AcDbLine
 10
540.4125737052
 20
350.9641992032
 30
0.0
 11
542.4125737052
 21
350.9641992032
 31
0.0
  0
LINE
  5
1D1
330
1F
100
AcDbEntity
  8
0
  6
HIDDEN
 62
     7
370
    18
100
AcDbLine
 10
868.2125737052
 20
350.9641992032
 30
0.0
 11
870.2125737052
 21
350.9641992032
 31
0.0
  0
LINE
  5
1D2
330
1F
100
AcDbEntity
  8
0
  6
HIDDEN
 62
     7
370
    18
100
AcDbLine
 10
870.2125737052
 20
351.9641992032
 30
0.0
 11
868.2125737052
 21
351.9641992032
 31
0.0
  0
LINE
  5
1D3
330
1F
100
AcDbEntity
  8
0
  6
HIDDEN
 62
     7
370
    18
100
AcDbLine
 10
868.2125737052
 20
449.9641992032
 30
0.0
 11
870.2125737052
 21
449.9641992032
 31
0.0
  0
LINE
  5
1D4
330
1F
100
AcDbEntity
  8
0
  6
HIDDEN
 62
     7
370
    18
100
AcDbLine
 10
868.2125737052
 20
450.9641992032
 30
0.0
 11
870.2125737052
 21
450.9641992032
 31
0.0
  0
LINE
  5
1D5
330
1F
100
AcDbEntity
  8
0
  6
HIDDEN
 62
     7
370
    18
100
AcDbLine
 10
866.2125737052
 20
342.9641992032
 30
0.0
 11
866.2125737052
 21
343.0848139616
 31
0.0
  0
LINE
  5
1D6
330
1F
100
AcDbEntity
  8
0
  6
HIDDEN
 62
     7
370
    18
100
AcDbLine
 10
544.4125737052
 20
343.0848139616
 30
0.0
 11
544.4125737052
 21
342.9641992032
 31
0.0
  0
LINE
  5
1D7
330
1F
100
AcDbEntity
  8
0
  6
HIDDEN
 62
     7
370
    18
100
AcDbLine
 10
544.4125737052
 20
342.9641992032
 30
0.0
 11
544.4125737052
 21
340.9641992032
 31
0.0
  0
LINE
  5
1D8
330
1F
100
AcDbEntity
  8
0
  6
HIDDEN
 62
     7
370
    18
100
AcDbLine
 10
866.2125737052
 20
342.9641992032
 30
0.0
 11
866.2125737052
 21
340.9641992032
 31
0.0
  0
LINE
  5
1D9
330
1F
100
AcDbEntity
  8
0
  6
HIDDEN
 62
     7
370
    18
100
AcDbLine
 10
868.2125737052
 20
343.0848139616
 30
0.0
 11
866.8966139918
 21
343.0848139616
 31
0.0
  0
LINE
  5
1DA
330
1F
100
AcDbEntity
  8
0
  6
HIDDEN
 62
     7
370
    18
100
AcDbLine
 10
868.2125737052
 20
343.0848139616
 30
0.0
 11
868.2125737052
 21
341.500097588
 31
0.0
  0
LINE
  5
1DB
330
1F
100
AcDbEntity
  8
0
  6
HIDDEN
 62
     7
370
    18
100
AcDbLine
 10
867.5806542785
 20
341.20542872
 30
0.0
 11
866.2125737052
 21
341.20542872
 31
0.0
  0
LINE
  5
1DC
330
1F
100
AcDbEntity
  8
0
  6
HIDDEN
 62
     7
370
    18
100
AcDbLine
 10
544.4125737052
 20
341.20542872
 30
0.0
 11
543.0444931319
 21
341.20542872
 31
0.0
  0
LINE
  5
1DD
330
1F
100
AcDbEntity
  8
0
  6
HIDDEN
 62
     7
370
    18
100
AcDbLine
 10
542.4125737052
 20
341.500097588
 30
0.0
 11
542.4125737052
 21
343.0848139616
 31
0.0
  0
LINE
  5
1DE
330
1F
100
AcDbEntity
  8
0
  6
HIDDEN
 62
     7
370
    18
100
AcDbLine
 10
543.7285334185
 20
343.0848139616
 30
0.0
 11
542.4125737052
 21
343.0848139616
 31
0.0
  0
LINE
  5
1DF
330
1F
100
AcDbEntity
  8
0
  6
HIDDEN
 62
     7
370
    18
100
AcDbLine
 10
542.4125737052
 20
343.0848139616
 30
0.0
 11
542.4125737052
 21
344.9641992032
 31
0.0
  0
LINE
  5
1E0
330
1F
100
AcDbEntity
  8
0
  6
HIDDEN
 62
     7
370
    18
100
AcDbLine
 10
868.2125737052
 20
343.0848139616
 30
0.0
 11
868.2125737052
 21
344.9641992032
 31
0.0
  0
LWPOLYLINE
  5
1E1
330
1F
100
AcDbEntity
  8
0
  6
HIDDEN
 62
     7
370
    18
100
AcDbPolyline
 90
        9
 70
   128
 43
0.0
 10
542.4125737052
 20
348.8340827011
 10
542.4510031444
 20
348.9675323409
 10
542.5648146402
 20
349.0958535859
 10
542.7496344806
 20
349.2141151226
 10
542.9983601428
 20
349.3177722264
 10
543.3014332391
 20
349.4028414131
 10
543.6472068404
 20
349.4660535214
 10
544.0223930611
 20
349.5049793455
 10
544.4125737052
 20
349.5181229878
  0
LWPOLYLINE
  5
1E2
330
1F
100
AcDbEntity
  8
0
  6
HIDDEN
 62
     7
370
    18
100
AcDbPolyline
 90
        9
 70
   128
 43
0.0
 10
866.2125737052
 20
349.5181229878
 10
866.6027543492
 20
349.5049793455
 10
866.9779405699
 20
349.4660535214
 10
867.3237141712
 20
349.4028414131
 10
867.6267872676
 20
349.3177722264
 10
867.8755129298
 20
349.2141151226
 10
868.0603327702
 20
349.0958535859
 10
868.174144266
 20
348.9675323409
 10
868.2125737052
 20
348.8340827011
  0
LINE
  5
1E3
330
1F
100
AcDbEntity
  8
0
  6
HIDDEN
 62
     7
370
    18
100
AcDbLine
 10
866.2125737052
 20
349.5181229878
 30
0.0
 11
544.4125737052
 21
349.5181229878
 31
0.0
  0
LINE
  5
1E4
330
1F
100
AcDbEntity
  8
0
  6
HIDDEN
 62
     7
370
    18
100
AcDbLine
 10
538.4125737052
 20
351.9641992032
 30
0.0
 11
538.4125737052
 21
449.9641992032
 31
0.0
  0
LINE
  5
1E5
330
1F
100
AcDbEntity
  8
0
  6
HIDDEN
 62
     7
370
    18
100
AcDbLine
 10
872.2125737052
 20
351.9641992032
 30
0.0
 11
872.2125737052
 21
449.9641992032
 31
0.0
  0
LINE
  5
1E6
330
1F
100
AcDbEntity
  8
0
  6
HIDDEN
 62
     7
370
    18
100
AcDbLine
 10
868.2125737052
 20
344.9641992032
 30
0.0
 11
870.2125737052
 21
344.9641992032
 31
0.0
  0
LINE
  5
1E7
330
1F
100
AcDbEntity
  8
0
  6
HIDDEN
 62
     7
370
    18
100
AcDbLine
 10
866.2125737052
 20
341.20542872
 30
0.0
 11
544.4125737052
 21
341.20542872
 31
0.0
  0
LINE
  5
1E8
330
1F
100
AcDbEntity
  8
0
  6
HIDDEN
 62
     7
370
    18
100
AcDbLine
 10
542.4125737052
 20
344.9641992032
 30
0.0
 11
540.4125737052
 21
344.9641992032
 31
0.0
  0
LINE
  5
1E9
330
1F
100
AcDbEntity
  8
0
  6
HIDDEN
 62
     7
370
    18
100
AcDbLine
 10
544.4125737052
 20
349.5181229878
 30
0.0
 11
544.4125737052
 21
351.3975082293
 31
0.0
  0
LINE
  5
1EA
330
1F
100
AcDbEntity
  8
0
  6
HIDDEN
 62
     7
370
    18
100
AcDbLine
 10
866.2125737052
 20
351.3975082293
 30
0.0
 11
866.2125737052
 21
349.5181229878
 31
0.0
  0
DIMENSION
  5
1EB
330
1F
100
AcDbEntity
  8
0
  6
Continuous
 62
     7
370
    18
100
AcDbDimension
  2
_D
 10
903.2125737052
 20
478.9641992032
 30
0.0
 11
885.7125737052
 21
478.9641992032
 31
0.0
 70
   160
  1
<>
 71
     2
 42
-1.0
  3
SLDDIMSTYLE0
100
AcDbAlignedDimension
 13
868.2125737052
 23
460.9641992032
 33
0.0
 14
903.2125737052
 24
444.9641992032
 34
0.0
 50
0.0
100
AcDbRotatedDimension
  0
DIMENSION
  5
1F6
330
1F
100
AcDbEntity
  8
0
  6
Continuous
 62
     7
370
    18
100
AcDbDimension
  2
_D_1
 10
933.2125737052
 20
340.9641992032
 30
0.0
 11
933.2125737052
 21
400.9641992032
 31
0.0
 70
   160
  1
<>
 71
     2
 42
-1.0
  3
SLDDIMSTYLE0
100
AcDbAlignedDimension
 13
870.2125737052
 23
460.9641992032
 33
0.0
 14
866.2125737052
 24
340.9641992032
 34
0.0
 50
90.0
100
AcDbRotatedDimension
  0
DIMENSION
  5
200
330
1F
100
AcDbEntity
  8
0
  6
Continuous
 62
     7
370
    18
100
AcDbDimension
  2
_D_2
 10
921.2125737052
 20
449.9641992032
 30
0.0
 11
921.2125737052
 21
400.9641992032
 31
0.0
 70
   160
  1
<>
 71
     2
 42
-1.0
  3
SLDDIMSTYLE0
100
AcDbAlignedDimension
 13
898.2125737052
 23
351.9641992032
 33
0.0
 14
898.2125737052
 24
449.9641992032
 34
0.0
 50
90.0
100
AcDbRotatedDimension
  0
DIMENSION
  5
20A
330
1F
100
AcDbEntity
  8
0
  6
Continuous
 62
     7
370
    18
100
AcDbDimension
  2
_D_3
 10
921.2125737052
 20
460.9641992032
 30
0.0
 11
921.2125737052
 21
478.9641992032
 31
0.0
 70
   160
  1
<>
 71
     2
 42
-1.0
  3
SLDDIMSTYLE1
100
AcDbAlignedDimension
 13
898.2125737052
 23
449.9641992032
 33
0.0
 14
870.2125737052
 24
460.9641992032
 34
0.0
 50
90.0
100
AcDbRotatedDimension
  0
DIMENSION
  5
217
330
1F
100
AcDbEntity
  8
0
  6
Continuous
 62
     7
370
    18
100
AcDbDimension
  2
_D_4
 10
870.2125737052
 20
322.9641992032
 30
0.0
 11
705.3125737052
 21
322.9641992032
 31
0.0
 70
   160
  1
<>
 71
     2
 42
-1.0
  3
SLDDIMSTYLE0
100
AcDbAlignedDimension
 13
540.4125737052
 23
344.9641992032
 33
0.0
 14
870.2125737052
 24
344.9641992032
 34
0.0
 50
0.0
100
AcDbRotatedDimension
  0
DIMENSION
  5
221
330
1F
100
AcDbEntity
  8
0
  6
Continuous
 62
     7
370
    18
100
AcDbDimension
  2
_D_5
 10
507.4125737052
 20
310.9641992032
 30
0.0
 11
705.3125737052
 21
310.9641992032
 31
0.0
 70
   160
  1
<>
 71
     2
 42
-1.0
  3
SLDDIMSTYLE0
100
AcDbAlignedDimension
 13
903.2125737052
 23
356.9641992032
 33
0.0
 14
507.4125737052
 24
356.9641992032
 34
0.0
 50
0.0
100
AcDbRotatedDimension
  0
DIMENSION
  5
22B
330
1F
100
AcDbEntity
  8
0
  6
Continuous
 62
     7
370
    18
100
AcDbDimension
  2
_D_6
 10
490.5525737052
 20
460.9641992032
 30
0.0
 11
490.5525737052
 21
400.9641992032
 31
0.0
 70
   160
  1
<>
 71
     2
 42
-1.0
  3
SLDDIMSTYLE0
100
AcDbAlignedDimension
 13
544.4125737052
 23
340.9641992032
 33
0.0
 14
540.4125737052
 24
460.9641992032
 34
0.0
 50
90.0
100
AcDbRotatedDimension
  0
DIMENSION
  5
235
330
1F
100
AcDbEntity
  8
0
  6
Continuous
 62
     7
370
    18
100
AcDbDimension
  2
_D_7
 10
507.4125737052
 20
478.9641992032
 30
0.0
 11
524.9125737052
 21
478.9641992032
 31
0.0
 70
   160
  1
<>
 71
     2
 42
-1.0
  3
SLDDIMSTYLE0
100
AcDbAlignedDimension
 13
542.4125737052
 23
460.9641992032
 33
0.0
 14
507.4125737052
 24
444.9641992032
 34
0.0
 50
0.0
100
AcDbRotatedDimension
  0
DIMENSION
  5
23F
330
1F
100
AcDbEntity
  8
0
  6
Continuous
 62
     7
370
    18
100
AcDbDimension
  2
_D_8
 10
898.2125737052
 20
356.9641992032
 30
0.0
 11
913.2889922208
 21
330.8511582995
 31
0.0
 70
   164
  1
<>
 71
     1
 42
-1.0
  3
SLDDIMSTYLE2
100
AcDbRadialDimension
 15
900.7125737052
 25
352.6340721843
 35
0.0
 40
0.0
  0
DIMENSION
  5
248
330
1F
100
AcDbEntity
  8
0
  6
Continuous
 62
     7
370
    18
100
AcDbDimension
  2
_D_9
 10
542.4125737052
 20
344.9641992032
 30
0.0
 11
571.7578773764
 21
372.3095028744
 31
0.0
 70
   162
  1
<>
 71
     1
 42
-1.0
  3
SLDDIMSTYLE3
100
AcDb2LineAngularDimension
 13
544.4125737052
 23
342.9641992032
 33
0.0
 14
866.2125737052
 24
342.9641992032
 34
0.0
 15
542.4125737052
 25
395.6123616183
 35
0.0
 16
571.7578773764
 26
372.3095028744
 36
0.0
  0
DIMENSION
  5
251
330
1F
100
AcDbEntity
  8
0
  6
Continuous
 62
     7
370
    18
100
AcDbDimension
  2
_D_10
 10
544.4125737052
 20
342.9641992032
 30
0.0
 11
835.2072153206
 21
375.9695575878
 31
0.0
 70
   162
  1
<>
 71
     1
 42
-1.0
  3
SLDDIMSTYLE3
100
AcDb2LineAngularDimension
 13
868.2125737052
 23
395.6123616183
 33
0.0
 14
868.2125737052
 24
344.9641992032
 34
0.0
 15
866.2125737052
 25
342.9641992032
 35
0.0
 16
835.2072153206
 26
375.9695575878
 36
0.0
  0
DIMENSION
  5
259
330
1F
100
AcDbEntity
  8
0
  6
Continuous
 62
     7
370
    18
100
AcDbDimension
  2
_D_11
 10
544.4125737052
 20
344.9641992032
 30
0.0
 11
558.0938719032
 21
361.655306653
 31
0.0
 70
   164
  1
<>
 71
     1
 42
-1.0
  3
SLDDIMSTYLE4
100
AcDbRadialDimension
 15
543.1447146263
 25
343.4174175909
 35
0.0
 40
0.0
  0
DIMENSION
  5
261
330
1F
100
AcDbEntity
  8
0
  6
Continuous
 62
     7
370
    18
100
AcDbDimension
  2
_D_12
 10
866.2125737052
 20
344.9641992032
 30
0.0
 11
852.2598563251
 21
358.9169765833
 31
0.0
 70
   164
  1
<>
 71
     1
 42
-1.0
  3
SLDDIMSTYLE4
100
AcDbRadialDimension
 15
867.6267872676
 25
343.5499856408
 35
0.0
 40
0.0
  0
LINE
  5
268
330
1F
100
AcDbEntity
  8
0
  6
Continuous
 62
     7
370
    25
100
AcDbLine
 10
544.4125737052
 20
658.9603604436
 30
0.0
 11
544.4125737052
 21
660.3284410169
 31
0.0
  0
LINE
  5
269
330
1F
100
AcDbEntity
  8
0
  6
Continuous
 62
     7
370
    25
100
AcDbLine
 10
866.2125737052
 20
660.3284410169
 30
0.0
 11
866.2125737052
 21
658.9603604436
 31
0.0
  0
LINE
  5
26A
330
1F
100
AcDbEntity
  8
0
  6
Continuous
 62
     7
370
    25
100
AcDbLine
 10
866.2125737052
 20
779.623133094
 30
0.0
 11
870.2125737052
 21
779.623133094
 31
0.0
  0
LINE
  5
26B
330
1F
100
AcDbEntity
  8
0
  6
Continuous
 62
     7
370
    25
100
AcDbLine
 10
870.2125737052
 20
779.623133094
 30
0.0
 11
870.2125737052
 21
660.3284410169
 31
0.0
  0
LINE
  5
26C
330
1F
100
AcDbEntity
  8
0
  6
Continuous
 62
     7
370
    25
100
AcDbLine
 10
870.2125737052
 20
660.3284410169
 30
0.0
 11
866.2125737052
 21
660.3284410169
 31
0.0
  0
LINE
  5
26D
330
1F
100
AcDbEntity
  8
0
  6
Continuous
 62
     7
370
    25
100
AcDbLine
 10
866.2125737052
 20
779.623133094
 30
0.0
 11
544.4125737052
 21
779.623133094
 31
0.0
  0
LINE
  5
26E
330
1F
100
AcDbEntity
  8
0
  6
Continuous
 62
     7
370
    25
100
AcDbLine
 10
540.4125737052
 20
779.623133094
 30
0.0
 11
540.4125737052
 21
660.3284410169
 31
0.0
  0
LINE
  5
26F
330
1F
100
AcDbEntity
  8
0
  6
Continuous
 62
     7
370
    25
100
AcDbLine
 10
540.4125737052
 20
779.623133094
 30
0.0
 11
544.4125737052
 21
779.623133094
 31
0.0
  0
LINE
  5
270
330
1F
100
AcDbEntity
  8
0
  6
Continuous
 62
     7
370
    25
100
AcDbLine
 10
544.4125737052
 20
660.3284410169
 30
0.0
 11
540.4125737052
 21
660.3284410169
 31
0.0
  0
LINE
  5
271
330
1F
100
AcDbEntity
  8
0
  6
Continuous
 62
     7
370
    25
100
AcDbLine
 10
544.4125737052
 20
658.9603604436
 30
0.0
 11
542.4125737052
 21
658.9603604436
 31
0.0
  0
LINE
  5
272
330
1F
100
AcDbEntity
  8
0
  6
Continuous
 62
     7
370
    25
100
AcDbLine
 10
868.2125737052
 20
658.9603604436
 30
0.0
 11
866.2125737052
 21
658.9603604436
 31
0.0
  0
LINE
  5
273
330
1F
100
AcDbEntity
  8
0
  6
Continuous
 62
     7
370
    25
100
AcDbLine
 10
868.2125737052
 20
658.9603604436
 30
0.0
 11
868.2125737052
 21
638.0008058898
 31
0.0
  0
ARC
  5
274
330
1F
100
AcDbEntity
  8
0
  6
Continuous
 62
     7
370
    25
100
AcDbCircle
 10
866.2710625944
 20
638.0630484656
 30
0.0
 40
1.942508566655122
100
AcDbArc
 50
268.2745645851
 51
358.1637932024
  0
LINE
  5
275
330
1F
100
AcDbEntity
  8
0
  6
Continuous
 62
     7
370
    25
100
AcDbLine
 10
866.2125737052
 20
636.1214206482
 30
0.0
 11
544.4125737052
 21
636.1214206482
 31
0.0
  0
ARC
  5
276
330
1F
100
AcDbEntity
  8
0
  6
Continuous
 62
     7
370
    25
100
AcDbCircle
 10
544.354084816
 20
638.0630484656
 30
0.0
 40
1.942508566655023
100
AcDbArc
 50
181.8362067977
 51
271.7254354149
  0
LINE
  5
277
330
1F
100
AcDbEntity
  8
0
  6
Continuous
 62
     7
370
    25
100
AcDbLine
 10
542.4125737052
 20
658.9603604436
 30
0.0
 11
542.4125737052
 21
638.0008058898
 31
0.0
  0
LINE
  5
278
330
1F
100
AcDbEntity
  8
0
  6
Continuous
 62
     7
370
    25
100
AcDbLine
 10
544.4125737052
 20
659.6444007302
 30
0.0
 11
542.4125737052
 21
659.6444007302
 31
0.0
  0
LINE
  5
279
330
1F
100
AcDbEntity
  8
0
  6
Continuous
 62
     7
370
    25
100
AcDbLine
 10
542.4125737052
 20
658.9603604436
 30
0.0
 11
542.4125737052
 21
659.6444007302
 31
0.0
  0
LINE
  5
27A
330
1F
100
AcDbEntity
  8
0
  6
Continuous
 62
     7
370
    25
100
AcDbLine
 10
868.2125737052
 20
659.6444007302
 30
0.0
 11
866.2125737052
 21
659.6444007302
 31
0.0
  0
LINE
  5
27B
330
1F
100
AcDbEntity
  8
0
  6
Continuous
 62
     7
370
    25
100
AcDbLine
 10
868.2125737052
 20
659.6444007302
 30
0.0
 11
868.2125737052
 21
658.9603604436
 31
0.0
  0
LINE
  5
27C
330
1F
100
AcDbEntity
  8
0
  6
Continuous
 62
     7
370
    25
100
AcDbLine
 10
872.2125737052
 20
657.723133094
 30
0.0
 11
898.2125737052
 21
657.723133094
 31
0.0
  0
LINE
  5
27D
330
1F
100
AcDbEntity
  8
0
  6
Continuous
 62
     7
370
    25
100
AcDbLine
 10
872.2125737052
 20
659.723133094
 30
0.0
 11
898.2125737052
 21
659.723133094
 31
0.0
  0
LINE
  5
27E
330
1F
100
AcDbEntity
  8
0
  6
Continuous
 62
     7
370
    25
100
AcDbLine
 10
903.2125737052
 20
659.723133094
 30
0.0
 11
903.2125737052
 21
657.723133094
 31
0.0
  0
LINE
  5
27F
330
1F
100
AcDbEntity
  8
0
  6
Continuous
 62
     7
370
    25
100
AcDbLine
 10
903.2125737052
 20
657.723133094
 30
0.0
 11
898.2125737052
 21
657.723133094
 31
0.0
  0
LINE
  5
280
330
1F
100
AcDbEntity
  8
0
  6
Continuous
 62
     7
370
    25
100
AcDbLine
 10
898.2125737052
 20
659.723133094
 30
0.0
 11
903.2125737052
 21
659.723133094
 31
0.0
  0
ARC
  5
281
330
1F
100
AcDbEntity
  8
0
  6
Continuous
 62
     7
370
    25
100
AcDbCircle
 10
872.2125737052
 20
661.723133094
 30
0.0
 40
2.0
100
AcDbArc
 50
180.0
 51
270.0
  0
ARC
  5
282
330
1F
100
AcDbEntity
  8
0
  6
Continuous
 62
     7
370
    25
100
AcDbCircle
 10
872.2125737052
 20
661.723133094
 30
0.0
 40
4.000000000000004
100
AcDbArc
 50
200.4061725112
 51
270.0
  0
LINE
  5
283
330
1F
100
AcDbEntity
  8
0
  6
Continuous
 62
     7
370
    25
100
AcDbLine
 10
512.4125737052
 20
659.723133094
 30
0.0
 11
538.4125737052
 21
659.723133094
 31
0.0
  0
LINE
  5
284
330
1F
100
AcDbEntity
  8
0
  6
Continuous
 62
     7
370
    25
100
AcDbLine
 10
512.4125737052
 20
657.723133094
 30
0.0
 11
538.4125737052
 21
657.723133094
 31
0.0
  0
LINE
  5
285
330
1F
100
AcDbEntity
  8
0
  6
Continuous
 62
     7
370
    25
100
AcDbLine
 10
507.4125737052
 20
657.723133094
 30
0.0
 11
507.4125737052
 21
659.723133094
 31
0.0
  0
LINE
  5
286
330
1F
100
AcDbEntity
  8
0
  6
Continuous
 62
     7
370
    25
100
AcDbLine
 10
507.4125737052
 20
659.723133094
 30
0.0
 11
512.4125737052
 21
659.723133094
 31
0.0
  0
LINE
  5
287
330
1F
100
AcDbEntity
  8
0
  6
Continuous
 62
     7
370
    25
100
AcDbLine
 10
512.4125737052
 20
657.723133094
 30
0.0
 11
507.4125737052
 21
657.723133094
 31
0.0
  0
ARC
  5
288
330
1F
100
AcDbEntity
  8
0
  6
Continuous
 62
     7
370
    25
100
AcDbCircle
 10
538.4125737052
 20
661.723133094
 30
0.0
 40
4.000000000000004
100
AcDbArc
 50
270.0
 51
339.5938274888
  0
ARC
  5
289
330
1F
100
AcDbEntity
  8
0
  6
Continuous
 62
     7
370
    25
100
AcDbCircle
 10
538.4125737052
 20
661.723133094
 30
0.0
 40
2.0
100
AcDbArc
 50
270.0
 51
0.0
  0
LINE
  5
28A
330
1F
100
AcDbEntity
  8
0
  6
PHANTOM
 62
     8
370
    18
100
AcDbLine
 10
866.2125737052
 20
660.3284410169
 30
0.0
 11
544.4125737052
 21
660.3284410169
 31
0.0
  0
LINE
  5
28B
330
1F
100
AcDbEntity
  8
0
  6
PHANTOM
 62
     8
370
    18
100
AcDbLine
 10
866.2125737052
 20
658.9603604436
 30
0.0
 11
544.4125737052
 21
658.9603604436
 31
0.0
  0
LINE
  5
28C
330
1F
100
AcDbEntity
  8
0
  6
PHANTOM
 62
     8
370
    18
100
AcDbLine
 10
866.2125737052
 20
660.3284410169
 30
0.0
 11
866.2125737052
 21
779.623133094
 31
0.0
  0
LINE
  5
28D
330
1F
100
AcDbEntity
  8
0
  6
PHANTOM
 62
     8
370
    18
100
AcDbLine
 10
544.4125737052
 20
779.623133094
 30
0.0
 11
544.4125737052
 21
660.3284410169
 31
0.0
  0
LINE
  5
28E
330
1F
100
AcDbEntity
  8
0
  6
PHANTOM
 62
     8
370
    18
100
AcDbLine
 10
872.2125737052
 20
659.723133094
 30
0.0
 11
872.2125737052
 21
657.723133094
 31
0.0
  0
LINE
  5
28F
330
1F
100
AcDbEntity
  8
0
  6
PHANTOM
 62
     8
370
    18
100
AcDbLine
 10
898.2125737052
 20
657.723133094
 30
0.0
 11
898.2125737052
 21
659.723133094
 31
0.0
  0
LINE
  5
290
330
1F
100
AcDbEntity
  8
0
  6
PHANTOM
 62
     8
370
    18
100
AcDbLine
 10
538.4125737052
 20
659.723133094
 30
0.0
 11
538.4125737052
 21
657.723133094
 31
0.0
  0
LINE
  5
291
330
1F
100
AcDbEntity
  8
0
  6
PHANTOM
 62
     8
370
    18
100
AcDbLine
 10
512.4125737052
 20
659.723133094
 30
0.0
 11
512.4125737052
 21
657.723133094
 31
0.0
  0
LINE
  5
292
330
1F
100
AcDbEntity
  8
0
  6
HIDDEN
 62
     7
370
    18
100
AcDbLine
 10
542.4125737052
 20
660.3284410169
 30
0.0
 11
542.4125737052
 21
779.623133094
 31
0.0
  0
LINE
  5
293
330
1F
100
AcDbEntity
  8
0
  6
HIDDEN
 62
     7
370
    18
100
AcDbLine
 10
868.2125737052
 20
779.623133094
 30
0.0
 11
868.2125737052
 21
660.3284410169
 31
0.0
  0
ARC
  5
294
330
1F
100
AcDbEntity
  8
0
  6
HIDDEN
 62
     7
370
    18
100
AcDbCircle
 10
544.354084816
 20
638.7470887522
 30
0.0
 40
1.942508566655136
100
AcDbArc
 50
181.8362067977
 51
271.7254354149
  0
ARC
  5
295
330
1F
100
AcDbEntity
  8
0
  6
HIDDEN
 62
     7
370
    18
100
AcDbCircle
 10
866.2710625944
 20
638.7470887522
 30
0.0
 40
1.942508566654916
100
AcDbArc
 50
268.2745645851
 51
358.1637932024
  0
LINE
  5
296
330
1F
100
AcDbEntity
  8
0
  6
HIDDEN
 62
     7
370
    18
100
AcDbLine
 10
866.2125737052
 20
636.8054609348
 30
0.0
 11
544.4125737052
 21
636.8054609348
 31
0.0
  0
LWPOLYLINE
  5
297
330
1F
100
AcDbEntity
  8
0
  6
HIDDEN
 62
     7
370
    18
100
AcDbPolyline
 90
        3
 70
   128
 43
0.0
 10
868.2125737052
 20
661.723133094
 10
868.2894325836
 20
660.942771806
 10
868.4635959765
 20
660.3284410169
  0
LWPOLYLINE
  5
298
330
1F
100
AcDbEntity
  8
0
  6
HIDDEN
 62
     7
370
    18
100
AcDbPolyline
 90
        3
 70
   128
 43
0.0
 10
542.1615514338
 20
660.3284410169
 10
542.3357148268
 20
660.942771806
 10
542.4125737052
 20
661.723133094
  0
LINE
  5
299
330
1F
100
AcDbEntity
  8
0
  6
HIDDEN
 62
     7
370
    18
100
AcDbLine
 10
868.2125737052
 20
689.623133094
 30
0.0
 11
870.2125737052
 21
689.623133094
 31
0.0
  0
LINE
  5
29A
330
1F
100
AcDbEntity
  8
0
  6
HIDDEN
 62
     7
370
    18
100
AcDbLine
 10
540.4125737052
 20
689.623133094
 30
0.0
 11
542.4125737052
 21
689.623133094
 31
0.0
  0
LINE
  5
29B
330
1F
100
AcDbEntity
  8
0
  6
HIDDEN
 62
     7
370
    18
100
AcDbLine
 10
870.2125737052
 20
662.223133094
 30
0.0
 11
868.2125737052
 21
662.223133094
 31
0.0
  0
LINE
  5
29C
330
1F
100
AcDbEntity
  8
0
  6
HIDDEN
 62
     7
370
    18
100
AcDbLine
 10
542.4125737052
 20
662.223133094
 30
0.0
 11
540.4125737052
 21
662.223133094
 31
0.0
  0
LINE
  5
29D
330
1F
100
AcDbEntity
  8
0
  6
HIDDEN
 62
     7
370
    18
100
AcDbLine
 10
523.8125737052
 20
657.723133094
 30
0.0
 11
523.8125737052
 21
659.723133094
 31
0.0
  0
LINE
  5
29E
330
1F
100
AcDbEntity
  8
0
  6
HIDDEN
 62
     7
370
    18
100
AcDbLine
 10
516.8125737052
 20
659.723133094
 30
0.0
 11
516.8125737052
 21
657.723133094
 31
0.0
  0
LINE
  5
29F
330
1F
100
AcDbEntity
  8
0
  6
HIDDEN
 62
     7
370
    18
100
AcDbLine
 10
893.8125737052
 20
657.723133094
 30
0.0
 11
893.8125737052
 21
659.723133094
 31
0.0
  0
LINE
  5
2A0
330
1F
100
AcDbEntity
  8
0
  6
HIDDEN
 62
     7
370
    18
100
AcDbLine
 10
886.8125737052
 20
659.723133094
 30
0.0
 11
886.8125737052
 21
657.723133094
 31
0.0
  0
LINE
  5
2A1
330
1F
100
AcDbEntity
  8
0
  6
HIDDEN
 62
     7
370
    18
100
AcDbLine
 10
866.2125737052
 20
660.3284410169
 30
0.0
 11
544.4125737052
 21
660.3284410169
 31
0.0
  0
LINE
  5
2A2
330
1F
100
AcDbEntity
  8
0
  6
HIDDEN
 62
     7
370
    18
100
AcDbLine
 10
544.4125737052
 20
779.623133094
 30
0.0
 11
544.4125737052
 21
660.3284410169
 31
0.0
  0
LINE
  5
2A3
330
1F
100
AcDbEntity
  8
0
  6
HIDDEN
 62
     7
370
    18
100
AcDbLine
 10
866.2125737052
 20
660.3284410169
 30
0.0
 11
866.2125737052
 21
779.623133094
 31
0.0
  0
LINE
  5
2A4
330
1F
100
AcDbEntity
  8
0
  6
HIDDEN
 62
     7
370
    18
100
AcDbLine
 10
866.2125737052
 20
659.6444007302
 30
0.0
 11
544.4125737052
 21
659.6444007302
 31
0.0
  0
LINE
  5
2A5
330
1F
100
AcDbEntity
  8
0
  6
HIDDEN
 62
     7
370
    18
100
AcDbLine
 10
544.4125737052
 20
636.1214206482
 30
0.0
 11
544.4125737052
 21
636.8054609348
 31
0.0
  0
LINE
  5
2A6
330
1F
100
AcDbEntity
  8
0
  6
HIDDEN
 62
     7
370
    18
100
AcDbLine
 10
866.2125737052
 20
636.8054609348
 30
0.0
 11
866.2125737052
 21
636.1214206482
 31
0.0
  0
LINE
  5
2A7
330
1F
100
AcDbEntity
  8
0
  6
HIDDEN
 62
     7
370
    18
100
AcDbLine
 10
870.2125737052
 20
661.723133094
 30
0.0
 11
868.2125737052
 21
661.723133094
 31
0.0
  0
LINE
  5
2A8
330
1F
100
AcDbEntity
  8
0
  6
HIDDEN
 62
     7
370
    18
100
AcDbLine
 10
542.4125737052
 20
661.723133094
 30
0.0
 11
540.4125737052
 21
661.723133094
 31
0.0
  0
LINE
  5
2A9
330
1F
100
AcDbEntity
  8
0
  6
HIDDEN
 62
     7
370
    18
100
AcDbLine
 10
868.2125737052
 20
775.1701350563
 30
0.0
 11
870.2125737052
 21
775.1701350563
 31
0.0
  0
LINE
  5
2AA
330
1F
100
AcDbEntity
  8
0
  6
HIDDEN
 62
     7
370
    18
100
AcDbLine
 10
540.4125737052
 20
775.1701350563
 30
0.0
 11
542.4125737052
 21
775.1701350563
 31
0.0
  0
LINE
  5
2AB
330
1F
100
AcDbEntity
  8
0
  6
HIDDEN
 62
     7
370
    18
100
AcDbLine
 10
898.2125737052
 20
659.723133094
 30
0.0
 11
898.2125737052
 21
657.723133094
 31
0.0
  0
LINE
  5
2AC
330
1F
100
AcDbEntity
  8
0
  6
HIDDEN
 62
     7
370
    18
100
AcDbLine
 10
512.4125737052
 20
657.723133094
 30
0.0
 11
512.4125737052
 21
659.723133094
 31
0.0
  0
LINE
  5
2AD
330
1F
100
AcDbEntity
  8
0
  6
HIDDEN
 62
     7
370
    18
100
AcDbLine
 10
872.2125737052
 20
659.723133094
 30
0.0
 11
872.2125737052
 21
657.723133094
 31
0.0
  0
LINE
  5
2AE
330
1F
100
AcDbEntity
  8
0
  6
HIDDEN
 62
     7
370
    18
100
AcDbLine
 10
538.4125737052
 20
659.723133094
 30
0.0
 11
538.4125737052
 21
657.723133094
 31
0.0
  0
DIMENSION
  5
2AF
330
1F
100
AcDbEntity
  8
0
  6
Continuous
 62
     7
370
    18
100
AcDbDimension
  2
_D_13
 10
540.4125737052
 20
618.1214206482
 30
0.0
 11
705.3125737052
 21
618.1214206482
 31
0.0
 70
   160
  1
<>
 71
     2
 42
-1.0
  3
SLDDIMSTYLE0
100
AcDbAlignedDimension
 13
870.2125737052
 23
660.3284410169
 33
0.0
 14
540.4125737052
 24
660.3284410169
 34
0.0
100
AcDbRotatedDimension
  0
DIMENSION
  5
2B9
330
1F
100
AcDbEntity
  8
0
  6
Continuous
 62
     7
370
    18
100
AcDbDimension
  2
_D_14
 10
903.2125737052
 20
606.1214206482
 30
0.0
 11
705.3125737052
 21
606.1214206482
 31
0.0
 70
   160
  1
<>
 71
     2
 42
-1.0
  3
SLDDIMSTYLE0
100
AcDbAlignedDimension
 13
507.4125737052
 23
657.723133094
 33
0.0
 14
903.2125737052
 24
657.723133094
 34
0.0
100
AcDbRotatedDimension
  0
DIMENSION
  5
2C3
330
1F
100
AcDbEntity
  8
0
  6
Continuous
 62
     7
370
    18
100
AcDbDimension
  2
_D_15
 10
921.2125737052
 20
779.623133094
 30
0.0
 11
921.2125737052
 21
718.673133094
 31
0.0
 70
   160
  1
<>
 71
     2
 42
-1.0
  3
SLDDIMSTYLE0
100
AcDbAlignedDimension
 13
903.2125737052
 23
657.723133094
 33
0.0
 14
870.2125737052
 24
779.623133094
 34
0.0
 50
90.0
100
AcDbRotatedDimension
  0
DIMENSION
  5
2CD
330
1F
100
AcDbEntity
  8
0
  6
Continuous
 62
     7
370
    18
100
AcDbDimension
  2
_D_16
 10
870.2125737052
 20
779.623133094
 30
0.0
 11
897.3224649592
 21
686.8330243481
 31
0.0
 70
   162
  1
<>
 71
     1
 42
-1.0
  3
SLDDIMSTYLE5
100
AcDb2LineAngularDimension
 13
872.2125737052
 23
659.723133094
 33
0.0
 14
903.2125737052
 24
659.723133094
 34
0.0
 15
870.2125737052
 25
660.3284410169
 35
0.0
 16
897.3224649592
 26
686.8330243481
 36
0.0
  0
DIMENSION
  5
2D7
330
1F
100
AcDbEntity
  8
0
  6
Continuous
 62
     7
370
    18
100
AcDbDimension
  2
_D_17
 10
540.4125737052
 20
779.623133094
 30
0.0
 11
512.5903805534
 21
687.5453262458
 31
0.0
 70
   162
  1
<>
 71
     1
 42
-1.0
  3
SLDDIMSTYLE5
100
AcDb2LineAngularDimension
 13
507.4125737052
 23
659.723133094
 33
0.0
 14
538.4125737052
 24
659.723133094
 34
0.0
 15
540.4125737052
 25
660.3284410169
 35
0.0
 16
512.5903805534
 26
687.5453262458
 36
0.0
  0
DIMENSION
  5
2E0
330
1F
100
AcDbEntity
  8
0
  6
Continuous
 62
     7
370
    18
100
AcDbDimension
  2
_D_18
 10
479.8514318641
 20
659.723133094
 30
0.0
 11
479.8514318641
 21
676.1350417923
 31
0.0
 70
   160
  1
<>
 71
     2
 42
-1.0
  3
SLDDIMSTYLE1
100
AcDbAlignedDimension
 13
507.4125737052
 23
657.723133094
 33
0.0
 14
507.4125737052
 24
659.723133094
 34
0.0
 50
90.0
100
AcDbRotatedDimension
  0
DIMENSION
  5
2EC
330
1F
100
AcDbEntity
  8
0
  6
Continuous
 62
     7
370
    18
100
AcDbDimension
  2
_D_19
 10
872.2125737052
 20
661.723133094
 30
0.0
 11
883.6128779366
 21
669.7702558975
 31
0.0
 70
   164
  1
<>
 71
     1
 42
-1.0
  3
SLDDIMSTYLE6
100
AcDbRadialDimension
 15
870.5786272021
 25
660.5697819658
 35
0.0
 40
0.0
  0
DIMENSION
  5
2F5
330
1F
100
AcDbEntity
  8
0
  6
Continuous
 62
     7
370
    18
100
AcDbDimension
  2
_D_20
 10
538.4125737052
 20
661.723133094
 30
0.0
 11
526.2840593215
 21
668.7255814588
 31
0.0
 70
   164
  1
<>
 71
     1
 42
-1.0
  3
SLDDIMSTYLE6
100
AcDbRadialDimension
 15
540.1446245127
 25
660.723133094
 35
0.0
 40
0.0
  0
LINE
  5
2FD
330
1F
100
AcDbEntity
  8
0
  6
Continuous
 62
     7
370
    25
100
AcDbLine
 10
1050.2467009631
 20
657.723133094
 30
0.0
 11
1138.2467009631
 21
657.723133094
 31
0.0
  0
LINE
  5
2FE
330
1F
100
AcDbEntity
  8
0
  6
Continuous
 62
     7
370
    25
100
AcDbLine
 10
1050.2467009631
 20
659.723133094
 30
0.0
 11
1138.2467009631
 21
659.723133094
 31
0.0
  0
LINE
  5
2FF
330
1F
100
AcDbEntity
  8
0
  6
Continuous
 62
     7
370
    25
100
AcDbLine
 10
1045.2467009631
 20
657.723133094
 30
0.0
 11
1045.2467009631
 21
659.723133094
 31
0.0
  0
LINE
  5
300
330
1F
100
AcDbEntity
  8
0
  6
Continuous
 62
     7
370
    25
100
AcDbLine
 10
1050.2467009631
 20
657.723133094
 30
0.0
 11
1045.2467009631
 21
657.723133094
 31
0.0
  0
LINE
  5
301
330
1F
100
AcDbEntity
  8
0
  6
Continuous
 62
     7
370
    25
100
AcDbLine
 10
1045.2467009631
 20
659.723133094
 30
0.0
 11
1050.2467009631
 21
659.723133094
 31
0.0
  0
LINE
  5
302
330
1F
100
AcDbEntity
  8
0
  6
Continuous
 62
     7
370
    25
100
AcDbLine
 10
1143.2467009631
 20
659.723133094
 30
0.0
 11
1143.2467009631
 21
657.723133094
 31
0.0
  0
LINE
  5
303
330
1F
100
AcDbEntity
  8
0
  6
Continuous
 62
     7
370
    25
100
AcDbLine
 10
1143.2467009631
 20
657.723133094
 30
0.0
 11
1138.2467009631
 21
657.723133094
 31
0.0
  0
LINE
  5
304
330
1F
100
AcDbEntity
  8
0
  6
Continuous
 62
     7
370
    25
100
AcDbLine
 10
1138.2467009631
 20
659.723133094
 30
0.0
 11
1143.2467009631
 21
659.723133094
 31
0.0
  0
LINE
  5
305
330
1F
100
AcDbEntity
  8
0
  6
Continuous
 62
     7
370
    25
100
AcDbLine
 10
1143.2467009631
 20
659.723133094
 30
0.0
 11
1143.2467009631
 21
661.723133094
 31
0.0
  0
LINE
  5
306
330
1F
100
AcDbEntity
  8
0
  6
Continuous
 62
     7
370
    25
100
AcDbLine
 10
1045.2467009631
 20
661.723133094
 30
0.0
 11
1045.2467009631
 21
659.723133094
 31
0.0
  0
LINE
  5
307
330
1F
100
AcDbEntity
  8
0
  6
Continuous
 62
     7
370
    25
100
AcDbLine
 10
1150.2467009631
 20
660.3284410169
 30
0.0
 11
1144.2467009631
 21
660.3284410169
 31
0.0
  0
LINE
  5
308
330
1F
100
AcDbEntity
  8
0
  6
Continuous
 62
     7
370
    25
100
AcDbLine
 10
1144.2467009631
 20
661.723133094
 30
0.0
 11
1144.2467009631
 21
660.3284410169
 31
0.0
  0
ARC
  5
309
330
1F
100
AcDbEntity
  8
0
  6
Continuous
 62
     7
370
    25
100
AcDbCircle
 10
1143.7467009631
 20
661.723133094
 30
0.0
 40
0.5
100
AcDbArc
 50
0.0
 51
180.0
  0
ARC
  5
30A
330
1F
100
AcDbEntity
  8
0
  6
Continuous
 62
     7
370
    25
100
AcDbCircle
 10
1044.7467009631
 20
661.723133094
 30
0.0
 40
0.5
100
AcDbArc
 50
0.0
 51
180.0
  0
LINE
  5
30B
330
1F
100
AcDbEntity
  8
0
  6
Continuous
 62
     7
370
    25
100
AcDbLine
 10
1044.2467009631
 20
660.3284410169
 30
0.0
 11
1044.2467009631
 21
661.723133094
 31
0.0
  0
LINE
  5
30C
330
1F
100
AcDbEntity
  8
0
  6
Continuous
 62
     7
370
    25
100
AcDbLine
 10
1044.2467009631
 20
660.3284410169
 30
0.0
 11
1034.2467009631
 21
660.3284410169
 31
0.0
  0
LINE
  5
30D
330
1F
100
AcDbEntity
  8
0
  6
Continuous
 62
     7
370
    25
100
AcDbLine
 10
1034.2467009631
 20
660.3284410169
 30
0.0
 11
1034.2467009631
 21
689.623133094
 31
0.0
  0
LINE
  5
30E
330
1F
100
AcDbEntity
  8
0
  6
Continuous
 62
     7
370
    25
100
AcDbLine
 10
1091.2780356046
 20
775.1701350563
 30
0.0
 11
1034.2467009631
 21
689.623133094
 31
0.0
  0
ARC
  5
30F
330
1F
100
AcDbEntity
  8
0
  6
Continuous
 62
     7
370
    25
100
AcDbCircle
 10
1099.598538548
 20
769.623133094
 30
0.0
 40
10.00000000000002
100
AcDbArc
 50
90.0
 51
146.309932474
  0
LINE
  5
310
330
1F
100
AcDbEntity
  8
0
  6
Continuous
 62
     7
370
    25
100
AcDbLine
 10
1099.598538548
 20
779.623133094
 30
0.0
 11
1150.2467009631
 21
779.623133094
 31
0.0
  0
LINE
  5
311
330
1F
100
AcDbEntity
  8
0
  6
Continuous
 62
     7
370
    25
100
AcDbLine
 10
1154.2467009631
 20
660.3284410169
 30
0.0
 11
1150.2467009631
 21
660.3284410169
 31
0.0
  0
LINE
  5
312
330
1F
100
AcDbEntity
  8
0
  6
Continuous
 62
     7
370
    25
100
AcDbLine
 10
1150.2467009631
 20
779.623133094
 30
0.0
 11
1154.2467009631
 21
779.623133094
 31
0.0
  0
LINE
  5
313
330
1F
100
AcDbEntity
  8
0
  6
Continuous
 62
     7
370
    25
100
AcDbLine
 10
1154.2467009631
 20
779.623133094
 30
0.0
 11
1154.2467009631
 21
660.3284410169
 31
0.0
  0
LINE
  5
314
330
1F
100
AcDbEntity
  8
0
  6
Continuous
 62
     7
370
    25
100
AcDbLine
 10
1146.3768174652
 20
638.0008058898
 30
0.0
 11
1145.6927771785
 21
636.1214206482
 31
0.0
  0
LINE
  5
315
330
1F
100
AcDbEntity
  8
0
  6
Continuous
 62
     7
370
    25
100
AcDbLine
 10
1145.6927771785
 20
636.1214206482
 30
0.0
 11
1143.8133919369
 21
636.8054609348
 31
0.0
  0
LINE
  5
316
330
1F
100
AcDbEntity
  8
0
  6
Continuous
 62
     7
370
    25
100
AcDbLine
 10
1143.8133919369
 20
636.8054609348
 30
0.0
 11
1144.4974322236
 21
638.6848461764
 31
0.0
  0
LINE
  5
317
330
1F
100
AcDbEntity
  8
0
  6
Continuous
 62
     7
370
    25
100
AcDbLine
 10
1154.0054714462
 20
658.9603604436
 30
0.0
 11
1152.1260862047
 21
659.6444007302
 31
0.0
  0
LINE
  5
318
330
1F
100
AcDbEntity
  8
0
  6
Continuous
 62
     7
370
    25
100
AcDbLine
 10
1152.1260862047
 20
659.6444007302
 30
0.0
 11
1144.4974322236
 21
638.6848461764
 31
0.0
  0
LINE
  5
319
330
1F
100
AcDbEntity
  8
0
  6
Continuous
 62
     7
370
    25
100
AcDbLine
 10
1154.0054714462
 20
658.9603604436
 30
0.0
 11
1146.3768174652
 21
638.0008058898
 31
0.0
  0
ARC
  5
31A
330
1F
100
AcDbEntity
  8
0
  6
Continuous
 62
     7
370
    25
100
AcDbCircle
 10
1150.2467009631
 20
660.3284410169
 30
0.0
 40
4.0
100
AcDbArc
 50
340.0
 51
0.0
  0
ARC
  5
31B
330
1F
100
AcDbEntity
  8
0
  6
Continuous
 62
     7
370
    25
100
AcDbCircle
 10
1150.2467009631
 20
660.3284410169
 30
0.0
 40
2.0
100
AcDbArc
 50
340.0
 51
0.0
  0
LINE
  5
31C
330
1F
100
AcDbEntity
  8
0
  6
PHANTOM
 62
     8
370
    18
100
AcDbLine
 10
1138.2467009631
 20
657.723133094
 30
0.0
 11
1138.2467009631
 21
659.723133094
 31
0.0
  0
LINE
  5
31D
330
1F
100
AcDbEntity
  8
0
  6
PHANTOM
 62
     8
370
    18
100
AcDbLine
 10
1050.2467009631
 20
659.723133094
 30
0.0
 11
1050.2467009631
 21
657.723133094
 31
0.0
  0
LINE
  5
31E
330
1F
100
AcDbEntity
  8
0
  6
PHANTOM
 62
     8
370
    18
100
AcDbLine
 10
1045.2467009631
 20
661.723133094
 30
0.0
 11
1143.2467009631
 21
661.723133094
 31
0.0
  0
LINE
  5
31F
330
1F
100
AcDbEntity
  8
0
  6
PHANTOM
 62
     8
370
    18
100
AcDbLine
 10
1150.2467009631
 20
779.623133094
 30
0.0
 11
1150.2467009631
 21
660.3284410169
 31
0.0
  0
LINE
  5
320
330
1F
100
AcDbEntity
  8
0
  6
PHANTOM
 62
     8
370
    18
100
AcDbLine
 10
1144.4974322236
 20
638.6848461764
 30
0.0
 11
1146.3768174652
 21
638.0008058898
 31
0.0
  0
LINE
  5
321
330
1F
100
AcDbEntity
  8
0
  6
HIDDEN
 62
     7
370
    18
100
AcDbLine
 10
1152.2467009631
 20
779.623133094
 30
0.0
 11
1152.2467009631
 21
660.3284410169
 31
0.0
  0
LINE
  5
322
330
1F
100
AcDbEntity
  8
0
  6
HIDDEN
 62
     7
370
    18
100
AcDbLine
 10
1067.7467009631
 20
657.723133094
 30
0.0
 11
1067.7467009631
 21
659.723133094
 31
0.0
  0
LINE
  5
323
330
1F
100
AcDbEntity
  8
0
  6
HIDDEN
 62
     7
370
    18
100
AcDbLine
 10
1060.7467009631
 20
659.723133094
 30
0.0
 11
1060.7467009631
 21
657.723133094
 31
0.0
  0
LINE
  5
324
330
1F
100
AcDbEntity
  8
0
  6
HIDDEN
 62
     7
370
    18
100
AcDbLine
 10
1127.7467009631
 20
657.723133094
 30
0.0
 11
1127.7467009631
 21
659.723133094
 31
0.0
  0
LINE
  5
325
330
1F
100
AcDbEntity
  8
0
  6
HIDDEN
 62
     7
370
    18
100
AcDbLine
 10
1120.7467009631
 20
659.723133094
 30
0.0
 11
1120.7467009631
 21
657.723133094
 31
0.0
  0
LINE
  5
326
330
1F
100
AcDbEntity
  8
0
  6
HIDDEN
 62
     7
370
    18
100
AcDbLine
 10
1045.2467009631
 20
661.723133094
 30
0.0
 11
1143.2467009631
 21
661.723133094
 31
0.0
  0
LINE
  5
327
330
1F
100
AcDbEntity
  8
0
  6
HIDDEN
 62
     7
370
    18
100
AcDbLine
 10
1150.2467009631
 20
660.3284410169
 30
0.0
 11
1150.2467009631
 21
779.623133094
 31
0.0
  0
LINE
  5
328
330
1F
100
AcDbEntity
  8
0
  6
HIDDEN
 62
     7
370
    18
100
AcDbLine
 10
1146.3768174652
 20
638.0008058898
 30
0.0
 11
1144.4974322236
 21
638.6848461764
 31
0.0
  0
LINE
  5
329
330
1F
100
AcDbEntity
  8
0
  6
HIDDEN
 62
     7
370
    18
100
AcDbLine
 10
1050.2467009631
 20
657.723133094
 30
0.0
 11
1050.2467009631
 21
659.723133094
 31
0.0
  0
LINE
  5
32A
330
1F
100
AcDbEntity
  8
0
  6
HIDDEN
 62
     7
370
    18
100
AcDbLine
 10
1138.2467009631
 20
659.723133094
 30
0.0
 11
1138.2467009631
 21
657.723133094
 31
0.0
  0
DIMENSION
  5
32B
330
1F
100
AcDbEntity
  8
0
  6
Continuous
 62
     7
370
    18
100
AcDbDimension
  2
_D_21
 10
1182.3181275432
 20
622.7908832959
 30
0.0
 11
1186.5932570263
 21
634.5367050159
 31
0.0
 70
   160
  1
<>
 71
     2
 42
-1.0
  3
SLDDIMSTYLE1
100
AcDbAlignedDimension
 13
1154.1859319751
 23
659.6338483062
 33
0.0
 14
1145.6927771785
 24
636.1214206482
 34
0.0
 50
70.0
100
AcDbRotatedDimension
  0
DIMENSION
  5
337
330
1F
100
AcDbEntity
  8
0
  6
Continuous
 62
     7
370
    18
100
AcDbDimension
  2
_D_22
 10
1154.2467009631
 20
570.1214206482
 30
0.0
 11
1094.2467009631
 21
570.1214206482
 31
0.0
 70
   160
  1
<>
 71
     2
 42
-1.0
  3
SLDDIMSTYLE0
100
AcDbAlignedDimension
 13
1034.2467009631
 23
660.3284410169
 33
0.0
 14
1154.2467009631
 24
660.3284410169
 34
0.0
100
AcDbRotatedDimension
  0
DIMENSION
  5
341
330
1F
100
AcDbEntity
  8
0
  6
Continuous
 62
     7
370
    18
100
AcDbDimension
  2
_D_23
 10
1154.0054714462
 20
658.9603604436
 30
0.0
 11
1141.7183516056
 21
588.5713331532
 31
0.0
 70
   162
  1
<>
 71
     1
 42
-1.0
  3
SLDDIMSTYLE3
100
AcDb2LineAngularDimension
 13
1154.2467009631
 23
660.3284410169
 33
0.0
 14
1154.2467009631
 24
779.623133094
 34
0.0
 15
1145.6927771785
 25
636.1214206482
 35
0.0
 16
1141.7183516056
 26
588.5713331532
 36
0.0
  0
DIMENSION
  5
34D
330
1F
100
AcDbEntity
  8
0
  6
Continuous
 62
     7
370
    18
100
AcDbDimension
  2
_D_24
 10
1150.2467009631
 20
660.3284410169
 30
0.0
 11
1132.203216216
 21
670.7458991133
 31
0.0
 70
   164
  1
<>
 71
     1
 42
-1.0
  3
SLDDIMSTYLE2
100
AcDbRadialDimension
 15
1148.5146501555
 25
661.3284410169
 35
0.0
 40
0.0
  0
LINE
  5
355
330
1F
100
AcDbEntity
  8
0
  6
HIDDEN
 62
     7
100
AcDbLine
 10
121.0322200918
 20
340.9950059046
 30
0.0
 11
240.326912169
 21
340.9950059046
 31
0.0
  0
LINE
  5
356
330
1F
100
AcDbEntity
  8
0
  6
HIDDEN
 62
     7
100
AcDbLine
 10
240.326912169
 20
666.8162445011
 30
0.0
 11
121.0322200918
 21
666.8162445011
 31
0.0
  0
LINE
  5
357
330
1F
100
AcDbEntity
  8
0
  6
HIDDEN
 62
     7
100
AcDbLine
 10
240.7737164575
 20
343.0056252028
 30
0.0
 11
240.7737164575
 21
664.8056252028
 31
0.0
  0
LINE
  5
358
330
1F
100
AcDbEntity
  8
0
  6
Continuous
 62
     7
100
AcDbLine
 10
240.9428393901
 20
233.9843866063
 30
0.0
 11
240.9428393901
 21
331.9843866063
 31
0.0
  0
LINE
  5
359
330
1F
100
AcDbEntity
  8
0
  6
Continuous
 62
     7
100
AcDbLine
 10
240.9428393901
 20
675.8268637994
 30
0.0
 11
240.9428393901
 21
773.8268637994
 31
0.0
  0
CIRCLE
  5
35A
330
1F
100
AcDbEntity
  8
0
  6
Continuous
 62
     7
370
    25
100
AcDbCircle
 10
261.0534586884
 20
694.8268637994
 30
0.0
 40
3.499999999999943
  0
CIRCLE
  5
35B
330
1F
100
AcDbEntity
  8
0
  6
Continuous
 62
     7
370
    25
100
AcDbCircle
 10
261.0534586884
 20
754.8268637994
 30
0.0
 40
3.5
  0
CIRCLE
  5
35C
330
1F
100
AcDbEntity
  8
0
  6
Continuous
 62
     7
370
    25
100
AcDbCircle
 10
261.0534586884
 20
252.9843866063
 30
0.0
 40
3.499999999999943
  0
CIRCLE
  5
35D
330
1F
100
AcDbEntity
  8
0
  6
Continuous
 62
     7
370
    25
100
AcDbCircle
 10
261.0534586884
 20
312.9843866063
 30
0.0
 40
3.500000000000057
  0
ARC
  5
35E
330
1F
100
AcDbEntity
  8
0
  6
Continuous
 62
     7
370
    25
100
AcDbCircle
 10
131.0322200918
 20
719.4750262146
 30
0.0
 40
10.0
100
AcDbArc
 50
123.690067526
 51
180.0
  0
LINE
  5
35F
330
1F
100
AcDbEntity
  8
0
  6
Continuous
 62
     7
370
    25
100
AcDbLine
 10
125.4852181296
 20
727.7955291579
 30
0.0
 11
211.0322200918
 21
784.8268637994
 31
0.0
  0
LINE
  5
360
330
1F
100
AcDbEntity
  8
0
  6
Continuous
 62
     7
370
    25
100
AcDbLine
 10
211.0322200918
 20
784.8268637994
 30
0.0
 11
240.326912169
 21
784.8268637994
 31
0.0
  0
LINE
  5
361
330
1F
100
AcDbEntity
  8
0
  6
Continuous
 62
     7
370
    25
100
AcDbLine
 10
240.326912169
 20
784.8268637994
 30
0.0
 11
240.326912169
 21
774.8268637994
 31
0.0
  0
LINE
  5
362
330
1F
100
AcDbEntity
  8
0
  6
Continuous
 62
     7
370
    25
100
AcDbLine
 10
240.326912169
 20
774.8268637994
 30
0.0
 11
238.9322200918
 21
774.8268637994
 31
0.0
  0
ARC
  5
363
330
1F
100
AcDbEntity
  8
0
  6
Continuous
 62
     7
370
    25
100
AcDbCircle
 10
238.9322200918
 20
774.3268637994
 30
0.0
 40
0.5000000000001137
100
AcDbArc
 50
90.0
 51
270.0
  0
LINE
  5
364
330
1F
100
AcDbEntity
  8
0
  6
Continuous
 62
     7
370
    25
100
AcDbLine
 10
268.9534586884
 20
773.8268637994
 30
0.0
 11
238.9322200918
 21
773.8268637994
 31
0.0
  0
ARC
  5
365
330
1F
100
AcDbEntity
  8
0
  6
Continuous
 62
     7
370
    25
100
AcDbCircle
 10
268.9534586884
 20
768.8268637994
 30
0.0
 40
4.999999999999943
100
AcDbArc
 50
0.0
 51
90.0
  0
LINE
  5
366
330
1F
100
AcDbEntity
  8
0
  6
Continuous
 62
     7
370
    25
100
AcDbLine
 10
273.9534586884
 20
680.8268637994
 30
0.0
 11
273.9534586884
 21
768.8268637994
 31
0.0
  0
ARC
  5
367
330
1F
100
AcDbEntity
  8
0
  6
Continuous
 62
     7
370
    25
100
AcDbCircle
 10
268.9534586884
 20
680.8268637994
 30
0.0
 40
5.0
100
AcDbArc
 50
270.0
 51
0.0
  0
LINE
  5
368
330
1F
100
AcDbEntity
  8
0
  6
Continuous
 62
     7
370
    25
100
AcDbLine
 10
238.9322200918
 20
675.8268637994
 30
0.0
 11
268.9534586884
 21
675.8268637994
 31
0.0
  0
ARC
  5
369
330
1F
100
AcDbEntity
  8
0
  6
Continuous
 62
     7
370
    25
100
AcDbCircle
 10
238.9322200918
 20
675.3268637994
 30
0.0
 40
0.5000000000001137
100
AcDbArc
 50
90.0
 51
270.0
  0
LINE
  5
36A
330
1F
100
AcDbEntity
  8
0
  6
Continuous
 62
     7
370
    25
100
AcDbLine
 10
238.9322200918
 20
674.8268637994
 30
0.0
 11
240.326912169
 21
674.8268637994
 31
0.0
  0
LINE
  5
36B
330
1F
100
AcDbEntity
  8
0
  6
Continuous
 62
     7
370
    25
100
AcDbLine
 10
240.326912169
 20
674.8268637994
 30
0.0
 11
240.326912169
 21
664.8056252028
 31
0.0
  0
LINE
  5
36C
330
1F
100
AcDbEntity
  8
0
  6
Continuous
 62
     7
370
    25
100
AcDbLine
 10
240.326912169
 20
664.8056252028
 30
0.0
 11
241.220520746
 21
664.8056252028
 31
0.0
  0
LINE
  5
36D
330
1F
100
AcDbEntity
  8
0
  6
Continuous
 62
     7
370
    25
100
AcDbLine
 10
241.220520746
 20
666.8056252028
 30
0.0
 11
241.220520746
 21
664.8056252028
 31
0.0
  0
LINE
  5
36E
330
1F
100
AcDbEntity
  8
0
  6
Continuous
 62
     7
370
    25
100
AcDbLine
 10
241.220520746
 20
666.8056252028
 30
0.0
 11
263.5252128232
 21
666.8056252028
 31
0.0
  0
ARC
  5
36F
330
1F
100
AcDbEntity
  8
0
  6
Continuous
 62
     7
370
    25
100
AcDbCircle
 10
263.5252128232
 20
664.8056252028
 30
0.0
 40
2.0
100
AcDbArc
 50
0.0
 51
90.0
  0
LINE
  5
370
330
1F
100
AcDbEntity
  8
0
  6
Continuous
 62
     7
370
    25
100
AcDbLine
 10
265.5252128232
 20
664.8056252028
 30
0.0
 11
265.5252128232
 21
343.0056252028
 31
0.0
  0
ARC
  5
371
330
1F
100
AcDbEntity
  8
0
  6
Continuous
 62
     7
370
    25
100
AcDbCircle
 10
263.5252128232
 20
343.0056252028
 30
0.0
 40
2.0
100
AcDbArc
 50
270.0
 51
0.0
  0
LINE
  5
372
330
1F
100
AcDbEntity
  8
0
  6
Continuous
 62
     7
370
    25
100
AcDbLine
 10
241.220520746
 20
341.0056252028
 30
0.0
 11
263.5252128232
 21
341.0056252028
 31
0.0
  0
LINE
  5
373
330
1F
100
AcDbEntity
  8
0
  6
Continuous
 62
     7
370
    25
100
AcDbLine
 10
241.220520746
 20
343.0056252028
 30
0.0
 11
241.220520746
 21
341.0056252028
 31
0.0
  0
LINE
  5
374
330
1F
100
AcDbEntity
  8
0
  6
Continuous
 62
     7
370
    25
100
AcDbLine
 10
241.220520746
 20
343.0056252028
 30
0.0
 11
240.326912169
 21
343.0056252028
 31
0.0
  0
LINE
  5
375
330
1F
100
AcDbEntity
  8
0
  6
Continuous
 62
     7
370
    25
100
AcDbLine
 10
240.326912169
 20
343.0056252028
 30
0.0
 11
240.326912169
 21
332.9843866063
 31
0.0
  0
LINE
  5
376
330
1F
100
AcDbEntity
  8
0
  6
Continuous
 62
     7
370
    25
100
AcDbLine
 10
238.9322200918
 20
332.9843866063
 30
0.0
 11
240.326912169
 21
332.9843866063
 31
0.0
  0
ARC
  5
377
330
1F
100
AcDbEntity
  8
0
  6
Continuous
 62
     7
370
    25
100
AcDbCircle
 10
238.9322200918
 20
332.4843866063
 30
0.0
 40
0.5
100
AcDbArc
 50
90.0
 51
270.0
  0
LINE
  5
378
330
1F
100
AcDbEntity
  8
0
  6
Continuous
 62
     7
370
    25
100
AcDbLine
 10
268.9534586884
 20
331.9843866063
 30
0.0
 11
238.9322200918
 21
331.9843866063
 31
0.0
  0
ARC
  5
379
330
1F
100
AcDbEntity
  8
0
  6
Continuous
 62
     7
370
    25
100
AcDbCircle
 10
268.9534586884
 20
326.9843866063
 30
0.0
 40
5.000000000000057
100
AcDbArc
 50
0.0
 51
90.0
  0
LINE
  5
37A
330
1F
100
AcDbEntity
  8
0
  6
Continuous
 62
     7
370
    25
100
AcDbLine
 10
273.9534586884
 20
238.9843866063
 30
0.0
 11
273.9534586884
 21
326.9843866063
 31
0.0
  0
ARC
  5
37B
330
1F
100
AcDbEntity
  8
0
  6
Continuous
 62
     7
370
    25
100
AcDbCircle
 10
268.9534586884
 20
238.9843866063
 30
0.0
 40
5.000000000000057
100
AcDbArc
 50
270.0
 51
0.0
  0
LINE
  5
37C
330
1F
100
AcDbEntity
  8
0
  6
Continuous
 62
     7
370
    25
100
AcDbLine
 10
238.9322200918
 20
233.9843866063
 30
0.0
 11
268.9534586884
 21
233.9843866063
 31
0.0
  0
ARC
  5
37D
330
1F
100
AcDbEntity
  8
0
  6
Continuous
 62
     7
370
    25
100
AcDbCircle
 10
238.9322200918
 20
233.4843866063
 30
0.0
 40
0.5000000000000568
100
AcDbArc
 50
90.0
 51
270.0
  0
LINE
  5
37E
330
1F
100
AcDbEntity
  8
0
  6
Continuous
 62
     7
370
    25
100
AcDbLine
 10
240.326912169
 20
232.9843866063
 30
0.0
 11
238.9322200918
 21
232.9843866063
 31
0.0
  0
LINE
  5
37F
330
1F
100
AcDbEntity
  8
0
  6
Continuous
 62
     7
370
    25
100
AcDbLine
 10
240.326912169
 20
232.9843866063
 30
0.0
 11
240.326912169
 21
222.9843866063
 31
0.0
  0
LINE
  5
380
330
1F
100
AcDbEntity
  8
0
  6
Continuous
 62
     7
370
    25
100
AcDbLine
 10
240.326912169
 20
222.9843866063
 30
0.0
 11
211.0322200918
 21
222.9843866063
 31
0.0
  0
LINE
  5
381
330
1F
100
AcDbEntity
  8
0
  6
Continuous
 62
     7
370
    25
100
AcDbLine
 10
125.4852181296
 20
280.0157212478
 30
0.0
 11
211.0322200918
 21
222.9843866063
 31
0.0
  0
ARC
  5
382
330
1F
100
AcDbEntity
  8
0
  6
Continuous
 62
     7
370
    25
100
AcDbCircle
 10
131.0322200918
 20
288.3362241911
 30
0.0
 40
10.0
100
AcDbArc
 50
180.0
 51
236.309932474
  0
LINE
  5
383
330
1F
100
AcDbEntity
  8
0
  6
Continuous
 62
     7
370
    25
100
AcDbLine
 10
121.0322200918
 20
719.4750262146
 30
0.0
 11
121.0322200918
 21
288.3362241911
 31
0.0
  0
DIMENSION
  5
384
330
1F
100
AcDbEntity
  8
0
  6
Continuous
 62
     7
370
    18
100
AcDbDimension
  2
_D_25
 10
291.9534586884
 20
222.9843866063
 30
0.0
 11
291.9534586884
 21
503.9056252028
 31
0.0
 70
   160
  1
<>
 71
     2
 42
-1.0
  3
SLDDIMSTYLE7
100
AcDbAlignedDimension
 13
240.326912169
 23
784.8268637994
 33
0.0
 14
240.326912169
 24
222.9843866063
 34
0.0
 50
90.0
100
AcDbRotatedDimension
  0
MTEXT
  5
390
330
1F
100
AcDbEntity
  8
0
  6
Continuous
 62
     7
370
     0
100
AcDbMText
 10
229.1602551257
 20
281.0093854723
 30
0.0
 40
9.0
 41
0.0
 71
     2
 72
     1
  1
SU  90°  R 2
  7
SLDTEXTSTYLE6
 11
-3.491481338843133E-15
 21
1.0
 31
0.0
 73
     1
 44
1.0
  0
MTEXT
  5
391
330
1F
100
AcDbEntity
  8
0
  6
Continuous
 62
     7
370
     0
100
AcDbMText
 10
229.5082829679
 20
722.8518626655
 30
0.0
 40
9.0
 41
0.0
 71
     2
 72
     1
  1
SU  90°  R 2
  7
SLDTEXTSTYLE6
 11
-3.491481338843133E-15
 21
1.0
 31
0.0
 73
     1
 44
1.0
  0
MTEXT
  5
393
330
1F
100
AcDbEntity
  8
0
  6
Continuous
 62
     7
370
     0
100
AcDbMText
 10
178.83893998
 20
352.4295623268
 30
0.0
 40
9.0
 41
0.0
 71
     2
 72
     1
  1
GIU'  90°  R 2
  7
SLDTEXTSTYLE7
 73
     1
 44
1.0
  0
MTEXT
  5
394
330
1F
100
AcDbEntity
  8
0
  6
Continuous
 62
     7
370
     0
100
AcDbMText
 10
178.83893998
 20
678.2508009233
 30
0.0
 40
9.0
 41
0.0
 71
     2
 72
     1
  1
GIU'  90°  R 2
  7
SLDTEXTSTYLE7
 73
     1
 44
1.0
  0
MTEXT
  5
395
330
1F
100
AcDbEntity
  8
0
  6
Continuous
 62
     7
370
     0
100
AcDbMText
 10
229.3391600353
 20
502.0649990525
 30
0.0
 40
9.0
 41
0.0
 71
     2
 72
     1
  1
GIU'  20°  R 2
  7
SLDTEXTSTYLE7
 11
-3.491481338843133E-15
 21
1.0
 31
0.0
 73
     1
 44
1.0
  0
INSERT
  5
39A
330
1F
100
AcDbEntity
  8
0
  6
Continuous
 62
     7
370
     0
100
AcDbBlockReference
  2
SW_NOTE_0_1
 10
149.0638051044
 20
782.7146171694
 30
0.0
  0
LEADER
  5
3A1
330
1F
100
AcDbEntity
  8
0
  6
Continuous
 62
     7
370
     0
100
AcDbLeader
  3
SLDDIMSTYLE8
 76
     2
 10
184.6269623199
 20
733.2180844153
 30
0.0
 10
149.0638051044
 20
782.7146171694
 30
0.0
  0
LINE
  5
3A2
330
1F
100
AcDbEntity
  8
0
  6
Continuous
 62
     7
370
    25
100
AcDbLine
 10
211.0322200918
 20
163.3359744509
 30
0.0
 11
211.0322200918
 21
161.3359744509
 31
0.0
  0
LINE
  5
3A3
330
1F
100
AcDbEntity
  8
0
  6
Continuous
 62
     7
370
    25
100
AcDbLine
 10
240.326912169
 20
161.3359744509
 30
0.0
 11
240.326912169
 21
163.3359744509
 31
0.0
  0
LINE
  5
3A4
330
1F
100
AcDbEntity
  8
0
  6
Continuous
 62
     7
370
    25
100
AcDbLine
 10
211.0322200918
 20
161.3359744509
 30
0.0
 11
240.326912169
 21
161.3359744509
 31
0.0
  0
LINE
  5
3A5
330
1F
100
AcDbEntity
  8
0
  6
Continuous
 62
     7
370
    25
100
AcDbLine
 10
211.0322200918
 20
163.3359744509
 30
0.0
 11
240.326912169
 21
163.3359744509
 31
0.0
  0
LINE
  5
3A6
330
1F
100
AcDbEntity
  8
0
  6
Continuous
 62
     7
370
    25
100
AcDbLine
 10
125.4852181296
 20
163.3359744509
 30
0.0
 11
125.4852181296
 21
161.3359744509
 31
0.0
  0
LINE
  5
3A7
330
1F
100
AcDbEntity
  8
0
  6
Continuous
 62
     7
370
    25
100
AcDbLine
 10
125.4852181296
 20
161.3359744509
 30
0.0
 11
211.0322200918
 21
161.3359744509
 31
0.0
  0
LINE
  5
3A8
330
1F
100
AcDbEntity
  8
0
  6
Continuous
 62
     7
370
    25
100
AcDbLine
 10
125.4852181296
 20
163.3359744509
 30
0.0
 11
211.0322200918
 21
163.3359744509
 31
0.0
  0
LINE
  5
3A9
330
1F
100
AcDbEntity
  8
0
  6
Continuous
 62
     7
370
    25
100
AcDbLine
 10
273.9534586884
 20
163.3359744509
 30
0.0
 11
273.9534586884
 21
161.3359744509
 31
0.0
  0
LINE
  5
3AA
330
1F
100
AcDbEntity
  8
0
  6
Continuous
 62
     7
370
    25
100
AcDbLine
 10
268.9534586884
 20
161.3359744509
 30
0.0
 11
268.9534586884
 21
163.3359744509
 31
0.0
  0
LINE
  5
3AB
330
1F
100
AcDbEntity
  8
0
  6
Continuous
 62
     7
370
    25
100
AcDbLine
 10
273.9534586884
 20
161.3359744509
 30
0.0
 11
268.9534586884
 21
161.3359744509
 31
0.0
  0
LINE
  5
3AC
330
1F
100
AcDbEntity
  8
0
  6
Continuous
 62
     7
370
    25
100
AcDbLine
 10
268.9534586884
 20
163.3359744509
 30
0.0
 11
273.9534586884
 21
163.3359744509
 31
0.0
  0
LINE
  5
3AD
330
1F
100
AcDbEntity
  8
0
  6
Continuous
 62
     7
370
    25
100
AcDbLine
 10
268.9534586884
 20
161.3359744509
 30
0.0
 11
240.326912169
 21
161.3359744509
 31
0.0
  0
LINE
  5
3AE
330
1F
100
AcDbEntity
  8
0
  6
Continuous
 62
     7
370
    25
100
AcDbLine
 10
268.9534586884
 20
163.3359744509
 30
0.0
 11
240.326912169
 21
163.3359744509
 31
0.0
  0
LINE
  5
3AF
330
1F
100
AcDbEntity
  8
0
  6
Continuous
 62
     7
370
    25
100
AcDbLine
 10
121.0322200918
 20
161.3359744509
 30
0.0
 11
121.0322200918
 21
163.3359744509
 31
0.0
  0
LINE
  5
3B0
330
1F
100
AcDbEntity
  8
0
  6
Continuous
 62
     7
370
    25
100
AcDbLine
 10
125.4852181296
 20
161.3359744509
 30
0.0
 11
121.0322200918
 21
161.3359744509
 31
0.0
  0
LINE
  5
3B1
330
1F
100
AcDbEntity
  8
0
  6
Continuous
 62
     7
370
    25
100
AcDbLine
 10
121.0322200918
 20
163.3359744509
 30
0.0
 11
125.4852181296
 21
163.3359744509
 31
0.0
  0
DIMENSION
  5
3B2
330
1F
100
AcDbEntity
  8
0
  6
Continuous
 62
     7
370
    18
100
AcDbDimension
  2
_D_26
 10
273.9534586884
 20
143.3359744509
 30
0.0
 11
197.4928393901
 21
143.3359744509
 31
0.0
 70
   160
  1
<>
 71
     2
 42
-1.0
  3
SLDDIMSTYLE7
100
AcDbAlignedDimension
 13
121.0322200918
 23
161.3359744509
 33
0.0
 14
273.9534586884
 24
161.3359744509
 34
0.0
 50
0.0
100
AcDbRotatedDimension
  0
DIMENSION
  5
3BC
330
1F
100
AcDbEntity
  8
0
  6
Continuous
 62
     7
370
    18
100
AcDbDimension
  2
_D_27
 10
103.0322200918
 20
163.3359744509
 30
0.0
 11
103.0322200918
 21
178.8200709271
 31
0.0
 70
   160
  1
<>
 71
     2
 42
-1.0
  3
SLDDIMSTYLE1
100
AcDbAlignedDimension
 13
121.0322200918
 23
161.3359744509
 33
0.0
 14
121.0322200918
 24
163.3359744509
 34
0.0
 50
90.0
100
AcDbRotatedDimension
  0
ENDSEC
  0
SECTION
  2
OBJECTS
  0
DICTIONARY
  5
C
330
0
100
AcDbDictionary
281
     1
  3
ACAD_GROUP
350
D
  3
ACAD_LAYOUT
350
1A
  3
ACAD_MLINESTYLE
350
17
  3
ACAD_PLOTSETTINGS
350
19
  3
ACAD_PLOTSTYLENAME
350
E
  3
ACAD_SCALELIST
350
47
  3
DWGPROPS
350
3C8
  0
DICTIONARY
  5
D
102
{ACAD_REACTORS
330
C
102
}
330
C
100
AcDbDictionary
281
     1
  0
DICTIONARY
  5
1A
102
{ACAD_REACTORS
330
C
102
}
330
C
100
AcDbDictionary
281
     1
  3
Layout1
350
1E
  3
Layout2
350
26
  3
Model
350
22
  0
DICTIONARY
  5
17
102
{ACAD_REACTORS
330
C
102
}
330
C
100
AcDbDictionary
281
     1
  3
Standard
350
18
  0
DICTIONARY
  5
19
102
{ACAD_REACTORS
330
C
102
}
330
C
100
AcDbDictionary
281
     1
  0
ACDBDICTIONARYWDFLT
  5
E
102
{ACAD_REACTORS
330
C
102
}
330
C
100
AcDbDictionary
281
     1
  3
Normal
350
F
100
AcDbDictionaryWithDefault
340
F
  0
DICTIONARY
  5
47
102
{ACAD_REACTORS
330
C
102
}
330
C
100
AcDbDictionary
281
     1
  3
A0
350
48
  3
A1
350
49
  3
A2
350
4A
  3
A3
350
4B
  3
A4
350
4C
  3
A5
350
4D
  3
A6
350
4E
  3
A7
350
4F
  3
A8
350
50
  3
A9
350
51
  3
B0
350
52
  3
B1
350
53
  3
B2
350
54
  3
B3
350
55
  3
B4
350
56
  3
B5
350
57
  3
B6
350
58
  0
XRECORD
  5
3C8
102
{ACAD_REACTORS
330
C
102
}
330
C
100
AcDbXrecord
280
     1
  1
DWGPROPS COOKIE
  2

  3

  4

  6

  7

  8
antonio messinetti
  9

300
=
301
=
302
=
303
=
304
=
305
=
306
=
307
=
308
=
309
=
 40
0.0
 41
2460663.457285591
 42
2460663.457287419
  1

 90
        0
  0
LAYOUT
  5
1E
102
{ACAD_REACTORS
330
1A
102
}
330
1A
100
AcDbPlotSettings
  1

  2
none_device
  4

  6

 40
0.0
 41
0.0
 42
0.0
 43
0.0
 44
0.0
 45
0.0
 46
0.0
 47
0.0
 48
0.0
 49
0.0
140
0.0
141
0.0
142
1.0
143
1.0
 70
   688
 72
     1
 73
     0
 74
     5
  7

 75
    16
147
1.0
148
0.0
149
0.0
100
AcDbLayout
  1
Layout1
 70
     1
 71
     1
 10
0.0
 20
0.0
 11
420.0
 21
297.0
 12
0.0
 22
0.0
 32
0.0
 14
1.0000000000E+20
 24
1.0000000000E+20
 34
1.0000000000E+20
 15
-1.0000000000E+20
 25
-1.0000000000E+20
 35
-1.0000000000E+20
146
0.0
 13
0.0
 23
0.0
 33
0.0
 16
1.0
 26
0.0
 36
0.0
 17
0.0
 27
1.0
 37
0.0
 76
     0
330
1B
  0
LAYOUT
  5
26
102
{ACAD_REACTORS
330
1A
102
}
330
1A
100
AcDbPlotSettings
  1

  2
none_device
  4

  6

 40
0.0
 41
0.0
 42
0.0
 43
0.0
 44
0.0
 45
0.0
 46
0.0
 47
0.0
 48
0.0
 49
0.0
140
0.0
141
0.0
142
1.0
143
1.0
 70
   688
 72
     1
 73
     0
 74
     5
  7

 75
    16
147
1.0
148
0.0
149
0.0
100
AcDbLayout
  1
Layout2
 70
     1
 71
     2
 10
0.0
 20
0.0
 11
0.0
 21
0.0
 12
0.0
 22
0.0
 32
0.0
 14
0.0
 24
0.0
 34
0.0
 15
0.0
 25
0.0
 35
0.0
146
0.0
 13
0.0
 23
0.0
 33
0.0
 16
1.0
 26
0.0
 36
0.0
 17
0.0
 27
1.0
 37
0.0
 76
     0
330
23
  0
LAYOUT
  5
22
102
{ACAD_REACTORS
330
1A
102
}
330
1A
100
AcDbPlotSettings
  1

  2
none_device
  4
Letter_(8.50_x_11.00_Inches)
  6

 40
6.35
 41
6.35
 42
6.35000508
 43
6.35000508
 44
215.9
 45
279.4
 46
0.0
 47
0.0
 48
0.0
 49
0.0
140
0.0
141
0.0
142
1.0
143
1.0
 70
  1712
 72
     1
 73
     0
 74
     0
  7

 75
     0
147
1.0
148
0.0
149
0.0
100
AcDbLayout
  1
Model
 70
     1
 71
     0
 10
0.0
 20
0.0
 11
1260.0
 21
891.0
 12
0.0
 22
0.0
 32
0.0
 14
0.0
 24
0.0
 34
0.0
 15
1260.0
 25
891.0
 35
0.0
146
0.0
 13
0.0
 23
0.0
 33
0.0
 16
1.0
 26
0.0
 36
0.0
 17
0.0
 27
1.0
 37
0.0
 76
     0
330
1F
331
29
  0
MLINESTYLE
  5
18
102
{ACAD_REACTORS
330
17
102
}
330
17
100
AcDbMlineStyle
  2
Standard
 70
     0
  3

 62
   256
 51
90.0
 52
90.0
 71
     2
 49
0.5
 62
   256
  6
BYLAYER
 49
-0.5
 62
   256
  6
BYLAYER
  0
ACDBPLACEHOLDER
  5
F
102
{ACAD_REACTORS
330
E
102
}
330
E
  0
SCALE
  5
48
102
{ACAD_REACTORS
330
47
102
}
330
47
100
AcDbScale
 70
     0
300
1:1
140
1.0
141
1.0
290
     1
  0
SCALE
  5
49
102
{ACAD_REACTORS
330
47
102
}
330
47
100
AcDbScale
 70
     0
300
1:2
140
1.0
141
2.0
290
     0
  0
SCALE
  5
4A
102
{ACAD_REACTORS
330
47
102
}
330
47
100
AcDbScale
 70
     0
300
1:4
140
1.0
141
4.0
290
     0
  0
SCALE
  5
4B
102
{ACAD_REACTORS
330
47
102
}
330
47
100
AcDbScale
 70
     0
300
1:5
140
1.0
141
5.0
290
     0
  0
SCALE
  5
4C
102
{ACAD_REACTORS
330
47
102
}
330
47
100
AcDbScale
 70
     0
300
1:8
140
1.0
141
8.0
290
     0
  0
SCALE
  5
4D
102
{ACAD_REACTORS
330
47
102
}
330
47
100
AcDbScale
 70
     0
300
1:10
140
1.0
141
10.0
290
     0
  0
SCALE
  5
4E
102
{ACAD_REACTORS
330
47
102
}
330
47
100
AcDbScale
 70
     0
300
1:16
140
1.0
141
16.0
290
     0
  0
SCALE
  5
4F
102
{ACAD_REACTORS
330
47
102
}
330
47
100
AcDbScale
 70
     0
300
1:20
140
1.0
141
20.0
290
     0
  0
SCALE
  5
50
102
{ACAD_REACTORS
330
47
102
}
330
47
100
AcDbScale
 70
     0
300
1:30
140
1.0
141
30.0
290
     0
  0
SCALE
  5
51
102
{ACAD_REACTORS
330
47
102
}
330
47
100
AcDbScale
 70
     0
300
1:40
140
1.0
141
40.0
290
     0
  0
SCALE
  5
52
102
{ACAD_REACTORS
330
47
102
}
330
47
100
AcDbScale
 70
     0
300
1:50
140
1.0
141
50.0
290
     0
  0
SCALE
  5
53
102
{ACAD_REACTORS
330
47
102
}
330
47
100
AcDbScale
 70
     0
300
1:100
140
1.0
141
100.0
290
     0
  0
SCALE
  5
54
102
{ACAD_REACTORS
330
47
102
}
330
47
100
AcDbScale
 70
     0
300
2:1
140
2.0
141
1.0
290
     0
  0
SCALE
  5
55
102
{ACAD_REACTORS
330
47
102
}
330
47
100
AcDbScale
 70
     0
300
4:1
140
4.0
141
1.0
290
     0
  0
SCALE
  5
56
102
{ACAD_REACTORS
330
47
102
}
330
47
100
AcDbScale
 70
     0
300
8:1
140
8.0
141
1.0
290
     0
  0
SCALE
  5
57
102
{ACAD_REACTORS
330
47
102
}
330
47
100
AcDbScale
 70
     0
300
10:1
140
10.0
141
1.0
290
     0
  0
SCALE
  5
58
102
{ACAD_REACTORS
330
47
102
}
330
47
100
AcDbScale
 70
     0
300
100:1
140
100.0
141
1.0
290
     0
  0
ENDSEC
  0
EOF
