  0
SECTION
  2
HEADER
  9
$ACADVER
  1
AC1015
  9
$ACADMAINTVER
 70
     6
  9
$DWGCODEPAGE
  3
ANSI_1252
  9
$INSBASE
 10
0.0
 20
0.0
 30
0.0
  9
$EXTMIN
 10
0.0
 20
0.0
 30
0.0
  9
$EXTMAX
 10
891.0
 20
630.0
 30
0.0
  9
$LIMMIN
 10
0.0
 20
0.0
  9
$LIMMAX
 10
891.0
 20
630.0
  9
$ORTHOMODE
 70
     0
  9
$REGENMODE
 70
     1
  9
$FILLMODE
 70
     1
  9
$QTEXTMODE
 70
     0
  9
$MIRRTEXT
 70
     1
  9
$LTSCALE
 40
3.0
  9
$ATTMODE
 70
     1
  9
$TEXTSIZE
 40
9.0
  9
$TRACEWID
 40
1.0
  9
$TEXTSTYLE
  7
Standard
  9
$CLAYER
  8
0
  9
$CELTYPE
  6
ByLayer
  9
$CECOLOR
 62
   256
  9
$CELTSCALE
 40
1.0
  9
$DISPSILH
 70
     0
  9
$DIMSCALE
 40
1.0
  9
$DIMASZ
 40
8.4
  9
$DIMEXO
 40
3.0
  9
$DIMDLI
 40
3.75
  9
$DIMRND
 40
0.0
  9
$DIMDLE
 40
0.0
  9
$DIMEXE
 40
3.0
  9
$DIMTP
 40
0.0
  9
$DIMTM
 40
0.0
  9
$DIMTXT
 40
8.4
  9
$DIMCEN
 40
2.5
  9
$DIMTSZ
 40
0.0
  9
$DIMTOL
 70
     0
  9
$DIMLIM
 70
     0
  9
$DIMTIH
 70
     1
  9
$DIMTOH
 70
     1
  9
$DIMSE1
 70
     0
  9
$DIMSE2
 70
     0
  9
$DIMTAD
 70
     1
  9
$DIMZIN
 70
     0
  9
$DIMBLK
  1

  9
$DIMASO
 70
     1
  9
$DIMSHO
 70
     1
  9
$DIMPOST
  1

  9
$DIMAPOST
  1

  9
$DIMALT
 70
     0
  9
$DIMALTD
 70
     3
  9
$DIMALTF
 40
0.0393700787
  9
$DIMLFAC
 40
1.0
  9
$DIMTOFL
 70
     1
  9
$DIMTVP
 40
0.0
  9
$DIMTIX
 70
     0
  9
$DIMSOXD
 70
     0
  9
$DIMSAH
 70
     0
  9
$DIMBLK1
  1

  9
$DIMBLK2
  1

  9
$DIMSTYLE
  2
ISO-25
  9
$DIMCLRD
 70
     0
  9
$DIMCLRE
 70
     0
  9
$DIMCLRT
 70
     0
  9
$DIMTFAC
 40
1.0
  9
$DIMGAP
 40
4.572
  9
$DIMJUST
 70
     0
  9
$DIMSD1
 70
     0
  9
$DIMSD2
 70
     0
  9
$DIMTOLJ
 70
     0
  9
$DIMTZIN
 70
     0
  9
$DIMALTZ
 70
     0
  9
$DIMALTTZ
 70
     0
  9
$DIMUPT
 70
     0
  9
$DIMDEC
 70
     2
  9
$DIMTDEC
 70
     2
  9
$DIMALTU
 70
     2
  9
$DIMALTTD
 70
     3
  9
$DIMTXSTY
  7
Standard
  9
$DIMAUNIT
 70
     0
  9
$DIMADEC
 70
     2
  9
$DIMALTRND
 40
0.0
  9
$DIMAZIN
 70
     0
  9
$DIMDSEP
 70
    44
  9
$DIMATFIT
 70
     3
  9
$DIMFRAC
 70
     0
  9
$DIMLDRBLK
  1

  9
$DIMLUNIT
 70
     2
  9
$DIMLWD
 70
    -2
  9
$DIMLWE
 70
    -2
  9
$DIMTMOVE
 70
     0
  9
$LUNITS
 70
     2
  9
$LUPREC
 70
     2
  9
$SKETCHINC
 40
1.0
  9
$FILLETRAD
 40
0.0
  9
$AUNITS
 70
     0
  9
$AUPREC
 70
     2
  9
$MENU
  1
.
  9
$ELEVATION
 40
0.0
  9
$PELEVATION
 40
0.0
  9
$THICKNESS
 40
0.0
  9
$LIMCHECK
 70
     0
  9
$CHAMFERA
 40
0.0
  9
$CHAMFERB
 40
0.0
  9
$CHAMFERC
 40
0.0
  9
$CHAMFERD
 40
0.0
  9
$SKPOLY
 70
     0
  9
$TDCREATE
 40
2460663.499322222
  9
$TDUCREATE
 40
2460663.457655556
  9
$TDUPDATE
 40
2460663.499323727
  9
$TDUUPDATE
 40
2460663.45765706
  9
$TDINDWG
 40
0.0000000116
  9
$TDUSRTIMER
 40
0.0000000116
  9
$USRTIMER
 70
     1
  9
$ANGBASE
 50
0.0
  9
$ANGDIR
 70
     0
  9
$PDMODE
 70
     0
  9
$PDSIZE
 40
-1.0
  9
$PLINEWID
 40
0.0
  9
$SPLFRAME
 70
     0
  9
$SPLINETYPE
 70
     6
  9
$SPLINESEGS
 70
     8
  9
$HANDSEED
  5
1DE
  9
$SURFTAB1
 70
     6
  9
$SURFTAB2
 70
     6
  9
$SURFTYPE
 70
     6
  9
$SURFU
 70
     6
  9
$SURFV
 70
     6
  9
$UCSBASE
  2

  9
$UCSNAME
  2

  9
$UCSORG
 10
0.0
 20
0.0
 30
0.0
  9
$UCSXDIR
 10
1.0
 20
0.0
 30
0.0
  9
$UCSYDIR
 10
0.0
 20
1.0
 30
0.0
  9
$UCSORTHOREF
  2

  9
$UCSORTHOVIEW
 70
     0
  9
$UCSORGTOP
 10
0.0
 20
0.0
 30
0.0
  9
$UCSORGBOTTOM
 10
0.0
 20
0.0
 30
0.0
  9
$UCSORGLEFT
 10
0.0
 20
0.0
 30
0.0
  9
$UCSORGRIGHT
 10
0.0
 20
0.0
 30
0.0
  9
$UCSORGFRONT
 10
0.0
 20
0.0
 30
0.0
  9
$UCSORGBACK
 10
0.0
 20
0.0
 30
0.0
  9
$PUCSBASE
  2

  9
$PUCSNAME
  2

  9
$PUCSORG
 10
0.0
 20
0.0
 30
0.0
  9
$PUCSXDIR
 10
1.0
 20
0.0
 30
0.0
  9
$PUCSYDIR
 10
0.0
 20
1.0
 30
0.0
  9
$PUCSORTHOREF
  2

  9
$PUCSORTHOVIEW
 70
     0
  9
$PUCSORGTOP
 10
0.0
 20
0.0
 30
0.0
  9
$PUCSORGBOTTOM
 10
0.0
 20
0.0
 30
0.0
  9
$PUCSORGLEFT
 10
0.0
 20
0.0
 30
0.0
  9
$PUCSORGRIGHT
 10
0.0
 20
0.0
 30
0.0
  9
$PUCSORGFRONT
 10
0.0
 20
0.0
 30
0.0
  9
$PUCSORGBACK
 10
0.0
 20
0.0
 30
0.0
  9
$USERI1
 70
     0
  9
$USERI2
 70
     0
  9
$USERI3
 70
     0
  9
$USERI4
 70
     0
  9
$USERI5
 70
     0
  9
$USERR1
 40
0.0
  9
$USERR2
 40
0.0
  9
$USERR3
 40
0.0
  9
$USERR4
 40
0.0
  9
$USERR5
 40
0.0
  9
$WORLDVIEW
 70
     1
  9
$SHADEDGE
 70
     3
  9
$SHADEDIF
 70
    70
  9
$TILEMODE
 70
     1
  9
$MAXACTVP
 70
    64
  9
$PINSBASE
 10
0.0
 20
0.0
 30
0.0
  9
$PLIMCHECK
 70
     0
  9
$PEXTMIN
 10
1.0000000000E+20
 20
1.0000000000E+20
 30
1.0000000000E+20
  9
$PEXTMAX
 10
-1.0000000000E+20
 20
-1.0000000000E+20
 30
-1.0000000000E+20
  9
$PLIMMIN
 10
0.0
 20
0.0
  9
$PLIMMAX
 10
420.0
 20
297.0
  9
$UNITMODE
 70
     0
  9
$VISRETAIN
 70
     1
  9
$PLINEGEN
 70
     0
  9
$PSLTSCALE
 70
     1
  9
$TREEDEPTH
 70
  3020
  9
$CMLSTYLE
  2
Standard
  9
$CMLJUST
 70
     0
  9
$CMLSCALE
 40
20.0
  9
$PROXYGRAPHICS
 70
     1
  9
$MEASUREMENT
 70
     1
  9
$CELWEIGHT
370
    -1
  9
$ENDCAPS
280
     0
  9
$JOINSTYLE
280
     0
  9
$LWDISPLAY
290
     1
  9
$INSUNITS
 70
     4
  9
$HYPERLINKBASE
  1

  9
$STYLESHEET
  1

  9
$XEDIT
290
     1
  9
$CEPSNTYPE
380
     0
  9
$PSTYLEMODE
290
     1
  9
$FINGERPRINTGUID
  2
{7c1cb760-1b61-43a6-80e2-0fcc16ea49c8}
  9
$VERSIONGUID
  2
{FAEB1C32-E019-11D5-929B-00C0DF256EC4}
  9
$EXTNAMES
290
     1
  9
$PSVPSCALE
 40
0.0
  9
$OLESTARTUP
290
     0
  0
ENDSEC
  0
SECTION
  2
CLASSES
  0
CLASS
  1
ACDBDICTIONARYWDFLT
  2
AcDbDictionaryWithDefault
  3
ObjectDBX Classes
 90
        0
280
     0
281
     0
  0
CLASS
  1
VISUALSTYLE
  2
AcDbVisualStyle
  3
ObjectDBX Classes
 90
     4095
280
     0
281
     0
  0
CLASS
  1
MATERIAL
  2
AcDbMaterial
  3
ObjectDBX Classes
 90
     1153
280
     0
281
     0
  0
CLASS
  1
SCALE
  2
AcDbScale
  3
ObjectDBX Classes
 90
     1153
280
     0
281
     0
  0
CLASS
  1
TABLESTYLE
  2
AcDbTableStyle
  3
ObjectDBX Classes
 90
     4095
280
     0
281
     0
  0
CLASS
  1
MLEADERSTYLE
  2
AcDbMLeaderStyle
  3
ACDB_MLEADERSTYLE_CLASS
 90
     4095
280
     0
281
     0
  0
CLASS
  1
SUN
  2
AcDbSun
  3
SCENEOE
 90
     1153
280
     0
281
     0
  0
CLASS
  1
ACDBPLACEHOLDER
  2
AcDbPlaceHolder
  3
ObjectDBX Classes
 90
        0
280
     0
281
     0
  0
CLASS
  1
LAYOUT
  2
AcDbLayout
  3
ObjectDBX Classes
 90
        0
280
     0
281
     0
  0
ENDSEC
  0
SECTION
  2
TABLES
  0
TABLE
  2
VPORT
  5
8
330
0
100
AcDbSymbolTable
 70
     1
  0
VPORT
  5
29
330
8
100
AcDbSymbolTableRecord
100
AcDbViewportTableRecord
  2
*Active
 70
     0
 10
0.0
 20
0.0
 11
1.0
 21
1.0
 12
445.5
 22
315.0
 13
0.0
 23
0.0
 14
10.0
 24
10.0
 15
10.0
 25
10.0
 16
0.0
 26
0.0
 36
1.0
 17
0.0
 27
0.0
 37
0.0
 40
630.0
 41
1.4142857143
 42
50.0
 43
0.0
 44
0.0
 50
0.0
 51
0.0
 71
     0
 72
  2000
 73
     1
 74
     3
 75
     0
 76
     0
 77
     0
 78
     0
281
     0
 65
     1
110
0.0
120
0.0
130
0.0
111
1.0
121
0.0
131
0.0
112
0.0
122
1.0
132
0.0
 79
     0
146
0.0
  0
ENDTAB
  0
TABLE
  2
LTYPE
  5
5
330
0
100
AcDbSymbolTable
 70
     6
  0
LTYPE
  5
14
330
5
100
AcDbSymbolTableRecord
100
AcDbLinetypeTableRecord
  2
ByBlock
 70
     0
  3

 72
    65
 73
     0
 40
0.0
  0
LTYPE
  5
15
330
5
100
AcDbSymbolTableRecord
100
AcDbLinetypeTableRecord
  2
ByLayer
 70
     0
  3

 72
    65
 73
     0
 40
0.0
  0
LTYPE
  5
16
330
5
100
AcDbSymbolTableRecord
100
AcDbLinetypeTableRecord
  2
Continuous
 70
     0
  3
Solid line
 72
    65
 73
     0
 40
0.0
  0
LTYPE
  5
5E
330
5
100
AcDbSymbolTableRecord
100
AcDbLinetypeTableRecord
  2
HIDDEN
 70
     0
  3
Hidden __ __ __ __ __ __ __ __ __ __ __ __ __ __
 72
    65
 73
     2
 40
1.905
 49
1.27
 74
     0
 49
-0.635
 74
     0
  0
LTYPE
  5
5F
330
5
100
AcDbSymbolTableRecord
100
AcDbLinetypeTableRecord
  2
PHANTOM
 70
     0
  3
Phantom ______  __  __  ______  __  __  ______
 72
    65
 73
     6
 40
12.7
 49
6.35
 74
     0
 49
-1.27
 74
     0
 49
1.27
 74
     0
 49
-1.27
 74
     0
 49
1.27
 74
     0
 49
-1.27
 74
     0
  0
LTYPE
  5
60
330
5
100
AcDbSymbolTableRecord
100
AcDbLinetypeTableRecord
  2
CENTER
 70
     0
  3
Center ____ _ ____ _ ____ _ ____ _ ____ _ ____
 72
    65
 73
     4
 40
10.16
 49
6.35
 74
     0
 49
-1.27
 74
     0
 49
1.27
 74
     0
 49
-1.27
 74
     0
  0
LTYPE
  5
61
330
5
100
AcDbSymbolTableRecord
100
AcDbLinetypeTableRecord
  2
CENTERX2
 70
     0
  3
Center (2x) ________  __  ________  __  _____
 72
    65
 73
     4
 40
20.32
 49
12.7
 74
     0
 49
-2.54
 74
     0
 49
2.54
 74
     0
 49
-2.54
 74
     0
  0
LTYPE
  5
62
330
5
100
AcDbSymbolTableRecord
100
AcDbLinetypeTableRecord
  2
DOT2
 70
     0
  3
Dot (.5x) ........................................
 72
    65
 73
     2
 40
0.635
 49
0.0
 74
     0
 49
-0.635
 74
     0
  0
ENDTAB
  0
TABLE
  2
LAYER
  5
2
330
0
100
AcDbSymbolTable
 70
     3
  0
LAYER
  5
10
330
2
100
AcDbSymbolTableRecord
100
AcDbLayerTableRecord
  2
0
 70
     0
 62
     7
  6
Continuous
370
    -3
390
F
  0
LAYER
  5
63
330
2
100
AcDbSymbolTableRecord
100
AcDbLayerTableRecord
  2
FORMAT
 70
     0
 62
     7
  6
Continuous
370
    -3
390
F
  0
LAYER
  5
64
330
2
100
AcDbSymbolTableRecord
100
AcDbLayerTableRecord
  2
TESTO
 70
     0
 62
   179
  6
Continuous
370
    -3
390
F
  0
ENDTAB
  0
TABLE
  2
STYLE
  5
3
330
0
100
AcDbSymbolTable
 70
     8
  0
STYLE
  5
11
330
3
100
AcDbSymbolTableRecord
100
AcDbTextStyleTableRecord
  2
Standard
 70
     0
 40
0.0
 41
1.0
 50
0.0
 71
     0
 42
9.0
  3
txt
  4

  0
STYLE
  5
6B
330
3
100
AcDbSymbolTableRecord
100
AcDbTextStyleTableRecord
  2
SLDTEXTSTYLE0
 70
     0
 40
0.0
 41
0.75
 50
0.0
 71
     0
 42
9.0
  3
TXT
  4

  0
STYLE
  5
DA
330
3
100
AcDbSymbolTableRecord
100
AcDbTextStyleTableRecord
  2
SLDTEXTSTYLE1
 70
     0
 40
0.0
 41
0.605
 50
0.0
 71
     0
 42
9.0
  3
TXT
  4

  0
STYLE
  5
EB
330
3
100
AcDbSymbolTableRecord
100
AcDbTextStyleTableRecord
  2
SLDTEXTSTYLE2
 70
     0
 40
0.0
 41
0.7329842932
 50
0.0
 71
     0
 42
9.0
  3
TXT
  4

  0
STYLE
  5
ED
330
3
100
AcDbSymbolTableRecord
100
AcDbTextStyleTableRecord
  2
SLDTEXTSTYLE3
 70
     0
 40
0.0
 41
0.6436170213
 50
0.0
 71
     0
 42
9.0
  3
TXT
  4

  0
STYLE
  5
103
330
3
100
AcDbSymbolTableRecord
100
AcDbTextStyleTableRecord
  2
SLDTEXTSTYLE4
 70
     0
 40
0.0
 41
0.6944444444
 50
0.0
 71
     0
 42
9.0
  3
TXT
  4

  0
STYLE
  5
10A
330
3
100
AcDbSymbolTableRecord
100
AcDbTextStyleTableRecord
  2
SLDTEXTSTYLE5
 70
     0
 40
0.0
 41
0.6923076923
 50
0.0
 71
     0
 42
9.0
  3
TXT
  4

  0
STYLE
  5
1BC
330
3
100
AcDbSymbolTableRecord
100
AcDbTextStyleTableRecord
  2
SLDTEXTSTYLE6
 70
     0
 40
0.0
 41
0.6607142857
 50
0.0
 71
     0
 42
9.0
  3
TXT
  4

  0
ENDTAB
  0
TABLE
  2
VIEW
  5
6
330
0
100
AcDbSymbolTable
 70
     0
  0
ENDTAB
  0
TABLE
  2
UCS
  5
7
330
0
100
AcDbSymbolTable
 70
     0
  0
ENDTAB
  0
TABLE
  2
APPID
  5
9
330
0
100
AcDbSymbolTable
 70
     1
  0
APPID
  5
12
330
9
100
AcDbSymbolTableRecord
100
AcDbRegAppTableRecord
  2
ACAD
 70
     0
  0
ENDTAB
  0
TABLE
  2
DIMSTYLE
  5
A
330
0
100
AcDbSymbolTable
 70
     9
100
AcDbDimStyleTable
  0
DIMSTYLE
105
27
330
A
100
AcDbSymbolTableRecord
100
AcDbDimStyleTableRecord
  2
ISO-25
 70
     0
 41
2.5
 42
0.625
 43
3.75
 44
1.25
 73
     0
 74
     0
 77
     1
 78
     8
140
2.5
141
2.5
143
0.0393700787
147
0.625
171
     3
172
     1
178
     0
271
     2
272
     2
274
     3
278
    44
283
     0
284
     8
340
11
  0
DIMSTYLE
105
146
102
{ACAD_REACTORS
330
145
330
19F
102
}
330
A
100
AcDbSymbolTableRecord
100
AcDbDimStyleTableRecord
  2
SLDDIMSTYLE0
 70
     0
 41
8.4
 44
0.0
 45
0.000000001
 73
     0
 74
     0
 77
     1
 78
    12
 79
     3
140
8.4
147
2.1
173
     1
178
     0
271
     2
272
     2
276
     2
284
    12
340
6B
  0
DIMSTYLE
105
161
102
{ACAD_REACTORS
330
160
330
1A9
102
}
330
A
100
AcDbSymbolTableRecord
100
AcDbDimStyleTableRecord
  2
SLDDIMSTYLE1
 70
     0
 41
8.4
 44
0.0
 45
0.000000001
 73
     0
 74
     0
 77
     1
 78
    12
 79
     3
140
8.4
147
2.1
173
     1
178
     0
271
     1
272
     1
276
     2
284
    12
340
6B
  0
DIMSTYLE
105
16C
102
{ACAD_REACTORS
330
16B
102
}
330
A
100
AcDbSymbolTableRecord
100
AcDbDimStyleTableRecord
  2
SLDDIMSTYLE2
 70
     0
 41
8.4
 44
0.0
 45
0.000000001
 73
     0
 74
     0
 77
     1
 78
    12
 79
     3
140
8.4
147
2.1
172
     1
173
     1
178
     0
271
     1
272
     1
276
     2
284
    12
289
     0
340
6B
  0
DIMSTYLE
105
179
102
{ACAD_REACTORS
330
178
102
}
330
A
100
AcDbSymbolTableRecord
100
AcDbDimStyleTableRecord
  2
SLDDIMSTYLE3
 70
     0
 41
8.4
 44
0.0
 73
     0
 74
     0
 77
     1
 78
    12
 79
     3
140
8.4
144
3.0
147
2.1
173
     1
178
     0
179
     2
272
     2
276
     2
284
    12
340
6B
  0
DIMSTYLE
105
184
102
{ACAD_REACTORS
330
183
330
1D1
102
}
330
A
100
AcDbSymbolTableRecord
100
AcDbDimStyleTableRecord
  2
SLDDIMSTYLE4
 70
     0
 41
8.4
 44
0.0
 45
0.000000001
 73
     0
 74
     0
 77
     1
 78
    12
 79
     3
140
8.4
147
2.1
172
     1
173
     1
178
     0
271
     2
272
     2
276
     2
284
    12
289
     0
340
6B
  0
DIMSTYLE
105
191
102
{ACAD_REACTORS
330
190
102
}
330
A
100
AcDbSymbolTableRecord
100
AcDbDimStyleTableRecord
  2
SLDDIMSTYLE5
 70
     0
 41
8.4
 44
0.0
 45
0.000000001
 73
     0
 74
     0
 77
     1
 78
    12
 79
     3
140
8.4
141
0.0
147
2.1
173
     1
178
     0
271
     2
272
     2
276
     2
279
     1
284
    12
340
6B
  0
DIMSTYLE
105
1B4
102
{ACAD_REACTORS
330
1B3
102
}
330
A
100
AcDbSymbolTableRecord
100
AcDbDimStyleTableRecord
  2
SLDDIMSTYLE6
 70
     0
 41
8.4
 44
0.0
 45
0.000000001
 73
     0
 74
     0
 77
     1
 78
    12
 79
     3
140
8.4
141
0.0
147
2.1
173
     1
178
     0
271
     2
272
     2
276
     2
284
    12
340
6B
  0
DIMSTYLE
105
1C3
330
A
100
AcDbSymbolTableRecord
100
AcDbDimStyleTableRecord
  2
SLDDIMSTYLE7
 70
     0
 41
2.5846153846
 44
0.0
 45
0.000000001
146
2.5846153846
147
0.0
173
     1
178
     0
271
     0
272
     0
276
     2
340
11
341
1C4
343
1C4
344
1C4
  0
ENDTAB
  0
TABLE
  2
BLOCK_RECORD
  5
1
330
0
100
AcDbSymbolTable
 70
    15
  0
BLOCK_RECORD
  5
1F
330
1
100
AcDbSymbolTableRecord
100
AcDbBlockTableRecord
  2
*Model_Space
340
22
  0
BLOCK_RECORD
  5
1B
330
1
100
AcDbSymbolTableRecord
100
AcDbBlockTableRecord
  2
*Paper_Space
340
1E
  0
BLOCK_RECORD
  5
23
330
1
100
AcDbSymbolTableRecord
100
AcDbBlockTableRecord
  2
*Paper_Space0
340
26
  0
BLOCK_RECORD
  5
65
330
1
100
AcDbSymbolTableRecord
100
AcDbBlockTableRecord
  2
Particolare privo di bave e dif.sup.
340
0
102
{BLKREFS
331
144
102
}
  0
BLOCK_RECORD
  5
68
330
1
100
AcDbSymbolTableRecord
100
AcDbBlockTableRecord
  2
SW_NOTE_0
340
0
102
{BLKREFS
331
6D
102
}
  0
BLOCK_RECORD
  5
147
330
1
100
AcDbSymbolTableRecord
100
AcDbBlockTableRecord
  2
_D
340
0
  0
BLOCK_RECORD
  5
162
330
1
100
AcDbSymbolTableRecord
100
AcDbBlockTableRecord
  2
_D_1
340
0
  0
BLOCK_RECORD
  5
16D
330
1
100
AcDbSymbolTableRecord
100
AcDbBlockTableRecord
  2
_D_2
340
0
  0
BLOCK_RECORD
  5
17A
330
1
100
AcDbSymbolTableRecord
100
AcDbBlockTableRecord
  2
_D_3
340
0
  0
BLOCK_RECORD
  5
185
330
1
100
AcDbSymbolTableRecord
100
AcDbBlockTableRecord
  2
_D_4
340
0
  0
BLOCK_RECORD
  5
192
330
1
100
AcDbSymbolTableRecord
100
AcDbBlockTableRecord
  2
_D_5
340
0
  0
BLOCK_RECORD
  5
1A0
330
1
100
AcDbSymbolTableRecord
100
AcDbBlockTableRecord
  2
_D_6
340
0
  0
BLOCK_RECORD
  5
1AA
330
1
100
AcDbSymbolTableRecord
100
AcDbBlockTableRecord
  2
_D_7
340
0
  0
BLOCK_RECORD
  5
1B5
330
1
100
AcDbSymbolTableRecord
100
AcDbBlockTableRecord
  2
_D_8
340
0
  0
BLOCK_RECORD
  5
1BE
330
1
100
AcDbSymbolTableRecord
100
AcDbBlockTableRecord
  2
SW_NOTE_0_1
340
0
102
{BLKREFS
331
1C2
102
}
  0
BLOCK_RECORD
  5
1C4
330
1
100
AcDbSymbolTableRecord
100
AcDbBlockTableRecord
  2
_Dot
340
0
  0
BLOCK_RECORD
  5
1D2
330
1
100
AcDbSymbolTableRecord
100
AcDbBlockTableRecord
  2
_D_9
340
0
  0
ENDTAB
  0
ENDSEC
  0
SECTION
  2
BLOCKS
  0
BLOCK
  5
20
330
1F
100
AcDbEntity
  8
0
100
AcDbBlockBegin
  2
*Model_Space
 70
     0
 10
0.0
 20
0.0
 30
0.0
  3
*Model_Space
  1

  0
ENDBLK
  5
21
330
1F
100
AcDbEntity
  8
0
100
AcDbBlockEnd
  0
BLOCK
  5
1C
330
1B
100
AcDbEntity
 67
     1
  8
0
100
AcDbBlockBegin
  2
*Paper_Space
 70
     0
 10
0.0
 20
0.0
 30
0.0
  3
*Paper_Space
  1

  0
ENDBLK
  5
1D
330
1B
100
AcDbEntity
 67
     1
  8
0
100
AcDbBlockEnd
  0
BLOCK
  5
24
330
23
100
AcDbEntity
  8
0
100
AcDbBlockBegin
  2
*Paper_Space0
 70
     0
 10
0.0
 20
0.0
 30
0.0
  3
*Paper_Space0
  1

  0
ENDBLK
  5
25
330
23
100
AcDbEntity
  8
0
100
AcDbBlockEnd
  0
BLOCK
  5
66
330
65
100
AcDbEntity
  8
0
100
AcDbBlockBegin
  2
Particolare privo di bave e dif.sup.
 70
     0
 10
0.0
 20
0.0
 30
0.0
  3
Particolare privo di bave e dif.sup.
  1

  0
INSERT
  5
6D
330
65
100
AcDbEntity
  8
0
  6
Continuous
 62
     7
370
     0
100
AcDbBlockReference
  2
SW_NOTE_0
 10
8.1905429594
 20
-5.8164371902
 30
0.0
  0
ENDBLK
  5
67
330
65
100
AcDbEntity
  8
0
100
AcDbBlockEnd
  0
BLOCK
  5
69
330
68
100
AcDbEntity
  8
0
100
AcDbBlockBegin
  2
SW_NOTE_0
 70
     0
 10
0.0
 20
0.0
 30
0.0
  3
SW_NOTE_0
  1

  0
MTEXT
  5
6C
330
68
100
AcDbEntity
  8
0
  6
Continuous
 62
     0
370
     0
100
AcDbMText
 10
0.0
 20
116.0160965795
 30
0.0
 40
90.0
 41
0.0
 71
     1
 72
     1
  1
PARTICOLARE PRIVO DI BAVE E DIFETTI SUPERFICIALI
  7
SLDTEXTSTYLE0
 73
     1
 44
1.0
  0
ENDBLK
  5
6A
330
68
100
AcDbEntity
  8
0
100
AcDbBlockEnd
  0
BLOCK
  5
148
330
147
100
AcDbEntity
  8
0
100
AcDbBlockBegin
  2
_D
 70
     0
 10
0.0
 20
0.0
 30
0.0
  3
_D
  1

  0
SOLID
  5
14A
330
147
100
AcDbEntity
  8
0
  6
Continuous
 62
     7
370
    18
100
AcDbTrace
 10
284.5834699098
 20
308.3710459594
 30
0.0
 11
292.9834699098
 21
307.0787382671
 31
0.0
 12
292.9834699098
 22
309.6633536517
 32
0.0
 13
292.9834699098
 23
309.6633536517
 33
0.0
  0
SOLID
  5
14B
330
147
100
AcDbEntity
  8
0
  6
Continuous
 62
     7
370
    18
100
AcDbTrace
 10
610.5834699098
 20
308.3710459594
 30
0.0
 11
602.1834699098
 21
309.6633536517
 31
0.0
 12
602.1834699098
 22
307.0787382671
 32
0.0
 13
602.1834699098
 23
307.0787382671
 33
0.0
  0
LINE
  5
14C
330
147
100
AcDbEntity
  8
0
  6
Continuous
 62
     7
370
     0
100
AcDbLine
 10
284.5834699098
 20
365.0887343894
 30
0.0
 11
284.5834699098
 21
305.3710459594
 31
0.0
  0
LINE
  5
14D
330
147
100
AcDbEntity
  8
0
  6
Continuous
 62
     7
370
     0
100
AcDbLine
 10
610.5834699098
 20
365.0887343894
 30
0.0
 11
610.5834699098
 21
305.3710459594
 31
0.0
  0
LINE
  5
14E
330
147
100
AcDbEntity
  8
0
  6
Continuous
 62
     7
370
     0
100
AcDbLine
 10
284.5834699098
 20
308.3710459594
 30
0.0
 11
610.5834699098
 21
308.3710459594
 31
0.0
  0
MTEXT
  5
14F
330
147
100
AcDbEntity
  8
0
  6
Continuous
 62
     7
370
    18
100
AcDbMText
 10
438.2734700322
 20
319.1992149735
 30
0.0
 40
8.4
 41
0.0
 71
     1
 72
     1
  1
326
  7
SLDTEXTSTYLE0
 73
     1
 44
1.0
  0
ENDBLK
  5
149
330
147
100
AcDbEntity
  8
0
100
AcDbBlockEnd
  0
BLOCK
  5
163
330
162
100
AcDbEntity
  8
0
100
AcDbBlockBegin
  2
_D_1
 70
     0
 10
0.0
 20
0.0
 30
0.0
  3
_D_1
  1

  0
SOLID
  5
165
330
162
100
AcDbEntity
  8
0
  6
Continuous
 62
     7
370
    18
100
AcDbTrace
 10
788.4534931733
 20
342.0397524676
 30
0.0
 11
783.1343218823
 21
335.4112929219
 31
0.0
 12
785.3726644644
 22
334.1189852296
 32
0.0
 13
785.3726644644
 23
334.1189852296
 33
0.0
  0
SOLID
  5
166
330
162
100
AcDbEntity
  8
0
  6
Continuous
 62
     7
370
    18
100
AcDbTrace
 10
770.961753468
 20
311.7431705851
 30
0.0
 11
776.280924759
 21
318.3716301308
 31
0.0
 12
774.0425821769
 22
319.6639378231
 32
0.0
 13
774.0425821769
 23
319.6639378231
 33
0.0
  0
LINE
  5
167
330
162
100
AcDbEntity
  8
0
  6
Continuous
 62
     7
370
     0
100
AcDbLine
 10
744.2624585398
 20
367.553458209
 30
0.0
 11
791.0515693847
 21
340.5397524676
 31
0.0
  0
LINE
  5
168
330
162
100
AcDbEntity
  8
0
  6
Continuous
 62
     7
370
     0
100
AcDbLine
 10
726.8887552346
 20
337.1887279792
 30
0.0
 11
773.5598296793
 21
310.2431705851
 31
0.0
  0
LINE
  5
169
330
162
100
AcDbEntity
  8
0
  6
Continuous
 62
     7
370
     0
100
AcDbLine
 10
788.4534931733
 20
342.0397524676
 30
0.0
 11
770.961753468
 21
311.7431705851
 31
0.0
  0
MTEXT
  5
16A
330
162
100
AcDbEntity
  8
0
  6
Continuous
 62
     7
370
    18
100
AcDbMText
 10
767.2268205855
 20
326.9304150979
 30
0.0
 40
8.4
 41
0.0
 71
     1
 72
     1
  1
35
  7
SLDTEXTSTYLE0
 11
0.5000000000000041
 21
0.8660254037844363
 31
0.0
 73
     1
 44
1.0
  0
ENDBLK
  5
164
330
162
100
AcDbEntity
  8
0
100
AcDbBlockEnd
  0
BLOCK
  5
16E
330
16D
100
AcDbEntity
  8
0
100
AcDbBlockBegin
  2
_D_2
 70
     0
 10
0.0
 20
0.0
 30
0.0
  3
_D_2
  1

  0
SOLID
  5
170
330
16D
100
AcDbEntity
  8
0
  6
Continuous
 62
     7
370
    18
100
AcDbTrace
 10
771.8006790233
 20
369.053458209
 30
0.0
 11
770.508371331
 21
360.653458209
 31
0.0
 12
773.0929867156
 22
360.653458209
 32
0.0
 13
773.0929867156
 23
360.653458209
 33
0.0
  0
SOLID
  5
171
330
16D
100
AcDbEntity
  8
0
  6
Continuous
 62
     7
370
    18
100
AcDbTrace
 10
771.8006790233
 20
384.0169376197
 30
0.0
 11
773.0929867156
 21
392.4169376197
 31
0.0
 12
770.508371331
 22
392.4169376197
 32
0.0
 13
770.508371331
 23
392.4169376197
 33
0.0
  0
LINE
  5
172
330
16D
100
AcDbEntity
  8
0
  6
Continuous
 62
     7
370
     0
100
AcDbLine
 10
744.6643823284
 20
369.053458209
 30
0.0
 11
774.8006790233
 21
369.053458209
 31
0.0
  0
LINE
  5
173
330
16D
100
AcDbEntity
  8
0
  6
Continuous
 62
     7
370
     0
100
AcDbLine
 10
744.8006790233
 20
384.0169376197
 30
0.0
 11
774.8006790233
 21
384.0169376197
 31
0.0
  0
LINE
  5
174
330
16D
100
AcDbEntity
  8
0
  6
Continuous
 62
     7
370
     0
100
AcDbLine
 10
771.8006790233
 20
369.053458209
 30
0.0
 11
771.8006790233
 21
352.8996120552
 31
0.0
  0
LINE
  5
175
330
16D
100
AcDbEntity
  8
0
  6
Continuous
 62
     7
370
     0
100
AcDbLine
 10
771.8006790233
 20
369.053458209
 30
0.0
 11
771.8006790233
 21
384.0169376197
 31
0.0
  0
LINE
  5
176
330
16D
100
AcDbEntity
  8
0
  6
Continuous
 62
     7
370
     0
100
AcDbLine
 10
771.8006790233
 20
384.0169376197
 30
0.0
 11
771.8006790233
 21
412.2123016064
 31
0.0
  0
MTEXT
  5
177
330
16D
100
AcDbEntity
  8
0
  6
Continuous
 62
     7
370
    18
100
AcDbMText
 10
760.9725100092
 20
399.7989684362
 30
0.0
 40
8.4
 41
0.0
 71
     1
 72
     1
  1
15
  7
SLDTEXTSTYLE0
 11
6.123233995736766E-17
 21
1.0
 31
0.0
 73
     1
 44
1.0
  0
ENDBLK
  5
16F
330
16D
100
AcDbEntity
  8
0
100
AcDbBlockEnd
  0
BLOCK
  5
17B
330
17A
100
AcDbEntity
  8
0
100
AcDbBlockBegin
  2
_D_3
 70
     0
 10
0.0
 20
0.0
 30
0.0
  3
_D_3
  1

  0
ARC
  5
17D
330
17A
100
AcDbEntity
  8
0
  6
Continuous
 62
     7
370
    18
100
AcDbCircle
 10
741.8006790233
 20
369.0169376197
 30
0.0
 40
72.79118874228516
100
AcDbArc
 50
240.0
 51
270.0
  0
SOLID
  5
17E
330
17A
100
AcDbEntity
  8
0
  6
Continuous
 62
     7
370
    18
100
AcDbTrace
 10
705.4050846521
 20
305.9779189972
 30
0.0
 11
712.3280032124
 21
301.0480855539
 31
0.0
 12
713.4896678978
 22
303.3569319856
 32
0.0
 13
713.4896678978
 23
303.3569319856
 33
0.0
  0
SOLID
  5
17F
330
17A
100
AcDbEntity
  8
0
  6
Continuous
 62
     7
370
    18
100
AcDbTrace
 10
741.8006790233
 20
296.2257488774
 30
0.0
 11
733.4887310477
 21
297.9981991652
 31
0.0
 12
733.34033896
 22
295.4178471592
 32
0.0
 13
733.34033896
 23
295.4178471592
 33
0.0
  0
LINE
  5
180
330
17A
100
AcDbEntity
  8
0
  6
Continuous
 62
     7
370
     0
100
AcDbLine
 10
722.7906790233
 20
336.0906517678
 30
0.0
 11
703.9050846521
 21
303.3798427859
 31
0.0
  0
LINE
  5
181
330
17A
100
AcDbEntity
  8
0
  6
Continuous
 62
     7
370
     0
100
AcDbLine
 10
741.8006790233
 20
367.0887343894
 30
0.0
 11
741.8006790233
 21
293.2257488774
 31
0.0
  0
MTEXT
  5
182
330
17A
100
AcDbEntity
  8
0
  6
Continuous
 62
     7
370
    18
100
AcDbMText
 10
717.6046159672
 20
311.3514147847
 30
0.0
 40
8.4
 41
0.0
 71
     1
 72
     1
  1
30°
  7
SLDTEXTSTYLE0
 11
0.9659258262890718
 21
-0.2588190451025079
 31
0.0
 73
     1
 44
1.0
  0
ENDBLK
  5
17C
330
17A
100
AcDbEntity
  8
0
100
AcDbBlockEnd
  0
BLOCK
  5
186
330
185
100
AcDbEntity
  8
0
100
AcDbBlockBegin
  2
_D_4
 70
     0
 10
0.0
 20
0.0
 30
0.0
  3
_D_4
  1

  0
SOLID
  5
188
330
185
100
AcDbEntity
  8
0
  6
Continuous
 62
     7
370
    18
100
AcDbTrace
 10
717.5950754826
 20
327.0916024594
 30
0.0
 11
724.2235350282
 21
321.7724311683
 31
0.0
 12
725.5158427205
 22
324.0107737504
 32
0.0
 13
725.5158427205
 23
324.0107737504
 33
0.0
  0
SOLID
  5
189
330
185
100
AcDbEntity
  8
0
  6
Continuous
 62
     7
370
    18
100
AcDbTrace
 10
715.863024675
 20
328.0916024594
 30
0.0
 11
709.2345651294
 21
333.4107737504
 31
0.0
 12
707.9422574371
 22
331.1724311683
 32
0.0
 13
707.9422574371
 23
331.1724311683
 33
0.0
  0
LINE
  5
18A
330
185
100
AcDbEntity
  8
0
  6
Continuous
 62
     7
370
     0
100
AcDbLine
 10
722.7906790233
 20
336.0906517678
 30
0.0
 11
716.0950754826
 21
324.493526248
 31
0.0
  0
LINE
  5
18B
330
185
100
AcDbEntity
  8
0
  6
Continuous
 62
     7
370
     0
100
AcDbLine
 10
721.0586282157
 20
337.0906517678
 30
0.0
 11
714.363024675
 21
325.493526248
 31
0.0
  0
LINE
  5
18C
330
185
100
AcDbEntity
  8
0
  6
Continuous
 62
     7
370
     0
100
AcDbLine
 10
717.5950754826
 20
327.0916024594
 30
0.0
 11
731.5847166206
 21
319.0146793824
 31
0.0
  0
LINE
  5
18D
330
185
100
AcDbEntity
  8
0
  6
Continuous
 62
     7
370
     0
100
AcDbLine
 10
717.5950754826
 20
327.0916024594
 30
0.0
 11
715.863024675
 21
328.0916024594
 31
0.0
  0
LINE
  5
18E
330
185
100
AcDbEntity
  8
0
  6
Continuous
 62
     7
370
     0
100
AcDbLine
 10
715.863024675
 20
328.0916024594
 30
0.0
 11
689.871062748
 21
343.0980686747
 31
0.0
  0
MTEXT
  5
18F
330
185
100
AcDbEntity
  8
0
  6
Continuous
 62
     7
370
    18
100
AcDbMText
 10
695.285147255
 20
352.4755381174
 30
0.0
 40
8.4
 41
0.0
 71
     1
 72
     1
  1
2
  7
SLDTEXTSTYLE0
 11
0.8660254037844358
 21
-0.5000000000000049
 31
0.0
 73
     1
 44
1.0
  0
ENDBLK
  5
187
330
185
100
AcDbEntity
  8
0
100
AcDbBlockEnd
  0
BLOCK
  5
193
330
192
100
AcDbEntity
  8
0
100
AcDbBlockBegin
  2
_D_5
 70
     0
 10
0.0
 20
0.0
 30
0.0
  3
_D_5
  1

  0
SOLID
  5
195
330
192
100
AcDbEntity
  8
0
  6
Continuous
 62
     7
370
    18
100
AcDbTrace
 10
739.5327298308
 20
369.0887343894
 30
0.0
 11
732.8067922015
 21
374.2840998413
 31
0.0
 12
731.5562054821
 22
372.0221826139
 32
0.0
 13
731.5562054821
 23
372.0221826139
 33
0.0
  0
LINE
  5
196
330
192
100
AcDbEntity
  8
0
  6
Continuous
 62
     7
370
     0
100
AcDbLine
 10
739.5327298308
 20
369.0887343894
 30
0.0
 11
718.1112975316
 21
380.9323856161
 31
0.0
  0
MTEXT
  5
197
330
192
100
AcDbEntity
  8
0
  6
Continuous
 62
     7
370
    18
100
AcDbMText
 10
723.5253820387
 20
390.3098550588
 30
0.0
 40
8.4
 41
0.0
 71
     1
 72
     1
  1
R2
  7
SLDTEXTSTYLE0
 11
0.8660254037844396
 21
-0.4999999999999983
 31
0.0
 73
     1
 44
1.0
  0
ENDBLK
  5
194
330
192
100
AcDbEntity
  8
0
100
AcDbBlockEnd
  0
BLOCK
  5
1A1
330
1A0
100
AcDbEntity
  8
0
100
AcDbBlockBegin
  2
_D_6
 70
     0
 10
0.0
 20
0.0
 30
0.0
  3
_D_6
  1

  0
SOLID
  5
1A3
330
1A0
100
AcDbEntity
  8
0
  6
Continuous
 62
     7
370
    18
100
AcDbTrace
 10
104.0352398282
 20
523.3764532353
 30
0.0
 11
102.7429321359
 21
514.9764532353
 31
0.0
 12
105.3275475205
 22
514.9764532353
 32
0.0
 13
105.3275475205
 23
514.9764532353
 33
0.0
  0
SOLID
  5
1A4
330
1A0
100
AcDbEntity
  8
0
  6
Continuous
 62
     7
370
    18
100
AcDbTrace
 10
104.0352398282
 20
197.3764532353
 30
0.0
 11
105.3275475205
 21
205.7764532353
 31
0.0
 12
102.7429321359
 22
205.7764532353
 32
0.0
 13
102.7429321359
 23
205.7764532353
 33
0.0
  0
LINE
  5
1A5
330
1A0
100
AcDbEntity
  8
0
  6
Continuous
 62
     7
370
     0
100
AcDbLine
 10
133.9012652319
 20
523.3764532353
 30
0.0
 11
101.0352398282
 21
523.3764532353
 31
0.0
  0
LINE
  5
1A6
330
1A0
100
AcDbEntity
  8
0
  6
Continuous
 62
     7
370
     0
100
AcDbLine
 10
133.9012652319
 20
197.3764532353
 30
0.0
 11
101.0352398282
 21
197.3764532353
 31
0.0
  0
LINE
  5
1A7
330
1A0
100
AcDbEntity
  8
0
  6
Continuous
 62
     7
370
     0
100
AcDbLine
 10
104.0352398282
 20
523.3764532353
 30
0.0
 11
104.0352398282
 21
197.3764532353
 31
0.0
  0
MTEXT
  5
1A8
330
1A0
100
AcDbEntity
  8
0
  6
Continuous
 62
     7
370
    18
100
AcDbMText
 10
93.2070708141
 20
351.0664533578
 30
0.0
 40
8.4
 41
0.0
 71
     1
 72
     1
  1
326
  7
SLDTEXTSTYLE0
 11
-5.267838178243384E-15
 21
1.0
 31
0.0
 73
     1
 44
1.0
  0
ENDBLK
  5
1A2
330
1A0
100
AcDbEntity
  8
0
100
AcDbBlockEnd
  0
BLOCK
  5
1AB
330
1AA
100
AcDbEntity
  8
0
100
AcDbBlockBegin
  2
_D_7
 70
     0
 10
0.0
 20
0.0
 30
0.0
  3
_D_7
  1

  0
SOLID
  5
1AD
330
1AA
100
AcDbEntity
  8
0
  6
Continuous
 62
     7
370
    18
100
AcDbTrace
 10
134.9012652319
 20
175.0305011086
 30
0.0
 11
143.3012652319
 21
173.7381934162
 31
0.0
 12
143.3012652319
 22
176.3228088009
 32
0.0
 13
143.3012652319
 23
176.3228088009
 33
0.0
  0
SOLID
  5
1AE
330
1AA
100
AcDbEntity
  8
0
  6
Continuous
 62
     7
370
    18
100
AcDbTrace
 10
184.118084558
 20
175.0305011086
 30
0.0
 11
175.718084558
 21
176.3228088009
 31
0.0
 12
175.718084558
 22
173.7381934162
 32
0.0
 13
175.718084558
 23
173.7381934162
 33
0.0
  0
LINE
  5
1AF
330
1AA
100
AcDbEntity
  8
0
  6
Continuous
 62
     7
370
     0
100
AcDbLine
 10
134.9012652319
 20
196.3764532353
 30
0.0
 11
134.9012652319
 21
172.0305011086
 31
0.0
  0
LINE
  5
1B0
330
1AA
100
AcDbEntity
  8
0
  6
Continuous
 62
     7
370
     0
100
AcDbLine
 10
184.118084558
 20
194.3764532353
 30
0.0
 11
184.118084558
 21
172.0305011086
 31
0.0
  0
LINE
  5
1B1
330
1AA
100
AcDbEntity
  8
0
  6
Continuous
 62
     7
370
     0
100
AcDbLine
 10
134.9012652319
 20
175.0305011086
 30
0.0
 11
184.118084558
 21
175.0305011086
 31
0.0
  0
MTEXT
  5
1B2
330
1AA
100
AcDbEntity
  8
0
  6
Continuous
 62
     7
370
    18
100
AcDbMText
 10
148.6480087204
 20
185.8586701226
 30
0.0
 40
8.4
 41
0.0
 71
     1
 72
     1
  1
49,2
  7
SLDTEXTSTYLE0
 73
     1
 44
1.0
  0
ENDBLK
  5
1AC
330
1AA
100
AcDbEntity
  8
0
100
AcDbBlockEnd
  0
BLOCK
  5
1B6
330
1B5
100
AcDbEntity
  8
0
100
AcDbBlockBegin
  2
_D_8
 70
     0
 10
0.0
 20
0.0
 30
0.0
  3
_D_8
  1

  0
SOLID
  5
1B8
330
1B5
100
AcDbEntity
  8
0
  6
Continuous
 62
     7
370
    18
100
AcDbTrace
 10
135.9012652319
 20
523.1085040429
 30
0.0
 11
132.820436523
 21
531.0292712808
 31
0.0
 12
130.5820939409
 22
529.7369635885
 32
0.0
 13
130.5820939409
 23
529.7369635885
 33
0.0
  0
LINE
  5
1B9
330
1B5
100
AcDbEntity
  8
0
  6
Continuous
 62
     7
370
     0
100
AcDbLine
 10
135.9012652319
 20
523.1085040429
 30
0.0
 11
123.6419437823
 21
544.3422716599
 31
0.0
  0
LINE
  5
1BA
330
1B5
100
AcDbEntity
  8
0
  6
Continuous
 62
     7
370
     0
100
AcDbLine
 10
135.9012652319
 20
523.1085040429
 30
0.0
 11
136.9012652319
 21
521.3764532353
 31
0.0
  0
MTEXT
  5
1BB
330
1B5
100
AcDbEntity
  8
0
  6
Continuous
 62
     7
370
    18
100
AcDbMText
 10
132.7486583586
 20
549.600035772
 30
0.0
 40
8.4
 41
0.0
 71
     1
 72
     1
  1
R2
  7
SLDTEXTSTYLE0
 11
0.5000000000000003
 21
-0.8660254037844385
 31
0.0
 73
     1
 44
1.0
  0
ENDBLK
  5
1B7
330
1B5
100
AcDbEntity
  8
0
100
AcDbBlockEnd
  0
BLOCK
  5
1BF
330
1BE
100
AcDbEntity
  8
0
100
AcDbBlockBegin
  2
SW_NOTE_0_1
 70
     0
 10
0.0
 20
0.0
 30
0.0
  3
SW_NOTE_0_1
  1

  0
MTEXT
  5
1C1
330
1BE
100
AcDbEntity
  8
0
  6
Continuous
 62
     0
370
     0
100
AcDbMText
 10
37.4595919501
 20
4.3752160948
 30
0.0
 40
9.0
 41
0.0
 71
     2
 72
     1
  1
CPPBPA0045
  7
SLDTEXTSTYLE0
 73
     1
 44
1.0
  0
ENDBLK
  5
1C0
330
1BE
100
AcDbEntity
  8
0
100
AcDbBlockEnd
  0
BLOCK
  5
1C5
330
1C4
100
AcDbEntity
  8
0
100
AcDbBlockBegin
  2
_Dot
 70
     0
 10
0.0
 20
0.0
 30
0.0
  3
_Dot
  1

  0
LWPOLYLINE
  5
1C7
330
1C4
100
AcDbEntity
  8
0
  6
ByBlock
 62
     0
100
AcDbPolyline
 90
        2
 70
     1
 43
0.5
 10
-0.25
 20
0.0
 42
1.0
 10
0.25
 20
0.0
 42
1.0
  0
LINE
  5
1C8
330
1C4
100
AcDbEntity
  8
0
  6
ByBlock
 62
     0
370
    -2
100
AcDbLine
 10
-0.5
 20
0.0
 30
0.0
 11
-1.0
 21
0.0
 31
0.0
  0
ENDBLK
  5
1C6
330
1C4
100
AcDbEntity
  8
0
100
AcDbBlockEnd
  0
BLOCK
  5
1D3
330
1D2
100
AcDbEntity
  8
0
100
AcDbBlockBegin
  2
_D_9
 70
     0
 10
0.0
 20
0.0
 30
0.0
  3
_D_9
  1

  0
SOLID
  5
1D5
330
1D2
100
AcDbEntity
  8
0
  6
Continuous
 62
     7
370
    18
100
AcDbTrace
 10
104.0352398282
 20
136.1941109632
 30
0.0
 11
102.7429321359
 21
127.7941109632
 31
0.0
 12
105.3275475205
 22
127.7941109632
 32
0.0
 13
105.3275475205
 23
127.7941109632
 33
0.0
  0
SOLID
  5
1D6
330
1D2
100
AcDbEntity
  8
0
  6
Continuous
 62
     7
370
    18
100
AcDbTrace
 10
104.0352398282
 20
138.1941109632
 30
0.0
 11
105.3275475205
 21
146.5941109632
 31
0.0
 12
102.7429321359
 22
146.5941109632
 32
0.0
 13
102.7429321359
 23
146.5941109632
 33
0.0
  0
LINE
  5
1D7
330
1D2
100
AcDbEntity
  8
0
  6
Continuous
 62
     7
370
     0
100
AcDbLine
 10
131.9012652319
 20
136.1941109632
 30
0.0
 11
101.0352398282
 21
136.1941109632
 31
0.0
  0
LINE
  5
1D8
330
1D2
100
AcDbEntity
  8
0
  6
Continuous
 62
     7
370
     0
100
AcDbLine
 10
131.9012652319
 20
138.1941109632
 30
0.0
 11
101.0352398282
 21
138.1941109632
 31
0.0
  0
LINE
  5
1D9
330
1D2
100
AcDbEntity
  8
0
  6
Continuous
 62
     7
370
     0
100
AcDbLine
 10
104.0352398282
 20
136.1941109632
 30
0.0
 11
104.0352398282
 21
120.0402648094
 31
0.0
  0
LINE
  5
1DA
330
1D2
100
AcDbEntity
  8
0
  6
Continuous
 62
     7
370
     0
100
AcDbLine
 10
104.0352398282
 20
136.1941109632
 30
0.0
 11
104.0352398282
 21
138.1941109632
 31
0.0
  0
LINE
  5
1DB
330
1D2
100
AcDbEntity
  8
0
  6
Continuous
 62
     7
370
     0
100
AcDbLine
 10
104.0352398282
 20
138.1941109632
 30
0.0
 11
104.0352398282
 21
159.5071072352
 31
0.0
  0
MTEXT
  5
1DC
330
1D2
100
AcDbEntity
  8
0
  6
Continuous
 62
     7
370
    18
100
AcDbMText
 10
93.2070708141
 20
153.3004406501
 30
0.0
 40
8.4
 41
0.0
 71
     1
 72
     1
  1
2
  7
SLDTEXTSTYLE0
 11
-6.049014748177263E-16
 21
1.0
 31
0.0
 73
     1
 44
1.0
  0
ENDBLK
  5
1D4
330
1D2
100
AcDbEntity
  8
0
100
AcDbBlockEnd
  0
ENDSEC
  0
SECTION
  2
ENTITIES
  0
LINE
  5
6E
330
1F
100
AcDbEntity
  8
0
  6
Continuous
 62
     7
370
    18
100
AcDbLine
 10
28.5216424144
 20
607.7947967218
 30
0.0
 11
877.5216424144
 21
607.7947967218
 31
0.0
  0
LINE
  5
6F
330
1F
100
AcDbEntity
  8
0
  6
Continuous
 62
     7
370
    18
100
AcDbLine
 10
28.5216424144
 20
19.7947967218
 30
0.0
 11
877.5216424144
 21
19.7947967218
 31
0.0
  0
LINE
  5
70
330
1F
100
AcDbEntity
  8
0
  6
Continuous
 62
     7
370
    18
100
AcDbLine
 10
28.5216424144
 20
19.7947967218
 30
0.0
 11
28.5216424144
 21
592.7947967218
 31
0.0
  0
LINE
  5
71
330
1F
100
AcDbEntity
  8
0
  6
Continuous
 62
     7
370
    18
100
AcDbLine
 10
28.5216424144
 20
592.7947967218
 30
0.0
 11
877.5216424144
 21
592.7947967218
 31
0.0
  0
LINE
  5
72
330
1F
100
AcDbEntity
  8
0
  6
Continuous
 62
     7
370
    18
100
AcDbLine
 10
877.5216424144
 20
19.7947967218
 30
0.0
 11
877.5216424144
 21
592.7947967218
 31
0.0
  0
LINE
  5
73
330
1F
100
AcDbEntity
  8
0
  6
Continuous
 62
     7
370
    18
100
AcDbLine
 10
13.5216424144
 20
19.7947967218
 30
0.0
 11
13.5216424144
 21
592.7947967218
 31
0.0
  0
LINE
  5
74
330
1F
100
AcDbEntity
  8
0
  6
Continuous
 62
     7
370
    18
100
AcDbLine
 10
877.5216424144
 20
607.7947967218
 30
0.0
 11
877.5216424144
 21
592.7947967218
 31
0.0
  0
LINE
  5
75
330
1F
100
AcDbEntity
  8
0
  6
Continuous
 62
     7
370
    18
100
AcDbLine
 10
13.5216424144
 20
592.7947967218
 30
0.0
 11
28.5216424144
 21
592.7947967218
 31
0.0
  0
LINE
  5
76
330
1F
100
AcDbEntity
  8
0
  6
Continuous
 62
     7
370
    18
100
AcDbLine
 10
13.5216424144
 20
592.7947967218
 30
0.0
 11
13.5216424144
 21
607.7947967218
 31
0.0
  0
LINE
  5
77
330
1F
100
AcDbEntity
  8
0
  6
Continuous
 62
     7
370
    18
100
AcDbLine
 10
13.5216424144
 20
607.7947967218
 30
0.0
 11
28.5216424144
 21
607.7947967218
 31
0.0
  0
LINE
  5
78
330
1F
100
AcDbEntity
  8
0
  6
Continuous
 62
     7
370
    18
100
AcDbLine
 10
28.5216424144
 20
592.7947967218
 30
0.0
 11
28.5216424144
 21
607.7947967218
 31
0.0
  0
LINE
  5
79
330
1F
100
AcDbEntity
  8
0
  6
Continuous
 62
     7
370
    18
100
AcDbLine
 10
13.5216424144
 20
19.7947967218
 30
0.0
 11
28.5216424144
 21
19.7947967218
 31
0.0
  0
LINE
  5
7A
330
1F
100
AcDbEntity
  8
0
  6
Continuous
 62
     7
370
    18
100
AcDbLine
 10
453.0216424144
 20
607.7947967218
 30
0.0
 11
453.0216424144
 21
592.7947967218
 31
0.0
  0
LINE
  5
7B
330
1F
100
AcDbEntity
  8
0
  6
Continuous
 62
     7
370
    18
100
AcDbLine
 10
28.5216424144
 20
306.2947967218
 30
0.0
 11
13.5216424144
 21
306.2947967218
 31
0.0
  0
LINE
  5
7C
330
1F
100
AcDbEntity
  8
0
  6
Continuous
 62
     7
370
    18
100
AcDbLine
 10
28.5216424144
 20
456.2947967218
 30
0.0
 11
13.5216424144
 21
456.2947967218
 31
0.0
  0
LINE
  5
7D
330
1F
100
AcDbEntity
  8
0
  6
Continuous
 62
     7
370
    18
100
AcDbLine
 10
28.5216424144
 20
156.2947967218
 30
0.0
 11
13.5216424144
 21
156.2947967218
 31
0.0
  0
LINE
  5
7E
330
1F
100
AcDbEntity
  8
0
  6
Continuous
 62
     7
370
    18
100
AcDbLine
 10
303.0216424144
 20
607.7947967218
 30
0.0
 11
303.0216424144
 21
592.7947967218
 31
0.0
  0
LINE
  5
7F
330
1F
100
AcDbEntity
  8
0
  6
Continuous
 62
     7
370
    18
100
AcDbLine
 10
603.0216424144
 20
607.7947967218
 30
0.0
 11
603.0216424144
 21
592.7947967218
 31
0.0
  0
LINE
  5
80
330
1F
100
AcDbEntity
  8
0
  6
Continuous
 62
     7
370
    18
100
AcDbLine
 10
153.0216424144
 20
607.7947967218
 30
0.0
 11
153.0216424144
 21
592.7947967218
 31
0.0
  0
LINE
  5
81
330
1F
100
AcDbEntity
  8
0
  6
Continuous
 62
     7
370
    18
100
AcDbLine
 10
753.0216424144
 20
607.7947967218
 30
0.0
 11
753.0216424144
 21
592.7947967218
 31
0.0
  0
LINE
  5
82
330
1F
100
AcDbEntity
  8
0
  6
Continuous
 62
     7
370
    18
100
AcDbLine
 10
826.4894340182
 20
30.3023149851
 30
0.0
 11
877.4894340182
 21
30.3023149851
 31
0.0
  0
LINE
  5
83
330
1F
100
AcDbEntity
  8
0
  6
Continuous
 62
     7
370
    18
100
AcDbLine
 10
826.4894340182
 20
48.3023149851
 30
0.0
 11
877.4894340182
 21
48.3023149851
 31
0.0
  0
LINE
  5
84
330
1F
100
AcDbEntity
  8
0
  6
Continuous
 62
     7
370
    18
100
AcDbLine
 10
826.4894340182
 20
58.8023149851
 30
0.0
 11
877.4894340182
 21
58.8023149851
 31
0.0
  0
LINE
  5
85
330
1F
100
AcDbEntity
  8
0
  6
Continuous
 62
     7
370
    18
100
AcDbLine
 10
826.4894340182
 20
58.8023149851
 30
0.0
 11
826.4894340182
 21
19.8023149851
 31
0.0
  0
LINE
  5
86
330
1F
100
AcDbEntity
  8
0
  6
Continuous
 62
     7
370
    18
100
AcDbLine
 10
315.9207907688
 20
19.7947967218
 30
0.0
 11
877.5216424144
 21
19.7947967218
 31
0.0
  0
LINE
  5
87
330
1F
100
AcDbEntity
  8
0
  6
Continuous
 62
     7
370
    18
100
AcDbLine
 10
315.8894340182
 20
19.8023149851
 30
0.0
 11
877.4894340182
 21
19.8023149851
 31
0.0
  0
LINE
  5
88
330
1F
100
AcDbEntity
  8
0
  6
Continuous
 62
     7
370
    18
100
AcDbLine
 10
315.8885823726
 20
19.8023149851
 30
0.0
 11
877.4894340182
 21
19.8023149851
 31
0.0
  0
LINE
  5
89
330
1F
100
AcDbEntity
  8
0
  6
Continuous
 62
     7
370
    18
100
AcDbLine
 10
877.4894340182
 20
152.4023149851
 30
0.0
 11
877.4894340182
 21
19.8023149851
 31
0.0
  0
LINE
  5
8A
330
1F
100
AcDbEntity
  8
0
  6
Continuous
 62
     7
370
    18
100
AcDbLine
 10
826.4885823726
 20
104.3995751467
 30
0.0
 11
826.4885823726
 21
19.8023149851
 31
0.0
  0
LINE
  5
8B
330
1F
100
AcDbEntity
  8
0
  6
Continuous
 62
     7
370
    18
100
AcDbLine
 10
877.5216424144
 20
152.3947967218
 30
0.0
 11
877.5216424144
 21
19.7947967218
 31
0.0
  0
LINE
  5
8C
330
1F
100
AcDbEntity
  8
0
  6
Continuous
 62
     7
370
    18
100
AcDbLine
 10
826.4885823726
 20
58.8023149851
 30
0.0
 11
877.4894340182
 21
58.8023149851
 31
0.0
  0
LINE
  5
8D
330
1F
100
AcDbEntity
  8
0
  6
Continuous
 62
     7
370
    18
100
AcDbLine
 10
315.8885823726
 20
152.4023149851
 30
0.0
 11
315.8885823726
 21
19.8023149851
 31
0.0
  0
LINE
  5
8E
330
1F
100
AcDbEntity
  8
0
  6
Continuous
 62
     7
370
    18
100
AcDbLine
 10
391.0881591346
 20
104.3995751467
 30
0.0
 11
391.0881591346
 21
86.4023149851
 31
0.0
  0
LINE
  5
8F
330
1F
100
AcDbEntity
  8
0
  6
Continuous
 62
     7
370
    18
100
AcDbLine
 10
315.8885823726
 20
86.4023149851
 30
0.0
 11
494.3885823726
 21
86.4023149851
 31
0.0
  0
LINE
  5
90
330
1F
100
AcDbEntity
  8
0
  6
Continuous
 62
     7
370
    18
100
AcDbLine
 10
315.8885823726
 20
37.8023149851
 30
0.0
 11
494.5850694954
 21
37.8023149851
 31
0.0
  0
LINE
  5
91
330
1F
100
AcDbEntity
  8
0
  6
Continuous
 62
     7
370
    18
100
AcDbLine
 10
494.3885823726
 20
86.4023149851
 30
0.0
 11
494.3885823726
 21
19.8023149851
 31
0.0
  0
LINE
  5
92
330
1F
100
AcDbEntity
  8
0
  6
CENTERX2
 62
     7
370
    18
100
AcDbLine
 10
831.2906442483
 20
73.0728553342
 30
0.0
 11
871.7835999114
 21
73.0728553342
 31
0.0
  0
LINE
  5
93
330
1F
100
AcDbEntity
  8
0
  6
CENTERX2
 62
     7
370
    18
100
AcDbLine
 10
862.469906466
 20
82.8288930579
 30
0.0
 11
862.469906466
 21
63.0442407923
 31
0.0
  0
LINE
  5
94
330
1F
100
AcDbEntity
  8
0
  6
Continuous
 62
     7
370
    18
100
AcDbLine
 10
494.3885823726
 20
86.4023149851
 30
0.0
 11
826.4885823726
 21
86.4023149851
 31
0.0
  0
LINE
  5
95
330
1F
100
AcDbEntity
  8
TESTO
100
AcDbLine
 10
375.7380191521
 20
64.8772421697
 30
0.0
 11
363.145397419
 21
55.2033522847
 31
0.0
  0
LINE
  5
96
330
1F
100
AcDbEntity
  8
0
  6
Continuous
 62
     7
370
    18
100
AcDbLine
 10
494.3885823726
 20
43.8023149851
 30
0.0
 11
826.4885823726
 21
43.8023149851
 31
0.0
  0
LINE
  5
97
330
1F
100
AcDbEntity
  8
TESTO
100
AcDbLine
 10
351.7458021368
 20
64.2837688378
 30
0.0
 11
355.4099097351
 21
61.4162063696
 31
0.0
  0
LINE
  5
98
330
1F
100
AcDbEntity
  8
0
  6
Continuous
 62
     7
370
    18
100
AcDbLine
 10
747.3812296868
 20
86.4023149851
 30
0.0
 11
747.3812296868
 21
72.2023149851
 31
0.0
  0
LINE
  5
99
330
1F
100
AcDbEntity
  8
0
  6
Continuous
 62
     7
370
    18
100
AcDbLine
 10
747.3812296868
 20
72.2023149851
 30
0.0
 11
747.3812296868
 21
58.0023149851
 31
0.0
  0
LINE
  5
9A
330
1F
100
AcDbEntity
  8
0
  6
Continuous
 62
     7
370
    18
100
AcDbLine
 10
836.1514338534
 20
76.7370301295
 30
0.0
 11
836.1514338534
 21
69.2370301295
 31
0.0
  0
LINE
  5
9B
330
1F
100
AcDbEntity
  8
0
  6
Continuous
 62
     7
370
    18
100
AcDbLine
 10
848.9137558395
 20
78.9870301295
 30
0.0
 11
848.852692098
 21
66.9870301295
 31
0.0
  0
LINE
  5
9C
330
1F
100
AcDbEntity
  8
0
  6
Continuous
 62
     7
370
    18
100
AcDbLine
 10
848.9137558395
 20
78.9870301295
 30
0.0
 11
836.1514338534
 21
76.7370301295
 31
0.0
  0
LINE
  5
9D
330
1F
100
AcDbEntity
  8
0
  6
Continuous
 62
     7
370
    18
100
AcDbLine
 10
848.852692098
 20
66.9870301295
 30
0.0
 11
836.1514338534
 21
69.2370301295
 31
0.0
  0
LINE
  5
9E
330
1F
100
AcDbEntity
  8
0
  6
Continuous
 62
     7
370
    18
100
AcDbLine
 10
747.3812296868
 20
58.0023149851
 30
0.0
 11
747.3812296868
 21
43.8023149851
 31
0.0
  0
LINE
  5
9F
330
1F
100
AcDbEntity
  8
0
  6
Continuous
 62
     7
370
    18
100
AcDbLine
 10
747.3812296868
 20
72.2023149851
 30
0.0
 11
826.4885823726
 21
72.2023149851
 31
0.0
  0
LINE
  5
A0
330
1F
100
AcDbEntity
  8
0
  6
Continuous
 62
     7
370
    18
100
AcDbLine
 10
747.3812296868
 20
58.0023149851
 30
0.0
 11
826.4885823726
 21
58.0023149851
 31
0.0
  0
LINE
  5
A1
330
1F
100
AcDbEntity
  8
0
  6
Continuous
 62
     7
370
    18
100
AcDbLine
 10
782.4074144322
 20
43.8023149851
 30
0.0
 11
782.4074144322
 21
19.8023149851
 31
0.0
  0
LINE
  5
A2
330
1F
100
AcDbEntity
  8
0
  6
Continuous
 62
     7
370
    18
100
AcDbLine
 10
611.4513434579
 20
43.8023149851
 30
0.0
 11
611.4513434579
 21
19.8023149851
 31
0.0
  0
LINE
  5
A3
330
1F
100
AcDbEntity
  8
0
  6
Continuous
 62
     7
370
    18
100
AcDbLine
 10
611.4513434579
 20
31.8023149851
 30
0.0
 11
494.3885823726
 21
31.8023149851
 31
0.0
  0
LINE
  5
A4
330
1F
100
AcDbEntity
  8
0
  6
Continuous
 62
     7
370
    18
100
AcDbLine
 10
495.8885823726
 20
152.4023149851
 30
0.0
 11
495.8885823726
 21
128.4023149851
 31
0.0
  0
LINE
  5
A5
330
1F
100
AcDbEntity
  8
0
  6
Continuous
 62
     7
370
    18
100
AcDbLine
 10
315.8885823726
 20
104.3995751467
 30
0.0
 11
877.4894340182
 21
104.3995751467
 31
0.0
  0
LINE
  5
A6
330
1F
100
AcDbEntity
  8
TESTO
100
AcDbLine
 10
328.3431846009
 20
82.226339205
 30
0.0
 11
394.5563716532
 21
82.226339205
 31
0.0
  0
LINE
  5
A7
330
1F
100
AcDbEntity
  8
TESTO
100
AcDbLine
 10
328.3431846009
 20
82.226339205
 30
0.0
 11
334.572343151
 21
77.4409819406
 31
0.0
  0
LINE
  5
A8
330
1F
100
AcDbEntity
  8
0
  6
Continuous
 62
     7
370
    18
100
AcDbLine
 10
481.6806605968
 20
104.3995751467
 30
0.0
 11
481.6806605968
 21
86.4023149851
 31
0.0
  0
LINE
  5
A9
330
1F
100
AcDbEntity
  8
0
  6
Continuous
 62
     7
370
    18
100
AcDbLine
 10
675.9379131985
 20
104.3995751467
 30
0.0
 11
675.9379131985
 21
86.4023149851
 31
0.0
  0
LINE
  5
AA
330
1F
100
AcDbEntity
  8
0
  6
Continuous
 62
     7
370
    18
100
AcDbLine
 10
756.3233309154
 20
104.3995751467
 30
0.0
 11
756.3233309154
 21
86.4023149851
 31
0.0
  0
LINE
  5
AB
330
1F
100
AcDbEntity
  8
0
  6
Continuous
 62
     7
370
    18
100
AcDbLine
 10
315.8885823726
 20
128.4023149851
 30
0.0
 11
877.4894340182
 21
128.4023149851
 31
0.0
  0
LINE
  5
AC
330
1F
100
AcDbEntity
  8
TESTO
100
AcDbLine
 10
394.5563716532
 20
82.226339205
 30
0.0
 11
388.2725509015
 21
77.3989894048
 31
0.0
  0
LINE
  5
AD
330
1F
100
AcDbEntity
  8
TESTO
100
AcDbLine
 10
344.0317354596
 20
70.1740980849
 30
0.0
 11
349.4529076599
 21
66.0094511969
 31
0.0
  0
LINE
  5
AE
330
1F
100
AcDbEntity
  8
0
  6
Continuous
 62
     7
370
    18
100
AcDbLine
 10
315.8885823726
 20
152.4023149851
 30
0.0
 11
877.4894340182
 21
152.4023149851
 31
0.0
  0
LINE
  5
AF
330
1F
100
AcDbEntity
  8
0
  6
Continuous
 62
     7
370
    18
100
AcDbLine
 10
588.8885823726
 20
152.4023149851
 30
0.0
 11
588.8885823726
 21
128.4023149851
 31
0.0
  0
LINE
  5
B0
330
1F
100
AcDbEntity
  8
0
  6
Continuous
 62
     7
370
    18
100
AcDbLine
 10
675.8885823726
 20
128.4023149851
 30
0.0
 11
675.8885823726
 21
104.3995751467
 31
0.0
  0
LINE
  5
B1
330
1F
100
AcDbEntity
  8
0
  6
Continuous
 62
     7
370
    18
100
AcDbLine
 10
675.8885823726
 20
128.4023149851
 30
0.0
 11
675.8885823726
 21
152.4023149851
 31
0.0
  0
LINE
  5
B2
330
1F
100
AcDbEntity
  8
0
  6
Continuous
 62
     7
370
    18
100
AcDbLine
 10
675.8885823726
 20
116.4023149851
 30
0.0
 11
877.4894340182
 21
116.4023149851
 31
0.0
  0
LINE
  5
B3
330
1F
100
AcDbEntity
  8
0
  6
Continuous
 62
     7
370
    18
100
AcDbLine
 10
574.6209192193
 20
104.3995751467
 30
0.0
 11
574.6209192193
 21
86.4023149851
 31
0.0
  0
LINE
  5
B4
330
1F
100
AcDbEntity
  8
0
  6
Continuous
 62
     7
370
    18
100
AcDbLine
 10
877.5216424144
 20
592.7947967218
 30
0.0
 11
315.9216424144
 21
592.7947967218
 31
0.0
  0
LINE
  5
B5
330
1F
100
AcDbEntity
  8
0
  6
Continuous
 62
     7
370
    18
100
AcDbLine
 10
363.9216424144
 20
577.7947967218
 30
0.0
 11
363.9216424144
 21
592.7947967218
 31
0.0
  0
LINE
  5
B6
330
1F
100
AcDbEntity
  8
0
  6
Continuous
 62
     7
370
    18
100
AcDbLine
 10
315.9216424144
 20
577.7947967218
 30
0.0
 11
877.5216424144
 21
577.7947967218
 31
0.0
  0
LINE
  5
B7
330
1F
100
AcDbEntity
  8
0
  6
Continuous
 62
     7
370
    18
100
AcDbLine
 10
315.9216424144
 20
592.7947967218
 30
0.0
 11
877.5216424144
 21
592.7947967218
 31
0.0
  0
LINE
  5
B8
330
1F
100
AcDbEntity
  8
0
  6
Continuous
 62
     7
370
    18
100
AcDbLine
 10
877.5216424144
 20
577.7947967218
 30
0.0
 11
877.5216424144
 21
592.7947967218
 31
0.0
  0
LINE
  5
B9
330
1F
100
AcDbEntity
  8
0
  6
Continuous
 62
     7
370
    18
100
AcDbLine
 10
315.9216424144
 20
577.7947967218
 30
0.0
 11
315.9216424144
 21
592.7947967218
 31
0.0
  0
LINE
  5
BA
330
1F
100
AcDbEntity
  8
0
  6
Continuous
 62
     7
370
    18
100
AcDbLine
 10
315.9216424144
 20
592.7947967218
 30
0.0
 11
877.5216424144
 21
592.7947967218
 31
0.0
  0
LINE
  5
BB
330
1F
100
AcDbEntity
  8
0
  6
Continuous
 62
     7
370
    18
100
AcDbLine
 10
877.5216424144
 20
577.7947967218
 30
0.0
 11
877.5216424144
 21
592.7947967218
 31
0.0
  0
LINE
  5
BC
330
1F
100
AcDbEntity
  8
0
  6
Continuous
 62
     7
370
    18
100
AcDbLine
 10
829.5216424144
 20
577.7947967218
 30
0.0
 11
829.5216424144
 21
592.7947967218
 31
0.0
  0
LINE
  5
BD
330
1F
100
AcDbEntity
  8
0
  6
Continuous
 62
     7
370
    18
100
AcDbLine
 10
740.7573797159
 20
577.7947967218
 30
0.0
 11
740.7573797159
 21
592.7947967218
 31
0.0
  0
LINE
  5
BE
330
1F
100
AcDbEntity
  8
0
  6
Continuous
 62
     7
370
    18
100
AcDbLine
 10
315.9216424144
 20
562.7947967218
 30
0.0
 11
877.5216424144
 21
562.7947967218
 31
0.0
  0
LINE
  5
BF
330
1F
100
AcDbEntity
  8
0
  6
Continuous
 62
     7
370
    18
100
AcDbLine
 10
315.9216424144
 20
547.7947967218
 30
0.0
 11
877.5216424144
 21
547.7947967218
 31
0.0
  0
LINE
  5
C0
330
1F
100
AcDbEntity
  8
0
  6
Continuous
 62
     7
370
    18
100
AcDbLine
 10
315.9216424144
 20
532.7947967218
 30
0.0
 11
877.5216424144
 21
532.7947967218
 31
0.0
  0
LINE
  5
C1
330
1F
100
AcDbEntity
  8
0
  6
Continuous
 62
     7
370
    18
100
AcDbLine
 10
315.9216424144
 20
577.7947967218
 30
0.0
 11
315.9216424144
 21
532.7947967218
 31
0.0
  0
LINE
  5
C2
330
1F
100
AcDbEntity
  8
0
  6
Continuous
 62
     7
370
    18
100
AcDbLine
 10
877.5216424144
 20
577.7947967218
 30
0.0
 11
877.5216424144
 21
532.7947967218
 31
0.0
  0
LINE
  5
C3
330
1F
100
AcDbEntity
  8
0
  6
Continuous
 62
     7
370
    18
100
AcDbLine
 10
363.9216424144
 20
577.7947967218
 30
0.0
 11
363.9216424144
 21
532.7947967218
 31
0.0
  0
LINE
  5
C4
330
1F
100
AcDbEntity
  8
0
  6
Continuous
 62
     7
370
    18
100
AcDbLine
 10
740.7573797159
 20
577.7947967218
 30
0.0
 11
740.7573797159
 21
532.7947967218
 31
0.0
  0
LINE
  5
C5
330
1F
100
AcDbEntity
  8
0
  6
Continuous
 62
     7
370
    18
100
AcDbLine
 10
829.5216424144
 20
577.7947967218
 30
0.0
 11
829.5216424144
 21
532.7947967218
 31
0.0
  0
LINE
  5
C6
330
1F
100
AcDbEntity
  8
0
  6
Continuous
 62
     7
370
    18
100
AcDbLine
 10
877.5216424144
 20
577.7947967218
 30
0.0
 11
877.5216424144
 21
532.7947967218
 31
0.0
  0
LINE
  5
C7
330
1F
100
AcDbEntity
  8
0
  6
Continuous
 62
     7
370
    18
100
AcDbLine
 10
494.3885823726
 20
53.1023149851
 30
0.0
 11
747.3812296868
 21
53.1023149851
 31
0.0
  0
LINE
  5
C8
330
1F
100
AcDbEntity
  8
0
  6
Continuous
 62
     7
370
    18
100
AcDbLine
 10
675.9379131985
 20
53.1023149851
 30
0.0
 11
675.9379131985
 21
43.8023149851
 31
0.0
  0
CIRCLE
  5
C9
330
1F
100
AcDbEntity
  8
0
  6
Continuous
 62
     7
370
    18
100
AcDbCircle
 10
862.469906466
 20
73.0728553342
 30
0.0
 40
3.749999999999955
  0
CIRCLE
  5
CA
330
1F
100
AcDbEntity
  8
0
  6
Continuous
 62
     7
370
    18
100
AcDbCircle
 10
862.469906466
 20
73.0728553342
 30
0.0
 40
5.999999999999818
  0
MTEXT
  5
CB
330
1F
100
AcDbEntity
  8
0
  6
Continuous
 62
     7
370
     0
100
AcDbMText
 10
843.644482343
 20
44.6815707107
 30
0.0
 40
8.73125
 41
0.0
 71
     1
 72
     1
  1
A4
  7
SLDTEXTSTYLE0
 73
     1
 44
1.0
  0
MTEXT
  5
CC
330
1F
100
AcDbEntity
  8
0
  6
Continuous
 62
     7
370
     0
100
AcDbMText
 10
84.7687824714
 20
603.9039237314
 30
0.0
 40
7.14375
 41
0.0
 71
     1
 72
     1
  1
1
  7
SLDTEXTSTYLE0
 73
     1
 44
1.0
  0
MTEXT
  5
CD
330
1F
100
AcDbEntity
  8
0
  6
Continuous
 62
     7
370
     0
100
AcDbMText
 10
225.3079152819
 20
603.9039237314
 30
0.0
 40
7.14375
 41
0.0
 71
     1
 72
     1
  1
2
  7
SLDTEXTSTYLE0
 73
     1
 44
1.0
  0
MTEXT
  5
CE
330
1F
100
AcDbEntity
  8
0
  6
Continuous
 62
     7
370
     0
100
AcDbMText
 10
376.3021690203
 20
603.9039237314
 30
0.0
 40
7.14375
 41
0.0
 71
     1
 72
     1
  1
3
  7
SLDTEXTSTYLE0
 73
     1
 44
1.0
  0
MTEXT
  5
CF
330
1F
100
AcDbEntity
  8
0
  6
Continuous
 62
     7
370
     0
100
AcDbMText
 10
524.3815115416
 20
603.9039237314
 30
0.0
 40
7.14375
 41
0.0
 71
     1
 72
     1
  1
4
  7
SLDTEXTSTYLE0
 73
     1
 44
1.0
  0
MTEXT
  5
D0
330
1F
100
AcDbEntity
  8
0
  6
Continuous
 62
     7
370
     0
100
AcDbMText
 10
676.8813696186
 20
603.9039237314
 30
0.0
 40
7.14375
 41
0.0
 71
     1
 72
     1
  1
5
  7
SLDTEXTSTYLE0
 73
     1
 44
1.0
  0
MTEXT
  5
D1
330
1F
100
AcDbEntity
  8
0
  6
Continuous
 62
     7
370
     0
100
AcDbMText
 10
812.5076757736
 20
603.9039237314
 30
0.0
 40
7.14375
 41
0.0
 71
     1
 72
     1
  1
6
  7
SLDTEXTSTYLE0
 73
     1
 44
1.0
  0
MTEXT
  5
D2
330
1F
100
AcDbEntity
  8
0
  6
Continuous
 62
     7
370
     0
100
AcDbMText
 10
18.1448001536
 20
532.9216085015
 30
0.0
 40
7.14375
 41
0.0
 71
     1
 72
     1
  1
A
  7
SLDTEXTSTYLE0
 73
     1
 44
1.0
  0
MTEXT
  5
D3
330
1F
100
AcDbEntity
  8
0
  6
Continuous
 62
     7
370
     0
100
AcDbMText
 10
18.9385503187
 20
385.3367253341
 30
0.0
 40
7.14375
 41
0.0
 71
     1
 72
     1
  1
B
  7
SLDTEXTSTYLE0
 73
     1
 44
1.0
  0
MTEXT
  5
D4
330
1F
100
AcDbEntity
  8
0
  6
Continuous
 62
     7
370
     0
100
AcDbMText
 10
17.8008421213
 20
236.338047909
 30
0.0
 40
7.14375
 41
0.0
 71
     1
 72
     1
  1
C
  7
SLDTEXTSTYLE0
 73
     1
 44
1.0
  0
MTEXT
  5
D5
330
1F
100
AcDbEntity
  8
0
  6
Continuous
 62
     7
370
     0
100
AcDbMText
 10
17.8008421213
 20
93.2156128986
 30
0.0
 40
7.14375
 41
0.0
 71
     1
 72
     1
  1
D
  7
SLDTEXTSTYLE0
 73
     1
 44
1.0
  0
MTEXT
  5
D6
330
1F
100
AcDbEntity
  8
0
  6
Continuous
 62
     7
370
     0
100
AcDbMText
 10
831.144170384
 20
572.5245981401
 30
0.0
 40
6.35
 41
0.0
 71
     1
 72
     1
  1
02/12/2024
  7
SLDTEXTSTYLE0
 73
     1
 44
1.0
  0
MTEXT
  5
D7
330
1F
100
AcDbEntity
  8
0
  6
Continuous
 62
     7
370
     0
100
AcDbMText
 10
743.7564598725
 20
572.5245981401
 30
0.0
 40
6.35
 41
0.0
 71
     1
 72
     1
  1
Marco Monaco
  7
SLDTEXTSTYLE0
 73
     1
 44
1.0
  0
MTEXT
  5
D8
330
1F
100
AcDbEntity
  8
0
  6
Continuous
 62
     7
370
     0
100
AcDbMText
 10
335.3839204572
 20
574.1035623768
 30
0.0
 40
7.9375
 41
0.0
 71
     1
 72
     1
  1
00
  7
SLDTEXTSTYLE0
 73
     1
 44
1.0
  0
MTEXT
  5
D9
330
1F
100
AcDbEntity
  8
0
  6
Continuous
 62
     7
370
     0
100
AcDbMText
 10
369.2660941672
 20
574.1035623768
 30
0.0
 40
7.9375
 41
0.0
 71
     1
 72
     1
  1
EMISSIONE
  7
SLDTEXTSTYLE0
 73
     1
 44
1.0
  0
MTEXT
  5
DB
330
1F
100
AcDbEntity
  8
0
  6
Continuous
 62
     7
370
     0
100
AcDbMText
 10
321.2601449343
 20
588.6812102593
 30
0.0
 40
6.35
 41
0.0
 71
     1
 72
     1
  1
Revisione
  7
SLDTEXTSTYLE1
 73
     1
 44
1.0
  0
MTEXT
  5
DC
330
1F
100
AcDbEntity
  8
0
  6
Continuous
 62
     7
370
     0
100
AcDbMText
 10
369.2660941672
 20
588.6262572258
 30
0.0
 40
6.35
 41
0.0
 71
     1
 72
     1
  1
Descrizione revisione
  7
SLDTEXTSTYLE1
 73
     1
 44
1.0
  0
MTEXT
  5
DD
330
1F
100
AcDbEntity
  8
0
  6
Continuous
 62
     7
370
     0
100
AcDbMText
 10
760.7443237819
 20
588.6262572258
 30
0.0
 40
6.35
 41
0.0
 71
     1
 72
     1
  1
Disegnatore
  7
SLDTEXTSTYLE1
 73
     1
 44
1.0
  0
MTEXT
  5
DE
330
1F
100
AcDbEntity
  8
0
  6
Continuous
 62
     7
370
     0
100
AcDbMText
 10
834.9001378502
 20
588.6262572258
 30
0.0
 40
6.35
 41
0.0
 71
     1
 72
     1
  1
Data
  7
SLDTEXTSTYLE1
 73
     1
 44
1.0
  0
MTEXT
  5
DF
330
1F
100
AcDbEntity
  8
0
  6
Continuous
 62
     7
370
     0
100
AcDbMText
 10
819.9302524097
 20
56.4147935842
 30
0.0
 40
7.14375
 41
0.0
 71
     3
 72
     1
  1
2
  7
SLDTEXTSTYLE0
 73
     1
 44
1.0
  0
MTEXT
  5
E0
330
1F
100
AcDbEntity
  8
0
  6
Continuous
 62
     7
370
     0
100
AcDbMText
 10
819.7287390678
 20
83.7993084386
 30
0.0
 40
7.14375
 41
0.0
 71
     3
 72
     1
  1
280
  7
SLDTEXTSTYLE0
 73
     1
 44
1.0
  0
MTEXT
  5
E1
330
1F
100
AcDbEntity
  8
0
  6
Continuous
 62
     7
370
     0
100
AcDbMText
 10
820.355312569
 20
70.2971245536
 30
0.0
 40
7.14375
 41
0.0
 71
     3
 72
     1
  1
120
  7
SLDTEXTSTYLE0
 73
     1
 44
1.0
  0
MTEXT
  5
E2
330
1F
100
AcDbEntity
  8
0
  6
Continuous
 62
     7
370
     0
100
AcDbMText
 10
543.1621106578
 20
97.0088398578
 30
0.0
 40
7.9375
 41
0.0
 71
     1
 72
     1
  1
IT10
  7
SLDTEXTSTYLE0
 73
     1
 44
1.0
  0
MTEXT
  5
E3
330
1F
100
AcDbEntity
  8
0
  6
Continuous
 62
     7
370
     0
100
AcDbMText
 10
488.5976372241
 20
102.5609711702
 30
0.0
 40
3.96875
 41
0.0
 71
     1
 72
     1
  1
Grado Tolleranza
  7
SLDTEXTSTYLE0
 73
     1
 44
1.0
  0
MTEXT
  5
E4
330
1F
100
AcDbEntity
  8
0
  6
Continuous
 62
     7
370
     0
100
AcDbMText
 10
584.8672942739
 20
145.2107914086
 30
0.0
 40
7.9375
 41
0.0
 71
     3
 72
     1
  1
0.25
  7
SLDTEXTSTYLE0
 73
     1
 44
1.0
  0
MTEXT
  5
E5
330
1F
100
AcDbEntity
  8
0
  6
Continuous
 62
     7
370
     0
100
AcDbMText
 10
746.1430848489
 20
51.8132915921
 30
0.0
 40
5.55625
 41
0.0
 71
     3
 72
     1
  1
00
  7
SLDTEXTSTYLE0
 73
     1
 44
1.0
  0
MTEXT
  5
E6
330
1F
100
AcDbEntity
  8
0
  6
Continuous
 62
     7
370
     0
100
AcDbMText
 10
349.9220219332
 20
145.2107914086
 30
0.0
 40
7.9375
 41
0.0
 71
     1
 72
     1
  1
1.0037 (S235JR)
  7
SLDTEXTSTYLE0
 73
     1
 44
1.0
  0
MTEXT
  5
E7
330
1F
100
AcDbEntity
  8
0
  6
Continuous
 62
     7
370
     0
100
AcDbMText
 10
533.4973500794
 20
29.1131718552
 30
0.0
 40
5.55625
 41
0.0
 71
     1
 72
     1
  1
02/12/2024
  7
SLDTEXTSTYLE0
 73
     1
 44
1.0
  0
MTEXT
  5
E8
330
1F
100
AcDbEntity
  8
0
  6
Continuous
 62
     7
370
     0
100
AcDbMText
 10
533.4973500794
 20
41.1692992859
 30
0.0
 40
5.55625
 41
0.0
 71
     1
 72
     1
  1
Marco Monaco
  7
SLDTEXTSTYLE0
 73
     1
 44
1.0
  0
MTEXT
  5
E9
330
1F
100
AcDbEntity
  8
0
  6
Continuous
 62
     7
370
     0
100
AcDbMText
 10
503.1207971975
 20
64.0991311043
 30
0.0
 40
6.35
 41
0.0
 71
     1
 72
     1
  1
(300)
  7
SLDTEXTSTYLE0
 73
     1
 44
1.0
  0
MTEXT
  5
EA
330
1F
100
AcDbEntity
  8
0
  6
Continuous
 62
     7
370
     0
100
AcDbMText
 10
503.1207971975
 20
74.2868749615
 30
0.0
 40
6.35
 41
0.0
 71
     1
 72
     1
  1
Lamiera post.bocca ingresso prodotto
  7
SLDTEXTSTYLE0
 73
     1
 44
1.0
  0
MTEXT
  5
EC
330
1F
100
AcDbEntity
  8
TESTO
100
AcDbMText
 10
380.0618399372
 20
80.8678721586
 30
0.0
 40
14.4
 41
0.0
 71
     1
 72
     1
  1
A
  7
SLDTEXTSTYLE2
 73
     1
 44
1.0
  0
MTEXT
  5
EE
330
1F
100
AcDbEntity
  8
FORMAT
100
AcDbMText
 10
405.0686260447
 20
63.6800077423
 30
0.0
 40
4.05
 41
0.0
 71
     1
 72
     1
  1
Tel. 0341/632080
  7
SLDTEXTSTYLE3
 73
     1
 44
1.0
  0
MTEXT
  5
EF
330
1F
100
AcDbEntity
  8
FORMAT
100
AcDbMText
 10
405.457595655
 20
45.4288393888
 30
0.0
 40
4.05
 41
0.0
 71
     1
 72
     1
  1
E-mail: info@decasrl.biz
  7
SLDTEXTSTYLE3
 73
     1
 44
1.0
  0
MTEXT
  5
F0
330
1F
100
AcDbEntity
  8
FORMAT
100
AcDbMText
 10
330.3951819309
 20
53.8228546134
 30
0.0
 40
4.05
 41
0.0
 71
     1
 72
     1
  1
VIBROALIMENTATORI
  7
SLDTEXTSTYLE3
 73
     1
 44
1.0
  0
MTEXT
  5
F1
330
1F
100
AcDbEntity
  8
FORMAT
100
AcDbMText
 10
344.4663760896
 20
47.0965946703
 30
0.0
 40
4.05
 41
0.0
 71
     1
 72
     1
  1
ELEVATORI
  7
SLDTEXTSTYLE3
 73
     1
 44
1.0
  0
MTEXT
  5
F2
330
1F
100
AcDbEntity
  8
FORMAT
100
AcDbMText
 10
404.4659166097
 20
75.479438052
 30
0.0
 40
4.05
 41
0.0
 71
     1
 72
     1
  1
23804 Monte Marenzo (Lc)
  7
SLDTEXTSTYLE3
 73
     1
 44
1.0
  0
MTEXT
  5
F3
330
1F
100
AcDbEntity
  8
FORMAT
100
AcDbMText
 10
404.4659166097
 20
83.1587222031
 30
0.0
 40
4.05
 41
0.0
 71
     1
 72
     1
  1
Via Della Fontana,6
  7
SLDTEXTSTYLE3
 73
     1
 44
1.0
  0
MTEXT
  5
F4
330
1F
100
AcDbEntity
  8
TESTO
100
AcDbMText
 10
365.3687384041
 20
81.2878711658
 30
0.0
 40
14.4
 41
0.0
 71
     1
 72
     1
  1
C
  7
SLDTEXTSTYLE2
 73
     1
 44
1.0
  0
MTEXT
  5
F5
330
1F
100
AcDbEntity
  8
TESTO
100
AcDbMText
 10
349.9220219332
 20
80.5492541066
 30
0.0
 40
14.4
 41
0.0
 71
     1
 72
     1
  1
E
  7
SLDTEXTSTYLE2
 73
     1
 44
1.0
  0
MTEXT
  5
F6
330
1F
100
AcDbEntity
  8
TESTO
100
AcDbMText
 10
356.029555702
 20
63.3407014011
 30
0.0
 40
6.0
 41
0.0
 71
     1
 72
     1
  1
s.r.l.
  7
SLDTEXTSTYLE2
 73
     1
 44
1.0
  0
MTEXT
  5
F7
330
1F
100
AcDbEntity
  8
TESTO
100
AcDbMText
 10
335.2171220354
 20
80.8678721586
 30
0.0
 40
14.4
 41
0.0
 71
     1
 72
     1
  1
D
  7
SLDTEXTSTYLE2
 73
     1
 44
1.0
  0
MTEXT
  5
F8
330
1F
100
AcDbEntity
  8
0
  6
Continuous
 62
     7
370
     0
100
AcDbMText
 10
317.5133281829
 20
33.9780580517
 30
0.0
 40
3.175
 41
0.0
 71
     1
 72
     1
  1
Deca S.r.l. si riserva tutti i diritti sul presente documento e con quanto rappresentato.
  7
SLDTEXTSTYLE0
 73
     1
 44
1.0
  0
MTEXT
  5
F9
330
1F
100
AcDbEntity
  8
0
  6
Continuous
 62
     7
370
     0
100
AcDbMText
 10
317.5133281829
 20
26.7447249763
 30
0.0
 40
3.175
 41
0.0
 71
     1
 72
     1
  1
E' vietato riprodurlo, utilizzarlo e renderlo accessibile a terzi senza autorizzazione scritta
  7
SLDTEXTSTYLE0
 73
     1
 44
1.0
  0
MTEXT
  5
FA
330
1F
100
AcDbEntity
  8
0
  6
Continuous
 62
     7
370
     0
100
AcDbMText
 10
786.4387927766
 20
41.005039325
 30
0.0
 40
3.96875
 41
0.0
 71
     1
 72
     1
  1
Revisione
  7
SLDTEXTSTYLE0
 73
     1
 44
1.0
  0
MTEXT
  5
FB
330
1F
100
AcDbEntity
  8
0
  6
Continuous
 62
     7
370
     0
100
AcDbMText
 10
499.9104041776
 20
50.2343269188
 30
0.0
 40
3.96875
 41
0.0
 71
     1
 72
     1
  1
Disegno
  7
SLDTEXTSTYLE0
 73
     1
 44
1.0
  0
MTEXT
  5
FC
330
1F
100
AcDbEntity
  8
0
  6
Continuous
 62
     7
370
     0
100
AcDbMText
 10
750.1906439034
 20
80.6413791794
 30
0.0
 40
3.96875
 41
0.0
 71
     1
 72
     1
  1
Lunghezza:
  7
SLDTEXTSTYLE0
 73
     1
 44
1.0
  0
MTEXT
  5
FD
330
1F
100
AcDbEntity
  8
0
  6
Continuous
 62
     7
370
     0
100
AcDbMText
 10
750.2384337353
 20
67.1391952944
 30
0.0
 40
3.96875
 41
0.0
 71
     1
 72
     1
  1
Larghezza:
  7
SLDTEXTSTYLE0
 73
     1
 44
1.0
  0
MTEXT
  5
FE
330
1F
100
AcDbEntity
  8
0
  6
Continuous
 62
     7
370
     0
100
AcDbMText
 10
750.2384337353
 20
53.256864325
 30
0.0
 40
3.96875
 41
0.0
 71
     1
 72
     1
  1
Sp./Ø:
  7
SLDTEXTSTYLE0
 73
     1
 44
1.0
  0
MTEXT
  5
FF
330
1F
100
AcDbEntity
  8
0
  6
Continuous
 62
     7
370
     0
100
AcDbMText
 10
499.9104041776
 20
39.5903346127
 30
0.0
 40
3.96875
 41
0.0
 71
     1
 72
     1
  1
Disegnatore
  7
SLDTEXTSTYLE0
 73
     1
 44
1.0
  0
MTEXT
  5
100
330
1F
100
AcDbEntity
  8
0
  6
Continuous
 62
     7
370
     0
100
AcDbMText
 10
499.9104041776
 20
27.534207182
 30
0.0
 40
3.96875
 41
0.0
 71
     1
 72
     1
  1
Data
  7
SLDTEXTSTYLE0
 73
     1
 44
1.0
  0
MTEXT
  5
101
330
1F
100
AcDbEntity
  8
0
  6
Continuous
 62
     7
370
     0
100
AcDbMText
 10
499.9104041776
 20
80.6413791794
 30
0.0
 40
3.96875
 41
0.0
 71
     1
 72
     1
  1
Descrizione
  7
SLDTEXTSTYLE0
 73
     1
 44
1.0
  0
MTEXT
  5
102
330
1F
100
AcDbEntity
  8
0
  6
Continuous
 62
     7
370
     0
100
AcDbMText
 10
839.9030223578
 20
99.6701965074
 30
0.0
 40
3.96875
 41
0.0
 71
     1
 72
     1
  1
Sistema E
  7
SLDTEXTSTYLE0
 73
     1
 44
1.0
  0
MTEXT
  5
104
330
1F
100
AcDbEntity
  8
0
  6
Continuous
 62
     7
370
     0
100
AcDbMText
 10
839.9030223578
 20
91.3785301114
 30
0.0
 40
3.96875
 41
0.0
 71
     1
 72
     1
  1
UNI  3970
  7
SLDTEXTSTYLE4
 73
     1
 44
1.0
  0
MTEXT
  5
105
330
1F
100
AcDbEntity
  8
0
  6
Continuous
 62
     7
370
     0
100
AcDbMText
 10
318.7246202445
 20
102.5609711702
 30
0.0
 40
3.96875
 41
0.0
 71
     1
 72
     1
  1
Tolleranze generali lineari
  7
SLDTEXTSTYLE0
 73
     1
 44
1.0
  0
MTEXT
  5
106
330
1F
100
AcDbEntity
  8
0
  6
Continuous
 62
     7
370
     0
100
AcDbMText
 10
578.3600089733
 20
102.5609711702
 30
0.0
 40
3.96875
 41
0.0
 71
     1
 72
     1
  1
Tolleranze angolari
  7
SLDTEXTSTYLE0
 73
     1
 44
1.0
  0
MTEXT
  5
107
330
1F
100
AcDbEntity
  8
0
  6
Continuous
 62
     7
370
     0
100
AcDbMText
 10
690.5393242402
 20
102.5609711702
 30
0.0
 40
3.96875
 41
0.0
 71
     1
 72
     1
  1
Smussi non quotati
  7
SLDTEXTSTYLE0
 73
     1
 44
1.0
  0
MTEXT
  5
108
330
1F
100
AcDbEntity
  8
0
  6
Continuous
 62
     7
370
     0
100
AcDbMText
 10
767.2272564122
 20
102.5609711702
 30
0.0
 40
3.96875
 41
0.0
 71
     1
 72
     1
  1
Raggi non quotati
  7
SLDTEXTSTYLE0
 73
     1
 44
1.0
  0
MTEXT
  5
109
330
1F
100
AcDbEntity
  8
0
  6
Continuous
 62
     7
370
     0
100
AcDbMText
 10
396.3178346639
 20
102.5609711702
 30
0.0
 40
3.96875
 41
0.0
 71
     1
 72
     1
  1
Tolleranze generali geometriche
  7
SLDTEXTSTYLE0
 73
     1
 44
1.0
  0
MTEXT
  5
10B
330
1F
100
AcDbEntity
  8
0
  6
Continuous
 62
     7
370
     0
100
AcDbMText
 10
412.2618597319
 20
94.6403929789
 30
0.0
 40
5.55625
 41
0.0
 71
     1
 72
     1
  1
UNI EN 2768 H
  7
SLDTEXTSTYLE5
 73
     1
 44
1.0
  0
MTEXT
  5
10C
330
1F
100
AcDbEntity
  8
0
  6
Continuous
 62
     7
370
     0
100
AcDbMText
 10
320.9170921131
 20
94.6403929789
 30
0.0
 40
5.55625
 41
0.0
 71
     1
 72
     1
  1
ISO 286-1 ISO 8015
  7
SLDTEXTSTYLE0
 73
     1
 44
1.0
  0
MTEXT
  5
10D
330
1F
100
AcDbEntity
  8
0
  6
Continuous
 62
     7
370
     0
100
AcDbMText
 10
319.4358069231
 20
126.1211059587
 30
0.0
 40
3.96875
 41
0.0
 71
     1
 72
     1
  1
Note
  7
SLDTEXTSTYLE0
 73
     1
 44
1.0
  0
MTEXT
  5
10E
330
1F
100
AcDbEntity
  8
0
  6
Continuous
 62
     7
370
     0
100
AcDbMText
 10
319.4358069231
 20
148.7205388499
 30
0.0
 40
3.96875
 41
0.0
 71
     1
 72
     1
  1
Materiale
  7
SLDTEXTSTYLE0
 73
     1
 44
1.0
  0
MTEXT
  5
10F
330
1F
100
AcDbEntity
  8
0
  6
Continuous
 62
     7
370
     0
100
AcDbMText
 10
498.4970909641
 20
148.7205388499
 30
0.0
 40
3.96875
 41
0.0
 71
     1
 72
     1
  1
Peso Kg
  7
SLDTEXTSTYLE0
 73
     1
 44
1.0
  0
MTEXT
  5
110
330
1F
100
AcDbEntity
  8
0
  6
Continuous
 62
     7
370
     0
100
AcDbMText
 10
678.8885823726
 20
148.7205388499
 30
0.0
 40
3.96875
 41
0.0
 71
     1
 72
     1
  1
Trattamento
  7
SLDTEXTSTYLE0
 73
     1
 44
1.0
  0
MTEXT
  5
111
330
1F
100
AcDbEntity
  8
0
  6
Continuous
 62
     7
370
     0
100
AcDbMText
 10
678.8617883036
 20
123.4871196592
 30
0.0
 40
3.96875
 41
0.0
 71
     1
 72
     1
  1
Durezza
  7
SLDTEXTSTYLE0
 73
     1
 44
1.0
  0
MTEXT
  5
112
330
1F
100
AcDbEntity
  8
0
  6
Continuous
 62
     7
370
     0
100
AcDbMText
 10
678.8617883036
 20
110.7286087803
 30
0.0
 40
3.96875
 41
0.0
 71
     1
 72
     1
  1
Profondità
  7
SLDTEXTSTYLE0
 73
     1
 44
1.0
  0
MTEXT
  5
113
330
1F
100
AcDbEntity
  8
0
  6
Continuous
 62
     7
370
     0
100
AcDbMText
 10
592.0850093732
 20
148.7205388499
 30
0.0
 40
3.96875
 41
0.0
 71
     1
 72
     1
  1
Grado di finitura
  7
SLDTEXTSTYLE0
 73
     1
 44
1.0
  0
MTEXT
  5
114
330
1F
100
AcDbEntity
  8
0
  6
Continuous
 62
     7
370
     0
100
AcDbMText
 10
837.4405743187
 20
56.1614713544
 30
0.0
 40
4.5
 41
0.0
 71
     1
 72
     1
  1
SCALA:1:3
  7
SLDTEXTSTYLE0
 73
     1
 44
1.0
  0
MTEXT
  5
115
330
1F
100
AcDbEntity
  8
0
  6
Continuous
 62
     7
370
     0
100
AcDbMText
 10
831.6589836455
 20
27.2557603159
 30
0.0
 40
4.5
 41
0.0
 71
     1
 72
     1
  1
FOGLIO 1 DI 1
  7
SLDTEXTSTYLE5
 73
     1
 44
1.0
  0
MTEXT
  5
116
330
1F
100
AcDbEntity
  8
0
  6
Continuous
 62
     7
370
     0
100
AcDbMText
 10
617.390915437
 20
39.5903346127
 30
0.0
 40
3.96875
 41
0.0
 71
     1
 72
     1
  1
Codice
  7
SLDTEXTSTYLE0
 73
     1
 44
1.0
  0
MTEXT
  5
117
330
1F
100
AcDbEntity
  8
0
  6
Continuous
 62
     7
370
     0
100
AcDbMText
 10
678.8617883036
 20
50.2343269188
 30
0.0
 40
3.96875
 41
0.0
 71
     1
 72
     1
  1
Revisione disegno
  7
SLDTEXTSTYLE0
 73
     1
 44
1.0
  0
MTEXT
  5
118
330
1F
100
AcDbEntity
  8
0
  6
Continuous
 62
     7
370
     0
100
AcDbMText
 10
639.8527410005
 20
31.4816185595
 30
0.0
 40
7.9375
 41
0.0
 71
     1
 72
     1
  1
CPPBPA0044
  7
SLDTEXTSTYLE0
 73
     1
 44
1.0
  0
MTEXT
  5
119
330
1F
100
AcDbEntity
  8
0
  6
Continuous
 62
     7
370
     0
100
AcDbMText
 10
821.2846234645
 20
31.4816185595
 30
0.0
 40
7.9375
 41
0.0
 71
     3
 72
     1
  1
00
  7
SLDTEXTSTYLE0
 73
     1
 44
1.0
  0
LINE
  5
11A
330
1F
100
AcDbEntity
  8
0
  6
Continuous
 62
     7
370
    25
100
AcDbLine
 10
266.3512931845
 20
67.6405430985
 30
0.0
 11
266.6202658261
 21
68.4799062154
 31
0.0
  0
LINE
  5
11B
330
1F
100
AcDbEntity
  8
0
  6
Continuous
 62
     7
370
    25
100
AcDbLine
 10
74.8686909814
 20
103.8189630468
 30
0.0
 11
74.8686909814
 21
95.7467963184
 31
0.0
  0
LINE
  5
11C
330
1F
100
AcDbEntity
  8
0
  6
Continuous
 62
     7
370
    25
100
AcDbLine
 10
74.8686909814
 20
103.8189630468
 30
0.0
 11
263.8037826036
 21
90.7162475369
 31
0.0
  0
LINE
  5
11D
330
1F
100
AcDbEntity
  8
0
  6
Continuous
 62
     7
370
    25
100
AcDbLine
 10
263.8037826036
 20
90.7162475369
 30
0.0
 11
263.8037826036
 21
82.6440808086
 31
0.0
  0
LINE
  5
11E
330
1F
100
AcDbEntity
  8
0
  6
Continuous
 62
     7
370
    25
100
AcDbLine
 10
74.8686909814
 20
95.7467963184
 30
0.0
 11
263.8037826036
 21
82.6440808086
 31
0.0
  0
LINE
  5
11F
330
1F
100
AcDbEntity
  8
0
  6
Continuous
 62
     7
370
    25
100
AcDbLine
 10
264.1143654577
 20
91.0162475369
 30
0.0
 11
263.8037826036
 21
90.7162475369
 31
0.0
  0
LINE
  5
120
330
1F
100
AcDbEntity
  8
0
  6
Continuous
 62
     7
370
    25
100
AcDbLine
 10
264.1143654577
 20
91.0162475369
 30
0.0
 11
264.1143654577
 21
82.9440808086
 31
0.0
  0
LINE
  5
121
330
1F
100
AcDbEntity
  8
0
  6
Continuous
 62
     7
370
    25
100
AcDbLine
 10
263.8037826036
 20
82.6440808086
 30
0.0
 11
264.1143654577
 21
82.9440808086
 31
0.0
  0
LINE
  5
122
330
1F
100
AcDbEntity
  8
0
  6
Continuous
 62
     7
370
    25
100
AcDbLine
 10
75.1792738356
 20
104.1189630468
 30
0.0
 11
74.8686909814
 21
103.8189630468
 31
0.0
  0
LINE
  5
123
330
1F
100
AcDbEntity
  8
0
  6
Continuous
 62
     7
370
    25
100
AcDbLine
 10
75.1792738356
 20
104.1189630468
 30
0.0
 11
264.1143654577
 21
91.0162475369
 31
0.0
  0
ARC
  5
124
330
1F
100
AcDbEntity
  8
0
  6
Continuous
 62
     7
370
    25
100
AcDbCircle
 10
267.2154337063
 20
82.9120321171
 30
0.0
 40
3.10123385145406
100
AcDbArc
 50
179.4078848831
 51
189.4150269835
  0
LINE
  5
125
330
1F
100
AcDbEntity
  8
0
  6
Continuous
 62
     7
370
    25
100
AcDbLine
 10
264.1559756702
 20
82.4047176916
 30
0.0
 11
263.8870030285
 21
81.5653545747
 31
0.0
  0
ARC
  5
126
330
1F
100
AcDbEntity
  8
0
  6
Continuous
 62
     7
370
    25
100
AcDbCircle
 10
270.0059191009
 20
82.5799834257
 30
0.0
 40
6.202467702897101
100
AcDbArc
 50
179.4078848831
 51
189.4150269835
  0
ARC
  5
127
330
1F
100
AcDbEntity
  8
0
  6
Continuous
 62
     7
370
    25
100
AcDbCircle
 10
81.0708274787
 20
95.6826989355
 30
0.0
 40
6.202467702891396
100
AcDbArc
 50
179.4078848831
 51
189.4150269835
  0
LINE
  5
128
330
1F
100
AcDbEntity
  8
0
  6
Continuous
 62
     7
370
    25
100
AcDbLine
 10
74.9519114064
 20
94.6680700846
 30
0.0
 11
263.8870030285
 21
81.5653545747
 31
0.0
  0
LINE
  5
129
330
1F
100
AcDbEntity
  8
0
  6
Continuous
 62
     7
370
    25
100
AcDbLine
 10
264.1559756702
 20
82.4047176916
 30
0.0
 11
266.636616706
 21
68.7657172076
 31
0.0
  0
LINE
  5
12A
330
1F
100
AcDbEntity
  8
0
  6
Continuous
 62
     7
370
    25
100
AcDbLine
 10
266.3676440644
 20
67.9263540907
 30
0.0
 11
266.636616706
 21
68.7657172076
 31
0.0
  0
LINE
  5
12B
330
1F
100
AcDbEntity
  8
0
  6
Continuous
 62
     7
370
    25
100
AcDbLine
 10
263.8870030285
 20
81.5653545747
 30
0.0
 11
266.3676440644
 21
67.9263540907
 31
0.0
  0
ARC
  5
12C
330
1F
100
AcDbEntity
  8
0
  6
Continuous
 62
     7
370
    25
100
AcDbCircle
 10
78.7519545092
 20
81.4936676984
 30
0.0
 40
1.398811354981206
100
AcDbArc
 50
199.3985814923
 51
269.7952123002
  0
LINE
  5
12D
330
1F
100
AcDbEntity
  8
0
  6
Continuous
 62
     7
370
    25
100
AcDbLine
 10
74.9519114064
 20
94.6680700846
 30
0.0
 11
77.4325524422
 21
81.0290696005
 31
0.0
  0
LWPOLYLINE
  5
12E
330
1F
100
AcDbEntity
  8
0
  6
Continuous
 62
     7
370
    25
100
AcDbPolyline
 90
        9
 70
   128
 43
0.0
 10
265.3638244999
 20
67.1529192839
 10
265.5869719552
 20
67.1536428991
 10
265.7955762166
 20
67.1871505133
 10
265.9816207391
 20
67.2521544475
 10
266.1379559362
 20
67.3461566371
 10
266.2585739339
 20
67.4655446306
 10
266.3388394501
 20
67.6057304144
 10
266.3756679262
 20
67.7613267275
 10
266.3676440644
 20
67.9263540907
  0
LINE
  5
12F
330
1F
100
AcDbEntity
  8
0
  6
Continuous
 62
     7
370
    25
100
AcDbLine
 10
78.7469548608
 20
80.0948652783
 30
0.0
 11
265.3638244999
 21
67.1529192839
 31
0.0
  0
LWPOLYLINE
  5
130
330
1F
100
AcDbEntity
  8
0
  6
Continuous
 62
     7
370
    25
100
AcDbPolyline
 90
        3
 70
   128
 43
0.0
 10
266.636616706
 20
68.7657172076
 10
266.6446405678
 20
68.6006898444
 10
266.6202658261
 20
68.4799062154
  0
LINE
  5
131
330
1F
100
AcDbEntity
  8
0
  6
Continuous
 62
     7
370
    25
100
AcDbLine
 10
610.5834699098
 20
370.0887343894
 30
0.0
 11
610.5834699098
 21
368.0887343894
 31
0.0
  0
LINE
  5
132
330
1F
100
AcDbEntity
  8
0
  6
Continuous
 62
     7
370
    25
100
AcDbLine
 10
284.5834699098
 20
370.0887343894
 30
0.0
 11
284.5834699098
 21
368.0887343894
 31
0.0
  0
LINE
  5
133
330
1F
100
AcDbEntity
  8
0
  6
Continuous
 62
     7
370
    25
100
AcDbLine
 10
284.5834699098
 20
384.0169376197
 30
0.0
 11
610.5834699098
 21
384.0169376197
 31
0.0
  0
LINE
  5
134
330
1F
100
AcDbEntity
  8
0
  6
Continuous
 62
     7
370
    25
100
AcDbLine
 10
284.5834699098
 20
384.0169376197
 30
0.0
 11
284.5834699098
 21
370.0887343894
 31
0.0
  0
LINE
  5
135
330
1F
100
AcDbEntity
  8
0
  6
Continuous
 62
     7
370
    25
100
AcDbLine
 10
610.5834699098
 20
384.0169376197
 30
0.0
 11
610.5834699098
 21
370.0887343894
 31
0.0
  0
ARC
  5
136
330
1F
100
AcDbEntity
  8
0
  6
Continuous
 62
     7
370
    25
100
AcDbCircle
 10
286.4584699098
 20
340.565116354
 30
0.0
 40
1.880547349399407
100
AcDbArc
 50
184.4019496523
 51
273.8112610495
  0
LINE
  5
137
330
1F
100
AcDbEntity
  8
0
  6
Continuous
 62
     7
370
    25
100
AcDbLine
 10
284.5834699098
 20
368.0887343894
 30
0.0
 11
284.5834699098
 21
340.4207787867
 31
0.0
  0
ARC
  5
138
330
1F
100
AcDbEntity
  8
0
  6
Continuous
 62
     7
370
    25
100
AcDbCircle
 10
608.7084699098
 20
340.565116354
 30
0.0
 40
1.880547349399336
100
AcDbArc
 50
266.1887389505
 51
355.5980503477
  0
LINE
  5
139
330
1F
100
AcDbEntity
  8
0
  6
Continuous
 62
     7
370
    25
100
AcDbLine
 10
286.5834699098
 20
338.6887279792
 30
0.0
 11
608.5834699098
 21
338.6887279792
 31
0.0
  0
LINE
  5
13A
330
1F
100
AcDbEntity
  8
0
  6
Continuous
 62
     7
370
    25
100
AcDbLine
 10
610.5834699098
 20
368.0887343894
 30
0.0
 11
610.5834699098
 21
340.4207787867
 31
0.0
  0
LINE
  5
13B
330
1F
100
AcDbEntity
  8
0
  6
PHANTOM
 62
     8
370
    18
100
AcDbLine
 10
284.5834699098
 20
370.0887343894
 30
0.0
 11
610.5834699098
 21
370.0887343894
 31
0.0
  0
LINE
  5
13C
330
1F
100
AcDbEntity
  8
0
  6
PHANTOM
 62
     8
370
    18
100
AcDbLine
 10
284.5834699098
 20
368.0887343894
 30
0.0
 11
610.5834699098
 21
368.0887343894
 31
0.0
  0
ARC
  5
13D
330
1F
100
AcDbEntity
  8
0
  6
HIDDEN
 62
     7
370
    18
100
AcDbCircle
 10
286.4584699098
 20
341.565116354
 30
0.0
 40
1.880547349399458
100
AcDbArc
 50
184.4019496523
 51
273.8112610495
  0
ARC
  5
13E
330
1F
100
AcDbEntity
  8
0
  6
HIDDEN
 62
     7
370
    18
100
AcDbCircle
 10
608.7084699098
 20
341.565116354
 30
0.0
 40
1.880547349399343
100
AcDbArc
 50
266.1887389505
 51
355.5980503477
  0
LINE
  5
13F
330
1F
100
AcDbEntity
  8
0
  6
HIDDEN
 62
     7
370
    18
100
AcDbLine
 10
286.5834699098
 20
339.6887279792
 30
0.0
 11
608.5834699098
 21
339.6887279792
 31
0.0
  0
LINE
  5
140
330
1F
100
AcDbEntity
  8
0
  6
HIDDEN
 62
     7
370
    18
100
AcDbLine
 10
284.5834699098
 20
370.0887343894
 30
0.0
 11
610.5834699098
 21
370.0887343894
 31
0.0
  0
LINE
  5
141
330
1F
100
AcDbEntity
  8
0
  6
HIDDEN
 62
     7
370
    18
100
AcDbLine
 10
284.5834699098
 20
369.0887343894
 30
0.0
 11
610.5834699098
 21
369.0887343894
 31
0.0
  0
LINE
  5
142
330
1F
100
AcDbEntity
  8
0
  6
HIDDEN
 62
     7
370
    18
100
AcDbLine
 10
286.5834699098
 20
338.6887279792
 30
0.0
 11
286.5834699098
 21
339.6887279792
 31
0.0
  0
LINE
  5
143
330
1F
100
AcDbEntity
  8
0
  6
HIDDEN
 62
     7
370
    18
100
AcDbLine
 10
608.5834699098
 20
339.6887279792
 30
0.0
 11
608.5834699098
 21
338.6887279792
 31
0.0
  0
INSERT
  5
144
330
1F
100
AcDbEntity
  8
0
  6
Continuous
 62
     7
100
AcDbBlockReference
  2
Particolare privo di bave e dif.sup.
 10
316.2726502964
 20
159.1110076207
 30
0.0
 41
0.1
 42
0.1
 43
0.1
  0
DIMENSION
  5
145
330
1F
100
AcDbEntity
  8
0
  6
Continuous
 62
     7
370
    18
100
AcDbDimension
  2
_D
 10
610.5834699098
 20
308.3710459594
 30
0.0
 11
447.5834699098
 21
308.3710459594
 31
0.0
 70
   160
  1
<>
 71
     2
 42
-1.0
  3
SLDDIMSTYLE0
100
AcDbAlignedDimension
 13
284.5834699098
 23
368.0887343894
 33
0.0
 14
610.5834699098
 24
368.0887343894
 34
0.0
100
AcDbRotatedDimension
  0
LINE
  5
150
330
1F
100
AcDbEntity
  8
0
  6
Continuous
 62
     7
370
    25
100
AcDbLine
 10
741.2647806384
 20
368.0887343894
 30
0.0
 11
725.2906790233
 21
340.4207787867
 31
0.0
  0
LINE
  5
151
330
1F
100
AcDbEntity
  8
0
  6
Continuous
 62
     7
370
    25
100
AcDbLine
 10
739.5327298308
 20
369.0887343894
 30
0.0
 11
723.5586282157
 21
341.4207787867
 31
0.0
  0
LINE
  5
152
330
1F
100
AcDbEntity
  8
0
  6
Continuous
 62
     7
370
    25
100
AcDbLine
 10
724.2906790233
 20
338.6887279792
 30
0.0
 11
722.5586282157
 21
339.6887279792
 31
0.0
  0
LINE
  5
153
330
1F
100
AcDbEntity
  8
0
  6
Continuous
 62
     7
370
    25
100
AcDbLine
 10
725.2906790233
 20
340.4207787867
 30
0.0
 11
724.2906790233
 21
338.6887279792
 31
0.0
  0
LINE
  5
154
330
1F
100
AcDbEntity
  8
0
  6
Continuous
 62
     7
370
    25
100
AcDbLine
 10
722.5586282157
 20
339.6887279792
 30
0.0
 11
723.5586282157
 21
341.4207787867
 31
0.0
  0
ARC
  5
155
330
1F
100
AcDbEntity
  8
0
  6
Continuous
 62
     7
370
    25
100
AcDbCircle
 10
737.8006790233
 20
370.0887343894
 30
0.0
 40
2.0
100
AcDbArc
 50
330.0
 51
0.0
  0
ARC
  5
156
330
1F
100
AcDbEntity
  8
0
  6
Continuous
 62
     7
370
    25
100
AcDbCircle
 10
737.8006790233
 20
370.0887343894
 30
0.0
 40
3.999999999999934
100
AcDbArc
 50
330.0
 51
0.0
  0
LINE
  5
157
330
1F
100
AcDbEntity
  8
0
  6
Continuous
 62
     7
370
    25
100
AcDbLine
 10
741.8006790233
 20
384.0169376197
 30
0.0
 11
741.8006790233
 21
370.0887343894
 31
0.0
  0
LINE
  5
158
330
1F
100
AcDbEntity
  8
0
  6
Continuous
 62
     7
370
    25
100
AcDbLine
 10
739.8006790233
 20
384.0169376197
 30
0.0
 11
739.8006790233
 21
370.0887343894
 31
0.0
  0
LINE
  5
159
330
1F
100
AcDbEntity
  8
0
  6
Continuous
 62
     7
370
    25
100
AcDbLine
 10
739.8006790233
 20
384.0169376197
 30
0.0
 11
741.8006790233
 21
384.0169376197
 31
0.0
  0
LINE
  5
15A
330
1F
100
AcDbEntity
  8
0
  6
PHANTOM
 62
     8
370
    18
100
AcDbLine
 10
741.2647806384
 20
368.0887343894
 30
0.0
 11
739.5327298308
 21
369.0887343894
 31
0.0
  0
LINE
  5
15B
330
1F
100
AcDbEntity
  8
0
  6
PHANTOM
 62
     8
370
    18
100
AcDbLine
 10
723.5586282157
 20
341.4207787867
 30
0.0
 11
725.2906790233
 21
340.4207787867
 31
0.0
  0
LINE
  5
15C
330
1F
100
AcDbEntity
  8
0
  6
PHANTOM
 62
     8
370
    18
100
AcDbLine
 10
739.8006790233
 20
370.0887343894
 30
0.0
 11
741.8006790233
 21
370.0887343894
 31
0.0
  0
LINE
  5
15D
330
1F
100
AcDbEntity
  8
0
  6
HIDDEN
 62
     7
370
    18
100
AcDbLine
 10
725.2906790233
 20
340.4207787867
 30
0.0
 11
723.5586282157
 21
341.4207787867
 31
0.0
  0
LINE
  5
15E
330
1F
100
AcDbEntity
  8
0
  6
HIDDEN
 62
     7
370
    18
100
AcDbLine
 10
739.5327298308
 20
369.0887343894
 30
0.0
 11
741.2647806384
 21
368.0887343894
 31
0.0
  0
LINE
  5
15F
330
1F
100
AcDbEntity
  8
0
  6
HIDDEN
 62
     7
370
    18
100
AcDbLine
 10
741.8006790233
 20
370.0887343894
 30
0.0
 11
739.8006790233
 21
370.0887343894
 31
0.0
  0
DIMENSION
  5
160
330
1F
100
AcDbEntity
  8
0
  6
Continuous
 62
     7
370
    18
100
AcDbDimension
  2
_D_1
 10
770.961753468
 20
311.7431705851
 30
0.0
 11
779.7076233206
 21
326.8914615263
 31
0.0
 70
   160
  1
<>
 71
     2
 42
-1.0
  3
SLDDIMSTYLE1
100
AcDbAlignedDimension
 13
741.6643823284
 23
369.053458209
 33
0.0
 14
724.2906790233
 24
338.6887279792
 34
0.0
 50
60.0
100
AcDbRotatedDimension
  0
DIMENSION
  5
16B
330
1F
100
AcDbEntity
  8
0
  6
Continuous
 62
     7
370
    18
100
AcDbDimension
  2
_D_2
 10
771.8006790233
 20
384.0169376197
 30
0.0
 11
771.8006790233
 21
406.0056350213
 31
0.0
 70
   160
  1
<>
 71
     2
 42
-1.0
  3
SLDDIMSTYLE2
100
AcDbAlignedDimension
 13
741.6643823284
 23
369.053458209
 33
0.0
 14
741.8006790233
 24
384.0169376197
 34
0.0
 50
90.0
100
AcDbRotatedDimension
  0
DIMENSION
  5
178
330
1F
100
AcDbEntity
  8
0
  6
Continuous
 62
     7
370
    18
100
AcDbDimension
  2
_D_3
 10
741.2647806384
 20
368.0887343894
 30
0.0
 11
722.9609330611
 21
298.7060484872
 31
0.0
 70
   162
  1
<>
 71
     1
 42
-1.0
  3
SLDDIMSTYLE3
100
AcDb2LineAngularDimension
 13
741.8006790233
 23
370.0887343894
 33
0.0
 14
741.8006790233
 24
384.0169376197
 34
0.0
 15
724.2906790233
 25
338.6887279792
 35
0.0
 16
722.9609330611
 26
298.7060484872
 36
0.0
  0
DIMENSION
  5
183
330
1F
100
AcDbEntity
  8
0
  6
Continuous
 62
     7
370
    18
100
AcDbDimension
  2
_D_4
 10
715.863024675
 20
328.0916024594
 30
0.0
 11
692.5586282157
 21
341.5464020284
 31
0.0
 70
   160
  1
<>
 71
     2
 42
-1.0
  3
SLDDIMSTYLE4
100
AcDbAlignedDimension
 13
724.2906790233
 23
338.6887279792
 33
0.0
 14
722.5586282157
 24
339.6887279792
 34
0.0
 50
-30.0
100
AcDbRotatedDimension
  0
DIMENSION
  5
190
330
1F
100
AcDbEntity
  8
0
  6
Continuous
 62
     7
370
    18
100
AcDbDimension
  2
_D_5
 10
737.8006790233
 20
370.0887343894
 30
0.0
 11
722.9609630611
 21
378.6564957154
 31
0.0
 70
   164
  1
<>
 71
     1
 42
-1.0
  3
SLDDIMSTYLE5
100
AcDbRadialDimension
 15
739.5327298308
 25
369.0887343894
 35
0.0
 40
0.0
  0
LINE
  5
198
330
1F
100
AcDbEntity
  8
0
  6
Continuous
 62
     7
100
AcDbLine
 10
169.519674895
 20
523.3764532353
 30
0.0
 11
169.519674895
 21
197.3764532353
 31
0.0
  0
LINE
  5
199
330
1F
100
AcDbEntity
  8
0
  6
Continuous
 62
     7
370
    25
100
AcDbLine
 10
184.118084558
 20
523.3764532353
 30
0.0
 11
184.118084558
 21
197.3764532353
 31
0.0
  0
LINE
  5
19A
330
1F
100
AcDbEntity
  8
0
  6
Continuous
 62
     7
370
    25
100
AcDbLine
 10
184.118084558
 20
197.3764532353
 30
0.0
 11
136.9012652319
 21
197.3764532353
 31
0.0
  0
ARC
  5
19B
330
1F
100
AcDbEntity
  8
0
  6
Continuous
 62
     7
370
    25
100
AcDbCircle
 10
136.9012652319
 20
199.3764532353
 30
0.0
 40
2.000000000000028
100
AcDbArc
 50
180.0
 51
270.0
  0
LINE
  5
19C
330
1F
100
AcDbEntity
  8
0
  6
Continuous
 62
     7
370
    25
100
AcDbLine
 10
134.9012652319
 20
521.3764532353
 30
0.0
 11
134.9012652319
 21
199.3764532353
 31
0.0
  0
ARC
  5
19D
330
1F
100
AcDbEntity
  8
0
  6
Continuous
 62
     7
370
    25
100
AcDbCircle
 10
136.9012652319
 20
521.3764532353
 30
0.0
 40
2.0
100
AcDbArc
 50
90.0
 51
180.0
  0
LINE
  5
19E
330
1F
100
AcDbEntity
  8
0
  6
Continuous
 62
     7
370
    25
100
AcDbLine
 10
184.118084558
 20
523.3764532353
 30
0.0
 11
136.9012652319
 21
523.3764532353
 31
0.0
  0
DIMENSION
  5
19F
330
1F
100
AcDbEntity
  8
0
  6
Continuous
 62
     7
370
    18
100
AcDbDimension
  2
_D_6
 10
104.0352398282
 20
197.3764532353
 30
0.0
 11
104.0352398282
 21
360.3764532353
 31
0.0
 70
   160
  1
<>
 71
     2
 42
-1.0
  3
SLDDIMSTYLE0
100
AcDbAlignedDimension
 13
136.9012652319
 23
523.3764532353
 33
0.0
 14
136.9012652319
 24
197.3764532353
 34
0.0
 50
90.0
100
AcDbRotatedDimension
  0
DIMENSION
  5
1A9
330
1F
100
AcDbEntity
  8
0
  6
Continuous
 62
     7
370
    18
100
AcDbDimension
  2
_D_7
 10
184.118084558
 20
175.0305011086
 30
0.0
 11
159.509674895
 21
175.0305011086
 31
0.0
 70
   160
  1
<>
 71
     2
 42
-1.0
  3
SLDDIMSTYLE1
100
AcDbAlignedDimension
 13
134.9012652319
 23
199.3764532353
 33
0.0
 14
184.118084558
 24
197.3764532353
 34
0.0
100
AcDbRotatedDimension
  0
DIMENSION
  5
1B3
330
1F
100
AcDbEntity
  8
0
  6
Continuous
 62
     7
370
    18
100
AcDbDimension
  2
_D_8
 10
136.9012652319
 20
521.3764532353
 30
0.0
 11
126.4017299089
 21
539.5622638322
 31
0.0
 70
   164
  1
<>
 71
     1
 42
-1.0
  3
SLDDIMSTYLE6
100
AcDbRadialDimension
 15
135.9012652319
 25
523.1085040429
 35
0.0
 40
0.0
  0
MTEXT
  5
1BD
330
1F
100
AcDbEntity
  8
0
  6
Continuous
 62
     7
370
     0
100
AcDbMText
 10
158.0851184728
 20
358.535827085
 30
0.0
 40
9.0
 41
0.0
 71
     2
 72
     1
  1
GIU'  30°  R 2
  7
SLDTEXTSTYLE6
 11
-3.491481338843133E-15
 21
1.0
 31
0.0
 73
     1
 44
1.0
  0
INSERT
  5
1C2
330
1F
100
AcDbEntity
  8
0
  6
Continuous
 62
     7
370
     0
100
AcDbBlockReference
  2
SW_NOTE_0_1
 10
181.2146171694
 20
554.060324826
 30
0.0
  0
LEADER
  5
1C9
330
1F
100
AcDbEntity
  8
0
  6
Continuous
 62
     7
370
     0
100
AcDbLeader
  3
SLDDIMSTYLE7
 76
     2
 10
153.9075902369
 20
510.0267499749
 30
0.0
 10
181.2146171694
 20
554.060324826
 30
0.0
  0
LINE
  5
1CA
330
1F
100
AcDbEntity
  8
0
  6
Continuous
 62
     7
370
    25
100
AcDbLine
 10
184.118084558
 20
138.1941109632
 30
0.0
 11
184.118084558
 21
136.1941109632
 31
0.0
  0
LINE
  5
1CB
330
1F
100
AcDbEntity
  8
0
  6
Continuous
 62
     7
370
    25
100
AcDbLine
 10
184.118084558
 20
136.1941109632
 30
0.0
 11
136.9012652319
 21
136.1941109632
 31
0.0
  0
LINE
  5
1CC
330
1F
100
AcDbEntity
  8
0
  6
Continuous
 62
     7
370
    25
100
AcDbLine
 10
136.9012652319
 20
138.1941109632
 30
0.0
 11
136.9012652319
 21
136.1941109632
 31
0.0
  0
LINE
  5
1CD
330
1F
100
AcDbEntity
  8
0
  6
Continuous
 62
     7
370
    25
100
AcDbLine
 10
184.118084558
 20
138.1941109632
 30
0.0
 11
136.9012652319
 21
138.1941109632
 31
0.0
  0
LINE
  5
1CE
330
1F
100
AcDbEntity
  8
0
  6
Continuous
 62
     7
370
    25
100
AcDbLine
 10
134.9012652319
 20
136.1941109632
 30
0.0
 11
134.9012652319
 21
138.1941109632
 31
0.0
  0
LINE
  5
1CF
330
1F
100
AcDbEntity
  8
0
  6
Continuous
 62
     7
370
    25
100
AcDbLine
 10
136.9012652319
 20
136.1941109632
 30
0.0
 11
134.9012652319
 21
136.1941109632
 31
0.0
  0
LINE
  5
1D0
330
1F
100
AcDbEntity
  8
0
  6
Continuous
 62
     7
370
    25
100
AcDbLine
 10
134.9012652319
 20
138.1941109632
 30
0.0
 11
136.9012652319
 21
138.1941109632
 31
0.0
  0
DIMENSION
  5
1D1
330
1F
100
AcDbEntity
  8
0
  6
Continuous
 62
     7
370
    18
100
AcDbDimension
  2
_D_9
 10
104.0352398282
 20
138.1941109632
 30
0.0
 11
104.0352398282
 21
156.4037739426
 31
0.0
 70
   160
  1
<>
 71
     2
 42
-1.0
  3
SLDDIMSTYLE4
100
AcDbAlignedDimension
 13
134.9012652319
 23
136.1941109632
 33
0.0
 14
134.9012652319
 24
138.1941109632
 34
0.0
 50
90.0
100
AcDbRotatedDimension
  0
ENDSEC
  0
SECTION
  2
OBJECTS
  0
DICTIONARY
  5
C
330
0
100
AcDbDictionary
281
     1
  3
ACAD_GROUP
350
D
  3
ACAD_LAYOUT
350
1A
  3
ACAD_MLINESTYLE
350
17
  3
ACAD_PLOTSETTINGS
350
19
  3
ACAD_PLOTSTYLENAME
350
E
  3
ACAD_SCALELIST
350
47
  3
DWGPROPS
350
1DD
  0
DICTIONARY
  5
D
102
{ACAD_REACTORS
330
C
102
}
330
C
100
AcDbDictionary
281
     1
  0
DICTIONARY
  5
1A
102
{ACAD_REACTORS
330
C
102
}
330
C
100
AcDbDictionary
281
     1
  3
Layout1
350
1E
  3
Layout2
350
26
  3
Model
350
22
  0
DICTIONARY
  5
17
102
{ACAD_REACTORS
330
C
102
}
330
C
100
AcDbDictionary
281
     1
  3
Standard
350
18
  0
DICTIONARY
  5
19
102
{ACAD_REACTORS
330
C
102
}
330
C
100
AcDbDictionary
281
     1
  0
ACDBDICTIONARYWDFLT
  5
E
102
{ACAD_REACTORS
330
C
102
}
330
C
100
AcDbDictionary
281
     1
  3
Normal
350
F
100
AcDbDictionaryWithDefault
340
F
  0
DICTIONARY
  5
47
102
{ACAD_REACTORS
330
C
102
}
330
C
100
AcDbDictionary
281
     1
  3
A0
350
48
  3
A1
350
49
  3
A2
350
4A
  3
A3
350
4B
  3
A4
350
4C
  3
A5
350
4D
  3
A6
350
4E
  3
A7
350
4F
  3
A8
350
50
  3
A9
350
51
  3
B0
350
52
  3
B1
350
53
  3
B2
350
54
  3
B3
350
55
  3
B4
350
56
  3
B5
350
57
  3
B6
350
58
  0
XRECORD
  5
1DD
102
{ACAD_REACTORS
330
C
102
}
330
C
100
AcDbXrecord
280
     1
  1
DWGPROPS COOKIE
  2

  3

  4

  6

  7

  8
antonio messinetti
  9

300
=
301
=
302
=
303
=
304
=
305
=
306
=
307
=
308
=
309
=
 40
0.0
 41
2460663.457655556
 42
2460663.45765706
  1

 90
        0
  0
LAYOUT
  5
1E
102
{ACAD_REACTORS
330
1A
102
}
330
1A
100
AcDbPlotSettings
  1

  2
none_device
  4

  6

 40
0.0
 41
0.0
 42
0.0
 43
0.0
 44
0.0
 45
0.0
 46
0.0
 47
0.0
 48
0.0
 49
0.0
140
0.0
141
0.0
142
1.0
143
1.0
 70
   688
 72
     1
 73
     0
 74
     5
  7

 75
    16
147
1.0
148
0.0
149
0.0
100
AcDbLayout
  1
Layout1
 70
     1
 71
     1
 10
0.0
 20
0.0
 11
420.0
 21
297.0
 12
0.0
 22
0.0
 32
0.0
 14
1.0000000000E+20
 24
1.0000000000E+20
 34
1.0000000000E+20
 15
-1.0000000000E+20
 25
-1.0000000000E+20
 35
-1.0000000000E+20
146
0.0
 13
0.0
 23
0.0
 33
0.0
 16
1.0
 26
0.0
 36
0.0
 17
0.0
 27
1.0
 37
0.0
 76
     0
330
1B
  0
LAYOUT
  5
26
102
{ACAD_REACTORS
330
1A
102
}
330
1A
100
AcDbPlotSettings
  1

  2
none_device
  4

  6

 40
0.0
 41
0.0
 42
0.0
 43
0.0
 44
0.0
 45
0.0
 46
0.0
 47
0.0
 48
0.0
 49
0.0
140
0.0
141
0.0
142
1.0
143
1.0
 70
   688
 72
     1
 73
     0
 74
     5
  7

 75
    16
147
1.0
148
0.0
149
0.0
100
AcDbLayout
  1
Layout2
 70
     1
 71
     2
 10
0.0
 20
0.0
 11
0.0
 21
0.0
 12
0.0
 22
0.0
 32
0.0
 14
0.0
 24
0.0
 34
0.0
 15
0.0
 25
0.0
 35
0.0
146
0.0
 13
0.0
 23
0.0
 33
0.0
 16
1.0
 26
0.0
 36
0.0
 17
0.0
 27
1.0
 37
0.0
 76
     0
330
23
  0
LAYOUT
  5
22
102
{ACAD_REACTORS
330
1A
102
}
330
1A
100
AcDbPlotSettings
  1

  2
none_device
  4
Letter_(8.50_x_11.00_Inches)
  6

 40
6.35
 41
6.35
 42
6.35000508
 43
6.35000508
 44
215.9
 45
279.4
 46
0.0
 47
0.0
 48
0.0
 49
0.0
140
0.0
141
0.0
142
1.0
143
1.0
 70
  1712
 72
     1
 73
     0
 74
     0
  7

 75
     0
147
1.0
148
0.0
149
0.0
100
AcDbLayout
  1
Model
 70
     1
 71
     0
 10
0.0
 20
0.0
 11
891.0
 21
630.0
 12
0.0
 22
0.0
 32
0.0
 14
0.0
 24
0.0
 34
0.0
 15
891.0
 25
630.0
 35
0.0
146
0.0
 13
0.0
 23
0.0
 33
0.0
 16
1.0
 26
0.0
 36
0.0
 17
0.0
 27
1.0
 37
0.0
 76
     0
330
1F
331
29
  0
MLINESTYLE
  5
18
102
{ACAD_REACTORS
330
17
102
}
330
17
100
AcDbMlineStyle
  2
Standard
 70
     0
  3

 62
   256
 51
90.0
 52
90.0
 71
     2
 49
0.5
 62
   256
  6
BYLAYER
 49
-0.5
 62
   256
  6
BYLAYER
  0
ACDBPLACEHOLDER
  5
F
102
{ACAD_REACTORS
330
E
102
}
330
E
  0
SCALE
  5
48
102
{ACAD_REACTORS
330
47
102
}
330
47
100
AcDbScale
 70
     0
300
1:1
140
1.0
141
1.0
290
     1
  0
SCALE
  5
49
102
{ACAD_REACTORS
330
47
102
}
330
47
100
AcDbScale
 70
     0
300
1:2
140
1.0
141
2.0
290
     0
  0
SCALE
  5
4A
102
{ACAD_REACTORS
330
47
102
}
330
47
100
AcDbScale
 70
     0
300
1:4
140
1.0
141
4.0
290
     0
  0
SCALE
  5
4B
102
{ACAD_REACTORS
330
47
102
}
330
47
100
AcDbScale
 70
     0
300
1:5
140
1.0
141
5.0
290
     0
  0
SCALE
  5
4C
102
{ACAD_REACTORS
330
47
102
}
330
47
100
AcDbScale
 70
     0
300
1:8
140
1.0
141
8.0
290
     0
  0
SCALE
  5
4D
102
{ACAD_REACTORS
330
47
102
}
330
47
100
AcDbScale
 70
     0
300
1:10
140
1.0
141
10.0
290
     0
  0
SCALE
  5
4E
102
{ACAD_REACTORS
330
47
102
}
330
47
100
AcDbScale
 70
     0
300
1:16
140
1.0
141
16.0
290
     0
  0
SCALE
  5
4F
102
{ACAD_REACTORS
330
47
102
}
330
47
100
AcDbScale
 70
     0
300
1:20
140
1.0
141
20.0
290
     0
  0
SCALE
  5
50
102
{ACAD_REACTORS
330
47
102
}
330
47
100
AcDbScale
 70
     0
300
1:30
140
1.0
141
30.0
290
     0
  0
SCALE
  5
51
102
{ACAD_REACTORS
330
47
102
}
330
47
100
AcDbScale
 70
     0
300
1:40
140
1.0
141
40.0
290
     0
  0
SCALE
  5
52
102
{ACAD_REACTORS
330
47
102
}
330
47
100
AcDbScale
 70
     0
300
1:50
140
1.0
141
50.0
290
     0
  0
SCALE
  5
53
102
{ACAD_REACTORS
330
47
102
}
330
47
100
AcDbScale
 70
     0
300
1:100
140
1.0
141
100.0
290
     0
  0
SCALE
  5
54
102
{ACAD_REACTORS
330
47
102
}
330
47
100
AcDbScale
 70
     0
300
2:1
140
2.0
141
1.0
290
     0
  0
SCALE
  5
55
102
{ACAD_REACTORS
330
47
102
}
330
47
100
AcDbScale
 70
     0
300
4:1
140
4.0
141
1.0
290
     0
  0
SCALE
  5
56
102
{ACAD_REACTORS
330
47
102
}
330
47
100
AcDbScale
 70
     0
300
8:1
140
8.0
141
1.0
290
     0
  0
SCALE
  5
57
102
{ACAD_REACTORS
330
47
102
}
330
47
100
AcDbScale
 70
     0
300
10:1
140
10.0
141
1.0
290
     0
  0
SCALE
  5
58
102
{ACAD_REACTORS
330
47
102
}
330
47
100
AcDbScale
 70
     0
300
100:1
140
100.0
141
1.0
290
     0
  0
ENDSEC
  0
EOF
