  0
SECTION
  2
HEADER
  9
$ACADVER
  1
AC1015
  9
$ACADMAINTVER
 70
     6
  9
$DWGCODEPAGE
  3
ANSI_1252
  9
$INSBASE
 10
0.0
 20
0.0
 30
0.0
  9
$EXTMIN
 10
0.0
 20
0.0
 30
0.0
  9
$EXTMAX
 10
891.0
 20
630.0
 30
0.0
  9
$LIMMIN
 10
0.0
 20
0.0
  9
$LIMMAX
 10
891.0
 20
630.0
  9
$ORTHOMODE
 70
     0
  9
$REGENMODE
 70
     1
  9
$FILLMODE
 70
     1
  9
$QTEXTMODE
 70
     0
  9
$MIRRTEXT
 70
     1
  9
$LTSCALE
 40
3.0
  9
$ATTMODE
 70
     1
  9
$TEXTSIZE
 40
9.0
  9
$TRACEWID
 40
1.0
  9
$TEXTSTYLE
  7
Standard
  9
$CLAYER
  8
0
  9
$CELTYPE
  6
ByLayer
  9
$CECOLOR
 62
   256
  9
$CELTSCALE
 40
1.0
  9
$DISPSILH
 70
     0
  9
$DIMSCALE
 40
1.0
  9
$DIMASZ
 40
8.4
  9
$DIMEXO
 40
3.0
  9
$DIMDLI
 40
3.75
  9
$DIMRND
 40
0.0
  9
$DIMDLE
 40
0.0
  9
$DIMEXE
 40
3.0
  9
$DIMTP
 40
0.0
  9
$DIMTM
 40
0.0
  9
$DIMTXT
 40
8.4
  9
$DIMCEN
 40
2.5
  9
$DIMTSZ
 40
0.0
  9
$DIMTOL
 70
     0
  9
$DIMLIM
 70
     0
  9
$DIMTIH
 70
     1
  9
$DIMTOH
 70
     1
  9
$DIMSE1
 70
     0
  9
$DIMSE2
 70
     0
  9
$DIMTAD
 70
     1
  9
$DIMZIN
 70
     0
  9
$DIMBLK
  1

  9
$DIMASO
 70
     1
  9
$DIMSHO
 70
     1
  9
$DIMPOST
  1

  9
$DIMAPOST
  1

  9
$DIMALT
 70
     0
  9
$DIMALTD
 70
     3
  9
$DIMALTF
 40
0.0393700787
  9
$DIMLFAC
 40
1.0
  9
$DIMTOFL
 70
     1
  9
$DIMTVP
 40
0.0
  9
$DIMTIX
 70
     0
  9
$DIMSOXD
 70
     0
  9
$DIMSAH
 70
     0
  9
$DIMBLK1
  1

  9
$DIMBLK2
  1

  9
$DIMSTYLE
  2
ISO-25
  9
$DIMCLRD
 70
     0
  9
$DIMCLRE
 70
     0
  9
$DIMCLRT
 70
     0
  9
$DIMTFAC
 40
1.0
  9
$DIMGAP
 40
4.572
  9
$DIMJUST
 70
     0
  9
$DIMSD1
 70
     0
  9
$DIMSD2
 70
     0
  9
$DIMTOLJ
 70
     0
  9
$DIMTZIN
 70
     0
  9
$DIMALTZ
 70
     0
  9
$DIMALTTZ
 70
     0
  9
$DIMUPT
 70
     0
  9
$DIMDEC
 70
     2
  9
$DIMTDEC
 70
     2
  9
$DIMALTU
 70
     2
  9
$DIMALTTD
 70
     3
  9
$DIMTXSTY
  7
Standard
  9
$DIMAUNIT
 70
     0
  9
$DIMADEC
 70
     2
  9
$DIMALTRND
 40
0.0
  9
$DIMAZIN
 70
     0
  9
$DIMDSEP
 70
    44
  9
$DIMATFIT
 70
     3
  9
$DIMFRAC
 70
     0
  9
$DIMLDRBLK
  1

  9
$DIMLUNIT
 70
     2
  9
$DIMLWD
 70
    -2
  9
$DIMLWE
 70
    -2
  9
$DIMTMOVE
 70
     0
  9
$LUNITS
 70
     2
  9
$LUPREC
 70
     2
  9
$SKETCHINC
 40
1.0
  9
$FILLETRAD
 40
0.0
  9
$AUNITS
 70
     0
  9
$AUPREC
 70
     2
  9
$MENU
  1
.
  9
$ELEVATION
 40
0.0
  9
$PELEVATION
 40
0.0
  9
$THICKNESS
 40
0.0
  9
$LIMCHECK
 70
     0
  9
$CHAMFERA
 40
0.0
  9
$CHAMFERB
 40
0.0
  9
$CHAMFERC
 40
0.0
  9
$CHAMFERD
 40
0.0
  9
$SKPOLY
 70
     0
  9
$TDCREATE
 40
2460110.404101667
  9
$TDUCREATE
 40
2460110.320768334
  9
$TDUPDATE
 40
2460110.404104745
  9
$TDUUPDATE
 40
2460110.320771412
  9
$TDINDWG
 40
0.0000000116
  9
$TDUSRTIMER
 40
0.0000000116
  9
$USRTIMER
 70
     1
  9
$ANGBASE
 50
0.0
  9
$ANGDIR
 70
     0
  9
$PDMODE
 70
     0
  9
$PDSIZE
 40
-1.0
  9
$PLINEWID
 40
0.0
  9
$SPLFRAME
 70
     0
  9
$SPLINETYPE
 70
     6
  9
$SPLINESEGS
 70
     8
  9
$HANDSEED
  5
226
  9
$SURFTAB1
 70
     6
  9
$SURFTAB2
 70
     6
  9
$SURFTYPE
 70
     6
  9
$SURFU
 70
     6
  9
$SURFV
 70
     6
  9
$UCSBASE
  2

  9
$UCSNAME
  2

  9
$UCSORG
 10
0.0
 20
0.0
 30
0.0
  9
$UCSXDIR
 10
1.0
 20
0.0
 30
0.0
  9
$UCSYDIR
 10
0.0
 20
1.0
 30
0.0
  9
$UCSORTHOREF
  2

  9
$UCSORTHOVIEW
 70
     0
  9
$UCSORGTOP
 10
0.0
 20
0.0
 30
0.0
  9
$UCSORGBOTTOM
 10
0.0
 20
0.0
 30
0.0
  9
$UCSORGLEFT
 10
0.0
 20
0.0
 30
0.0
  9
$UCSORGRIGHT
 10
0.0
 20
0.0
 30
0.0
  9
$UCSORGFRONT
 10
0.0
 20
0.0
 30
0.0
  9
$UCSORGBACK
 10
0.0
 20
0.0
 30
0.0
  9
$PUCSBASE
  2

  9
$PUCSNAME
  2

  9
$PUCSORG
 10
0.0
 20
0.0
 30
0.0
  9
$PUCSXDIR
 10
1.0
 20
0.0
 30
0.0
  9
$PUCSYDIR
 10
0.0
 20
1.0
 30
0.0
  9
$PUCSORTHOREF
  2

  9
$PUCSORTHOVIEW
 70
     0
  9
$PUCSORGTOP
 10
0.0
 20
0.0
 30
0.0
  9
$PUCSORGBOTTOM
 10
0.0
 20
0.0
 30
0.0
  9
$PUCSORGLEFT
 10
0.0
 20
0.0
 30
0.0
  9
$PUCSORGRIGHT
 10
0.0
 20
0.0
 30
0.0
  9
$PUCSORGFRONT
 10
0.0
 20
0.0
 30
0.0
  9
$PUCSORGBACK
 10
0.0
 20
0.0
 30
0.0
  9
$USERI1
 70
     0
  9
$USERI2
 70
     0
  9
$USERI3
 70
     0
  9
$USERI4
 70
     0
  9
$USERI5
 70
     0
  9
$USERR1
 40
0.0
  9
$USERR2
 40
0.0
  9
$USERR3
 40
0.0
  9
$USERR4
 40
0.0
  9
$USERR5
 40
0.0
  9
$WORLDVIEW
 70
     1
  9
$SHADEDGE
 70
     3
  9
$SHADEDIF
 70
    70
  9
$TILEMODE
 70
     1
  9
$MAXACTVP
 70
    64
  9
$PINSBASE
 10
0.0
 20
0.0
 30
0.0
  9
$PLIMCHECK
 70
     0
  9
$PEXTMIN
 10
1.0000000000E+20
 20
1.0000000000E+20
 30
1.0000000000E+20
  9
$PEXTMAX
 10
-1.0000000000E+20
 20
-1.0000000000E+20
 30
-1.0000000000E+20
  9
$PLIMMIN
 10
0.0
 20
0.0
  9
$PLIMMAX
 10
420.0
 20
297.0
  9
$UNITMODE
 70
     0
  9
$VISRETAIN
 70
     1
  9
$PLINEGEN
 70
     0
  9
$PSLTSCALE
 70
     1
  9
$TREEDEPTH
 70
  3020
  9
$CMLSTYLE
  2
Standard
  9
$CMLJUST
 70
     0
  9
$CMLSCALE
 40
20.0
  9
$PROXYGRAPHICS
 70
     1
  9
$MEASUREMENT
 70
     1
  9
$CELWEIGHT
370
    -1
  9
$ENDCAPS
280
     0
  9
$JOINSTYLE
280
     0
  9
$LWDISPLAY
290
     1
  9
$INSUNITS
 70
     4
  9
$HYPERLINKBASE
  1

  9
$STYLESHEET
  1

  9
$XEDIT
290
     1
  9
$CEPSNTYPE
380
     0
  9
$PSTYLEMODE
290
     1
  9
$FINGERPRINTGUID
  2
{17bb0276-61b7-406a-b412-22373f21ff32}
  9
$VERSIONGUID
  2
{FAEB1C32-E019-11D5-929B-00C0DF256EC4}
  9
$EXTNAMES
290
     1
  9
$PSVPSCALE
 40
0.0
  9
$OLESTARTUP
290
     0
  0
ENDSEC
  0
SECTION
  2
CLASSES
  0
CLASS
  1
ACDBDICTIONARYWDFLT
  2
AcDbDictionaryWithDefault
  3
ObjectDBX Classes
 90
        0
280
     0
281
     0
  0
CLASS
  1
VISUALSTYLE
  2
AcDbVisualStyle
  3
ObjectDBX Classes
 90
     4095
280
     0
281
     0
  0
CLASS
  1
MATERIAL
  2
AcDbMaterial
  3
ObjectDBX Classes
 90
     1153
280
     0
281
     0
  0
CLASS
  1
SCALE
  2
AcDbScale
  3
ObjectDBX Classes
 90
     1153
280
     0
281
     0
  0
CLASS
  1
TABLESTYLE
  2
AcDbTableStyle
  3
ObjectDBX Classes
 90
     4095
280
     0
281
     0
  0
CLASS
  1
MLEADERSTYLE
  2
AcDbMLeaderStyle
  3
ACDB_MLEADERSTYLE_CLASS
 90
     4095
280
     0
281
     0
  0
CLASS
  1
SUN
  2
AcDbSun
  3
SCENEOE
 90
     1153
280
     0
281
     0
  0
CLASS
  1
ACDBPLACEHOLDER
  2
AcDbPlaceHolder
  3
ObjectDBX Classes
 90
        0
280
     0
281
     0
  0
CLASS
  1
LAYOUT
  2
AcDbLayout
  3
ObjectDBX Classes
 90
        0
280
     0
281
     0
  0
ENDSEC
  0
SECTION
  2
TABLES
  0
TABLE
  2
VPORT
  5
8
330
0
100
AcDbSymbolTable
 70
     1
  0
VPORT
  5
29
330
8
100
AcDbSymbolTableRecord
100
AcDbViewportTableRecord
  2
*Active
 70
     0
 10
0.0
 20
0.0
 11
1.0
 21
1.0
 12
445.5
 22
315.0
 13
0.0
 23
0.0
 14
10.0
 24
10.0
 15
10.0
 25
10.0
 16
0.0
 26
0.0
 36
1.0
 17
0.0
 27
0.0
 37
0.0
 40
630.0
 41
1.4142857143
 42
50.0
 43
0.0
 44
0.0
 50
0.0
 51
0.0
 71
     0
 72
  2000
 73
     1
 74
     3
 75
     0
 76
     0
 77
     0
 78
     0
281
     0
 65
     1
110
0.0
120
0.0
130
0.0
111
1.0
121
0.0
131
0.0
112
0.0
122
1.0
132
0.0
 79
     0
146
0.0
  0
ENDTAB
  0
TABLE
  2
LTYPE
  5
5
330
0
100
AcDbSymbolTable
 70
     6
  0
LTYPE
  5
14
330
5
100
AcDbSymbolTableRecord
100
AcDbLinetypeTableRecord
  2
ByBlock
 70
     0
  3

 72
    65
 73
     0
 40
0.0
  0
LTYPE
  5
15
330
5
100
AcDbSymbolTableRecord
100
AcDbLinetypeTableRecord
  2
ByLayer
 70
     0
  3

 72
    65
 73
     0
 40
0.0
  0
LTYPE
  5
16
330
5
100
AcDbSymbolTableRecord
100
AcDbLinetypeTableRecord
  2
Continuous
 70
     0
  3
Solid line
 72
    65
 73
     0
 40
0.0
  0
LTYPE
  5
5E
330
5
100
AcDbSymbolTableRecord
100
AcDbLinetypeTableRecord
  2
HIDDEN
 70
     0
  3
Hidden __ __ __ __ __ __ __ __ __ __ __ __ __ __
 72
    65
 73
     2
 40
1.905
 49
1.27
 74
     0
 49
-0.635
 74
     0
  0
LTYPE
  5
5F
330
5
100
AcDbSymbolTableRecord
100
AcDbLinetypeTableRecord
  2
PHANTOM
 70
     0
  3
Phantom ______  __  __  ______  __  __  ______
 72
    65
 73
     6
 40
12.7
 49
6.35
 74
     0
 49
-1.27
 74
     0
 49
1.27
 74
     0
 49
-1.27
 74
     0
 49
1.27
 74
     0
 49
-1.27
 74
     0
  0
LTYPE
  5
60
330
5
100
AcDbSymbolTableRecord
100
AcDbLinetypeTableRecord
  2
CENTER
 70
     0
  3
Center ____ _ ____ _ ____ _ ____ _ ____ _ ____
 72
    65
 73
     4
 40
10.16
 49
6.35
 74
     0
 49
-1.27
 74
     0
 49
1.27
 74
     0
 49
-1.27
 74
     0
  0
LTYPE
  5
61
330
5
100
AcDbSymbolTableRecord
100
AcDbLinetypeTableRecord
  2
CENTERX2
 70
     0
  3
Center (2x) ________  __  ________  __  _____
 72
    65
 73
     4
 40
20.32
 49
12.7
 74
     0
 49
-2.54
 74
     0
 49
2.54
 74
     0
 49
-2.54
 74
     0
  0
LTYPE
  5
62
330
5
100
AcDbSymbolTableRecord
100
AcDbLinetypeTableRecord
  2
DOT2
 70
     0
  3
Dot (.5x) ........................................
 72
    65
 73
     2
 40
0.635
 49
0.0
 74
     0
 49
-0.635
 74
     0
  0
ENDTAB
  0
TABLE
  2
LAYER
  5
2
330
0
100
AcDbSymbolTable
 70
     3
  0
LAYER
  5
10
330
2
100
AcDbSymbolTableRecord
100
AcDbLayerTableRecord
  2
0
 70
     0
 62
     7
  6
Continuous
370
    -3
390
F
  0
LAYER
  5
63
330
2
100
AcDbSymbolTableRecord
100
AcDbLayerTableRecord
  2
FORMAT
 70
     0
 62
     7
  6
Continuous
370
    -3
390
F
  0
LAYER
  5
64
330
2
100
AcDbSymbolTableRecord
100
AcDbLayerTableRecord
  2
TESTO
 70
     0
 62
   179
  6
Continuous
370
    -3
390
F
  0
ENDTAB
  0
TABLE
  2
STYLE
  5
3
330
0
100
AcDbSymbolTable
 70
     8
  0
STYLE
  5
11
330
3
100
AcDbSymbolTableRecord
100
AcDbTextStyleTableRecord
  2
Standard
 70
     0
 40
0.0
 41
1.0
 50
0.0
 71
     0
 42
9.0
  3
txt
  4

  0
STYLE
  5
C2
330
3
100
AcDbSymbolTableRecord
100
AcDbTextStyleTableRecord
  2
SLDTEXTSTYLE0
 70
     0
 40
0.0
 41
0.75
 50
0.0
 71
     0
 42
9.0
  3
TXT
  4

  0
STYLE
  5
D6
330
3
100
AcDbSymbolTableRecord
100
AcDbTextStyleTableRecord
  2
SLDTEXTSTYLE1
 70
     0
 40
0.0
 41
0.605
 50
0.0
 71
     0
 42
9.0
  3
TXT
  4

  0
STYLE
  5
DE
330
3
100
AcDbSymbolTableRecord
100
AcDbTextStyleTableRecord
  2
SLDTEXTSTYLE2
 70
     0
 40
0.0
 41
0.6875
 50
0.0
 71
     0
 42
9.0
  3
TXT
  4

  0
STYLE
  5
E8
330
3
100
AcDbSymbolTableRecord
100
AcDbTextStyleTableRecord
  2
SLDTEXTSTYLE3
 70
     0
 40
0.0
 41
0.7329842932
 50
0.0
 71
     0
 42
9.0
  3
TXT
  4

  0
STYLE
  5
EA
330
3
100
AcDbSymbolTableRecord
100
AcDbTextStyleTableRecord
  2
SLDTEXTSTYLE4
 70
     0
 40
0.0
 41
0.6436170213
 50
0.0
 71
     0
 42
9.0
  3
TXT
  4

  0
STYLE
  5
101
330
3
100
AcDbSymbolTableRecord
100
AcDbTextStyleTableRecord
  2
SLDTEXTSTYLE5
 70
     0
 40
0.0
 41
0.6944444444
 50
0.0
 71
     0
 42
9.0
  3
TXT
  4

  0
STYLE
  5
108
330
3
100
AcDbSymbolTableRecord
100
AcDbTextStyleTableRecord
  2
SLDTEXTSTYLE6
 70
     0
 40
0.0
 41
0.6923076923
 50
0.0
 71
     0
 42
9.0
  3
TXT
  4

  0
ENDTAB
  0
TABLE
  2
VIEW
  5
6
330
0
100
AcDbSymbolTable
 70
     0
  0
ENDTAB
  0
TABLE
  2
UCS
  5
7
330
0
100
AcDbSymbolTable
 70
     0
  0
ENDTAB
  0
TABLE
  2
APPID
  5
9
330
0
100
AcDbSymbolTable
 70
     1
  0
APPID
  5
12
330
9
100
AcDbSymbolTableRecord
100
AcDbRegAppTableRecord
  2
ACAD
 70
     0
  0
ENDTAB
  0
TABLE
  2
DIMSTYLE
  5
A
330
0
100
AcDbSymbolTable
 70
     4
100
AcDbDimStyleTable
  0
DIMSTYLE
105
27
330
A
100
AcDbSymbolTableRecord
100
AcDbDimStyleTableRecord
  2
ISO-25
 70
     0
 41
2.5
 42
0.625
 43
3.75
 44
1.25
 73
     0
 74
     0
 77
     1
 78
     8
140
2.5
141
2.5
143
0.0393700787
147
0.625
171
     3
172
     1
178
     0
271
     2
272
     2
274
     3
278
    44
283
     0
284
     8
340
11
  0
DIMSTYLE
105
176
330
A
100
AcDbSymbolTableRecord
100
AcDbDimStyleTableRecord
  2
SLDDIMSTYLE0
 70
     0
 41
8.4
 44
0.0
 45
0.000000001
146
8.4
147
0.0
173
     1
178
     0
271
     0
272
     0
276
     2
340
11
  0
DIMSTYLE
105
199
102
{ACAD_REACTORS
330
198
330
1A5
330
1D0
330
1DC
330
219
102
}
330
A
100
AcDbSymbolTableRecord
100
AcDbDimStyleTableRecord
  2
SLDDIMSTYLE1
 70
     0
 41
8.4
 44
0.0
 45
0.000000001
 73
     0
 74
     0
 77
     1
 78
    12
 79
     3
140
8.4
147
2.1
172
     1
173
     1
178
     0
271
     2
272
     2
276
     2
284
    12
289
     0
340
C2
  0
DIMSTYLE
105
1B2
102
{ACAD_REACTORS
330
1B1
330
1BC
330
1C6
330
1E8
102
}
330
A
100
AcDbSymbolTableRecord
100
AcDbDimStyleTableRecord
  2
SLDDIMSTYLE2
 70
     0
 41
8.4
 44
0.0
 45
0.000000001
 73
     0
 74
     0
 77
     1
 78
    12
 79
     3
140
8.4
147
2.1
173
     1
178
     0
271
     2
272
     2
276
     2
284
    12
340
C2
  0
ENDTAB
  0
TABLE
  2
BLOCK_RECORD
  5
1
330
0
100
AcDbSymbolTable
 70
    12
  0
BLOCK_RECORD
  5
1F
330
1
100
AcDbSymbolTableRecord
100
AcDbBlockTableRecord
  2
*Model_Space
340
22
  0
BLOCK_RECORD
  5
1B
330
1
100
AcDbSymbolTableRecord
100
AcDbBlockTableRecord
  2
*Paper_Space
340
1E
  0
BLOCK_RECORD
  5
23
330
1
100
AcDbSymbolTableRecord
100
AcDbBlockTableRecord
  2
*Paper_Space0
340
26
  0
BLOCK_RECORD
  5
118
330
1
100
AcDbSymbolTableRecord
100
AcDbBlockTableRecord
  2
SW_TABLEANNOTATION_0
340
0
102
{BLKREFS
331
134
102
}
  0
BLOCK_RECORD
  5
170
330
1
100
AcDbSymbolTableRecord
100
AcDbBlockTableRecord
  2
SW_NOTE_0
340
0
102
{BLKREFS
331
175
102
}
  0
BLOCK_RECORD
  5
19A
330
1
100
AcDbSymbolTableRecord
100
AcDbBlockTableRecord
  2
_D
340
0
  0
BLOCK_RECORD
  5
1A6
330
1
100
AcDbSymbolTableRecord
100
AcDbBlockTableRecord
  2
_D_1
340
0
  0
BLOCK_RECORD
  5
1B3
330
1
100
AcDbSymbolTableRecord
100
AcDbBlockTableRecord
  2
_D_2
340
0
  0
BLOCK_RECORD
  5
1BD
330
1
100
AcDbSymbolTableRecord
100
AcDbBlockTableRecord
  2
_D_3
340
0
  0
BLOCK_RECORD
  5
1C7
330
1
100
AcDbSymbolTableRecord
100
AcDbBlockTableRecord
  2
_D_4
340
0
  0
BLOCK_RECORD
  5
1D1
330
1
100
AcDbSymbolTableRecord
100
AcDbBlockTableRecord
  2
_D_5
340
0
  0
BLOCK_RECORD
  5
1DD
330
1
100
AcDbSymbolTableRecord
100
AcDbBlockTableRecord
  2
_D_6
340
0
  0
BLOCK_RECORD
  5
1E9
330
1
100
AcDbSymbolTableRecord
100
AcDbBlockTableRecord
  2
_D_7
340
0
  0
BLOCK_RECORD
  5
21A
330
1
100
AcDbSymbolTableRecord
100
AcDbBlockTableRecord
  2
_D_8
340
0
  0
ENDTAB
  0
ENDSEC
  0
SECTION
  2
BLOCKS
  0
BLOCK
  5
20
330
1F
100
AcDbEntity
  8
0
100
AcDbBlockBegin
  2
*Model_Space
 70
     0
 10
0.0
 20
0.0
 30
0.0
  3
*Model_Space
  1

  0
ENDBLK
  5
21
330
1F
100
AcDbEntity
  8
0
100
AcDbBlockEnd
  0
BLOCK
  5
1C
330
1B
100
AcDbEntity
 67
     1
  8
0
100
AcDbBlockBegin
  2
*Paper_Space
 70
     0
 10
0.0
 20
0.0
 30
0.0
  3
*Paper_Space
  1

  0
ENDBLK
  5
1D
330
1B
100
AcDbEntity
 67
     1
  8
0
100
AcDbBlockEnd
  0
BLOCK
  5
24
330
23
100
AcDbEntity
  8
0
100
AcDbBlockBegin
  2
*Paper_Space0
 70
     0
 10
0.0
 20
0.0
 30
0.0
  3
*Paper_Space0
  1

  0
ENDBLK
  5
25
330
23
100
AcDbEntity
  8
0
100
AcDbBlockEnd
  0
BLOCK
  5
119
330
118
100
AcDbEntity
  8
0
100
AcDbBlockBegin
  2
SW_TABLEANNOTATION_0
 70
     0
 10
0.0
 20
0.0
 30
0.0
  3
SW_TABLEANNOTATION_0
  1

  0
LINE
  5
11B
330
118
100
AcDbEntity
  8
0
  6
Continuous
 62
     0
370
    25
100
AcDbLine
 10
0.0
 20
0.0
 30
0.0
 11
0.0
 21
-18.3958335914
 31
0.0
  0
LINE
  5
11C
330
118
100
AcDbEntity
  8
0
  6
Continuous
 62
     0
370
    25
100
AcDbLine
 10
62.1173764931
 20
0.0
 30
0.0
 11
62.1173764931
 21
-18.3958335914
 31
0.0
  0
LINE
  5
11D
330
118
100
AcDbEntity
  8
0
  6
Continuous
 62
     0
370
    25
100
AcDbLine
 10
164.3674623936
 20
0.0
 30
0.0
 11
164.3674623936
 21
-18.3958335914
 31
0.0
  0
LINE
  5
11E
330
118
100
AcDbEntity
  8
0
  6
Continuous
 62
     0
370
    25
100
AcDbLine
 10
219.5892089859
 20
0.0
 30
0.0
 11
219.5892089859
 21
-18.3958335914
 31
0.0
  0
LINE
  5
11F
330
118
100
AcDbEntity
  8
0
  6
Continuous
 62
     0
370
    25
100
AcDbLine
 10
0.0
 20
0.0
 30
0.0
 11
62.1173764931
 21
0.0
 31
0.0
  0
LINE
  5
120
330
118
100
AcDbEntity
  8
0
  6
Continuous
 62
     0
370
    25
100
AcDbLine
 10
0.0
 20
-18.3958335914
 30
0.0
 11
62.1173764931
 21
-18.3958335914
 31
0.0
  0
LINE
  5
121
330
118
100
AcDbEntity
  8
0
  6
Continuous
 62
     0
370
    25
100
AcDbLine
 10
62.1173764931
 20
0.0
 30
0.0
 11
164.3674623936
 21
0.0
 31
0.0
  0
LINE
  5
122
330
118
100
AcDbEntity
  8
0
  6
Continuous
 62
     0
370
    25
100
AcDbLine
 10
62.1173764931
 20
-18.3958335914
 30
0.0
 11
164.3674623936
 21
-18.3958335914
 31
0.0
  0
LINE
  5
123
330
118
100
AcDbEntity
  8
0
  6
Continuous
 62
     0
370
    25
100
AcDbLine
 10
164.3674623936
 20
0.0
 30
0.0
 11
219.5892089859
 21
0.0
 31
0.0
  0
LINE
  5
124
330
118
100
AcDbEntity
  8
0
  6
Continuous
 62
     0
370
    25
100
AcDbLine
 10
164.3674623936
 20
-18.3958335914
 30
0.0
 11
219.5892089859
 21
-18.3958335914
 31
0.0
  0
LINE
  5
125
330
118
100
AcDbEntity
  8
0
  6
Continuous
 62
     0
370
    25
100
AcDbLine
 10
0.0
 20
-18.3958335914
 30
0.0
 11
0.0
 21
-36.3193412225
 31
0.0
  0
LINE
  5
126
330
118
100
AcDbEntity
  8
0
  6
Continuous
 62
     0
370
    25
100
AcDbLine
 10
62.1173764931
 20
-18.3958335914
 30
0.0
 11
62.1173764931
 21
-36.3193412225
 31
0.0
  0
LINE
  5
127
330
118
100
AcDbEntity
  8
0
  6
Continuous
 62
     0
370
    25
100
AcDbLine
 10
164.3674623936
 20
-18.3958335914
 30
0.0
 11
164.3674623936
 21
-36.3193412225
 31
0.0
  0
LINE
  5
128
330
118
100
AcDbEntity
  8
0
  6
Continuous
 62
     0
370
    25
100
AcDbLine
 10
219.5892089859
 20
-18.3958335914
 30
0.0
 11
219.5892089859
 21
-36.3193412225
 31
0.0
  0
LINE
  5
129
330
118
100
AcDbEntity
  8
0
  6
Continuous
 62
     0
370
    25
100
AcDbLine
 10
0.0
 20
-36.3193412225
 30
0.0
 11
62.1173764931
 21
-36.3193412225
 31
0.0
  0
LINE
  5
12A
330
118
100
AcDbEntity
  8
0
  6
Continuous
 62
     0
370
    25
100
AcDbLine
 10
62.1173764931
 20
-36.3193412225
 30
0.0
 11
164.3674623936
 21
-36.3193412225
 31
0.0
  0
LINE
  5
12B
330
118
100
AcDbEntity
  8
0
  6
Continuous
 62
     0
370
    25
100
AcDbLine
 10
164.3674623936
 20
-36.3193412225
 30
0.0
 11
219.5892089859
 21
-36.3193412225
 31
0.0
  0
MTEXT
  5
12C
330
118
100
AcDbEntity
  8
0
  6
Continuous
 62
     0
370
     0
100
AcDbMText
 10
4.648269684
 20
-3.3364568554
 30
0.0
 40
10.5
 41
0.0
 71
     1
 72
     1
  1
Scheda
  7
SLDTEXTSTYLE0
 73
     1
 44
1.0
  0
MTEXT
  5
12D
330
118
100
AcDbEntity
  8
0
  6
Continuous
 62
     0
370
     0
100
AcDbMText
 10
73.7361712449
 20
-3.3364568554
 30
0.0
 40
10.5
 41
0.0
 71
     1
 72
     1
  1
Dimensione
  7
SLDTEXTSTYLE0
 73
     1
 44
1.0
  0
MTEXT
  5
12E
330
118
100
AcDbEntity
  8
0
  6
Continuous
 62
     0
370
     0
100
AcDbMText
 10
168.9992727078
 20
-5.636848953
 30
0.0
 40
7.14375
 41
0.0
 71
     1
 72
     1
  1
QUANTITÀ
  7
SLDTEXTSTYLE0
 73
     1
 44
1.0
  0
MTEXT
  5
12F
330
118
100
AcDbEntity
  8
0
  6
Continuous
 62
     0
370
     0
100
AcDbMText
 10
27.5331151848
 20
-23.9440544862
 30
0.0
 40
7.14375
 41
0.0
 71
     1
 72
     1
  1
A
  7
SLDTEXTSTYLE0
 73
     1
 44
1.0
  0
MTEXT
  5
130
330
118
100
AcDbEntity
  8
0
  6
Continuous
 62
     0
370
     0
100
AcDbMText
 10
74.5729031109
 20
-24.9957727389
 30
0.0
 40
7.14375
 41
0.0
 71
     1
 72
     1
  1
%%c
  7
SLDTEXTSTYLE0
 73
     1
 44
1.0
  0
MTEXT
  5
131
330
118
100
AcDbEntity
  8
0
  6
Continuous
 62
     0
370
     0
100
AcDbMText
 10
85.3559966267
 20
-24.9957727389
 30
0.0
 40
7.14375
 41
0.0
 71
     1
 72
     1
  1
5,20
  7
SLDTEXTSTYLE0
 73
     1
 44
1.0
  0
MTEXT
  5
132
330
118
100
AcDbEntity
  8
0
  6
Continuous
 62
     0
370
     0
100
AcDbMText
 10
106.5028185867
 20
-24.9957727389
 30
0.0
 40
7.14375
 41
0.0
 71
     1
 72
     1
  1
PASSANTE
  7
SLDTEXTSTYLE0
 73
     1
 44
1.0
  0
MTEXT
  5
133
330
118
100
AcDbEntity
  8
0
  6
Continuous
 62
     0
370
     0
100
AcDbMText
 10
189.3391169323
 20
-23.9440544862
 30
0.0
 40
7.14375
 41
0.0
 71
     1
 72
     1
  1
4
  7
SLDTEXTSTYLE0
 73
     1
 44
1.0
  0
ENDBLK
  5
11A
330
118
100
AcDbEntity
  8
0
100
AcDbBlockEnd
  0
BLOCK
  5
171
330
170
100
AcDbEntity
  8
0
100
AcDbBlockBegin
  2
SW_NOTE_0
 70
     0
 10
0.0
 20
0.0
 30
0.0
  3
SW_NOTE_0
  1

  0
LINE
  5
173
330
170
100
AcDbEntity
  8
0
  6
Continuous
 62
     0
370
     0
100
AcDbLine
 10
94.7035013313
 20
0.0
 30
0.0
 11
0.0
 21
0.0
 31
0.0
  0
MTEXT
  5
174
330
170
100
AcDbEntity
  8
0
  6
Continuous
 62
     0
370
     0
100
AcDbMText
 10
1.2601024063
 20
11.4830776881
 30
0.0
 40
9.0
 41
0.0
 71
     1
 72
     1
  1
Senso satinatura
  7
SLDTEXTSTYLE0
 73
     1
 44
1.0
  0
ENDBLK
  5
172
330
170
100
AcDbEntity
  8
0
100
AcDbBlockEnd
  0
BLOCK
  5
19B
330
19A
100
AcDbEntity
  8
0
100
AcDbBlockBegin
  2
_D
 70
     0
 10
0.0
 20
0.0
 30
0.0
  3
_D
  1

  0
SOLID
  5
19D
330
19A
100
AcDbEntity
  8
0
  6
Continuous
 62
     7
370
    18
100
AcDbTrace
 10
671.4034257749
 20
366.810766721
 30
0.0
 11
672.6957334672
 21
375.210766721
 31
0.0
 12
670.1111180826
 22
375.210766721
 32
0.0
 13
670.1111180826
 23
375.210766721
 33
0.0
  0
SOLID
  5
19E
330
19A
100
AcDbEntity
  8
0
  6
Continuous
 62
     7
370
    18
100
AcDbTrace
 10
671.4034257749
 20
344.810766721
 30
0.0
 11
670.1111180826
 21
336.410766721
 31
0.0
 12
672.6957334672
 22
336.410766721
 32
0.0
 13
672.6957334672
 23
336.410766721
 33
0.0
  0
LINE
  5
19F
330
19A
100
AcDbEntity
  8
0
  6
Continuous
 62
     7
370
     0
100
AcDbLine
 10
625.4034257749
 20
366.810766721
 30
0.0
 11
674.4034257749
 21
366.810766721
 31
0.0
  0
LINE
  5
1A0
330
19A
100
AcDbEntity
  8
0
  6
Continuous
 62
     7
370
     0
100
AcDbLine
 10
586.2743620641
 20
344.810766721
 30
0.0
 11
674.4034257749
 21
344.810766721
 31
0.0
  0
LINE
  5
1A1
330
19A
100
AcDbEntity
  8
0
  6
Continuous
 62
     7
370
     0
100
AcDbLine
 10
671.4034257749
 20
366.810766721
 30
0.0
 11
671.4034257749
 21
382.9646128749
 31
0.0
  0
LINE
  5
1A2
330
19A
100
AcDbEntity
  8
0
  6
Continuous
 62
     7
370
     0
100
AcDbLine
 10
671.4034257749
 20
366.810766721
 30
0.0
 11
671.4034257749
 21
344.810766721
 31
0.0
  0
LINE
  5
1A3
330
19A
100
AcDbEntity
  8
0
  6
Continuous
 62
     7
370
     0
100
AcDbLine
 10
671.4034257749
 20
344.810766721
 30
0.0
 11
671.4034257749
 21
328.6569205672
 31
0.0
  0
MTEXT
  5
1A4
330
19A
100
AcDbEntity
  8
0
  6
Continuous
 62
     7
370
    18
100
AcDbMText
 10
660.5752567608
 20
349.604100136
 30
0.0
 40
8.4
 41
0.0
 71
     1
 72
     1
  1
22
  7
SLDTEXTSTYLE0
 11
-7.044195017643634E-15
 21
1.0
 31
0.0
 73
     1
 44
1.0
  0
ENDBLK
  5
19C
330
19A
100
AcDbEntity
  8
0
100
AcDbBlockEnd
  0
BLOCK
  5
1A7
330
1A6
100
AcDbEntity
  8
0
100
AcDbBlockBegin
  2
_D_1
 70
     0
 10
0.0
 20
0.0
 30
0.0
  3
_D_1
  1

  0
SOLID
  5
1A9
330
1A6
100
AcDbEntity
  8
0
  6
Continuous
 62
     7
370
    18
100
AcDbTrace
 10
658.4034257749
 20
361.060766721
 30
0.0
 11
657.1111180826
 21
352.660766721
 31
0.0
 12
659.6957334672
 22
352.660766721
 32
0.0
 13
659.6957334672
 23
352.660766721
 33
0.0
  0
SOLID
  5
1AA
330
1A6
100
AcDbEntity
  8
0
  6
Continuous
 62
     7
370
    18
100
AcDbTrace
 10
658.4034257749
 20
366.810766721
 30
0.0
 11
659.6957334672
 21
375.210766721
 31
0.0
 12
657.1111180826
 22
375.210766721
 32
0.0
 13
657.1111180826
 23
375.210766721
 33
0.0
  0
LINE
  5
1AB
330
1A6
100
AcDbEntity
  8
0
  6
Continuous
 62
     7
370
     0
100
AcDbLine
 10
611.4034257749
 20
361.060766721
 30
0.0
 11
661.4034257749
 21
361.060766721
 31
0.0
  0
LINE
  5
1AC
330
1A6
100
AcDbEntity
  8
0
  6
Continuous
 62
     7
370
     0
100
AcDbLine
 10
625.4034257749
 20
366.810766721
 30
0.0
 11
661.4034257749
 21
366.810766721
 31
0.0
  0
LINE
  5
1AD
330
1A6
100
AcDbEntity
  8
0
  6
Continuous
 62
     7
370
     0
100
AcDbLine
 10
658.4034257749
 20
361.060766721
 30
0.0
 11
658.4034257749
 21
344.9069205672
 31
0.0
  0
LINE
  5
1AE
330
1A6
100
AcDbEntity
  8
0
  6
Continuous
 62
     7
370
     0
100
AcDbLine
 10
658.4034257749
 20
361.060766721
 30
0.0
 11
658.4034257749
 21
366.810766721
 31
0.0
  0
LINE
  5
1AF
330
1A6
100
AcDbEntity
  8
0
  6
Continuous
 62
     7
370
     0
100
AcDbLine
 10
658.4034257749
 20
366.810766721
 30
0.0
 11
658.4034257749
 21
407.7912785166
 31
0.0
  0
MTEXT
  5
1B0
330
1A6
100
AcDbEntity
  8
0
  6
Continuous
 62
     7
370
    18
100
AcDbMText
 10
647.5752567608
 20
386.0679461674
 30
0.0
 40
8.4
 41
0.0
 71
     1
 72
     1
  1
5,75
  7
SLDTEXTSTYLE0
 11
-1.608122649676637E-16
 21
1.0
 31
0.0
 73
     1
 44
1.0
  0
ENDBLK
  5
1A8
330
1A6
100
AcDbEntity
  8
0
100
AcDbBlockEnd
  0
BLOCK
  5
1B4
330
1B3
100
AcDbEntity
  8
0
100
AcDbBlockBegin
  2
_D_2
 70
     0
 10
0.0
 20
0.0
 30
0.0
  3
_D_2
  1

  0
SOLID
  5
1B6
330
1B3
100
AcDbEntity
  8
0
  6
Continuous
 62
     7
370
    18
100
AcDbTrace
 10
278.4034257749
 20
396.810766721
 30
0.0
 11
286.8034257749
 21
395.5184590287
 31
0.0
 12
286.8034257749
 22
398.1030744134
 32
0.0
 13
286.8034257749
 23
398.1030744134
 33
0.0
  0
SOLID
  5
1B7
330
1B3
100
AcDbEntity
  8
0
  6
Continuous
 62
     7
370
    18
100
AcDbTrace
 10
388.4034257749
 20
396.810766721
 30
0.0
 11
380.0034257749
 21
398.1030744134
 31
0.0
 12
380.0034257749
 22
395.5184590287
 32
0.0
 13
380.0034257749
 23
395.5184590287
 33
0.0
  0
LINE
  5
1B8
330
1B3
100
AcDbEntity
  8
0
  6
Continuous
 62
     7
370
     0
100
AcDbLine
 10
278.4034257749
 20
364.060766721
 30
0.0
 11
278.4034257749
 21
399.810766721
 31
0.0
  0
LINE
  5
1B9
330
1B3
100
AcDbEntity
  8
0
  6
Continuous
 62
     7
370
     0
100
AcDbLine
 10
388.4034257749
 20
364.060766721
 30
0.0
 11
388.4034257749
 21
399.810766721
 31
0.0
  0
LINE
  5
1BA
330
1B3
100
AcDbEntity
  8
0
  6
Continuous
 62
     7
370
     0
100
AcDbLine
 10
278.4034257749
 20
396.810766721
 30
0.0
 11
388.4034257749
 21
396.810766721
 31
0.0
  0
MTEXT
  5
1BB
330
1B3
100
AcDbEntity
  8
0
  6
Continuous
 62
     7
370
    18
100
AcDbMText
 10
324.0934258973
 20
407.6389357351
 30
0.0
 40
8.4
 41
0.0
 71
     1
 72
     1
  1
110
  7
SLDTEXTSTYLE0
 73
     1
 44
1.0
  0
ENDBLK
  5
1B5
330
1B3
100
AcDbEntity
  8
0
100
AcDbBlockEnd
  0
BLOCK
  5
1BE
330
1BD
100
AcDbEntity
  8
0
100
AcDbBlockBegin
  2
_D_3
 70
     0
 10
0.0
 20
0.0
 30
0.0
  3
_D_3
  1

  0
SOLID
  5
1C0
330
1BD
100
AcDbEntity
  8
0
  6
Continuous
 62
     7
370
    18
100
AcDbTrace
 10
388.4034257749
 20
396.810766721
 30
0.0
 11
396.8034257749
 21
395.5184590287
 31
0.0
 12
396.8034257749
 22
398.1030744134
 32
0.0
 13
396.8034257749
 23
398.1030744134
 33
0.0
  0
SOLID
  5
1C1
330
1BD
100
AcDbEntity
  8
0
  6
Continuous
 62
     7
370
    18
100
AcDbTrace
 10
498.4034257749
 20
396.810766721
 30
0.0
 11
490.0034257749
 21
398.1030744134
 31
0.0
 12
490.0034257749
 22
395.5184590287
 32
0.0
 13
490.0034257749
 23
395.5184590287
 33
0.0
  0
LINE
  5
1C2
330
1BD
100
AcDbEntity
  8
0
  6
Continuous
 62
     7
370
     0
100
AcDbLine
 10
388.4034257749
 20
364.060766721
 30
0.0
 11
388.4034257749
 21
399.810766721
 31
0.0
  0
LINE
  5
1C3
330
1BD
100
AcDbEntity
  8
0
  6
Continuous
 62
     7
370
     0
100
AcDbLine
 10
498.4034257749
 20
364.060766721
 30
0.0
 11
498.4034257749
 21
399.810766721
 31
0.0
  0
LINE
  5
1C4
330
1BD
100
AcDbEntity
  8
0
  6
Continuous
 62
     7
370
     0
100
AcDbLine
 10
388.4034257749
 20
396.810766721
 30
0.0
 11
498.4034257749
 21
396.810766721
 31
0.0
  0
MTEXT
  5
1C5
330
1BD
100
AcDbEntity
  8
0
  6
Continuous
 62
     7
370
    18
100
AcDbMText
 10
434.0934258973
 20
407.6389357351
 30
0.0
 40
8.4
 41
0.0
 71
     1
 72
     1
  1
110
  7
SLDTEXTSTYLE0
 73
     1
 44
1.0
  0
ENDBLK
  5
1BF
330
1BD
100
AcDbEntity
  8
0
100
AcDbBlockEnd
  0
BLOCK
  5
1C8
330
1C7
100
AcDbEntity
  8
0
100
AcDbBlockBegin
  2
_D_4
 70
     0
 10
0.0
 20
0.0
 30
0.0
  3
_D_4
  1

  0
SOLID
  5
1CA
330
1C7
100
AcDbEntity
  8
0
  6
Continuous
 62
     7
370
    18
100
AcDbTrace
 10
498.4034257749
 20
396.810766721
 30
0.0
 11
506.8034257749
 21
395.5184590287
 31
0.0
 12
506.8034257749
 22
398.1030744133
 32
0.0
 13
506.8034257749
 23
398.1030744133
 33
0.0
  0
SOLID
  5
1CB
330
1C7
100
AcDbEntity
  8
0
  6
Continuous
 62
     7
370
    18
100
AcDbTrace
 10
608.4034257749
 20
396.810766721
 30
0.0
 11
600.0034257749
 21
398.1030744133
 31
0.0
 12
600.0034257749
 22
395.5184590287
 32
0.0
 13
600.0034257749
 23
395.5184590287
 33
0.0
  0
LINE
  5
1CC
330
1C7
100
AcDbEntity
  8
0
  6
Continuous
 62
     7
370
     0
100
AcDbLine
 10
498.4034257749
 20
364.060766721
 30
0.0
 11
498.4034257749
 21
399.810766721
 31
0.0
  0
LINE
  5
1CD
330
1C7
100
AcDbEntity
  8
0
  6
Continuous
 62
     7
370
     0
100
AcDbLine
 10
608.4034257749
 20
364.060766721
 30
0.0
 11
608.4034257749
 21
399.810766721
 31
0.0
  0
LINE
  5
1CE
330
1C7
100
AcDbEntity
  8
0
  6
Continuous
 62
     7
370
     0
100
AcDbLine
 10
498.4034257749
 20
396.810766721
 30
0.0
 11
608.4034257749
 21
396.810766721
 31
0.0
  0
MTEXT
  5
1CF
330
1C7
100
AcDbEntity
  8
0
  6
Continuous
 62
     7
370
    18
100
AcDbMText
 10
544.0934258973
 20
407.6389357351
 30
0.0
 40
8.4
 41
0.0
 71
     1
 72
     1
  1
110
  7
SLDTEXTSTYLE0
 73
     1
 44
1.0
  0
ENDBLK
  5
1C9
330
1C7
100
AcDbEntity
  8
0
100
AcDbBlockEnd
  0
BLOCK
  5
1D2
330
1D1
100
AcDbEntity
  8
0
100
AcDbBlockBegin
  2
_D_5
 70
     0
 10
0.0
 20
0.0
 30
0.0
  3
_D_5
  1

  0
SOLID
  5
1D4
330
1D1
100
AcDbEntity
  8
0
  6
Continuous
 62
     7
370
    18
100
AcDbTrace
 10
623.4034257749
 20
396.810766721
 30
0.0
 11
631.8034257749
 21
395.5184590287
 31
0.0
 12
631.8034257749
 22
398.1030744133
 32
0.0
 13
631.8034257749
 23
398.1030744133
 33
0.0
  0
SOLID
  5
1D5
330
1D1
100
AcDbEntity
  8
0
  6
Continuous
 62
     7
370
    18
100
AcDbTrace
 10
608.4034257749
 20
396.810766721
 30
0.0
 11
600.0034257749
 21
398.1030744133
 31
0.0
 12
600.0034257749
 22
395.5184590287
 32
0.0
 13
600.0034257749
 23
395.5184590287
 33
0.0
  0
LINE
  5
1D6
330
1D1
100
AcDbEntity
  8
0
  6
Continuous
 62
     7
370
     0
100
AcDbLine
 10
623.4034257749
 20
368.810766721
 30
0.0
 11
623.4034257749
 21
399.810766721
 31
0.0
  0
LINE
  5
1D7
330
1D1
100
AcDbEntity
  8
0
  6
Continuous
 62
     7
370
     0
100
AcDbLine
 10
608.4034257749
 20
364.060766721
 30
0.0
 11
608.4034257749
 21
399.810766721
 31
0.0
  0
LINE
  5
1D8
330
1D1
100
AcDbEntity
  8
0
  6
Continuous
 62
     7
370
     0
100
AcDbLine
 10
623.4034257749
 20
396.810766721
 30
0.0
 11
639.5572719287
 21
396.810766721
 31
0.0
  0
LINE
  5
1D9
330
1D1
100
AcDbEntity
  8
0
  6
Continuous
 62
     7
370
     0
100
AcDbLine
 10
623.4034257749
 20
396.810766721
 30
0.0
 11
608.4034257749
 21
396.810766721
 31
0.0
  0
LINE
  5
1DA
330
1D1
100
AcDbEntity
  8
0
  6
Continuous
 62
     7
370
     0
100
AcDbLine
 10
608.4034257749
 20
396.810766721
 30
0.0
 11
592.249579621
 21
396.810766721
 31
0.0
  0
MTEXT
  5
1DB
330
1D1
100
AcDbEntity
  8
0
  6
Continuous
 62
     7
370
    18
100
AcDbMText
 10
609.6967591898
 20
407.6389357351
 30
0.0
 40
8.4
 41
0.0
 71
     1
 72
     1
  1
15
  7
SLDTEXTSTYLE0
 73
     1
 44
1.0
  0
ENDBLK
  5
1D3
330
1D1
100
AcDbEntity
  8
0
100
AcDbBlockEnd
  0
BLOCK
  5
1DE
330
1DD
100
AcDbEntity
  8
0
100
AcDbBlockBegin
  2
_D_6
 70
     0
 10
0.0
 20
0.0
 30
0.0
  3
_D_6
  1

  0
SOLID
  5
1E0
330
1DD
100
AcDbEntity
  8
0
  6
Continuous
 62
     7
370
    18
100
AcDbTrace
 10
278.4034257749
 20
396.810766721
 30
0.0
 11
286.8034257749
 21
395.5184590287
 31
0.0
 12
286.8034257749
 22
398.1030744134
 32
0.0
 13
286.8034257749
 23
398.1030744134
 33
0.0
  0
SOLID
  5
1E1
330
1DD
100
AcDbEntity
  8
0
  6
Continuous
 62
     7
370
    18
100
AcDbTrace
 10
263.4034257749
 20
396.810766721
 30
0.0
 11
255.0034257749
 21
398.1030744134
 31
0.0
 12
255.0034257749
 22
395.5184590287
 32
0.0
 13
255.0034257749
 23
395.5184590287
 33
0.0
  0
LINE
  5
1E2
330
1DD
100
AcDbEntity
  8
0
  6
Continuous
 62
     7
370
     0
100
AcDbLine
 10
278.4034257749
 20
364.060766721
 30
0.0
 11
278.4034257749
 21
399.810766721
 31
0.0
  0
LINE
  5
1E3
330
1DD
100
AcDbEntity
  8
0
  6
Continuous
 62
     7
370
     0
100
AcDbLine
 10
263.4034257749
 20
368.810766721
 30
0.0
 11
263.4034257749
 21
399.810766721
 31
0.0
  0
LINE
  5
1E4
330
1DD
100
AcDbEntity
  8
0
  6
Continuous
 62
     7
370
     0
100
AcDbLine
 10
278.4034257749
 20
396.810766721
 30
0.0
 11
294.5572719287
 21
396.810766721
 31
0.0
  0
LINE
  5
1E5
330
1DD
100
AcDbEntity
  8
0
  6
Continuous
 62
     7
370
     0
100
AcDbLine
 10
278.4034257749
 20
396.810766721
 30
0.0
 11
263.4034257749
 21
396.810766721
 31
0.0
  0
LINE
  5
1E6
330
1DD
100
AcDbEntity
  8
0
  6
Continuous
 62
     7
370
     0
100
AcDbLine
 10
263.4034257749
 20
396.810766721
 30
0.0
 11
247.249579621
 21
396.810766721
 31
0.0
  0
MTEXT
  5
1E7
330
1DD
100
AcDbEntity
  8
0
  6
Continuous
 62
     7
370
    18
100
AcDbMText
 10
264.6967591898
 20
407.6389357351
 30
0.0
 40
8.4
 41
0.0
 71
     1
 72
     1
  1
15
  7
SLDTEXTSTYLE0
 73
     1
 44
1.0
  0
ENDBLK
  5
1DF
330
1DD
100
AcDbEntity
  8
0
100
AcDbBlockEnd
  0
BLOCK
  5
1EA
330
1E9
100
AcDbEntity
  8
0
100
AcDbBlockBegin
  2
_D_7
 70
     0
 10
0.0
 20
0.0
 30
0.0
  3
_D_7
  1

  0
SOLID
  5
1EC
330
1E9
100
AcDbEntity
  8
0
  6
Continuous
 62
     7
370
    18
100
AcDbTrace
 10
263.4034257749
 20
414.8107667211
 30
0.0
 11
271.8034257749
 21
413.5184590288
 31
0.0
 12
271.8034257749
 22
416.1030744134
 32
0.0
 13
271.8034257749
 23
416.1030744134
 33
0.0
  0
SOLID
  5
1ED
330
1E9
100
AcDbEntity
  8
0
  6
Continuous
 62
     7
370
    18
100
AcDbTrace
 10
623.4034257749
 20
414.8107667211
 30
0.0
 11
615.0034257749
 21
416.1030744134
 31
0.0
 12
615.0034257749
 22
413.5184590288
 32
0.0
 13
615.0034257749
 23
413.5184590288
 33
0.0
  0
LINE
  5
1EE
330
1E9
100
AcDbEntity
  8
0
  6
Continuous
 62
     7
370
     0
100
AcDbLine
 10
263.4034257749
 20
368.810766721
 30
0.0
 11
263.4034257749
 21
417.8107667211
 31
0.0
  0
LINE
  5
1EF
330
1E9
100
AcDbEntity
  8
0
  6
Continuous
 62
     7
370
     0
100
AcDbLine
 10
623.4034257749
 20
368.810766721
 30
0.0
 11
623.4034257749
 21
417.8107667211
 31
0.0
  0
LINE
  5
1F0
330
1E9
100
AcDbEntity
  8
0
  6
Continuous
 62
     7
370
     0
100
AcDbLine
 10
263.4034257749
 20
414.8107667211
 30
0.0
 11
623.4034257749
 21
414.8107667211
 31
0.0
  0
MTEXT
  5
1F1
330
1E9
100
AcDbEntity
  8
0
  6
Continuous
 62
     7
370
    18
100
AcDbMText
 10
434.0934258973
 20
425.6389357352
 30
0.0
 40
8.4
 41
0.0
 71
     1
 72
     1
  1
360
  7
SLDTEXTSTYLE0
 73
     1
 44
1.0
  0
ENDBLK
  5
1EB
330
1E9
100
AcDbEntity
  8
0
100
AcDbBlockEnd
  0
BLOCK
  5
21B
330
21A
100
AcDbEntity
  8
0
100
AcDbBlockBegin
  2
_D_8
 70
     0
 10
0.0
 20
0.0
 30
0.0
  3
_D_8
  1

  0
SOLID
  5
21D
330
21A
100
AcDbEntity
  8
0
  6
Continuous
 62
     7
370
    18
100
AcDbTrace
 10
653.4034257749
 20
476.5086460033
 30
0.0
 11
652.1111180826
 21
468.1086460033
 31
0.0
 12
654.6957334672
 22
468.1086460033
 32
0.0
 13
654.6957334672
 23
468.1086460033
 33
0.0
  0
SOLID
  5
21E
330
21A
100
AcDbEntity
  8
0
  6
Continuous
 62
     7
370
    18
100
AcDbTrace
 10
653.4034257749
 20
479.5086460033
 30
0.0
 11
654.6957334672
 21
487.9086460033
 31
0.0
 12
652.1111180826
 22
487.9086460033
 32
0.0
 13
652.1111180826
 23
487.9086460033
 33
0.0
  0
LINE
  5
21F
330
21A
100
AcDbEntity
  8
0
  6
Continuous
 62
     7
370
     0
100
AcDbLine
 10
626.4034257749
 20
476.5086460033
 30
0.0
 11
656.4034257749
 21
476.5086460033
 31
0.0
  0
LINE
  5
220
330
21A
100
AcDbEntity
  8
0
  6
Continuous
 62
     7
370
     0
100
AcDbLine
 10
626.4034257749
 20
479.5086460033
 30
0.0
 11
656.4034257749
 21
479.5086460033
 31
0.0
  0
LINE
  5
221
330
21A
100
AcDbEntity
  8
0
  6
Continuous
 62
     7
370
     0
100
AcDbLine
 10
653.4034257749
 20
476.5086460033
 30
0.0
 11
653.4034257749
 21
451.0447999718
 31
0.0
  0
LINE
  5
222
330
21A
100
AcDbEntity
  8
0
  6
Continuous
 62
     7
370
     0
100
AcDbLine
 10
653.4034257749
 20
476.5086460033
 30
0.0
 11
653.4034257749
 21
479.5086460033
 31
0.0
  0
LINE
  5
223
330
21A
100
AcDbEntity
  8
0
  6
Continuous
 62
     7
370
     0
100
AcDbLine
 10
653.4034257749
 20
479.5086460033
 30
0.0
 11
653.4034257749
 21
495.6624921571
 31
0.0
  0
MTEXT
  5
224
330
21A
100
AcDbEntity
  8
0
  6
Continuous
 62
     7
370
    18
100
AcDbMText
 10
642.5752567608
 20
451.0447999718
 30
0.0
 40
8.4
 41
0.0
 71
     1
 72
     1
  1
3
  7
SLDTEXTSTYLE0
 11
6.123233995736766E-17
 21
1.0
 31
0.0
 73
     1
 44
1.0
  0
ENDBLK
  5
21C
330
21A
100
AcDbEntity
  8
0
100
AcDbBlockEnd
  0
ENDSEC
  0
SECTION
  2
ENTITIES
  0
LINE
  5
65
330
1F
100
AcDbEntity
  8
0
  6
Continuous
 62
     7
370
    18
100
AcDbLine
 10
28.5216424144
 20
607.7947967218
 30
0.0
 11
877.5216424144
 21
607.7947967218
 31
0.0
  0
LINE
  5
66
330
1F
100
AcDbEntity
  8
0
  6
Continuous
 62
     7
370
    18
100
AcDbLine
 10
28.5216424144
 20
19.7947967218
 30
0.0
 11
877.5216424144
 21
19.7947967218
 31
0.0
  0
LINE
  5
67
330
1F
100
AcDbEntity
  8
0
  6
Continuous
 62
     7
370
    18
100
AcDbLine
 10
28.5216424144
 20
19.7947967218
 30
0.0
 11
28.5216424144
 21
592.7947967218
 31
0.0
  0
LINE
  5
68
330
1F
100
AcDbEntity
  8
0
  6
Continuous
 62
     7
370
    18
100
AcDbLine
 10
28.5216424144
 20
592.7947967218
 30
0.0
 11
877.5216424144
 21
592.7947967218
 31
0.0
  0
LINE
  5
69
330
1F
100
AcDbEntity
  8
0
  6
Continuous
 62
     7
370
    18
100
AcDbLine
 10
877.5216424144
 20
19.7947967218
 30
0.0
 11
877.5216424144
 21
592.7947967218
 31
0.0
  0
LINE
  5
6A
330
1F
100
AcDbEntity
  8
0
  6
Continuous
 62
     7
370
    18
100
AcDbLine
 10
13.5216424144
 20
19.7947967218
 30
0.0
 11
13.5216424144
 21
592.7947967218
 31
0.0
  0
LINE
  5
6B
330
1F
100
AcDbEntity
  8
0
  6
Continuous
 62
     7
370
    18
100
AcDbLine
 10
877.5216424144
 20
607.7947967218
 30
0.0
 11
877.5216424144
 21
592.7947967218
 31
0.0
  0
LINE
  5
6C
330
1F
100
AcDbEntity
  8
0
  6
Continuous
 62
     7
370
    18
100
AcDbLine
 10
13.5216424144
 20
592.7947967218
 30
0.0
 11
28.5216424144
 21
592.7947967218
 31
0.0
  0
LINE
  5
6D
330
1F
100
AcDbEntity
  8
0
  6
Continuous
 62
     7
370
    18
100
AcDbLine
 10
13.5216424144
 20
592.7947967218
 30
0.0
 11
13.5216424144
 21
607.7947967218
 31
0.0
  0
LINE
  5
6E
330
1F
100
AcDbEntity
  8
0
  6
Continuous
 62
     7
370
    18
100
AcDbLine
 10
13.5216424144
 20
607.7947967218
 30
0.0
 11
28.5216424144
 21
607.7947967218
 31
0.0
  0
LINE
  5
6F
330
1F
100
AcDbEntity
  8
0
  6
Continuous
 62
     7
370
    18
100
AcDbLine
 10
28.5216424144
 20
592.7947967218
 30
0.0
 11
28.5216424144
 21
607.7947967218
 31
0.0
  0
LINE
  5
70
330
1F
100
AcDbEntity
  8
0
  6
Continuous
 62
     7
370
    18
100
AcDbLine
 10
13.5216424144
 20
19.7947967218
 30
0.0
 11
28.5216424144
 21
19.7947967218
 31
0.0
  0
LINE
  5
71
330
1F
100
AcDbEntity
  8
0
  6
Continuous
 62
     7
370
    18
100
AcDbLine
 10
453.0216424144
 20
607.7947967218
 30
0.0
 11
453.0216424144
 21
592.7947967218
 31
0.0
  0
LINE
  5
72
330
1F
100
AcDbEntity
  8
0
  6
Continuous
 62
     7
370
    18
100
AcDbLine
 10
28.5216424144
 20
306.2947967218
 30
0.0
 11
13.5216424144
 21
306.2947967218
 31
0.0
  0
LINE
  5
73
330
1F
100
AcDbEntity
  8
0
  6
Continuous
 62
     7
370
    18
100
AcDbLine
 10
28.5216424144
 20
456.2947967218
 30
0.0
 11
13.5216424144
 21
456.2947967218
 31
0.0
  0
LINE
  5
74
330
1F
100
AcDbEntity
  8
0
  6
Continuous
 62
     7
370
    18
100
AcDbLine
 10
28.5216424144
 20
156.2947967218
 30
0.0
 11
13.5216424144
 21
156.2947967218
 31
0.0
  0
LINE
  5
75
330
1F
100
AcDbEntity
  8
0
  6
Continuous
 62
     7
370
    18
100
AcDbLine
 10
303.0216424144
 20
607.7947967218
 30
0.0
 11
303.0216424144
 21
592.7947967218
 31
0.0
  0
LINE
  5
76
330
1F
100
AcDbEntity
  8
0
  6
Continuous
 62
     7
370
    18
100
AcDbLine
 10
603.0216424144
 20
607.7947967218
 30
0.0
 11
603.0216424144
 21
592.7947967218
 31
0.0
  0
LINE
  5
77
330
1F
100
AcDbEntity
  8
0
  6
Continuous
 62
     7
370
    18
100
AcDbLine
 10
153.0216424144
 20
607.7947967218
 30
0.0
 11
153.0216424144
 21
592.7947967218
 31
0.0
  0
LINE
  5
78
330
1F
100
AcDbEntity
  8
0
  6
Continuous
 62
     7
370
    18
100
AcDbLine
 10
753.0216424144
 20
607.7947967218
 30
0.0
 11
753.0216424144
 21
592.7947967218
 31
0.0
  0
LINE
  5
79
330
1F
100
AcDbEntity
  8
0
  6
Continuous
 62
     7
370
    18
100
AcDbLine
 10
826.4894340182
 20
30.3023149851
 30
0.0
 11
877.4894340182
 21
30.3023149851
 31
0.0
  0
LINE
  5
7A
330
1F
100
AcDbEntity
  8
0
  6
Continuous
 62
     7
370
    18
100
AcDbLine
 10
826.4894340182
 20
48.3023149851
 30
0.0
 11
877.4894340182
 21
48.3023149851
 31
0.0
  0
LINE
  5
7B
330
1F
100
AcDbEntity
  8
0
  6
Continuous
 62
     7
370
    18
100
AcDbLine
 10
826.4894340182
 20
58.8023149851
 30
0.0
 11
877.4894340182
 21
58.8023149851
 31
0.0
  0
LINE
  5
7C
330
1F
100
AcDbEntity
  8
0
  6
Continuous
 62
     7
370
    18
100
AcDbLine
 10
826.4894340182
 20
58.8023149851
 30
0.0
 11
826.4894340182
 21
19.8023149851
 31
0.0
  0
LINE
  5
7D
330
1F
100
AcDbEntity
  8
0
  6
Continuous
 62
     7
370
    18
100
AcDbLine
 10
315.9207907688
 20
19.7947967218
 30
0.0
 11
877.5216424144
 21
19.7947967218
 31
0.0
  0
LINE
  5
7E
330
1F
100
AcDbEntity
  8
0
  6
Continuous
 62
     7
370
    18
100
AcDbLine
 10
315.8894340182
 20
19.8023149851
 30
0.0
 11
877.4894340182
 21
19.8023149851
 31
0.0
  0
LINE
  5
7F
330
1F
100
AcDbEntity
  8
0
  6
Continuous
 62
     7
370
    18
100
AcDbLine
 10
315.8885823726
 20
19.8023149851
 30
0.0
 11
877.4894340182
 21
19.8023149851
 31
0.0
  0
LINE
  5
80
330
1F
100
AcDbEntity
  8
0
  6
Continuous
 62
     7
370
    18
100
AcDbLine
 10
877.4894340182
 20
152.4023149851
 30
0.0
 11
877.4894340182
 21
19.8023149851
 31
0.0
  0
LINE
  5
81
330
1F
100
AcDbEntity
  8
0
  6
Continuous
 62
     7
370
    18
100
AcDbLine
 10
826.4885823726
 20
104.3995751467
 30
0.0
 11
826.4885823726
 21
19.8023149851
 31
0.0
  0
LINE
  5
82
330
1F
100
AcDbEntity
  8
0
  6
Continuous
 62
     7
370
    18
100
AcDbLine
 10
877.5216424144
 20
152.3947967218
 30
0.0
 11
877.5216424144
 21
19.7947967218
 31
0.0
  0
LINE
  5
83
330
1F
100
AcDbEntity
  8
0
  6
Continuous
 62
     7
370
    18
100
AcDbLine
 10
826.4885823726
 20
58.8023149851
 30
0.0
 11
877.4894340182
 21
58.8023149851
 31
0.0
  0
LINE
  5
84
330
1F
100
AcDbEntity
  8
0
  6
Continuous
 62
     7
370
    18
100
AcDbLine
 10
315.8885823726
 20
152.4023149851
 30
0.0
 11
315.8885823726
 21
19.8023149851
 31
0.0
  0
LINE
  5
85
330
1F
100
AcDbEntity
  8
0
  6
Continuous
 62
     7
370
    18
100
AcDbLine
 10
391.0881591346
 20
104.3995751467
 30
0.0
 11
391.0881591346
 21
86.4023149851
 31
0.0
  0
LINE
  5
86
330
1F
100
AcDbEntity
  8
0
  6
Continuous
 62
     7
370
    18
100
AcDbLine
 10
315.8885823726
 20
86.4023149851
 30
0.0
 11
494.3885823726
 21
86.4023149851
 31
0.0
  0
LINE
  5
87
330
1F
100
AcDbEntity
  8
0
  6
Continuous
 62
     7
370
    18
100
AcDbLine
 10
315.8885823726
 20
37.8023149851
 30
0.0
 11
494.5850694954
 21
37.8023149851
 31
0.0
  0
LINE
  5
88
330
1F
100
AcDbEntity
  8
0
  6
Continuous
 62
     7
370
    18
100
AcDbLine
 10
494.3885823726
 20
86.4023149851
 30
0.0
 11
494.3885823726
 21
19.8023149851
 31
0.0
  0
LINE
  5
89
330
1F
100
AcDbEntity
  8
0
  6
CENTERX2
 62
     7
370
    18
100
AcDbLine
 10
831.2906442483
 20
73.0728553342
 30
0.0
 11
871.7835999114
 21
73.0728553342
 31
0.0
  0
LINE
  5
8A
330
1F
100
AcDbEntity
  8
0
  6
CENTERX2
 62
     7
370
    18
100
AcDbLine
 10
862.469906466
 20
82.8288930579
 30
0.0
 11
862.469906466
 21
63.0442407923
 31
0.0
  0
LINE
  5
8B
330
1F
100
AcDbEntity
  8
0
  6
Continuous
 62
     7
370
    18
100
AcDbLine
 10
494.3885823726
 20
86.4023149851
 30
0.0
 11
826.4885823726
 21
86.4023149851
 31
0.0
  0
LINE
  5
8C
330
1F
100
AcDbEntity
  8
TESTO
100
AcDbLine
 10
375.7380191521
 20
64.8772421697
 30
0.0
 11
363.145397419
 21
55.2033522847
 31
0.0
  0
LINE
  5
8D
330
1F
100
AcDbEntity
  8
0
  6
Continuous
 62
     7
370
    18
100
AcDbLine
 10
494.3885823726
 20
43.8023149851
 30
0.0
 11
826.4885823726
 21
43.8023149851
 31
0.0
  0
LINE
  5
8E
330
1F
100
AcDbEntity
  8
TESTO
100
AcDbLine
 10
351.7458021368
 20
64.2837688378
 30
0.0
 11
355.4099097351
 21
61.4162063696
 31
0.0
  0
LINE
  5
8F
330
1F
100
AcDbEntity
  8
0
  6
Continuous
 62
     7
370
    18
100
AcDbLine
 10
747.3812296868
 20
86.4023149851
 30
0.0
 11
747.3812296868
 21
72.2023149851
 31
0.0
  0
LINE
  5
90
330
1F
100
AcDbEntity
  8
0
  6
Continuous
 62
     7
370
    18
100
AcDbLine
 10
747.3812296868
 20
72.2023149851
 30
0.0
 11
747.3812296868
 21
58.0023149851
 31
0.0
  0
LINE
  5
91
330
1F
100
AcDbEntity
  8
0
  6
Continuous
 62
     7
370
    18
100
AcDbLine
 10
836.1514338534
 20
76.7370301295
 30
0.0
 11
836.1514338534
 21
69.2370301295
 31
0.0
  0
LINE
  5
92
330
1F
100
AcDbEntity
  8
0
  6
Continuous
 62
     7
370
    18
100
AcDbLine
 10
848.9137558395
 20
78.9870301295
 30
0.0
 11
848.852692098
 21
66.9870301295
 31
0.0
  0
LINE
  5
93
330
1F
100
AcDbEntity
  8
0
  6
Continuous
 62
     7
370
    18
100
AcDbLine
 10
848.9137558395
 20
78.9870301295
 30
0.0
 11
836.1514338534
 21
76.7370301295
 31
0.0
  0
LINE
  5
94
330
1F
100
AcDbEntity
  8
0
  6
Continuous
 62
     7
370
    18
100
AcDbLine
 10
848.852692098
 20
66.9870301295
 30
0.0
 11
836.1514338534
 21
69.2370301295
 31
0.0
  0
LINE
  5
95
330
1F
100
AcDbEntity
  8
0
  6
Continuous
 62
     7
370
    18
100
AcDbLine
 10
747.3812296868
 20
58.0023149851
 30
0.0
 11
747.3812296868
 21
43.8023149851
 31
0.0
  0
LINE
  5
96
330
1F
100
AcDbEntity
  8
0
  6
Continuous
 62
     7
370
    18
100
AcDbLine
 10
747.3812296868
 20
72.2023149851
 30
0.0
 11
826.4885823726
 21
72.2023149851
 31
0.0
  0
LINE
  5
97
330
1F
100
AcDbEntity
  8
0
  6
Continuous
 62
     7
370
    18
100
AcDbLine
 10
747.3812296868
 20
58.0023149851
 30
0.0
 11
826.4885823726
 21
58.0023149851
 31
0.0
  0
LINE
  5
98
330
1F
100
AcDbEntity
  8
0
  6
Continuous
 62
     7
370
    18
100
AcDbLine
 10
782.4074144322
 20
43.8023149851
 30
0.0
 11
782.4074144322
 21
19.8023149851
 31
0.0
  0
LINE
  5
99
330
1F
100
AcDbEntity
  8
0
  6
Continuous
 62
     7
370
    18
100
AcDbLine
 10
611.4513434579
 20
43.8023149851
 30
0.0
 11
611.4513434579
 21
19.8023149851
 31
0.0
  0
LINE
  5
9A
330
1F
100
AcDbEntity
  8
0
  6
Continuous
 62
     7
370
    18
100
AcDbLine
 10
611.4513434579
 20
31.8023149851
 30
0.0
 11
494.3885823726
 21
31.8023149851
 31
0.0
  0
LINE
  5
9B
330
1F
100
AcDbEntity
  8
0
  6
Continuous
 62
     7
370
    18
100
AcDbLine
 10
495.8885823726
 20
152.4023149851
 30
0.0
 11
495.8885823726
 21
128.4023149851
 31
0.0
  0
LINE
  5
9C
330
1F
100
AcDbEntity
  8
0
  6
Continuous
 62
     7
370
    18
100
AcDbLine
 10
315.8885823726
 20
104.3995751467
 30
0.0
 11
877.4894340182
 21
104.3995751467
 31
0.0
  0
LINE
  5
9D
330
1F
100
AcDbEntity
  8
TESTO
100
AcDbLine
 10
328.3431846009
 20
82.226339205
 30
0.0
 11
394.5563716532
 21
82.226339205
 31
0.0
  0
LINE
  5
9E
330
1F
100
AcDbEntity
  8
TESTO
100
AcDbLine
 10
328.3431846009
 20
82.226339205
 30
0.0
 11
334.572343151
 21
77.4409819406
 31
0.0
  0
LINE
  5
9F
330
1F
100
AcDbEntity
  8
0
  6
Continuous
 62
     7
370
    18
100
AcDbLine
 10
481.6806605968
 20
104.3995751467
 30
0.0
 11
481.6806605968
 21
86.4023149851
 31
0.0
  0
LINE
  5
A0
330
1F
100
AcDbEntity
  8
0
  6
Continuous
 62
     7
370
    18
100
AcDbLine
 10
675.9379131985
 20
104.3995751467
 30
0.0
 11
675.9379131985
 21
86.4023149851
 31
0.0
  0
LINE
  5
A1
330
1F
100
AcDbEntity
  8
0
  6
Continuous
 62
     7
370
    18
100
AcDbLine
 10
756.3233309154
 20
104.3995751467
 30
0.0
 11
756.3233309154
 21
86.4023149851
 31
0.0
  0
LINE
  5
A2
330
1F
100
AcDbEntity
  8
0
  6
Continuous
 62
     7
370
    18
100
AcDbLine
 10
315.8885823726
 20
128.4023149851
 30
0.0
 11
877.4894340182
 21
128.4023149851
 31
0.0
  0
LINE
  5
A3
330
1F
100
AcDbEntity
  8
TESTO
100
AcDbLine
 10
394.5563716532
 20
82.226339205
 30
0.0
 11
388.2725509015
 21
77.3989894048
 31
0.0
  0
LINE
  5
A4
330
1F
100
AcDbEntity
  8
TESTO
100
AcDbLine
 10
344.0317354596
 20
70.1740980849
 30
0.0
 11
349.4529076599
 21
66.0094511969
 31
0.0
  0
LINE
  5
A5
330
1F
100
AcDbEntity
  8
0
  6
Continuous
 62
     7
370
    18
100
AcDbLine
 10
315.8885823726
 20
152.4023149851
 30
0.0
 11
877.4894340182
 21
152.4023149851
 31
0.0
  0
LINE
  5
A6
330
1F
100
AcDbEntity
  8
0
  6
Continuous
 62
     7
370
    18
100
AcDbLine
 10
588.8885823726
 20
152.4023149851
 30
0.0
 11
588.8885823726
 21
128.4023149851
 31
0.0
  0
LINE
  5
A7
330
1F
100
AcDbEntity
  8
0
  6
Continuous
 62
     7
370
    18
100
AcDbLine
 10
675.8885823726
 20
128.4023149851
 30
0.0
 11
675.8885823726
 21
104.3995751467
 31
0.0
  0
LINE
  5
A8
330
1F
100
AcDbEntity
  8
0
  6
Continuous
 62
     7
370
    18
100
AcDbLine
 10
675.8885823726
 20
128.4023149851
 30
0.0
 11
675.8885823726
 21
152.4023149851
 31
0.0
  0
LINE
  5
A9
330
1F
100
AcDbEntity
  8
0
  6
Continuous
 62
     7
370
    18
100
AcDbLine
 10
675.8885823726
 20
116.4023149851
 30
0.0
 11
877.4894340182
 21
116.4023149851
 31
0.0
  0
LINE
  5
AA
330
1F
100
AcDbEntity
  8
0
  6
Continuous
 62
     7
370
    18
100
AcDbLine
 10
574.6209192193
 20
104.3995751467
 30
0.0
 11
574.6209192193
 21
86.4023149851
 31
0.0
  0
LINE
  5
AB
330
1F
100
AcDbEntity
  8
0
  6
Continuous
 62
     7
370
    18
100
AcDbLine
 10
877.5216424144
 20
592.7947967218
 30
0.0
 11
315.9216424144
 21
592.7947967218
 31
0.0
  0
LINE
  5
AC
330
1F
100
AcDbEntity
  8
0
  6
Continuous
 62
     7
370
    18
100
AcDbLine
 10
363.9216424144
 20
577.7947967218
 30
0.0
 11
363.9216424144
 21
592.7947967218
 31
0.0
  0
LINE
  5
AD
330
1F
100
AcDbEntity
  8
0
  6
Continuous
 62
     7
370
    18
100
AcDbLine
 10
315.9216424144
 20
577.7947967218
 30
0.0
 11
877.5216424144
 21
577.7947967218
 31
0.0
  0
LINE
  5
AE
330
1F
100
AcDbEntity
  8
0
  6
Continuous
 62
     7
370
    18
100
AcDbLine
 10
315.9216424144
 20
592.7947967218
 30
0.0
 11
877.5216424144
 21
592.7947967218
 31
0.0
  0
LINE
  5
AF
330
1F
100
AcDbEntity
  8
0
  6
Continuous
 62
     7
370
    18
100
AcDbLine
 10
877.5216424144
 20
577.7947967218
 30
0.0
 11
877.5216424144
 21
592.7947967218
 31
0.0
  0
LINE
  5
B0
330
1F
100
AcDbEntity
  8
0
  6
Continuous
 62
     7
370
    18
100
AcDbLine
 10
315.9216424144
 20
577.7947967218
 30
0.0
 11
315.9216424144
 21
592.7947967218
 31
0.0
  0
LINE
  5
B1
330
1F
100
AcDbEntity
  8
0
  6
Continuous
 62
     7
370
    18
100
AcDbLine
 10
315.9216424144
 20
592.7947967218
 30
0.0
 11
877.5216424144
 21
592.7947967218
 31
0.0
  0
LINE
  5
B2
330
1F
100
AcDbEntity
  8
0
  6
Continuous
 62
     7
370
    18
100
AcDbLine
 10
877.5216424144
 20
577.7947967218
 30
0.0
 11
877.5216424144
 21
592.7947967218
 31
0.0
  0
LINE
  5
B3
330
1F
100
AcDbEntity
  8
0
  6
Continuous
 62
     7
370
    18
100
AcDbLine
 10
829.5216424144
 20
577.7947967218
 30
0.0
 11
829.5216424144
 21
592.7947967218
 31
0.0
  0
LINE
  5
B4
330
1F
100
AcDbEntity
  8
0
  6
Continuous
 62
     7
370
    18
100
AcDbLine
 10
740.7573797159
 20
577.7947967218
 30
0.0
 11
740.7573797159
 21
592.7947967218
 31
0.0
  0
LINE
  5
B5
330
1F
100
AcDbEntity
  8
0
  6
Continuous
 62
     7
370
    18
100
AcDbLine
 10
315.9216424144
 20
562.7947967218
 30
0.0
 11
877.5216424144
 21
562.7947967218
 31
0.0
  0
LINE
  5
B6
330
1F
100
AcDbEntity
  8
0
  6
Continuous
 62
     7
370
    18
100
AcDbLine
 10
315.9216424144
 20
547.7947967218
 30
0.0
 11
877.5216424144
 21
547.7947967218
 31
0.0
  0
LINE
  5
B7
330
1F
100
AcDbEntity
  8
0
  6
Continuous
 62
     7
370
    18
100
AcDbLine
 10
315.9216424144
 20
532.7947967218
 30
0.0
 11
877.5216424144
 21
532.7947967218
 31
0.0
  0
LINE
  5
B8
330
1F
100
AcDbEntity
  8
0
  6
Continuous
 62
     7
370
    18
100
AcDbLine
 10
315.9216424144
 20
577.7947967218
 30
0.0
 11
315.9216424144
 21
532.7947967218
 31
0.0
  0
LINE
  5
B9
330
1F
100
AcDbEntity
  8
0
  6
Continuous
 62
     7
370
    18
100
AcDbLine
 10
877.5216424144
 20
577.7947967218
 30
0.0
 11
877.5216424144
 21
532.7947967218
 31
0.0
  0
LINE
  5
BA
330
1F
100
AcDbEntity
  8
0
  6
Continuous
 62
     7
370
    18
100
AcDbLine
 10
363.9216424144
 20
577.7947967218
 30
0.0
 11
363.9216424144
 21
532.7947967218
 31
0.0
  0
LINE
  5
BB
330
1F
100
AcDbEntity
  8
0
  6
Continuous
 62
     7
370
    18
100
AcDbLine
 10
740.7573797159
 20
577.7947967218
 30
0.0
 11
740.7573797159
 21
532.7947967218
 31
0.0
  0
LINE
  5
BC
330
1F
100
AcDbEntity
  8
0
  6
Continuous
 62
     7
370
    18
100
AcDbLine
 10
829.5216424144
 20
577.7947967218
 30
0.0
 11
829.5216424144
 21
532.7947967218
 31
0.0
  0
LINE
  5
BD
330
1F
100
AcDbEntity
  8
0
  6
Continuous
 62
     7
370
    18
100
AcDbLine
 10
877.5216424144
 20
577.7947967218
 30
0.0
 11
877.5216424144
 21
532.7947967218
 31
0.0
  0
LINE
  5
BE
330
1F
100
AcDbEntity
  8
0
  6
Continuous
 62
     7
370
    18
100
AcDbLine
 10
494.3885823726
 20
53.1023149851
 30
0.0
 11
747.3812296868
 21
53.1023149851
 31
0.0
  0
LINE
  5
BF
330
1F
100
AcDbEntity
  8
0
  6
Continuous
 62
     7
370
    18
100
AcDbLine
 10
675.9379131985
 20
53.1023149851
 30
0.0
 11
675.9379131985
 21
43.8023149851
 31
0.0
  0
CIRCLE
  5
C0
330
1F
100
AcDbEntity
  8
0
  6
Continuous
 62
     7
370
    18
100
AcDbCircle
 10
862.469906466
 20
73.0728553342
 30
0.0
 40
3.749999999999955
  0
CIRCLE
  5
C1
330
1F
100
AcDbEntity
  8
0
  6
Continuous
 62
     7
370
    18
100
AcDbCircle
 10
862.469906466
 20
73.0728553342
 30
0.0
 40
5.999999999999818
  0
MTEXT
  5
C3
330
1F
100
AcDbEntity
  8
0
  6
Continuous
 62
     7
370
     0
100
AcDbMText
 10
843.644482343
 20
44.6815707107
 30
0.0
 40
8.73125
 41
0.0
 71
     1
 72
     1
  1
A4
  7
SLDTEXTSTYLE0
 73
     1
 44
1.0
  0
MTEXT
  5
C4
330
1F
100
AcDbEntity
  8
0
  6
Continuous
 62
     7
370
     0
100
AcDbMText
 10
84.7687824714
 20
603.9039237314
 30
0.0
 40
7.14375
 41
0.0
 71
     1
 72
     1
  1
1
  7
SLDTEXTSTYLE0
 73
     1
 44
1.0
  0
MTEXT
  5
C5
330
1F
100
AcDbEntity
  8
0
  6
Continuous
 62
     7
370
     0
100
AcDbMText
 10
225.3079152819
 20
603.9039237314
 30
0.0
 40
7.14375
 41
0.0
 71
     1
 72
     1
  1
2
  7
SLDTEXTSTYLE0
 73
     1
 44
1.0
  0
MTEXT
  5
C6
330
1F
100
AcDbEntity
  8
0
  6
Continuous
 62
     7
370
     0
100
AcDbMText
 10
376.3021690203
 20
603.9039237314
 30
0.0
 40
7.14375
 41
0.0
 71
     1
 72
     1
  1
3
  7
SLDTEXTSTYLE0
 73
     1
 44
1.0
  0
MTEXT
  5
C7
330
1F
100
AcDbEntity
  8
0
  6
Continuous
 62
     7
370
     0
100
AcDbMText
 10
524.3815115416
 20
603.9039237314
 30
0.0
 40
7.14375
 41
0.0
 71
     1
 72
     1
  1
4
  7
SLDTEXTSTYLE0
 73
     1
 44
1.0
  0
MTEXT
  5
C8
330
1F
100
AcDbEntity
  8
0
  6
Continuous
 62
     7
370
     0
100
AcDbMText
 10
676.8813696186
 20
603.9039237314
 30
0.0
 40
7.14375
 41
0.0
 71
     1
 72
     1
  1
5
  7
SLDTEXTSTYLE0
 73
     1
 44
1.0
  0
MTEXT
  5
C9
330
1F
100
AcDbEntity
  8
0
  6
Continuous
 62
     7
370
     0
100
AcDbMText
 10
812.5076757736
 20
603.9039237314
 30
0.0
 40
7.14375
 41
0.0
 71
     1
 72
     1
  1
6
  7
SLDTEXTSTYLE0
 73
     1
 44
1.0
  0
MTEXT
  5
CA
330
1F
100
AcDbEntity
  8
0
  6
Continuous
 62
     7
370
     0
100
AcDbMText
 10
18.1448001536
 20
532.9216085015
 30
0.0
 40
7.14375
 41
0.0
 71
     1
 72
     1
  1
A
  7
SLDTEXTSTYLE0
 73
     1
 44
1.0
  0
MTEXT
  5
CB
330
1F
100
AcDbEntity
  8
0
  6
Continuous
 62
     7
370
     0
100
AcDbMText
 10
18.9385503187
 20
385.3367253341
 30
0.0
 40
7.14375
 41
0.0
 71
     1
 72
     1
  1
B
  7
SLDTEXTSTYLE0
 73
     1
 44
1.0
  0
MTEXT
  5
CC
330
1F
100
AcDbEntity
  8
0
  6
Continuous
 62
     7
370
     0
100
AcDbMText
 10
17.8008421213
 20
236.338047909
 30
0.0
 40
7.14375
 41
0.0
 71
     1
 72
     1
  1
C
  7
SLDTEXTSTYLE0
 73
     1
 44
1.0
  0
MTEXT
  5
CD
330
1F
100
AcDbEntity
  8
0
  6
Continuous
 62
     7
370
     0
100
AcDbMText
 10
17.8008421213
 20
93.2156128986
 30
0.0
 40
7.14375
 41
0.0
 71
     1
 72
     1
  1
D
  7
SLDTEXTSTYLE0
 73
     1
 44
1.0
  0
MTEXT
  5
CE
330
1F
100
AcDbEntity
  8
0
  6
Continuous
 62
     7
370
     0
100
AcDbMText
 10
831.144170384
 20
572.5245981401
 30
0.0
 40
6.35
 41
0.0
 71
     1
 72
     1
  1
04/04/2022
  7
SLDTEXTSTYLE0
 73
     1
 44
1.0
  0
MTEXT
  5
CF
330
1F
100
AcDbEntity
  8
0
  6
Continuous
 62
     7
370
     0
100
AcDbMText
 10
831.144170384
 20
557.8793742507
 30
0.0
 40
6.35
 41
0.0
 71
     1
 72
     1
  1
06/05/2021
  7
SLDTEXTSTYLE0
 73
     1
 44
1.0
  0
MTEXT
  5
D0
330
1F
100
AcDbEntity
  8
0
  6
Continuous
 62
     7
370
     0
100
AcDbMText
 10
743.7564598725
 20
572.5245981401
 30
0.0
 40
6.35
 41
0.0
 71
     1
 72
     1
  1
Fabrizio Fiorese
  7
SLDTEXTSTYLE0
 73
     1
 44
1.0
  0
MTEXT
  5
D1
330
1F
100
AcDbEntity
  8
0
  6
Continuous
 62
     7
370
     0
100
AcDbMText
 10
743.7564598725
 20
557.8793742507
 30
0.0
 40
6.35
 41
0.0
 71
     1
 72
     1
  1
Andrea Carrabotta
  7
SLDTEXTSTYLE0
 73
     1
 44
1.0
  0
MTEXT
  5
D2
330
1F
100
AcDbEntity
  8
0
  6
Continuous
 62
     7
370
     0
100
AcDbMText
 10
335.3839204572
 20
574.1035623768
 30
0.0
 40
7.9375
 41
0.0
 71
     1
 72
     1
  1
01
  7
SLDTEXTSTYLE0
 73
     1
 44
1.0
  0
MTEXT
  5
D3
330
1F
100
AcDbEntity
  8
0
  6
Continuous
 62
     7
370
     0
100
AcDbMText
 10
335.3839204572
 20
559.4583384874
 30
0.0
 40
7.9375
 41
0.0
 71
     1
 72
     1
  1
00
  7
SLDTEXTSTYLE0
 73
     1
 44
1.0
  0
MTEXT
  5
D4
330
1F
100
AcDbEntity
  8
0
  6
Continuous
 62
     7
370
     0
100
AcDbMText
 10
369.2660941672
 20
559.4583384874
 30
0.0
 40
7.9375
 41
0.0
 71
     1
 72
     1
  1
EMISSIONE
  7
SLDTEXTSTYLE0
 73
     1
 44
1.0
  0
MTEXT
  5
D5
330
1F
100
AcDbEntity
  8
0
  6
Continuous
 62
     7
370
     0
100
AcDbMText
 10
369.2660941672
 20
574.1035623768
 30
0.0
 40
7.9375
 41
0.0
 71
     1
 72
     1
  1
Modificata altezza da 25 a 22
  7
SLDTEXTSTYLE0
 73
     1
 44
1.0
  0
MTEXT
  5
D7
330
1F
100
AcDbEntity
  8
0
  6
Continuous
 62
     7
370
     0
100
AcDbMText
 10
321.2601449343
 20
588.6812102593
 30
0.0
 40
6.35
 41
0.0
 71
     1
 72
     1
  1
Revisione
  7
SLDTEXTSTYLE1
 73
     1
 44
1.0
  0
MTEXT
  5
D8
330
1F
100
AcDbEntity
  8
0
  6
Continuous
 62
     7
370
     0
100
AcDbMText
 10
369.2660941672
 20
588.6262572258
 30
0.0
 40
6.35
 41
0.0
 71
     1
 72
     1
  1
Descrizione revisione
  7
SLDTEXTSTYLE1
 73
     1
 44
1.0
  0
MTEXT
  5
D9
330
1F
100
AcDbEntity
  8
0
  6
Continuous
 62
     7
370
     0
100
AcDbMText
 10
760.7443237819
 20
588.6262572258
 30
0.0
 40
6.35
 41
0.0
 71
     1
 72
     1
  1
Disegnatore
  7
SLDTEXTSTYLE1
 73
     1
 44
1.0
  0
MTEXT
  5
DA
330
1F
100
AcDbEntity
  8
0
  6
Continuous
 62
     7
370
     0
100
AcDbMText
 10
834.9001378502
 20
588.6262572258
 30
0.0
 40
6.35
 41
0.0
 71
     1
 72
     1
  1
Data
  7
SLDTEXTSTYLE1
 73
     1
 44
1.0
  0
MTEXT
  5
DB
330
1F
100
AcDbEntity
  8
0
  6
Continuous
 62
     7
370
     0
100
AcDbMText
 10
819.9302524097
 20
56.4147935842
 30
0.0
 40
7.14375
 41
0.0
 71
     3
 72
     1
  1
3
  7
SLDTEXTSTYLE0
 73
     1
 44
1.0
  0
MTEXT
  5
DC
330
1F
100
AcDbEntity
  8
0
  6
Continuous
 62
     7
370
     0
100
AcDbMText
 10
819.7287390678
 20
83.7993084386
 30
0.0
 40
7.14375
 41
0.0
 71
     3
 72
     1
  1
400
  7
SLDTEXTSTYLE0
 73
     1
 44
1.0
  0
MTEXT
  5
DD
330
1F
100
AcDbEntity
  8
0
  6
Continuous
 62
     7
370
     0
100
AcDbMText
 10
820.4991794221
 20
70.2971245536
 30
0.0
 40
7.14375
 41
0.0
 71
     3
 72
     1
  1
22
  7
SLDTEXTSTYLE0
 73
     1
 44
1.0
  0
MTEXT
  5
DF
330
1F
100
AcDbEntity
  8
0
  6
Continuous
 62
     7
370
     0
100
AcDbMText
 10
543.1621106578
 20
97.0088398578
 30
0.0
 40
7.9375
 41
0.0
 71
     1
 72
     1
  1
IT 8
  7
SLDTEXTSTYLE2
 73
     1
 44
1.0
  0
MTEXT
  5
E0
330
1F
100
AcDbEntity
  8
0
  6
Continuous
 62
     7
370
     0
100
AcDbMText
 10
488.5976372241
 20
102.5609711702
 30
0.0
 40
3.96875
 41
0.0
 71
     1
 72
     1
  1
Grado Tolleranza
  7
SLDTEXTSTYLE0
 73
     1
 44
1.0
  0
MTEXT
  5
E1
330
1F
100
AcDbEntity
  8
0
  6
Continuous
 62
     7
370
     0
100
AcDbMText
 10
584.8672942739
 20
145.2107914086
 30
0.0
 40
7.9375
 41
0.0
 71
     3
 72
     1
  1
0.18
  7
SLDTEXTSTYLE0
 73
     1
 44
1.0
  0
MTEXT
  5
E2
330
1F
100
AcDbEntity
  8
0
  6
Continuous
 62
     7
370
     0
100
AcDbMText
 10
746.1430848489
 20
51.8132915921
 30
0.0
 40
5.55625
 41
0.0
 71
     3
 72
     1
  1
01
  7
SLDTEXTSTYLE0
 73
     1
 44
1.0
  0
MTEXT
  5
E3
330
1F
100
AcDbEntity
  8
0
  6
Continuous
 62
     7
370
     0
100
AcDbMText
 10
349.9220219332
 20
145.2107914086
 30
0.0
 40
7.9375
 41
0.0
 71
     1
 72
     1
  1
AISI 304
  7
SLDTEXTSTYLE0
 73
     1
 44
1.0
  0
MTEXT
  5
E4
330
1F
100
AcDbEntity
  8
0
  6
Continuous
 62
     7
370
     0
100
AcDbMText
 10
533.4973500794
 20
29.1131718552
 30
0.0
 40
5.55625
 41
0.0
 71
     1
 72
     1
  1
06/05/2021
  7
SLDTEXTSTYLE0
 73
     1
 44
1.0
  0
MTEXT
  5
E5
330
1F
100
AcDbEntity
  8
0
  6
Continuous
 62
     7
370
     0
100
AcDbMText
 10
533.4973500794
 20
41.1692992859
 30
0.0
 40
5.55625
 41
0.0
 71
     1
 72
     1
  1
Andrea Carrabotta
  7
SLDTEXTSTYLE0
 73
     1
 44
1.0
  0
MTEXT
  5
E6
330
1F
100
AcDbEntity
  8
0
  6
Continuous
 62
     7
370
     0
100
AcDbMText
 10
503.1207971975
 20
74.2868749615
 30
0.0
 40
6.35
 41
0.0
 71
     1
 72
     1
  1
Lamiera di rinforzo per CNL201 Lg.400
  7
SLDTEXTSTYLE0
 73
     1
 44
1.0
  0
MTEXT
  5
E7
330
1F
100
AcDbEntity
  8
0
  6
Continuous
 62
     7
370
     0
100
AcDbMText
 10
525.0540629734
 20
51.8132915921
 30
0.0
 40
5.55625
 41
0.0
 71
     1
 72
     1
  1
20000011
  7
SLDTEXTSTYLE0
 73
     1
 44
1.0
  0
MTEXT
  5
E9
330
1F
100
AcDbEntity
  8
TESTO
100
AcDbMText
 10
380.0618399372
 20
80.8678721586
 30
0.0
 40
14.4
 41
0.0
 71
     1
 72
     1
  1
A
  7
SLDTEXTSTYLE3
 73
     1
 44
1.0
  0
MTEXT
  5
EB
330
1F
100
AcDbEntity
  8
FORMAT
100
AcDbMText
 10
405.0686260447
 20
63.6800077423
 30
0.0
 40
4.05
 41
0.0
 71
     1
 72
     1
  1
Tel. 0341/632080
  7
SLDTEXTSTYLE4
 73
     1
 44
1.0
  0
MTEXT
  5
EC
330
1F
100
AcDbEntity
  8
FORMAT
100
AcDbMText
 10
405.457595655
 20
56.4376601472
 30
0.0
 40
4.05
 41
0.0
 71
     1
 72
     1
  1
Fax 0341/608154
  7
SLDTEXTSTYLE4
 73
     1
 44
1.0
  0
MTEXT
  5
ED
330
1F
100
AcDbEntity
  8
FORMAT
100
AcDbMText
 10
405.457595655
 20
45.4288393888
 30
0.0
 40
4.05
 41
0.0
 71
     1
 72
     1
  1
E-mail: info@decasrl.biz
  7
SLDTEXTSTYLE4
 73
     1
 44
1.0
  0
MTEXT
  5
EE
330
1F
100
AcDbEntity
  8
FORMAT
100
AcDbMText
 10
330.3951819309
 20
53.8228546134
 30
0.0
 40
4.05
 41
0.0
 71
     1
 72
     1
  1
VIBROALIMENTATORI
  7
SLDTEXTSTYLE4
 73
     1
 44
1.0
  0
MTEXT
  5
EF
330
1F
100
AcDbEntity
  8
FORMAT
100
AcDbMText
 10
344.4663760896
 20
47.0965946703
 30
0.0
 40
4.05
 41
0.0
 71
     1
 72
     1
  1
ELEVATORI
  7
SLDTEXTSTYLE4
 73
     1
 44
1.0
  0
MTEXT
  5
F0
330
1F
100
AcDbEntity
  8
FORMAT
100
AcDbMText
 10
404.4659166097
 20
75.479438052
 30
0.0
 40
4.05
 41
0.0
 71
     1
 72
     1
  1
23804 Monte Marenzo (Lc)
  7
SLDTEXTSTYLE4
 73
     1
 44
1.0
  0
MTEXT
  5
F1
330
1F
100
AcDbEntity
  8
FORMAT
100
AcDbMText
 10
404.4659166097
 20
83.1587222031
 30
0.0
 40
4.05
 41
0.0
 71
     1
 72
     1
  1
Via XXV Aprile,2
  7
SLDTEXTSTYLE4
 73
     1
 44
1.0
  0
MTEXT
  5
F2
330
1F
100
AcDbEntity
  8
TESTO
100
AcDbMText
 10
365.3687384041
 20
81.2878711658
 30
0.0
 40
14.4
 41
0.0
 71
     1
 72
     1
  1
C
  7
SLDTEXTSTYLE3
 73
     1
 44
1.0
  0
MTEXT
  5
F3
330
1F
100
AcDbEntity
  8
TESTO
100
AcDbMText
 10
349.9220219332
 20
80.5492541066
 30
0.0
 40
14.4
 41
0.0
 71
     1
 72
     1
  1
E
  7
SLDTEXTSTYLE3
 73
     1
 44
1.0
  0
MTEXT
  5
F4
330
1F
100
AcDbEntity
  8
TESTO
100
AcDbMText
 10
356.029555702
 20
63.3407014011
 30
0.0
 40
6.0
 41
0.0
 71
     1
 72
     1
  1
s.r.l.
  7
SLDTEXTSTYLE3
 73
     1
 44
1.0
  0
MTEXT
  5
F5
330
1F
100
AcDbEntity
  8
TESTO
100
AcDbMText
 10
335.2171220354
 20
80.8678721586
 30
0.0
 40
14.4
 41
0.0
 71
     1
 72
     1
  1
D
  7
SLDTEXTSTYLE3
 73
     1
 44
1.0
  0
MTEXT
  5
F6
330
1F
100
AcDbEntity
  8
0
  6
Continuous
 62
     7
370
     0
100
AcDbMText
 10
317.5133281829
 20
33.9780580517
 30
0.0
 40
3.175
 41
0.0
 71
     1
 72
     1
  1
Deca S.r.l. si riserva tutti i diritti sul presente documento e con quanto rappresentato.
  7
SLDTEXTSTYLE0
 73
     1
 44
1.0
  0
MTEXT
  5
F7
330
1F
100
AcDbEntity
  8
0
  6
Continuous
 62
     7
370
     0
100
AcDbMText
 10
317.5133281829
 20
26.7447249763
 30
0.0
 40
3.175
 41
0.0
 71
     1
 72
     1
  1
E' vietato riprodurlo, utilizzarlo e renderlo accessibile a terzi senza autorizzazione scritta
  7
SLDTEXTSTYLE0
 73
     1
 44
1.0
  0
MTEXT
  5
F8
330
1F
100
AcDbEntity
  8
0
  6
Continuous
 62
     7
370
     0
100
AcDbMText
 10
786.4387927766
 20
41.005039325
 30
0.0
 40
3.96875
 41
0.0
 71
     1
 72
     1
  1
Revisione
  7
SLDTEXTSTYLE0
 73
     1
 44
1.0
  0
MTEXT
  5
F9
330
1F
100
AcDbEntity
  8
0
  6
Continuous
 62
     7
370
     0
100
AcDbMText
 10
499.9104041776
 20
50.2343269188
 30
0.0
 40
3.96875
 41
0.0
 71
     1
 72
     1
  1
Disegno
  7
SLDTEXTSTYLE0
 73
     1
 44
1.0
  0
MTEXT
  5
FA
330
1F
100
AcDbEntity
  8
0
  6
Continuous
 62
     7
370
     0
100
AcDbMText
 10
750.1906439034
 20
80.6413791794
 30
0.0
 40
3.96875
 41
0.0
 71
     1
 72
     1
  1
Lunghezza:
  7
SLDTEXTSTYLE0
 73
     1
 44
1.0
  0
MTEXT
  5
FB
330
1F
100
AcDbEntity
  8
0
  6
Continuous
 62
     7
370
     0
100
AcDbMText
 10
750.2384337353
 20
67.1391952944
 30
0.0
 40
3.96875
 41
0.0
 71
     1
 72
     1
  1
Larghezza:
  7
SLDTEXTSTYLE0
 73
     1
 44
1.0
  0
MTEXT
  5
FC
330
1F
100
AcDbEntity
  8
0
  6
Continuous
 62
     7
370
     0
100
AcDbMText
 10
750.2384337353
 20
53.256864325
 30
0.0
 40
3.96875
 41
0.0
 71
     1
 72
     1
  1
Sp./Ø:
  7
SLDTEXTSTYLE0
 73
     1
 44
1.0
  0
MTEXT
  5
FD
330
1F
100
AcDbEntity
  8
0
  6
Continuous
 62
     7
370
     0
100
AcDbMText
 10
499.9104041776
 20
39.5903346127
 30
0.0
 40
3.96875
 41
0.0
 71
     1
 72
     1
  1
Disegnatore
  7
SLDTEXTSTYLE0
 73
     1
 44
1.0
  0
MTEXT
  5
FE
330
1F
100
AcDbEntity
  8
0
  6
Continuous
 62
     7
370
     0
100
AcDbMText
 10
499.9104041776
 20
27.534207182
 30
0.0
 40
3.96875
 41
0.0
 71
     1
 72
     1
  1
Data
  7
SLDTEXTSTYLE0
 73
     1
 44
1.0
  0
MTEXT
  5
FF
330
1F
100
AcDbEntity
  8
0
  6
Continuous
 62
     7
370
     0
100
AcDbMText
 10
499.9104041776
 20
80.6413791794
 30
0.0
 40
3.96875
 41
0.0
 71
     1
 72
     1
  1
Descrizione
  7
SLDTEXTSTYLE0
 73
     1
 44
1.0
  0
MTEXT
  5
100
330
1F
100
AcDbEntity
  8
0
  6
Continuous
 62
     7
370
     0
100
AcDbMText
 10
839.9030223578
 20
99.6701965074
 30
0.0
 40
3.96875
 41
0.0
 71
     1
 72
     1
  1
Sistema E
  7
SLDTEXTSTYLE0
 73
     1
 44
1.0
  0
MTEXT
  5
102
330
1F
100
AcDbEntity
  8
0
  6
Continuous
 62
     7
370
     0
100
AcDbMText
 10
839.9030223578
 20
91.3785301114
 30
0.0
 40
3.96875
 41
0.0
 71
     1
 72
     1
  1
UNI  3970
  7
SLDTEXTSTYLE5
 73
     1
 44
1.0
  0
MTEXT
  5
103
330
1F
100
AcDbEntity
  8
0
  6
Continuous
 62
     7
370
     0
100
AcDbMText
 10
318.7246202445
 20
102.5609711702
 30
0.0
 40
3.96875
 41
0.0
 71
     1
 72
     1
  1
Tolleranze generali lineari
  7
SLDTEXTSTYLE0
 73
     1
 44
1.0
  0
MTEXT
  5
104
330
1F
100
AcDbEntity
  8
0
  6
Continuous
 62
     7
370
     0
100
AcDbMText
 10
578.3600089733
 20
102.5609711702
 30
0.0
 40
3.96875
 41
0.0
 71
     1
 72
     1
  1
Tolleranze angolari
  7
SLDTEXTSTYLE0
 73
     1
 44
1.0
  0
MTEXT
  5
105
330
1F
100
AcDbEntity
  8
0
  6
Continuous
 62
     7
370
     0
100
AcDbMText
 10
690.5393242402
 20
102.5609711702
 30
0.0
 40
3.96875
 41
0.0
 71
     1
 72
     1
  1
Smussi non quotati
  7
SLDTEXTSTYLE0
 73
     1
 44
1.0
  0
MTEXT
  5
106
330
1F
100
AcDbEntity
  8
0
  6
Continuous
 62
     7
370
     0
100
AcDbMText
 10
767.2272564122
 20
102.5609711702
 30
0.0
 40
3.96875
 41
0.0
 71
     1
 72
     1
  1
Raggi non quotati
  7
SLDTEXTSTYLE0
 73
     1
 44
1.0
  0
MTEXT
  5
107
330
1F
100
AcDbEntity
  8
0
  6
Continuous
 62
     7
370
     0
100
AcDbMText
 10
396.3178346639
 20
102.5609711702
 30
0.0
 40
3.96875
 41
0.0
 71
     1
 72
     1
  1
Tolleranze generali geometriche
  7
SLDTEXTSTYLE0
 73
     1
 44
1.0
  0
MTEXT
  5
109
330
1F
100
AcDbEntity
  8
0
  6
Continuous
 62
     7
370
     0
100
AcDbMText
 10
412.2618597319
 20
94.6403929789
 30
0.0
 40
5.55625
 41
0.0
 71
     1
 72
     1
  1
UNI EN 2768 H
  7
SLDTEXTSTYLE6
 73
     1
 44
1.0
  0
MTEXT
  5
10A
330
1F
100
AcDbEntity
  8
0
  6
Continuous
 62
     7
370
     0
100
AcDbMText
 10
320.9170921131
 20
94.6403929789
 30
0.0
 40
5.55625
 41
0.0
 71
     1
 72
     1
  1
ISO 286-1 ISO 8015
  7
SLDTEXTSTYLE0
 73
     1
 44
1.0
  0
MTEXT
  5
10B
330
1F
100
AcDbEntity
  8
0
  6
Continuous
 62
     7
370
     0
100
AcDbMText
 10
319.4358069231
 20
126.1211059587
 30
0.0
 40
3.96875
 41
0.0
 71
     1
 72
     1
  1
Note
  7
SLDTEXTSTYLE0
 73
     1
 44
1.0
  0
MTEXT
  5
10C
330
1F
100
AcDbEntity
  8
0
  6
Continuous
 62
     7
370
     0
100
AcDbMText
 10
319.4358069231
 20
148.7205388499
 30
0.0
 40
3.96875
 41
0.0
 71
     1
 72
     1
  1
Materiale
  7
SLDTEXTSTYLE0
 73
     1
 44
1.0
  0
MTEXT
  5
10D
330
1F
100
AcDbEntity
  8
0
  6
Continuous
 62
     7
370
     0
100
AcDbMText
 10
498.4970909641
 20
148.7205388499
 30
0.0
 40
3.96875
 41
0.0
 71
     1
 72
     1
  1
Peso Kg
  7
SLDTEXTSTYLE0
 73
     1
 44
1.0
  0
MTEXT
  5
10E
330
1F
100
AcDbEntity
  8
0
  6
Continuous
 62
     7
370
     0
100
AcDbMText
 10
678.8885823726
 20
148.7205388499
 30
0.0
 40
3.96875
 41
0.0
 71
     1
 72
     1
  1
Trattamento
  7
SLDTEXTSTYLE0
 73
     1
 44
1.0
  0
MTEXT
  5
10F
330
1F
100
AcDbEntity
  8
0
  6
Continuous
 62
     7
370
     0
100
AcDbMText
 10
678.8617883036
 20
123.4871196592
 30
0.0
 40
3.96875
 41
0.0
 71
     1
 72
     1
  1
Durezza
  7
SLDTEXTSTYLE0
 73
     1
 44
1.0
  0
MTEXT
  5
110
330
1F
100
AcDbEntity
  8
0
  6
Continuous
 62
     7
370
     0
100
AcDbMText
 10
678.8617883036
 20
110.7286087803
 30
0.0
 40
3.96875
 41
0.0
 71
     1
 72
     1
  1
Profondità
  7
SLDTEXTSTYLE0
 73
     1
 44
1.0
  0
MTEXT
  5
111
330
1F
100
AcDbEntity
  8
0
  6
Continuous
 62
     7
370
     0
100
AcDbMText
 10
592.0850093732
 20
148.7205388499
 30
0.0
 40
3.96875
 41
0.0
 71
     1
 72
     1
  1
Grado di finitura
  7
SLDTEXTSTYLE0
 73
     1
 44
1.0
  0
MTEXT
  5
112
330
1F
100
AcDbEntity
  8
0
  6
Continuous
 62
     7
370
     0
100
AcDbMText
 10
837.4405743187
 20
56.1614713544
 30
0.0
 40
4.5
 41
0.0
 71
     1
 72
     1
  1
SCALA:1:3
  7
SLDTEXTSTYLE0
 73
     1
 44
1.0
  0
MTEXT
  5
113
330
1F
100
AcDbEntity
  8
0
  6
Continuous
 62
     7
370
     0
100
AcDbMText
 10
831.6589836455
 20
27.2557603159
 30
0.0
 40
4.5
 41
0.0
 71
     1
 72
     1
  1
FOGLIO 1 DI 1
  7
SLDTEXTSTYLE6
 73
     1
 44
1.0
  0
MTEXT
  5
114
330
1F
100
AcDbEntity
  8
0
  6
Continuous
 62
     7
370
     0
100
AcDbMText
 10
617.390915437
 20
39.5903346127
 30
0.0
 40
3.96875
 41
0.0
 71
     1
 72
     1
  1
Codice
  7
SLDTEXTSTYLE0
 73
     1
 44
1.0
  0
MTEXT
  5
115
330
1F
100
AcDbEntity
  8
0
  6
Continuous
 62
     7
370
     0
100
AcDbMText
 10
678.8617883036
 20
50.2343269188
 30
0.0
 40
3.96875
 41
0.0
 71
     1
 72
     1
  1
Revisione disegno
  7
SLDTEXTSTYLE0
 73
     1
 44
1.0
  0
MTEXT
  5
116
330
1F
100
AcDbEntity
  8
0
  6
Continuous
 62
     7
370
     0
100
AcDbMText
 10
639.8527410005
 20
31.4816185595
 30
0.0
 40
7.9375
 41
0.0
 71
     1
 72
     1
  1
20R201N0401
  7
SLDTEXTSTYLE0
 73
     1
 44
1.0
  0
MTEXT
  5
117
330
1F
100
AcDbEntity
  8
0
  6
Continuous
 62
     7
370
     0
100
AcDbMText
 10
821.2846234645
 20
31.4816185595
 30
0.0
 40
7.9375
 41
0.0
 71
     3
 72
     1
  1
01
  7
SLDTEXTSTYLE0
 73
     1
 44
1.0
  0
INSERT
  5
134
330
1F
100
AcDbEntity
  8
0
  6
Continuous
 62
     7
370
     0
100
AcDbBlockReference
  2
SW_TABLEANNOTATION_0
 10
60.77862969
 20
116.0959063688
 30
0.0
  0
LINE
  5
135
330
1F
100
AcDbEntity
  8
0
  6
Continuous
 62
     7
370
    25
100
AcDbLine
 10
590.8700746254
 20
225.3829185941
 30
0.0
 11
591.6465317607
 21
226.1329185941
 31
0.0
  0
LINE
  5
136
330
1F
100
AcDbEntity
  8
0
  6
Continuous
 62
     7
370
    25
100
AcDbLine
 10
244.455592768
 20
260.9500065717
 30
0.0
 11
243.6791356327
 21
260.2000065717
 31
0.0
  0
LWPOLYLINE
  5
137
330
1F
100
AcDbEntity
  8
0
  6
Continuous
 62
     7
370
    25
100
AcDbPolyline
 90
       21
 70
   128
 43
0.0
 10
579.1637736151
 20
231.674806776
 10
579.0408566002
 20
232.4593986031
 10
578.6841375295
 20
233.1842377927
 10
578.128534551
 20
233.7783720345
 10
577.4284339554
 20
234.1836433294
 10
576.6523664667
 20
234.3603808994
 10
575.8762989781
 20
234.2912844397
 10
575.1761983824
 20
233.9831175933
 10
574.6205954039
 20
233.4660458781
 10
574.2638763332
 20
232.7906838763
 10
574.1409593184
 20
232.0231407261
 10
574.2638763332
 20
231.238548899
 10
574.6205954039
 20
230.5137097095
 10
575.1761983824
 20
229.9195754676
 10
575.8762989781
 20
229.5143041727
 10
576.6523664667
 20
229.3375666027
 10
577.4284339554
 20
229.4066630624
 10
578.128534551
 20
229.7148299089
 10
578.6841375295
 20
230.2319016241
 10
579.0408566002
 20
230.9072636259
 10
579.1637736151
 20
231.674806776
  0
LWPOLYLINE
  5
138
330
1F
100
AcDbEntity
  8
0
  6
Continuous
 62
     7
370
    25
100
AcDbPolyline
 90
       21
 70
   128
 43
0.0
 10
472.9119327233
 20
239.0434095678
 10
472.7890157084
 20
239.828001395
 10
472.4322966378
 20
240.5528405845
 10
471.8766936592
 20
241.1469748263
 10
471.1765930636
 20
241.5522461213
 10
470.4005255749
 20
241.7289836913
 10
469.6244580863
 20
241.6598872316
 10
468.9243574906
 20
241.3517203851
 10
468.3687545121
 20
240.8346486699
 10
468.0120354414
 20
240.1592866681
 10
467.8891184266
 20
239.391743518
 10
468.0120354414
 20
238.6071516909
 10
468.3687545121
 20
237.8823125013
 10
468.9243574906
 20
237.2881782595
 10
469.6244580863
 20
236.8829069646
 10
470.4005255749
 20
236.7061693946
 10
471.1765930636
 20
236.7752658542
 10
471.8766936592
 20
237.0834327007
 10
472.4322966378
 20
237.6005044159
 10
472.7890157084
 20
238.2758664177
 10
472.9119327233
 20
239.0434095678
  0
LWPOLYLINE
  5
139
330
1F
100
AcDbEntity
  8
0
  6
Continuous
 62
     7
370
    25
100
AcDbPolyline
 90
       21
 70
   128
 43
0.0
 10
366.6600918315
 20
246.4120123597
 10
366.5371748167
 20
247.1966041868
 10
366.180455746
 20
247.9214433764
 10
365.6248527674
 20
248.5155776182
 10
364.9247521718
 20
248.9208489131
 10
364.1486846831
 20
249.0975864831
 10
363.3726171945
 20
249.0284900234
 10
362.6725165988
 20
248.720323177
 10
362.1169136203
 20
248.2032514618
 10
361.7601945496
 20
247.52788946
 10
361.6372775348
 20
246.7603463099
 10
361.7601945496
 20
245.9757544827
 10
362.1169136203
 20
245.2509152932
 10
362.6725165988
 20
244.6567810514
 10
363.3726171945
 20
244.2515097564
 10
364.1486846831
 20
244.0747721864
 10
364.9247521718
 20
244.1438686461
 10
365.6248527674
 20
244.4520354926
 10
366.180455746
 20
244.9691072078
 10
366.5371748167
 20
245.6444692096
 10
366.6600918315
 20
246.4120123597
  0
LWPOLYLINE
  5
13A
330
1F
100
AcDbEntity
  8
0
  6
Continuous
 62
     7
370
    25
100
AcDbPolyline
 90
       21
 70
   128
 43
0.0
 10
260.4082509397
 20
253.7806151515
 10
260.2853339249
 20
254.5652069787
 10
259.9286148542
 20
255.2900461682
 10
259.3730118756
 20
255.8841804101
 10
258.67291128
 20
256.289451705
 10
257.8968437913
 20
256.466189275
 10
257.1207763027
 20
256.3970928153
 10
256.420675707
 20
256.0889259688
 10
255.8650727285
 20
255.5718542536
 10
255.5083536578
 20
254.8964922518
 10
255.385436643
 20
254.1289491017
 10
255.5083536578
 20
253.3443572746
 10
255.8650727285
 20
252.619518085
 10
256.420675707
 20
252.0253838432
 10
257.1207763027
 20
251.6201125483
 10
257.8968437913
 20
251.4433749783
 10
258.67291128
 20
251.512471438
 10
259.3730118756
 20
251.8206382844
 10
259.9286148542
 20
252.3377099996
 10
260.2853339249
 20
253.0130720014
 10
260.4082509397
 20
253.7806151515
  0
ARC
  5
13B
330
1F
100
AcDbEntity
  8
0
  6
Continuous
 62
     7
370
    25
100
AcDbCircle
 10
552.4461811465
 20
218.7810939965
 30
0.0
 40
0.9474324258088167
100
AcDbArc
 50
265.9674594357
 51
280.86707165
  0
LINE
  5
13C
330
1F
100
AcDbEntity
  8
0
  6
Continuous
 62
     7
370
    25
100
AcDbLine
 10
282.1696554201
 20
236.5751593675
 30
0.0
 11
552.379554838
 21
217.8360071558
 31
0.0
  0
ARC
  5
13D
330
1F
100
AcDbEntity
  8
0
  6
Continuous
 62
     7
370
    25
100
AcDbCircle
 10
282.2397822504
 20
237.5709439387
 30
0.0
 40
0.998250812528663
100
AcDbArc
 50
251.5832630697
 51
265.9716701311
  0
LINE
  5
13E
330
1F
100
AcDbEntity
  8
0
  6
Continuous
 62
     7
370
    25
100
AcDbLine
 10
244.1286354638
 20
249.1663604936
 30
0.0
 11
281.9244086606
 21
236.6238197739
 31
0.0
  0
ARC
  5
13F
330
1F
100
AcDbEntity
  8
0
  6
Continuous
 62
     7
370
    25
100
AcDbCircle
 10
244.4594581224
 20
250.1645622887
 30
0.0
 40
1.051594244600273
100
AcDbArc
 50
180.7600333454
 51
251.6638424667
  0
LINE
  5
140
330
1F
100
AcDbEntity
  8
0
  6
Continuous
 62
     7
370
    25
100
AcDbLine
 10
243.407956397
 20
259.5477392731
 30
0.0
 11
243.407956397
 21
250.1506132115
 31
0.0
  0
ARC
  5
141
330
1F
100
AcDbEntity
  8
0
  6
Continuous
 62
     7
370
    25
100
AcDbCircle
 10
244.2996242271
 20
259.5580476577
 30
0.0
 40
0.8917274146786195
100
AcDbArc
 50
85.2232010276
 51
180.6623549713
  0
LINE
  5
142
330
1F
100
AcDbEntity
  8
0
  6
Continuous
 62
     7
370
    25
100
AcDbLine
 10
590.1753280348
 20
236.4652250787
 30
0.0
 11
244.3738822233
 21
260.4466778013
 31
0.0
  0
ARC
  5
143
330
1F
100
AcDbEntity
  8
0
  6
Continuous
 62
     7
370
    25
100
AcDbCircle
 10
590.0925107824
 20
235.4196807733
 30
0.0
 40
1.048819141642614
100
AcDbArc
 50
0.6900435254
 51
85.4710743676
  0
LINE
  5
144
330
1F
100
AcDbEntity
  8
0
  6
Continuous
 62
     7
370
    25
100
AcDbLine
 10
591.1412538611
 20
226.0351858927
 30
0.0
 11
591.1412538611
 21
235.4323119543
 31
0.0
  0
ARC
  5
145
330
1F
100
AcDbEntity
  8
0
  6
Continuous
 62
     7
370
    25
100
AcDbCircle
 10
590.253598817
 20
226.022788763
 30
0.0
 40
0.8877416099548863
100
AcDbArc
 50
280.8413829494
 51
0.800149827
  0
LINE
  5
146
330
1F
100
AcDbEntity
  8
0
  6
Continuous
 62
     7
370
    25
100
AcDbLine
 10
552.6248015975
 20
217.8506516631
 30
0.0
 11
590.4205747943
 21
225.1508918717
 31
0.0
  0
LINE
  5
147
330
1F
100
AcDbEntity
  8
0
  6
Continuous
 62
     7
370
    25
100
AcDbLine
 10
375.5361618536
 20
247.7766017044
 30
0.0
 11
459.0130484045
 21
241.9874500611
 31
0.0
  0
LINE
  5
148
330
1F
100
AcDbEntity
  8
0
  6
Continuous
 62
     7
370
    25
100
AcDbLine
 10
375.5361618536
 20
247.6800091217
 30
0.0
 11
375.5361618536
 21
247.7766017044
 31
0.0
  0
LINE
  5
149
330
1F
100
AcDbEntity
  8
0
  6
Continuous
 62
     7
370
    25
100
AcDbLine
 10
375.5361618536
 20
247.6800091217
 30
0.0
 11
459.0130484045
 21
241.8908574785
 31
0.0
  0
LINE
  5
14A
330
1F
100
AcDbEntity
  8
0
  6
Continuous
 62
     7
370
    25
100
AcDbLine
 10
459.0130484045
 20
241.9874500611
 30
0.0
 11
459.0130484045
 21
241.8908574785
 31
0.0
  0
LINE
  5
14B
330
1F
100
AcDbEntity
  8
0
  6
Continuous
 62
     7
370
    25
100
AcDbLine
 10
375.5361618536
 20
233.28771431
 30
0.0
 11
459.0130484045
 21
227.4985626668
 31
0.0
  0
LINE
  5
14C
330
1F
100
AcDbEntity
  8
0
  6
Continuous
 62
     7
370
    25
100
AcDbLine
 10
375.5361618536
 20
233.1911217274
 30
0.0
 11
375.5361618536
 21
233.28771431
 31
0.0
  0
LINE
  5
14D
330
1F
100
AcDbEntity
  8
0
  6
Continuous
 62
     7
370
    25
100
AcDbLine
 10
375.5361618536
 20
233.1911217274
 30
0.0
 11
459.0130484045
 21
227.4019700842
 31
0.0
  0
LINE
  5
14E
330
1F
100
AcDbEntity
  8
0
  6
Continuous
 62
     7
370
    25
100
AcDbLine
 10
459.0130484045
 20
227.4985626668
 30
0.0
 11
459.0130484045
 21
227.4019700842
 31
0.0
  0
LINE
  5
14F
330
1F
100
AcDbEntity
  8
0
  6
Continuous
 62
     7
370
    25
100
AcDbLine
 10
375.5361618536
 20
238.1173434415
 30
0.0
 11
459.0130484045
 21
232.3281917982
 31
0.0
  0
LINE
  5
150
330
1F
100
AcDbEntity
  8
0
  6
Continuous
 62
     7
370
    25
100
AcDbLine
 10
375.5361618536
 20
238.0207508588
 30
0.0
 11
375.5361618536
 21
238.1173434415
 31
0.0
  0
LINE
  5
151
330
1F
100
AcDbEntity
  8
0
  6
Continuous
 62
     7
370
    25
100
AcDbLine
 10
375.5361618536
 20
238.0207508588
 30
0.0
 11
459.0130484045
 21
232.2315992156
 31
0.0
  0
LINE
  5
152
330
1F
100
AcDbEntity
  8
0
  6
Continuous
 62
     7
370
    25
100
AcDbLine
 10
459.0130484045
 20
232.3281917982
 30
0.0
 11
459.0130484045
 21
232.2315992156
 31
0.0
  0
LINE
  5
153
330
1F
100
AcDbEntity
  8
0
  6
Continuous
 62
     7
370
    25
100
AcDbLine
 10
375.5361618536
 20
242.9469725729
 30
0.0
 11
459.0130484045
 21
237.1578209297
 31
0.0
  0
LINE
  5
154
330
1F
100
AcDbEntity
  8
0
  6
Continuous
 62
     7
370
    25
100
AcDbLine
 10
375.5361618536
 20
242.8503799903
 30
0.0
 11
375.5361618536
 21
242.9469725729
 31
0.0
  0
LINE
  5
155
330
1F
100
AcDbEntity
  8
0
  6
Continuous
 62
     7
370
    25
100
AcDbLine
 10
375.5361618536
 20
242.8503799903
 30
0.0
 11
459.0130484045
 21
237.061228347
 31
0.0
  0
LINE
  5
156
330
1F
100
AcDbEntity
  8
0
  6
Continuous
 62
     7
370
    25
100
AcDbLine
 10
459.0130484045
 20
237.1578209297
 30
0.0
 11
459.0130484045
 21
237.061228347
 31
0.0
  0
LINE
  5
157
330
1F
100
AcDbEntity
  8
0
  6
Continuous
 62
     7
370
    25
100
AcDbLine
 10
590.1753280348
 20
236.4652250787
 30
0.0
 11
590.9517851701
 21
237.2152250787
 31
0.0
  0
ARC
  5
158
330
1F
100
AcDbEntity
  8
0
  6
Continuous
 62
     7
370
    25
100
AcDbCircle
 10
590.8689679177
 20
236.1696807733
 30
0.0
 40
1.048819141642844
100
AcDbArc
 50
0.6900435254
 51
85.4710743675
  0
LINE
  5
159
330
1F
100
AcDbEntity
  8
0
  6
Continuous
 62
     7
370
    25
100
AcDbLine
 10
591.9177109964
 20
236.1823119543
 30
0.0
 11
591.1412538611
 21
235.4323119543
 31
0.0
  0
LINE
  5
15A
330
1F
100
AcDbEntity
  8
0
  6
Continuous
 62
     7
370
    25
100
AcDbLine
 10
245.1503393586
 20
261.1966778013
 30
0.0
 11
244.3738822233
 21
260.4466778013
 31
0.0
  0
LINE
  5
15B
330
1F
100
AcDbEntity
  8
0
  6
Continuous
 62
     7
370
    25
100
AcDbLine
 10
590.9517851701
 20
237.2152250787
 30
0.0
 11
245.1503393586
 21
261.1966778013
 31
0.0
  0
LINE
  5
15C
330
1F
100
AcDbEntity
  8
0
  6
Continuous
 62
     7
370
    25
100
AcDbLine
 10
591.9177109964
 20
226.7851858927
 30
0.0
 11
591.9177109964
 21
236.1823119543
 31
0.0
  0
LINE
  5
15D
330
1F
100
AcDbEntity
  8
0
  6
Continuous
 62
     7
370
    25
100
AcDbLine
 10
591.1412538611
 20
226.0351858927
 30
0.0
 11
591.9177109964
 21
226.7851858927
 31
0.0
  0
ARC
  5
15E
330
1F
100
AcDbEntity
  8
0
  6
Continuous
 62
     7
370
    25
100
AcDbCircle
 10
591.0178297887
 20
226.7768054247
 30
0.0
 40
0.8999202298718085
100
AcDbArc
 50
314.3163643902
 51
0.5335721674
  0
ARC
  5
15F
330
1F
100
AcDbEntity
  8
0
  6
Continuous
 62
     7
370
    25
100
AcDbCircle
 10
577.5616956281
 20
232.7273182726
 30
0.0
 40
2.636326578031755
100
AcDbArc
 50
149.9579897258
 51
298.0560646655
  0
ARC
  5
160
330
1F
100
AcDbEntity
  8
0
  6
Continuous
 62
     7
370
    25
100
AcDbCircle
 10
471.3098547363
 20
240.0959210645
 30
0.0
 40
2.636326578036936
100
AcDbArc
 50
149.9579897279
 51
298.0560646634
  0
LINE
  5
161
330
1F
100
AcDbEntity
  8
0
  6
Continuous
 62
     7
370
    25
100
AcDbLine
 10
375.5620437581
 20
247.7050091217
 30
0.0
 11
375.5361618536
 21
247.6800091217
 31
0.0
  0
LINE
  5
162
330
1F
100
AcDbEntity
  8
0
  6
Continuous
 62
     7
370
    25
100
AcDbLine
 10
375.5620437581
 20
247.7050091217
 30
0.0
 11
459.0130484045
 21
241.9176523977
 31
0.0
  0
LINE
  5
163
330
1F
100
AcDbEntity
  8
0
  6
Continuous
 62
     7
370
    25
100
AcDbLine
 10
375.5620437581
 20
247.7050091217
 30
0.0
 11
375.5620437581
 21
247.7748067851
 31
0.0
  0
LINE
  5
164
330
1F
100
AcDbEntity
  8
0
  6
Continuous
 62
     7
370
    25
100
AcDbLine
 10
375.5620437581
 20
242.8753799903
 30
0.0
 11
375.5361618536
 21
242.8503799903
 31
0.0
  0
LINE
  5
165
330
1F
100
AcDbEntity
  8
0
  6
Continuous
 62
     7
370
    25
100
AcDbLine
 10
375.5620437581
 20
242.8753799903
 30
0.0
 11
459.0130484045
 21
237.0880232663
 31
0.0
  0
LINE
  5
166
330
1F
100
AcDbEntity
  8
0
  6
Continuous
 62
     7
370
    25
100
AcDbLine
 10
375.5620437581
 20
242.8753799903
 30
0.0
 11
375.5620437581
 21
242.9451776537
 31
0.0
  0
LINE
  5
167
330
1F
100
AcDbEntity
  8
0
  6
Continuous
 62
     7
370
    25
100
AcDbLine
 10
375.5620437581
 20
238.0457508588
 30
0.0
 11
375.5361618536
 21
238.0207508588
 31
0.0
  0
LINE
  5
168
330
1F
100
AcDbEntity
  8
0
  6
Continuous
 62
     7
370
    25
100
AcDbLine
 10
375.5620437581
 20
238.0457508588
 30
0.0
 11
459.0130484045
 21
232.2583941348
 31
0.0
  0
LINE
  5
169
330
1F
100
AcDbEntity
  8
0
  6
Continuous
 62
     7
370
    25
100
AcDbLine
 10
375.5620437581
 20
238.0457508588
 30
0.0
 11
375.5620437581
 21
238.1155485222
 31
0.0
  0
LINE
  5
16A
330
1F
100
AcDbEntity
  8
0
  6
Continuous
 62
     7
370
    25
100
AcDbLine
 10
375.5620437581
 20
233.2161217274
 30
0.0
 11
375.5361618536
 21
233.1911217274
 31
0.0
  0
LINE
  5
16B
330
1F
100
AcDbEntity
  8
0
  6
Continuous
 62
     7
370
    25
100
AcDbLine
 10
375.5620437581
 20
233.2161217274
 30
0.0
 11
459.0130484045
 21
227.4287650034
 31
0.0
  0
LINE
  5
16C
330
1F
100
AcDbEntity
  8
0
  6
Continuous
 62
     7
370
    25
100
AcDbLine
 10
375.5620437581
 20
233.2161217274
 30
0.0
 11
375.5620437581
 21
233.2859193908
 31
0.0
  0
ARC
  5
16D
330
1F
100
AcDbEntity
  8
0
  6
Continuous
 62
     7
370
    25
100
AcDbCircle
 10
365.0580138445
 20
247.4645238563
 30
0.0
 40
2.63632657803777
100
AcDbArc
 50
149.9579897282
 51
298.0560646631
  0
ARC
  5
16E
330
1F
100
AcDbEntity
  8
0
  6
Continuous
 62
     7
370
    25
100
AcDbCircle
 10
258.8061729527
 20
254.8331266482
 30
0.0
 40
2.63632657804553
100
AcDbArc
 50
149.9579897313
 51
298.0560646601
  0
ARC
  5
16F
330
1F
100
AcDbEntity
  8
0
  6
Continuous
 62
     7
370
    25
100
AcDbCircle
 10
245.0786780574
 20
260.2968026273
 30
0.0
 40
0.9027240280911232
100
AcDbArc
 50
85.4468756531
 51
133.6481500146
  0
INSERT
  5
175
330
1F
100
AcDbEntity
  8
0
  6
Continuous
 62
     7
370
     0
100
AcDbBlockReference
  2
SW_NOTE_0
 10
450.4720624486
 20
273.4560388713
 30
0.0
  0
LEADER
  5
177
330
1F
100
AcDbEntity
  8
0
  6
Continuous
 62
     7
370
     0
100
AcDbLeader
  3
SLDDIMSTYLE0
 76
     2
 10
414.6252849445
 20
240.2361280443
 30
0.0
 10
450.4720624486
 20
273.4560388713
 30
0.0
  0
CIRCLE
  5
178
330
1F
100
AcDbEntity
  8
0
  6
Continuous
 62
     7
370
    25
100
AcDbCircle
 10
608.4034257749
 20
361.060766721
 30
0.0
 40
2.600000000000023
  0
CIRCLE
  5
179
330
1F
100
AcDbEntity
  8
0
  6
Continuous
 62
     7
370
    25
100
AcDbCircle
 10
498.4034257749
 20
361.060766721
 30
0.0
 40
2.600000000000023
  0
CIRCLE
  5
17A
330
1F
100
AcDbEntity
  8
0
  6
Continuous
 62
     7
370
    25
100
AcDbCircle
 10
388.4034257749
 20
361.060766721
 30
0.0
 40
2.599999999999966
  0
CIRCLE
  5
17B
330
1F
100
AcDbEntity
  8
0
  6
Continuous
 62
     7
370
    25
100
AcDbCircle
 10
278.4034257749
 20
361.060766721
 30
0.0
 40
2.600000000000023
  0
ARC
  5
17C
330
1F
100
AcDbEntity
  8
0
  6
Continuous
 62
     7
370
    25
100
AcDbCircle
 10
583.2743620641
 20
345.810766721
 30
0.0
 40
1.000000000000057
100
AcDbArc
 50
270.0
 51
284.7083038997
  0
LINE
  5
17D
330
1F
100
AcDbEntity
  8
0
  6
Continuous
 62
     7
370
    25
100
AcDbLine
 10
303.5324894857
 20
344.810766721
 30
0.0
 11
583.2743620641
 21
344.810766721
 31
0.0
  0
ARC
  5
17E
330
1F
100
AcDbEntity
  8
0
  6
Continuous
 62
     7
370
    25
100
AcDbCircle
 10
303.5324894857
 20
345.810766721
 30
0.0
 40
1.0
100
AcDbArc
 50
255.2916961003
 51
270.0
  0
LINE
  5
17F
330
1F
100
AcDbEntity
  8
0
  6
Continuous
 62
     7
370
    25
100
AcDbLine
 10
264.1495276465
 20
355.1149149798
 30
0.0
 11
303.2785913573
 21
344.8435357557
 31
0.0
  0
ARC
  5
180
330
1F
100
AcDbEntity
  8
0
  6
Continuous
 62
     7
370
    25
100
AcDbCircle
 10
264.4034257749
 20
356.0821459451
 30
0.0
 40
0.9999999999999845
100
AcDbArc
 50
180.0
 51
255.2916961003
  0
LINE
  5
181
330
1F
100
AcDbEntity
  8
0
  6
Continuous
 62
     7
370
    25
100
AcDbLine
 10
263.4034257749
 20
365.810766721
 30
0.0
 11
263.4034257749
 21
356.0821459451
 31
0.0
  0
ARC
  5
182
330
1F
100
AcDbEntity
  8
0
  6
Continuous
 62
     7
370
    25
100
AcDbCircle
 10
264.4034257749
 20
365.810766721
 30
0.0
 40
0.9999999999999432
100
AcDbArc
 50
90.0
 51
180.0
  0
LINE
  5
183
330
1F
100
AcDbEntity
  8
0
  6
Continuous
 62
     7
370
    25
100
AcDbLine
 10
622.4034257749
 20
366.810766721
 30
0.0
 11
264.4034257749
 21
366.810766721
 31
0.0
  0
ARC
  5
184
330
1F
100
AcDbEntity
  8
0
  6
Continuous
 62
     7
370
    25
100
AcDbCircle
 10
622.4034257749
 20
365.810766721
 30
0.0
 40
1.0
100
AcDbArc
 50
0.0
 51
90.0
  0
LINE
  5
185
330
1F
100
AcDbEntity
  8
0
  6
Continuous
 62
     7
370
    25
100
AcDbLine
 10
623.4034257749
 20
356.0821459451
 30
0.0
 11
623.4034257749
 21
365.810766721
 31
0.0
  0
ARC
  5
186
330
1F
100
AcDbEntity
  8
0
  6
Continuous
 62
     7
370
    25
100
AcDbCircle
 10
622.4034257749
 20
356.0821459451
 30
0.0
 40
1.000000000000068
100
AcDbArc
 50
284.7083038997
 51
0.0
  0
LINE
  5
187
330
1F
100
AcDbEntity
  8
0
  6
Continuous
 62
     7
370
    25
100
AcDbLine
 10
583.5282601925
 20
344.8435357557
 30
0.0
 11
622.6573239033
 21
355.1149149798
 31
0.0
  0
LINE
  5
188
330
1F
100
AcDbEntity
  8
0
  6
Continuous
 62
     7
370
    25
100
AcDbLine
 10
400.1926096444
 20
363.110766721
 30
0.0
 11
486.6142419054
 21
363.110766721
 31
0.0
  0
LINE
  5
189
330
1F
100
AcDbEntity
  8
0
  6
Continuous
 62
     7
370
    25
100
AcDbLine
 10
400.1926096444
 20
363.010766721
 30
0.0
 11
400.1926096444
 21
363.110766721
 31
0.0
  0
LINE
  5
18A
330
1F
100
AcDbEntity
  8
0
  6
Continuous
 62
     7
370
    25
100
AcDbLine
 10
400.1926096444
 20
363.010766721
 30
0.0
 11
486.6142419054
 21
363.010766721
 31
0.0
  0
LINE
  5
18B
330
1F
100
AcDbEntity
  8
0
  6
Continuous
 62
     7
370
    25
100
AcDbLine
 10
486.6142419054
 20
363.110766721
 30
0.0
 11
486.6142419054
 21
363.010766721
 31
0.0
  0
LINE
  5
18C
330
1F
100
AcDbEntity
  8
0
  6
Continuous
 62
     7
370
    25
100
AcDbLine
 10
400.1926096444
 20
348.110766721
 30
0.0
 11
486.6142419054
 21
348.110766721
 31
0.0
  0
LINE
  5
18D
330
1F
100
AcDbEntity
  8
0
  6
Continuous
 62
     7
370
    25
100
AcDbLine
 10
400.1926096444
 20
348.010766721
 30
0.0
 11
400.1926096444
 21
348.110766721
 31
0.0
  0
LINE
  5
18E
330
1F
100
AcDbEntity
  8
0
  6
Continuous
 62
     7
370
    25
100
AcDbLine
 10
400.1926096444
 20
348.010766721
 30
0.0
 11
486.6142419054
 21
348.010766721
 31
0.0
  0
LINE
  5
18F
330
1F
100
AcDbEntity
  8
0
  6
Continuous
 62
     7
370
    25
100
AcDbLine
 10
486.6142419054
 20
348.110766721
 30
0.0
 11
486.6142419054
 21
348.010766721
 31
0.0
  0
LINE
  5
190
330
1F
100
AcDbEntity
  8
0
  6
Continuous
 62
     7
370
    25
100
AcDbLine
 10
400.1926096444
 20
353.110766721
 30
0.0
 11
486.6142419054
 21
353.110766721
 31
0.0
  0
LINE
  5
191
330
1F
100
AcDbEntity
  8
0
  6
Continuous
 62
     7
370
    25
100
AcDbLine
 10
400.1926096444
 20
353.010766721
 30
0.0
 11
400.1926096444
 21
353.110766721
 31
0.0
  0
LINE
  5
192
330
1F
100
AcDbEntity
  8
0
  6
Continuous
 62
     7
370
    25
100
AcDbLine
 10
400.1926096444
 20
353.010766721
 30
0.0
 11
486.6142419054
 21
353.010766721
 31
0.0
  0
LINE
  5
193
330
1F
100
AcDbEntity
  8
0
  6
Continuous
 62
     7
370
    25
100
AcDbLine
 10
486.6142419054
 20
353.110766721
 30
0.0
 11
486.6142419054
 21
353.010766721
 31
0.0
  0
LINE
  5
194
330
1F
100
AcDbEntity
  8
0
  6
Continuous
 62
     7
370
    25
100
AcDbLine
 10
400.1926096444
 20
358.110766721
 30
0.0
 11
486.6142419054
 21
358.110766721
 31
0.0
  0
LINE
  5
195
330
1F
100
AcDbEntity
  8
0
  6
Continuous
 62
     7
370
    25
100
AcDbLine
 10
400.1926096444
 20
358.010766721
 30
0.0
 11
400.1926096444
 21
358.110766721
 31
0.0
  0
LINE
  5
196
330
1F
100
AcDbEntity
  8
0
  6
Continuous
 62
     7
370
    25
100
AcDbLine
 10
400.1926096444
 20
358.010766721
 30
0.0
 11
486.6142419054
 21
358.010766721
 31
0.0
  0
LINE
  5
197
330
1F
100
AcDbEntity
  8
0
  6
Continuous
 62
     7
370
    25
100
AcDbLine
 10
486.6142419054
 20
358.110766721
 30
0.0
 11
486.6142419054
 21
358.010766721
 31
0.0
  0
DIMENSION
  5
198
330
1F
100
AcDbEntity
  8
0
  6
Continuous
 62
     7
370
    18
100
AcDbDimension
  2
_D
 10
671.4034257749
 20
344.810766721
 30
0.0
 11
671.4034257749
 21
355.810766721
 31
0.0
 70
   160
  1
<>
 71
     2
 42
-1.0
  3
SLDDIMSTYLE1
100
AcDbAlignedDimension
 13
622.4034257749
 23
366.810766721
 33
0.0
 14
583.2743620641
 24
344.810766721
 34
0.0
 50
90.0
100
AcDbRotatedDimension
  0
DIMENSION
  5
1A5
330
1F
100
AcDbEntity
  8
0
  6
Continuous
 62
     7
370
    18
100
AcDbDimension
  2
_D_1
 10
658.4034257749
 20
366.810766721
 30
0.0
 11
658.4034257749
 21
396.929612342
 31
0.0
 70
   160
  1
<>
 71
     2
 42
-1.0
  3
SLDDIMSTYLE1
100
AcDbAlignedDimension
 13
608.4034257749
 23
361.060766721
 33
0.0
 14
622.4034257749
 24
366.810766721
 34
0.0
 50
90.0
100
AcDbRotatedDimension
  0
DIMENSION
  5
1B1
330
1F
100
AcDbEntity
  8
0
  6
Continuous
 62
     7
370
    18
100
AcDbDimension
  2
_D_2
 10
388.4034257749
 20
396.810766721
 30
0.0
 11
333.4034257749
 21
396.810766721
 31
0.0
 70
   160
  1
<>
 71
     2
 42
-1.0
  3
SLDDIMSTYLE2
100
AcDbAlignedDimension
 13
278.4034257749
 23
361.060766721
 33
0.0
 14
388.4034257749
 24
361.060766721
 34
0.0
 50
0.0
100
AcDbRotatedDimension
  0
DIMENSION
  5
1BC
330
1F
100
AcDbEntity
  8
0
  6
Continuous
 62
     7
370
    18
100
AcDbDimension
  2
_D_3
 10
498.4034257749
 20
396.810766721
 30
0.0
 11
443.4034257749
 21
396.810766721
 31
0.0
 70
   160
  1
<>
 71
     2
 42
-1.0
  3
SLDDIMSTYLE2
100
AcDbAlignedDimension
 13
388.4034257749
 23
361.060766721
 33
0.0
 14
498.4034257749
 24
361.060766721
 34
0.0
 50
0.0
100
AcDbRotatedDimension
  0
DIMENSION
  5
1C6
330
1F
100
AcDbEntity
  8
0
  6
Continuous
 62
     7
370
    18
100
AcDbDimension
  2
_D_4
 10
608.4034257749
 20
396.810766721
 30
0.0
 11
553.4034257749
 21
396.810766721
 31
0.0
 70
   160
  1
<>
 71
     2
 42
-1.0
  3
SLDDIMSTYLE2
100
AcDbAlignedDimension
 13
498.4034257749
 23
361.060766721
 33
0.0
 14
608.4034257749
 24
361.060766721
 34
0.0
100
AcDbRotatedDimension
  0
DIMENSION
  5
1D0
330
1F
100
AcDbEntity
  8
0
  6
Continuous
 62
     7
370
    18
100
AcDbDimension
  2
_D_5
 10
608.4034257749
 20
396.810766721
 30
0.0
 11
615.9034257749
 21
396.810766721
 31
0.0
 70
   160
  1
<>
 71
     2
 42
-1.0
  3
SLDDIMSTYLE1
100
AcDbAlignedDimension
 13
623.4034257749
 23
365.810766721
 33
0.0
 14
608.4034257749
 24
361.060766721
 34
0.0
100
AcDbRotatedDimension
  0
DIMENSION
  5
1DC
330
1F
100
AcDbEntity
  8
0
  6
Continuous
 62
     7
370
    18
100
AcDbDimension
  2
_D_6
 10
263.4034257749
 20
396.810766721
 30
0.0
 11
270.9034257749
 21
396.810766721
 31
0.0
 70
   160
  1
<>
 71
     2
 42
-1.0
  3
SLDDIMSTYLE1
100
AcDbAlignedDimension
 13
278.4034257749
 23
361.060766721
 33
0.0
 14
263.4034257749
 24
365.810766721
 34
0.0
100
AcDbRotatedDimension
  0
DIMENSION
  5
1E8
330
1F
100
AcDbEntity
  8
0
  6
Continuous
 62
     7
370
    18
100
AcDbDimension
  2
_D_7
 10
623.4034257749
 20
414.8107667211
 30
0.0
 11
443.4034257749
 21
414.8107667211
 31
0.0
 70
   160
  1
<>
 71
     2
 42
-1.0
  3
SLDDIMSTYLE2
100
AcDbAlignedDimension
 13
263.4034257749
 23
365.810766721
 33
0.0
 14
623.4034257749
 24
365.810766721
 34
0.0
100
AcDbRotatedDimension
  0
MTEXT
  5
1F2
330
1F
100
AcDbEntity
  8
0
  6
Continuous
 62
     7
370
     0
100
AcDbMText
 10
285.8987576555
 20
368.1577083881
 30
0.0
 40
9.0
 41
0.0
 71
     1
 72
     1
  1
A
  7
SLDTEXTSTYLE0
 73
     1
 44
1.0
  0
MTEXT
  5
1F3
330
1F
100
AcDbEntity
  8
0
  6
Continuous
 62
     7
370
     0
100
AcDbMText
 10
395.8987576555
 20
368.1577083881
 30
0.0
 40
9.0
 41
0.0
 71
     1
 72
     1
  1
A
  7
SLDTEXTSTYLE0
 73
     1
 44
1.0
  0
MTEXT
  5
1F4
330
1F
100
AcDbEntity
  8
0
  6
Continuous
 62
     7
370
     0
100
AcDbMText
 10
505.8987576555
 20
368.1577083881
 30
0.0
 40
9.0
 41
0.0
 71
     1
 72
     1
  1
A
  7
SLDTEXTSTYLE0
 73
     1
 44
1.0
  0
MTEXT
  5
1F5
330
1F
100
AcDbEntity
  8
0
  6
Continuous
 62
     7
370
     0
100
AcDbMText
 10
615.8987576555
 20
368.1577083881
 30
0.0
 40
9.0
 41
0.0
 71
     1
 72
     1
  1
A
  7
SLDTEXTSTYLE0
 73
     1
 44
1.0
  0
LINE
  5
1F6
330
1F
100
AcDbEntity
  8
0
  6
Continuous
 62
     7
370
    25
100
AcDbLine
 10
303.5324894857
 20
479.5086460033
 30
0.0
 11
303.5324894857
 21
476.5086460033
 31
0.0
  0
LINE
  5
1F7
330
1F
100
AcDbEntity
  8
0
  6
Continuous
 62
     7
370
    25
100
AcDbLine
 10
303.5324894857
 20
479.5086460033
 30
0.0
 11
583.2743620641
 21
479.5086460033
 31
0.0
  0
LINE
  5
1F8
330
1F
100
AcDbEntity
  8
0
  6
Continuous
 62
     7
370
    25
100
AcDbLine
 10
583.2743620641
 20
476.5086460033
 30
0.0
 11
583.2743620641
 21
479.5086460033
 31
0.0
  0
LINE
  5
1F9
330
1F
100
AcDbEntity
  8
0
  6
Continuous
 62
     7
370
    25
100
AcDbLine
 10
303.5324894857
 20
476.5086460033
 30
0.0
 11
583.2743620641
 21
476.5086460033
 31
0.0
  0
LINE
  5
1FA
330
1F
100
AcDbEntity
  8
0
  6
Continuous
 62
     7
370
    25
100
AcDbLine
 10
303.2785913573
 20
476.5086460033
 30
0.0
 11
303.2785913573
 21
479.5086460033
 31
0.0
  0
LINE
  5
1FB
330
1F
100
AcDbEntity
  8
0
  6
Continuous
 62
     7
370
    25
100
AcDbLine
 10
303.2785913573
 20
479.5086460033
 30
0.0
 11
303.5324894857
 21
479.5086460033
 31
0.0
  0
LINE
  5
1FC
330
1F
100
AcDbEntity
  8
0
  6
Continuous
 62
     7
370
    25
100
AcDbLine
 10
303.5324894857
 20
476.5086460033
 30
0.0
 11
303.2785913573
 21
476.5086460033
 31
0.0
  0
LINE
  5
1FD
330
1F
100
AcDbEntity
  8
0
  6
Continuous
 62
     7
370
    25
100
AcDbLine
 10
583.5282601925
 20
479.5086460033
 30
0.0
 11
583.5282601925
 21
476.5086460033
 31
0.0
  0
LINE
  5
1FE
330
1F
100
AcDbEntity
  8
0
  6
Continuous
 62
     7
370
    25
100
AcDbLine
 10
583.2743620641
 20
479.5086460033
 30
0.0
 11
583.5282601925
 21
479.5086460033
 31
0.0
  0
LINE
  5
1FF
330
1F
100
AcDbEntity
  8
0
  6
Continuous
 62
     7
370
    25
100
AcDbLine
 10
583.5282601925
 20
476.5086460033
 30
0.0
 11
583.2743620641
 21
476.5086460033
 31
0.0
  0
LINE
  5
200
330
1F
100
AcDbEntity
  8
0
  6
Continuous
 62
     7
370
    25
100
AcDbLine
 10
264.1495276465
 20
479.5086460033
 30
0.0
 11
264.1495276465
 21
476.5086460033
 31
0.0
  0
LINE
  5
201
330
1F
100
AcDbEntity
  8
0
  6
Continuous
 62
     7
370
    25
100
AcDbLine
 10
264.1495276465
 20
479.5086460033
 30
0.0
 11
303.2785913573
 21
479.5086460033
 31
0.0
  0
LINE
  5
202
330
1F
100
AcDbEntity
  8
0
  6
Continuous
 62
     7
370
    25
100
AcDbLine
 10
264.1495276465
 20
476.5086460033
 30
0.0
 11
303.2785913573
 21
476.5086460033
 31
0.0
  0
LINE
  5
203
330
1F
100
AcDbEntity
  8
0
  6
Continuous
 62
     7
370
    25
100
AcDbLine
 10
622.6573239033
 20
476.5086460033
 30
0.0
 11
622.6573239033
 21
479.5086460033
 31
0.0
  0
LINE
  5
204
330
1F
100
AcDbEntity
  8
0
  6
Continuous
 62
     7
370
    25
100
AcDbLine
 10
583.5282601925
 20
479.5086460033
 30
0.0
 11
622.6573239033
 21
479.5086460033
 31
0.0
  0
LINE
  5
205
330
1F
100
AcDbEntity
  8
0
  6
Continuous
 62
     7
370
    25
100
AcDbLine
 10
583.5282601925
 20
476.5086460033
 30
0.0
 11
622.6573239033
 21
476.5086460033
 31
0.0
  0
LINE
  5
206
330
1F
100
AcDbEntity
  8
0
  6
Continuous
 62
     7
370
    25
100
AcDbLine
 10
263.4034257749
 20
476.5086460033
 30
0.0
 11
263.4034257749
 21
479.5086460033
 31
0.0
  0
LINE
  5
207
330
1F
100
AcDbEntity
  8
0
  6
Continuous
 62
     7
370
    25
100
AcDbLine
 10
263.4034257749
 20
479.5086460033
 30
0.0
 11
264.1495276465
 21
479.5086460033
 31
0.0
  0
LINE
  5
208
330
1F
100
AcDbEntity
  8
0
  6
Continuous
 62
     7
370
    25
100
AcDbLine
 10
264.1495276465
 20
476.5086460033
 30
0.0
 11
263.4034257749
 21
476.5086460033
 31
0.0
  0
LINE
  5
209
330
1F
100
AcDbEntity
  8
0
  6
Continuous
 62
     7
370
    25
100
AcDbLine
 10
623.4034257749
 20
479.5086460033
 30
0.0
 11
623.4034257749
 21
476.5086460033
 31
0.0
  0
LINE
  5
20A
330
1F
100
AcDbEntity
  8
0
  6
Continuous
 62
     7
370
    25
100
AcDbLine
 10
622.6573239033
 20
479.5086460033
 30
0.0
 11
623.4034257749
 21
479.5086460033
 31
0.0
  0
LINE
  5
20B
330
1F
100
AcDbEntity
  8
0
  6
Continuous
 62
     7
370
    25
100
AcDbLine
 10
623.4034257749
 20
476.5086460033
 30
0.0
 11
622.6573239033
 21
476.5086460033
 31
0.0
  0
LINE
  5
20C
330
1F
100
AcDbEntity
  8
0
  6
HIDDEN
 62
     7
370
    18
100
AcDbLine
 10
400.1926096444
 20
479.4086460033
 30
0.0
 11
486.6142419054
 21
479.4086460033
 31
0.0
  0
LINE
  5
20D
330
1F
100
AcDbEntity
  8
0
  6
HIDDEN
 62
     7
370
    18
100
AcDbLine
 10
400.1926096444
 20
479.4086460033
 30
0.0
 11
400.1926096444
 21
479.5086460033
 31
0.0
  0
LINE
  5
20E
330
1F
100
AcDbEntity
  8
0
  6
HIDDEN
 62
     7
370
    18
100
AcDbLine
 10
486.6142419054
 20
479.4086460033
 30
0.0
 11
486.6142419054
 21
479.5086460033
 31
0.0
  0
LINE
  5
20F
330
1F
100
AcDbEntity
  8
0
  6
HIDDEN
 62
     7
370
    18
100
AcDbLine
 10
264.4034257749
 20
476.5086460033
 30
0.0
 11
264.4034257749
 21
479.5086460033
 31
0.0
  0
LINE
  5
210
330
1F
100
AcDbEntity
  8
0
  6
HIDDEN
 62
     7
370
    18
100
AcDbLine
 10
622.4034257749
 20
479.5086460033
 30
0.0
 11
622.4034257749
 21
476.5086460033
 31
0.0
  0
LINE
  5
211
330
1F
100
AcDbEntity
  8
0
  6
HIDDEN
 62
     7
370
    18
100
AcDbLine
 10
281.0034257749
 20
476.5086460033
 30
0.0
 11
281.0034257749
 21
479.5086460033
 31
0.0
  0
LINE
  5
212
330
1F
100
AcDbEntity
  8
0
  6
HIDDEN
 62
     7
370
    18
100
AcDbLine
 10
275.8034257749
 20
479.5086460033
 30
0.0
 11
275.8034257749
 21
476.5086460033
 31
0.0
  0
LINE
  5
213
330
1F
100
AcDbEntity
  8
0
  6
HIDDEN
 62
     7
370
    18
100
AcDbLine
 10
611.0034257749
 20
476.5086460033
 30
0.0
 11
611.0034257749
 21
479.5086460033
 31
0.0
  0
LINE
  5
214
330
1F
100
AcDbEntity
  8
0
  6
HIDDEN
 62
     7
370
    18
100
AcDbLine
 10
605.8034257749
 20
479.5086460033
 30
0.0
 11
605.8034257749
 21
476.5086460033
 31
0.0
  0
LINE
  5
215
330
1F
100
AcDbEntity
  8
0
  6
HIDDEN
 62
     7
370
    18
100
AcDbLine
 10
391.0034257749
 20
476.5086460033
 30
0.0
 11
391.0034257749
 21
479.5086460033
 31
0.0
  0
LINE
  5
216
330
1F
100
AcDbEntity
  8
0
  6
HIDDEN
 62
     7
370
    18
100
AcDbLine
 10
385.8034257749
 20
479.5086460033
 30
0.0
 11
385.8034257749
 21
476.5086460033
 31
0.0
  0
LINE
  5
217
330
1F
100
AcDbEntity
  8
0
  6
HIDDEN
 62
     7
370
    18
100
AcDbLine
 10
501.0034257749
 20
476.5086460033
 30
0.0
 11
501.0034257749
 21
479.5086460033
 31
0.0
  0
LINE
  5
218
330
1F
100
AcDbEntity
  8
0
  6
HIDDEN
 62
     7
370
    18
100
AcDbLine
 10
495.8034257749
 20
479.5086460033
 30
0.0
 11
495.8034257749
 21
476.5086460033
 31
0.0
  0
DIMENSION
  5
219
330
1F
100
AcDbEntity
  8
0
  6
Continuous
 62
     7
370
    18
100
AcDbDimension
  2
_D_8
 10
653.4034257749
 20
479.5086460033
 30
0.0
 11
653.4034257749
 21
454.1481332644
 31
0.0
 70
   160
  1
<>
 71
     2
 42
-1.0
  3
SLDDIMSTYLE1
100
AcDbAlignedDimension
 13
623.4034257749
 23
476.5086460033
 33
0.0
 14
623.4034257749
 24
479.5086460033
 34
0.0
 50
90.0
100
AcDbRotatedDimension
  0
ENDSEC
  0
SECTION
  2
OBJECTS
  0
DICTIONARY
  5
C
330
0
100
AcDbDictionary
281
     1
  3
ACAD_GROUP
350
D
  3
ACAD_LAYOUT
350
1A
  3
ACAD_MLINESTYLE
350
17
  3
ACAD_PLOTSETTINGS
350
19
  3
ACAD_PLOTSTYLENAME
350
E
  3
ACAD_SCALELIST
350
47
  3
DWGPROPS
350
225
  0
DICTIONARY
  5
D
102
{ACAD_REACTORS
330
C
102
}
330
C
100
AcDbDictionary
281
     1
  0
DICTIONARY
  5
1A
102
{ACAD_REACTORS
330
C
102
}
330
C
100
AcDbDictionary
281
     1
  3
Layout1
350
1E
  3
Layout2
350
26
  3
Model
350
22
  0
DICTIONARY
  5
17
102
{ACAD_REACTORS
330
C
102
}
330
C
100
AcDbDictionary
281
     1
  3
Standard
350
18
  0
DICTIONARY
  5
19
102
{ACAD_REACTORS
330
C
102
}
330
C
100
AcDbDictionary
281
     1
  0
ACDBDICTIONARYWDFLT
  5
E
102
{ACAD_REACTORS
330
C
102
}
330
C
100
AcDbDictionary
281
     1
  3
Normal
350
F
100
AcDbDictionaryWithDefault
340
F
  0
DICTIONARY
  5
47
102
{ACAD_REACTORS
330
C
102
}
330
C
100
AcDbDictionary
281
     1
  3
A0
350
48
  3
A1
350
49
  3
A2
350
4A
  3
A3
350
4B
  3
A4
350
4C
  3
A5
350
4D
  3
A6
350
4E
  3
A7
350
4F
  3
A8
350
50
  3
A9
350
51
  3
B0
350
52
  3
B1
350
53
  3
B2
350
54
  3
B3
350
55
  3
B4
350
56
  3
B5
350
57
  3
B6
350
58
  0
XRECORD
  5
225
102
{ACAD_REACTORS
330
C
102
}
330
C
100
AcDbXrecord
280
     1
  1
DWGPROPS COOKIE
  2

  3

  4

  6

  7

  8
Fabrizio Fiorese
  9

300
=
301
=
302
=
303
=
304
=
305
=
306
=
307
=
308
=
309
=
 40
0.0
 41
2460110.320768334
 42
2460110.320771412
  1

 90
        0
  0
LAYOUT
  5
1E
102
{ACAD_REACTORS
330
1A
102
}
330
1A
100
AcDbPlotSettings
  1

  2
none_device
  4

  6

 40
0.0
 41
0.0
 42
0.0
 43
0.0
 44
0.0
 45
0.0
 46
0.0
 47
0.0
 48
0.0
 49
0.0
140
0.0
141
0.0
142
1.0
143
1.0
 70
   688
 72
     1
 73
     0
 74
     5
  7

 75
    16
147
1.0
148
0.0
149
0.0
100
AcDbLayout
  1
Layout1
 70
     1
 71
     1
 10
0.0
 20
0.0
 11
420.0
 21
297.0
 12
0.0
 22
0.0
 32
0.0
 14
1.0000000000E+20
 24
1.0000000000E+20
 34
1.0000000000E+20
 15
-1.0000000000E+20
 25
-1.0000000000E+20
 35
-1.0000000000E+20
146
0.0
 13
0.0
 23
0.0
 33
0.0
 16
1.0
 26
0.0
 36
0.0
 17
0.0
 27
1.0
 37
0.0
 76
     0
330
1B
  0
LAYOUT
  5
26
102
{ACAD_REACTORS
330
1A
102
}
330
1A
100
AcDbPlotSettings
  1

  2
none_device
  4

  6

 40
0.0
 41
0.0
 42
0.0
 43
0.0
 44
0.0
 45
0.0
 46
0.0
 47
0.0
 48
0.0
 49
0.0
140
0.0
141
0.0
142
1.0
143
1.0
 70
   688
 72
     1
 73
     0
 74
     5
  7

 75
    16
147
1.0
148
0.0
149
0.0
100
AcDbLayout
  1
Layout2
 70
     1
 71
     2
 10
0.0
 20
0.0
 11
0.0
 21
0.0
 12
0.0
 22
0.0
 32
0.0
 14
0.0
 24
0.0
 34
0.0
 15
0.0
 25
0.0
 35
0.0
146
0.0
 13
0.0
 23
0.0
 33
0.0
 16
1.0
 26
0.0
 36
0.0
 17
0.0
 27
1.0
 37
0.0
 76
     0
330
23
  0
LAYOUT
  5
22
102
{ACAD_REACTORS
330
1A
102
}
330
1A
100
AcDbPlotSettings
  1

  2
none_device
  4
Letter_(8.50_x_11.00_Inches)
  6

 40
6.35
 41
6.35
 42
6.35000508
 43
6.35000508
 44
215.9
 45
279.4
 46
0.0
 47
0.0
 48
0.0
 49
0.0
140
0.0
141
0.0
142
1.0
143
1.0
 70
  1712
 72
     1
 73
     0
 74
     0
  7

 75
     0
147
1.0
148
0.0
149
0.0
100
AcDbLayout
  1
Model
 70
     1
 71
     0
 10
0.0
 20
0.0
 11
891.0
 21
630.0
 12
0.0
 22
0.0
 32
0.0
 14
0.0
 24
0.0
 34
0.0
 15
891.0
 25
630.0
 35
0.0
146
0.0
 13
0.0
 23
0.0
 33
0.0
 16
1.0
 26
0.0
 36
0.0
 17
0.0
 27
1.0
 37
0.0
 76
     0
330
1F
331
29
  0
MLINESTYLE
  5
18
102
{ACAD_REACTORS
330
17
102
}
330
17
100
AcDbMlineStyle
  2
Standard
 70
     0
  3

 62
   256
 51
90.0
 52
90.0
 71
     2
 49
0.5
 62
   256
  6
BYLAYER
 49
-0.5
 62
   256
  6
BYLAYER
  0
ACDBPLACEHOLDER
  5
F
102
{ACAD_REACTORS
330
E
102
}
330
E
  0
SCALE
  5
48
102
{ACAD_REACTORS
330
47
102
}
330
47
100
AcDbScale
 70
     0
300
1:1
140
1.0
141
1.0
290
     1
  0
SCALE
  5
49
102
{ACAD_REACTORS
330
47
102
}
330
47
100
AcDbScale
 70
     0
300
1:2
140
1.0
141
2.0
290
     0
  0
SCALE
  5
4A
102
{ACAD_REACTORS
330
47
102
}
330
47
100
AcDbScale
 70
     0
300
1:4
140
1.0
141
4.0
290
     0
  0
SCALE
  5
4B
102
{ACAD_REACTORS
330
47
102
}
330
47
100
AcDbScale
 70
     0
300
1:5
140
1.0
141
5.0
290
     0
  0
SCALE
  5
4C
102
{ACAD_REACTORS
330
47
102
}
330
47
100
AcDbScale
 70
     0
300
1:8
140
1.0
141
8.0
290
     0
  0
SCALE
  5
4D
102
{ACAD_REACTORS
330
47
102
}
330
47
100
AcDbScale
 70
     0
300
1:10
140
1.0
141
10.0
290
     0
  0
SCALE
  5
4E
102
{ACAD_REACTORS
330
47
102
}
330
47
100
AcDbScale
 70
     0
300
1:16
140
1.0
141
16.0
290
     0
  0
SCALE
  5
4F
102
{ACAD_REACTORS
330
47
102
}
330
47
100
AcDbScale
 70
     0
300
1:20
140
1.0
141
20.0
290
     0
  0
SCALE
  5
50
102
{ACAD_REACTORS
330
47
102
}
330
47
100
AcDbScale
 70
     0
300
1:30
140
1.0
141
30.0
290
     0
  0
SCALE
  5
51
102
{ACAD_REACTORS
330
47
102
}
330
47
100
AcDbScale
 70
     0
300
1:40
140
1.0
141
40.0
290
     0
  0
SCALE
  5
52
102
{ACAD_REACTORS
330
47
102
}
330
47
100
AcDbScale
 70
     0
300
1:50
140
1.0
141
50.0
290
     0
  0
SCALE
  5
53
102
{ACAD_REACTORS
330
47
102
}
330
47
100
AcDbScale
 70
     0
300
1:100
140
1.0
141
100.0
290
     0
  0
SCALE
  5
54
102
{ACAD_REACTORS
330
47
102
}
330
47
100
AcDbScale
 70
     0
300
2:1
140
2.0
141
1.0
290
     0
  0
SCALE
  5
55
102
{ACAD_REACTORS
330
47
102
}
330
47
100
AcDbScale
 70
     0
300
4:1
140
4.0
141
1.0
290
     0
  0
SCALE
  5
56
102
{ACAD_REACTORS
330
47
102
}
330
47
100
AcDbScale
 70
     0
300
8:1
140
8.0
141
1.0
290
     0
  0
SCALE
  5
57
102
{ACAD_REACTORS
330
47
102
}
330
47
100
AcDbScale
 70
     0
300
10:1
140
10.0
141
1.0
290
     0
  0
SCALE
  5
58
102
{ACAD_REACTORS
330
47
102
}
330
47
100
AcDbScale
 70
     0
300
100:1
140
100.0
141
1.0
290
     0
  0
ENDSEC
  0
EOF
