  0
SECTION
  2
HEADER
  9
$ACADVER
  1
AC1015
  9
$ACADMAINTVER
 70
     6
  9
$DWGCODEPAGE
  3
ANSI_1252
  9
$INSBASE
 10
0.0
 20
0.0
 30
0.0
  9
$EXTMIN
 10
0.0
 20
0.0
 30
0.0
  9
$EXTMAX
 10
148.5
 20
105.0
 30
0.0
  9
$LIMMIN
 10
0.0
 20
0.0
  9
$LIMMAX
 10
148.5
 20
105.0
  9
$ORTHOMODE
 70
     0
  9
$REGENMODE
 70
     1
  9
$FILLMODE
 70
     1
  9
$QTEXTMODE
 70
     0
  9
$MIRRTEXT
 70
     1
  9
$LTSCALE
 40
0.5
  9
$ATTMODE
 70
     1
  9
$TEXTSIZE
 40
1.5
  9
$TRACEWID
 40
1.0
  9
$TEXTSTYLE
  7
Standard
  9
$CLAYER
  8
0
  9
$CELTYPE
  6
ByLayer
  9
$CECOLOR
 62
   256
  9
$CELTSCALE
 40
1.0
  9
$DISPSILH
 70
     0
  9
$DIMSCALE
 40
1.0
  9
$DIMASZ
 40
1.4
  9
$DIMEXO
 40
0.5
  9
$DIMDLI
 40
3.75
  9
$DIMRND
 40
0.0
  9
$DIMDLE
 40
0.0
  9
$DIMEXE
 40
0.5
  9
$DIMTP
 40
0.0
  9
$DIMTM
 40
0.0
  9
$DIMTXT
 40
1.4
  9
$DIMCEN
 40
2.5
  9
$DIMTSZ
 40
0.0
  9
$DIMTOL
 70
     0
  9
$DIMLIM
 70
     0
  9
$DIMTIH
 70
     1
  9
$DIMTOH
 70
     1
  9
$DIMSE1
 70
     0
  9
$DIMSE2
 70
     0
  9
$DIMTAD
 70
     1
  9
$DIMZIN
 70
     0
  9
$DIMBLK
  1

  9
$DIMASO
 70
     1
  9
$DIMSHO
 70
     1
  9
$DIMPOST
  1

  9
$DIMAPOST
  1

  9
$DIMALT
 70
     0
  9
$DIMALTD
 70
     3
  9
$DIMALTF
 40
0.0393700787
  9
$DIMLFAC
 40
1.0
  9
$DIMTOFL
 70
     1
  9
$DIMTVP
 40
0.0
  9
$DIMTIX
 70
     0
  9
$DIMSOXD
 70
     0
  9
$DIMSAH
 70
     0
  9
$DIMBLK1
  1

  9
$DIMBLK2
  1

  9
$DIMSTYLE
  2
ISO-25
  9
$DIMCLRD
 70
     0
  9
$DIMCLRE
 70
     0
  9
$DIMCLRT
 70
     0
  9
$DIMTFAC
 40
1.0
  9
$DIMGAP
 40
0.762
  9
$DIMJUST
 70
     0
  9
$DIMSD1
 70
     0
  9
$DIMSD2
 70
     0
  9
$DIMTOLJ
 70
     0
  9
$DIMTZIN
 70
     0
  9
$DIMALTZ
 70
     0
  9
$DIMALTTZ
 70
     0
  9
$DIMUPT
 70
     0
  9
$DIMDEC
 70
     2
  9
$DIMTDEC
 70
     2
  9
$DIMALTU
 70
     2
  9
$DIMALTTD
 70
     3
  9
$DIMTXSTY
  7
Standard
  9
$DIMAUNIT
 70
     0
  9
$DIMADEC
 70
     2
  9
$DIMALTRND
 40
0.0
  9
$DIMAZIN
 70
     0
  9
$DIMDSEP
 70
    44
  9
$DIMATFIT
 70
     3
  9
$DIMFRAC
 70
     0
  9
$DIMLDRBLK
  1

  9
$DIMLUNIT
 70
     2
  9
$DIMLWD
 70
    -2
  9
$DIMLWE
 70
    -2
  9
$DIMTMOVE
 70
     0
  9
$LUNITS
 70
     2
  9
$LUPREC
 70
     2
  9
$SKETCHINC
 40
1.0
  9
$FILLETRAD
 40
0.0
  9
$AUNITS
 70
     0
  9
$AUPREC
 70
     2
  9
$MENU
  1
.
  9
$ELEVATION
 40
0.0
  9
$PELEVATION
 40
0.0
  9
$THICKNESS
 40
0.0
  9
$LIMCHECK
 70
     0
  9
$CHAMFERA
 40
0.0
  9
$CHAMFERB
 40
0.0
  9
$CHAMFERC
 40
0.0
  9
$CHAMFERD
 40
0.0
  9
$SKPOLY
 70
     0
  9
$TDCREATE
 40
2461082.37866125
  9
$TDUCREATE
 40
2461082.336994584
  9
$TDUPDATE
 40
2461082.378662824
  9
$TDUUPDATE
 40
2461082.336996157
  9
$TDINDWG
 40
0.0000000116
  9
$TDUSRTIMER
 40
0.0000000116
  9
$USRTIMER
 70
     1
  9
$ANGBASE
 50
0.0
  9
$ANGDIR
 70
     0
  9
$PDMODE
 70
     0
  9
$PDSIZE
 40
-1.0
  9
$PLINEWID
 40
0.0
  9
$SPLFRAME
 70
     0
  9
$SPLINETYPE
 70
     6
  9
$SPLINESEGS
 70
     8
  9
$HANDSEED
  5
1DE
  9
$SURFTAB1
 70
     6
  9
$SURFTAB2
 70
     6
  9
$SURFTYPE
 70
     6
  9
$SURFU
 70
     6
  9
$SURFV
 70
     6
  9
$UCSBASE
  2

  9
$UCSNAME
  2

  9
$UCSORG
 10
0.0
 20
0.0
 30
0.0
  9
$UCSXDIR
 10
1.0
 20
0.0
 30
0.0
  9
$UCSYDIR
 10
0.0
 20
1.0
 30
0.0
  9
$UCSORTHOREF
  2

  9
$UCSORTHOVIEW
 70
     0
  9
$UCSORGTOP
 10
0.0
 20
0.0
 30
0.0
  9
$UCSORGBOTTOM
 10
0.0
 20
0.0
 30
0.0
  9
$UCSORGLEFT
 10
0.0
 20
0.0
 30
0.0
  9
$UCSORGRIGHT
 10
0.0
 20
0.0
 30
0.0
  9
$UCSORGFRONT
 10
0.0
 20
0.0
 30
0.0
  9
$UCSORGBACK
 10
0.0
 20
0.0
 30
0.0
  9
$PUCSBASE
  2

  9
$PUCSNAME
  2

  9
$PUCSORG
 10
0.0
 20
0.0
 30
0.0
  9
$PUCSXDIR
 10
1.0
 20
0.0
 30
0.0
  9
$PUCSYDIR
 10
0.0
 20
1.0
 30
0.0
  9
$PUCSORTHOREF
  2

  9
$PUCSORTHOVIEW
 70
     0
  9
$PUCSORGTOP
 10
0.0
 20
0.0
 30
0.0
  9
$PUCSORGBOTTOM
 10
0.0
 20
0.0
 30
0.0
  9
$PUCSORGLEFT
 10
0.0
 20
0.0
 30
0.0
  9
$PUCSORGRIGHT
 10
0.0
 20
0.0
 30
0.0
  9
$PUCSORGFRONT
 10
0.0
 20
0.0
 30
0.0
  9
$PUCSORGBACK
 10
0.0
 20
0.0
 30
0.0
  9
$USERI1
 70
     0
  9
$USERI2
 70
     0
  9
$USERI3
 70
     0
  9
$USERI4
 70
     0
  9
$USERI5
 70
     0
  9
$USERR1
 40
0.0
  9
$USERR2
 40
0.0
  9
$USERR3
 40
0.0
  9
$USERR4
 40
0.0
  9
$USERR5
 40
0.0
  9
$WORLDVIEW
 70
     1
  9
$SHADEDGE
 70
     3
  9
$SHADEDIF
 70
    70
  9
$TILEMODE
 70
     1
  9
$MAXACTVP
 70
    64
  9
$PINSBASE
 10
0.0
 20
0.0
 30
0.0
  9
$PLIMCHECK
 70
     0
  9
$PEXTMIN
 10
1.0000000000E+20
 20
1.0000000000E+20
 30
1.0000000000E+20
  9
$PEXTMAX
 10
-1.0000000000E+20
 20
-1.0000000000E+20
 30
-1.0000000000E+20
  9
$PLIMMIN
 10
0.0
 20
0.0
  9
$PLIMMAX
 10
420.0
 20
297.0
  9
$UNITMODE
 70
     0
  9
$VISRETAIN
 70
     1
  9
$PLINEGEN
 70
     0
  9
$PSLTSCALE
 70
     1
  9
$TREEDEPTH
 70
  3020
  9
$CMLSTYLE
  2
Standard
  9
$CMLJUST
 70
     0
  9
$CMLSCALE
 40
20.0
  9
$PROXYGRAPHICS
 70
     1
  9
$MEASUREMENT
 70
     1
  9
$CELWEIGHT
370
    -1
  9
$ENDCAPS
280
     0
  9
$JOINSTYLE
280
     0
  9
$LWDISPLAY
290
     1
  9
$INSUNITS
 70
     4
  9
$HYPERLINKBASE
  1

  9
$STYLESHEET
  1

  9
$XEDIT
290
     1
  9
$CEPSNTYPE
380
     0
  9
$PSTYLEMODE
290
     1
  9
$FINGERPRINTGUID
  2
{d9146420-f96c-47ba-81d5-31e1261a5a26}
  9
$VERSIONGUID
  2
{FAEB1C32-E019-11D5-929B-00C0DF256EC4}
  9
$EXTNAMES
290
     1
  9
$PSVPSCALE
 40
0.0
  9
$OLESTARTUP
290
     0
  0
ENDSEC
  0
SECTION
  2
CLASSES
  0
CLASS
  1
ACDBDICTIONARYWDFLT
  2
AcDbDictionaryWithDefault
  3
ObjectDBX Classes
 90
        0
280
     0
281
     0
  0
CLASS
  1
VISUALSTYLE
  2
AcDbVisualStyle
  3
ObjectDBX Classes
 90
     4095
280
     0
281
     0
  0
CLASS
  1
MATERIAL
  2
AcDbMaterial
  3
ObjectDBX Classes
 90
     1153
280
     0
281
     0
  0
CLASS
  1
SCALE
  2
AcDbScale
  3
ObjectDBX Classes
 90
     1153
280
     0
281
     0
  0
CLASS
  1
TABLESTYLE
  2
AcDbTableStyle
  3
ObjectDBX Classes
 90
     4095
280
     0
281
     0
  0
CLASS
  1
MLEADERSTYLE
  2
AcDbMLeaderStyle
  3
ACDB_MLEADERSTYLE_CLASS
 90
     4095
280
     0
281
     0
  0
CLASS
  1
SUN
  2
AcDbSun
  3
SCENEOE
 90
     1153
280
     0
281
     0
  0
CLASS
  1
ACDBPLACEHOLDER
  2
AcDbPlaceHolder
  3
ObjectDBX Classes
 90
        0
280
     0
281
     0
  0
CLASS
  1
LAYOUT
  2
AcDbLayout
  3
ObjectDBX Classes
 90
        0
280
     0
281
     0
  0
ENDSEC
  0
SECTION
  2
TABLES
  0
TABLE
  2
VPORT
  5
8
330
0
100
AcDbSymbolTable
 70
     1
  0
VPORT
  5
29
330
8
100
AcDbSymbolTableRecord
100
AcDbViewportTableRecord
  2
*Active
 70
     0
 10
0.0
 20
0.0
 11
1.0
 21
1.0
 12
74.25
 22
52.5
 13
0.0
 23
0.0
 14
10.0
 24
10.0
 15
10.0
 25
10.0
 16
0.0
 26
0.0
 36
1.0
 17
0.0
 27
0.0
 37
0.0
 40
105.0
 41
1.4142857143
 42
50.0
 43
0.0
 44
0.0
 50
0.0
 51
0.0
 71
     0
 72
  2000
 73
     1
 74
     3
 75
     0
 76
     0
 77
     0
 78
     0
281
     0
 65
     1
110
0.0
120
0.0
130
0.0
111
1.0
121
0.0
131
0.0
112
0.0
122
1.0
132
0.0
 79
     0
146
0.0
  0
ENDTAB
  0
TABLE
  2
LTYPE
  5
5
330
0
100
AcDbSymbolTable
 70
     6
  0
LTYPE
  5
14
330
5
100
AcDbSymbolTableRecord
100
AcDbLinetypeTableRecord
  2
ByBlock
 70
     0
  3

 72
    65
 73
     0
 40
0.0
  0
LTYPE
  5
15
330
5
100
AcDbSymbolTableRecord
100
AcDbLinetypeTableRecord
  2
ByLayer
 70
     0
  3

 72
    65
 73
     0
 40
0.0
  0
LTYPE
  5
16
330
5
100
AcDbSymbolTableRecord
100
AcDbLinetypeTableRecord
  2
Continuous
 70
     0
  3
Solid line
 72
    65
 73
     0
 40
0.0
  0
LTYPE
  5
5E
330
5
100
AcDbSymbolTableRecord
100
AcDbLinetypeTableRecord
  2
HIDDEN
 70
     0
  3
Hidden __ __ __ __ __ __ __ __ __ __ __ __ __ __
 72
    65
 73
     2
 40
1.905
 49
1.27
 74
     0
 49
-0.635
 74
     0
  0
LTYPE
  5
5F
330
5
100
AcDbSymbolTableRecord
100
AcDbLinetypeTableRecord
  2
PHANTOM
 70
     0
  3
Phantom ______  __  __  ______  __  __  ______
 72
    65
 73
     6
 40
12.7
 49
6.35
 74
     0
 49
-1.27
 74
     0
 49
1.27
 74
     0
 49
-1.27
 74
     0
 49
1.27
 74
     0
 49
-1.27
 74
     0
  0
LTYPE
  5
60
330
5
100
AcDbSymbolTableRecord
100
AcDbLinetypeTableRecord
  2
CENTER
 70
     0
  3
Center ____ _ ____ _ ____ _ ____ _ ____ _ ____
 72
    65
 73
     4
 40
10.16
 49
6.35
 74
     0
 49
-1.27
 74
     0
 49
1.27
 74
     0
 49
-1.27
 74
     0
  0
LTYPE
  5
61
330
5
100
AcDbSymbolTableRecord
100
AcDbLinetypeTableRecord
  2
CENTERX2
 70
     0
  3
Center (2x) ________  __  ________  __  _____
 72
    65
 73
     4
 40
20.32
 49
12.7
 74
     0
 49
-2.54
 74
     0
 49
2.54
 74
     0
 49
-2.54
 74
     0
  0
LTYPE
  5
62
330
5
100
AcDbSymbolTableRecord
100
AcDbLinetypeTableRecord
  2
DOT2
 70
     0
  3
Dot (.5x) ........................................
 72
    65
 73
     2
 40
0.635
 49
0.0
 74
     0
 49
-0.635
 74
     0
  0
ENDTAB
  0
TABLE
  2
LAYER
  5
2
330
0
100
AcDbSymbolTable
 70
     3
  0
LAYER
  5
10
330
2
100
AcDbSymbolTableRecord
100
AcDbLayerTableRecord
  2
0
 70
     0
 62
     7
  6
Continuous
370
    -3
390
F
  0
LAYER
  5
63
330
2
100
AcDbSymbolTableRecord
100
AcDbLayerTableRecord
  2
FORMAT
 70
     0
 62
     7
  6
Continuous
370
    -3
390
F
  0
LAYER
  5
64
330
2
100
AcDbSymbolTableRecord
100
AcDbLayerTableRecord
  2
TESTO
 70
     0
 62
   179
  6
Continuous
370
    -3
390
F
  0
ENDTAB
  0
TABLE
  2
STYLE
  5
3
330
0
100
AcDbSymbolTable
 70
    10
  0
STYLE
  5
11
330
3
100
AcDbSymbolTableRecord
100
AcDbTextStyleTableRecord
  2
Standard
 70
     0
 40
0.0
 41
1.0
 50
0.0
 71
     0
 42
1.5
  3
txt
  4

  0
STYLE
  5
6B
330
3
100
AcDbSymbolTableRecord
100
AcDbTextStyleTableRecord
  2
SLDTEXTSTYLE0
 70
     0
 40
0.0
 41
0.75
 50
0.0
 71
     0
 42
1.5
  3
TXT
  4

  0
STYLE
  5
DB
330
3
100
AcDbSymbolTableRecord
100
AcDbTextStyleTableRecord
  2
SLDTEXTSTYLE1
 70
     0
 40
0.0
 41
0.605
 50
0.0
 71
     0
 42
1.5
  3
TXT
  4

  0
STYLE
  5
E5
330
3
100
AcDbSymbolTableRecord
100
AcDbTextStyleTableRecord
  2
SLDTEXTSTYLE2
 70
     0
 40
0.0
 41
0.75
 50
0.0
 71
     0
 42
1.5
  3
TXT
  4
bigfont
  0
STYLE
  5
E7
330
3
100
AcDbSymbolTableRecord
100
AcDbTextStyleTableRecord
  2
SLDTEXTSTYLE3
 70
     0
 40
0.0
 41
0.6875
 50
0.0
 71
     0
 42
1.5
  3
TXT
  4

  0
STYLE
  5
F2
330
3
100
AcDbSymbolTableRecord
100
AcDbTextStyleTableRecord
  2
SLDTEXTSTYLE4
 70
     0
 40
0.0
 41
0.7329842932
 50
0.0
 71
     0
 42
1.5
  3
TXT
  4

  0
STYLE
  5
F4
330
3
100
AcDbSymbolTableRecord
100
AcDbTextStyleTableRecord
  2
SLDTEXTSTYLE5
 70
     0
 40
0.0
 41
0.6436170213
 50
0.0
 71
     0
 42
1.5
  3
TXT
  4

  0
STYLE
  5
10E
330
3
100
AcDbSymbolTableRecord
100
AcDbTextStyleTableRecord
  2
SLDTEXTSTYLE6
 70
     0
 40
0.0
 41
0.6923076923
 50
0.0
 71
     0
 42
1.5
  3
TXT
  4

  0
STYLE
  5
19F
330
3
100
AcDbSymbolTableRecord
100
AcDbTextStyleTableRecord
  2
SLDTEXTSTYLE7
 70
     0
 40
0.0
 41
0.6666666667
 50
0.0
 71
     0
 42
1.5
  3
TXT
  4

  0
STYLE
  5
1AA
330
3
100
AcDbSymbolTableRecord
100
AcDbTextStyleTableRecord
  2
SLDTEXTSTYLE8
 70
     0
 40
0.0
 41
0.7
 50
0.0
 71
     0
 42
1.5
  3
TXT
  4

  0
ENDTAB
  0
TABLE
  2
VIEW
  5
6
330
0
100
AcDbSymbolTable
 70
     0
  0
ENDTAB
  0
TABLE
  2
UCS
  5
7
330
0
100
AcDbSymbolTable
 70
     0
  0
ENDTAB
  0
TABLE
  2
APPID
  5
9
330
0
100
AcDbSymbolTable
 70
     1
  0
APPID
  5
12
330
9
100
AcDbSymbolTableRecord
100
AcDbRegAppTableRecord
  2
ACAD
 70
     0
  0
ENDTAB
  0
TABLE
  2
DIMSTYLE
  5
A
330
0
100
AcDbSymbolTable
 70
     7
100
AcDbDimStyleTable
  0
DIMSTYLE
105
27
330
A
100
AcDbSymbolTableRecord
100
AcDbDimStyleTableRecord
  2
ISO-25
 70
     0
 41
2.5
 42
0.625
 43
3.75
 44
1.25
 73
     0
 74
     0
 77
     1
 78
     8
140
2.5
141
2.5
143
0.0393700787
147
0.625
171
     3
172
     1
178
     0
271
     2
272
     2
274
     3
278
    44
283
     0
284
     8
340
11
  0
DIMSTYLE
105
14F
102
{ACAD_REACTORS
330
14E
330
17C
102
}
330
A
100
AcDbSymbolTableRecord
100
AcDbDimStyleTableRecord
  2
SLDDIMSTYLE0
 70
     0
 41
0.1435897436
 44
0.0
 45
0.000000001
 78
     8
 79
     2
140
1.4
147
0.35
173
     1
178
     0
271
     0
272
     0
276
     2
284
    12
340
6B
341
150
343
150
344
150
  0
DIMSTYLE
105
15C
102
{ACAD_REACTORS
330
15B
330
164
330
16C
330
174
330
183
330
18B
102
}
330
A
100
AcDbSymbolTableRecord
100
AcDbDimStyleTableRecord
  2
SLDDIMSTYLE1
 70
     0
 41
1.4
 44
0.0
 45
0.000000001
 78
    12
 79
     3
140
1.4
147
0.35
173
     1
178
     0
271
     2
272
     2
276
     2
284
    12
340
6B
  0
DIMSTYLE
105
194
102
{ACAD_REACTORS
330
193
102
}
330
A
100
AcDbSymbolTableRecord
100
AcDbDimStyleTableRecord
  2
SLDDIMSTYLE2
 70
     0
 41
1.4
 44
0.0
 45
0.000000001
 78
     4
 79
     1
140
1.4
141
0.0
147
0.35
172
     1
173
     1
178
     0
271
     2
272
     2
276
     2
284
    12
340
6B
341
195
343
195
  0
DIMSTYLE
105
1BC
102
{ACAD_REACTORS
330
1BB
102
}
330
A
100
AcDbSymbolTableRecord
100
AcDbDimStyleTableRecord
  2
SLDDIMSTYLE3
 70
     0
 41
1.4
 44
0.0
 73
     0
 74
     0
 77
     1
 78
    12
 79
     3
140
1.4
144
0.5
147
0.35
173
     1
178
     0
179
     2
272
     2
276
     2
284
    12
340
6B
  0
DIMSTYLE
105
1C9
102
{ACAD_REACTORS
330
1C8
102
}
330
A
100
AcDbSymbolTableRecord
100
AcDbDimStyleTableRecord
  2
SLDDIMSTYLE4
 70
     0
 41
1.4
 44
0.0
 45
0.000000001
 73
     0
 74
     0
 77
     1
 78
    12
 79
     3
140
1.4
147
0.35
172
     1
173
     1
178
     0
271
     2
272
     2
276
     2
284
    12
289
     0
340
6B
  0
DIMSTYLE
105
1DB
330
A
100
AcDbSymbolTableRecord
100
AcDbDimStyleTableRecord
  2
SLDDIMSTYLE5
 70
     0
 41
1.4
 44
0.0
 45
0.000000001
146
1.4
147
0.0
173
     1
178
     0
271
     0
272
     0
276
     2
340
11
  0
ENDTAB
  0
TABLE
  2
BLOCK_RECORD
  5
1
330
0
100
AcDbSymbolTable
 70
    18
  0
BLOCK_RECORD
  5
1F
330
1
100
AcDbSymbolTableRecord
100
AcDbBlockTableRecord
  2
*Model_Space
340
22
  0
BLOCK_RECORD
  5
1B
330
1
100
AcDbSymbolTableRecord
100
AcDbBlockTableRecord
  2
*Paper_Space
340
1E
  0
BLOCK_RECORD
  5
23
330
1
100
AcDbSymbolTableRecord
100
AcDbBlockTableRecord
  2
*Paper_Space0
340
26
  0
BLOCK_RECORD
  5
65
330
1
100
AcDbSymbolTableRecord
100
AcDbBlockTableRecord
  2
Particolare privo di bave e dif.sup.
340
0
102
{BLKREFS
331
CB
102
}
  0
BLOCK_RECORD
  5
68
330
1
100
AcDbSymbolTableRecord
100
AcDbBlockTableRecord
  2
SW_NOTE_0
340
0
102
{BLKREFS
331
6D
102
}
  0
BLOCK_RECORD
  5
150
330
1
100
AcDbSymbolTableRecord
100
AcDbBlockTableRecord
  2
_Origin
340
0
102
{BLKREFS
331
158
331
180
102
}
  0
BLOCK_RECORD
  5
155
330
1
100
AcDbSymbolTableRecord
100
AcDbBlockTableRecord
  2
_D
340
0
  0
BLOCK_RECORD
  5
15D
330
1
100
AcDbSymbolTableRecord
100
AcDbBlockTableRecord
  2
_D_1
340
0
  0
BLOCK_RECORD
  5
165
330
1
100
AcDbSymbolTableRecord
100
AcDbBlockTableRecord
  2
_D_2
340
0
  0
BLOCK_RECORD
  5
16D
330
1
100
AcDbSymbolTableRecord
100
AcDbBlockTableRecord
  2
_D_3
340
0
  0
BLOCK_RECORD
  5
175
330
1
100
AcDbSymbolTableRecord
100
AcDbBlockTableRecord
  2
_D_4
340
0
  0
BLOCK_RECORD
  5
17D
330
1
100
AcDbSymbolTableRecord
100
AcDbBlockTableRecord
  2
_D_5
340
0
  0
BLOCK_RECORD
  5
184
330
1
100
AcDbSymbolTableRecord
100
AcDbBlockTableRecord
  2
_D_6
340
0
  0
BLOCK_RECORD
  5
18C
330
1
100
AcDbSymbolTableRecord
100
AcDbBlockTableRecord
  2
_D_7
340
0
  0
BLOCK_RECORD
  5
195
330
1
100
AcDbSymbolTableRecord
100
AcDbBlockTableRecord
  2
_None
340
0
  0
BLOCK_RECORD
  5
198
330
1
100
AcDbSymbolTableRecord
100
AcDbBlockTableRecord
  2
_D_8
340
0
  0
BLOCK_RECORD
  5
1A3
330
1
100
AcDbSymbolTableRecord
100
AcDbBlockTableRecord
  2
SW_SYMBOL_HOLE_SINK
340
0
102
{BLKREFS
331
1A8
102
}
  0
BLOCK_RECORD
  5
1BD
330
1
100
AcDbSymbolTableRecord
100
AcDbBlockTableRecord
  2
_D_9
340
0
  0
BLOCK_RECORD
  5
1CA
330
1
100
AcDbSymbolTableRecord
100
AcDbBlockTableRecord
  2
_D_10
340
0
  0
BLOCK_RECORD
  5
1D5
330
1
100
AcDbSymbolTableRecord
100
AcDbBlockTableRecord
  2
SW_NOTE_0_1
340
0
102
{BLKREFS
331
1DA
102
}
  0
ENDTAB
  0
ENDSEC
  0
SECTION
  2
BLOCKS
  0
BLOCK
  5
20
330
1F
100
AcDbEntity
  8
0
100
AcDbBlockBegin
  2
*Model_Space
 70
     0
 10
0.0
 20
0.0
 30
0.0
  3
*Model_Space
  1

  0
ENDBLK
  5
21
330
1F
100
AcDbEntity
  8
0
100
AcDbBlockEnd
  0
BLOCK
  5
1C
330
1B
100
AcDbEntity
 67
     1
  8
0
100
AcDbBlockBegin
  2
*Paper_Space
 70
     0
 10
0.0
 20
0.0
 30
0.0
  3
*Paper_Space
  1

  0
ENDBLK
  5
1D
330
1B
100
AcDbEntity
 67
     1
  8
0
100
AcDbBlockEnd
  0
BLOCK
  5
24
330
23
100
AcDbEntity
  8
0
100
AcDbBlockBegin
  2
*Paper_Space0
 70
     0
 10
0.0
 20
0.0
 30
0.0
  3
*Paper_Space0
  1

  0
ENDBLK
  5
25
330
23
100
AcDbEntity
  8
0
100
AcDbBlockEnd
  0
BLOCK
  5
66
330
65
100
AcDbEntity
  8
0
100
AcDbBlockBegin
  2
Particolare privo di bave e dif.sup.
 70
     0
 10
0.0
 20
0.0
 30
0.0
  3
Particolare privo di bave e dif.sup.
  1

  0
INSERT
  5
6D
330
65
100
AcDbEntity
  8
0
  6
Continuous
 62
     7
370
     0
100
AcDbBlockReference
  2
SW_NOTE_0
 10
1.3650904932
 20
-0.9694061984
 30
0.0
  0
ENDBLK
  5
67
330
65
100
AcDbEntity
  8
0
100
AcDbBlockEnd
  0
BLOCK
  5
69
330
68
100
AcDbEntity
  8
0
100
AcDbBlockBegin
  2
SW_NOTE_0
 70
     0
 10
0.0
 20
0.0
 30
0.0
  3
SW_NOTE_0
  1

  0
MTEXT
  5
6C
330
68
100
AcDbEntity
  8
0
  6
Continuous
 62
     0
370
     0
100
AcDbMText
 10
0.0
 20
19.3360160966
 30
0.0
 40
15.0
 41
0.0
 71
     1
 72
     1
  1
PARTICOLARE PRIVO DI BAVE E DIFETTI SUPERFICIALI
  7
SLDTEXTSTYLE0
 73
     1
 44
1.0
  0
ENDBLK
  5
6A
330
68
100
AcDbEntity
  8
0
100
AcDbBlockEnd
  0
BLOCK
  5
151
330
150
100
AcDbEntity
  8
0
100
AcDbBlockBegin
  2
_Origin
 70
     0
 10
0.0
 20
0.0
 30
0.0
  3
_Origin
  1

  0
CIRCLE
  5
153
330
150
100
AcDbEntity
  8
0
  6
ByBlock
 62
     0
370
    -2
100
AcDbCircle
 10
0.0
 20
0.0
 30
0.0
 40
0.5
  0
LINE
  5
154
330
150
100
AcDbEntity
  8
0
  6
ByBlock
 62
     0
370
    -2
100
AcDbLine
 10
0.0
 20
0.0
 30
0.0
 11
-1.0
 21
0.0
 31
0.0
  0
ENDBLK
  5
152
330
150
100
AcDbEntity
  8
0
100
AcDbBlockEnd
  0
BLOCK
  5
156
330
155
100
AcDbEntity
  8
0
100
AcDbBlockBegin
  2
_D
 70
     0
 10
0.0
 20
0.0
 30
0.0
  3
_D
  1

  0
INSERT
  5
158
330
155
100
AcDbEntity
  8
0
  6
Continuous
 62
     7
370
    18
100
AcDbBlockReference
  2
_Origin
 10
62.7074061816
 20
59.5741883475
 30
0.0
 41
0.4307692308
 42
0.4307692308
 50
0.0
  0
LINE
  5
159
330
155
100
AcDbEntity
  8
0
  6
Continuous
 62
     7
370
     0
100
AcDbLine
 10
62.7074061816
 20
54.6583829114
 30
0.0
 11
62.7074061816
 21
60.0049575783
 31
0.0
  0
MTEXT
  5
15A
330
155
100
AcDbEntity
  8
0
  6
Continuous
 62
     7
370
    18
100
AcDbMText
 10
62.0139613674
 20
60.0049575783
 30
0.0
 40
1.4
 41
0.0
 71
     1
 72
     1
  1
0
  7
SLDTEXTSTYLE0
 11
-7.044195017643634E-15
 21
1.0
 31
0.0
 73
     1
 44
1.0
  0
ENDBLK
  5
157
330
155
100
AcDbEntity
  8
0
100
AcDbBlockEnd
  0
BLOCK
  5
15E
330
15D
100
AcDbEntity
  8
0
100
AcDbBlockBegin
  2
_D_1
 70
     0
 10
0.0
 20
0.0
 30
0.0
  3
_D_1
  1

  0
SOLID
  5
160
330
15D
100
AcDbEntity
  8
0
  6
Continuous
 62
     7
370
    18
100
AcDbTrace
 10
67.7074061816
 20
59.5741883475
 30
0.0
 11
66.3074061816
 21
59.7895729629
 31
0.0
 12
66.3074061816
 22
59.3588037321
 32
0.0
 13
66.3074061816
 23
59.3588037321
 33
0.0
  0
LINE
  5
161
330
15D
100
AcDbEntity
  8
0
  6
Continuous
 62
     7
370
     0
100
AcDbLine
 10
67.7074061816
 20
54.6583829114
 30
0.0
 11
67.7074061816
 21
60.0049575783
 31
0.0
  0
LINE
  5
162
330
15D
100
AcDbEntity
  8
0
  6
Continuous
 62
     7
370
     0
100
AcDbLine
 10
62.7074061816
 20
59.5741883475
 30
0.0
 11
67.7074061816
 21
59.5741883475
 31
0.0
  0
MTEXT
  5
163
330
15D
100
AcDbEntity
  8
0
  6
Continuous
 62
     7
370
    18
100
AcDbMText
 10
67.0139613674
 20
60.0049575783
 30
0.0
 40
1.4
 41
0.0
 71
     1
 72
     1
  1
5
  7
SLDTEXTSTYLE0
 11
-7.044195017643634E-15
 21
1.0
 31
0.0
 73
     1
 44
1.0
  0
ENDBLK
  5
15F
330
15D
100
AcDbEntity
  8
0
100
AcDbBlockEnd
  0
BLOCK
  5
166
330
165
100
AcDbEntity
  8
0
100
AcDbBlockBegin
  2
_D_2
 70
     0
 10
0.0
 20
0.0
 30
0.0
  3
_D_2
  1

  0
SOLID
  5
168
330
165
100
AcDbEntity
  8
0
  6
Continuous
 62
     7
370
    18
100
AcDbTrace
 10
84.2074061816
 20
59.5741883475
 30
0.0
 11
82.8074061816
 21
59.7895729629
 31
0.0
 12
82.8074061816
 22
59.3588037321
 32
0.0
 13
82.8074061816
 23
59.3588037321
 33
0.0
  0
LINE
  5
169
330
165
100
AcDbEntity
  8
0
  6
Continuous
 62
     7
370
     0
100
AcDbLine
 10
84.2074061816
 20
47.6583829114
 30
0.0
 11
84.2074061816
 21
60.0049575783
 31
0.0
  0
LINE
  5
16A
330
165
100
AcDbEntity
  8
0
  6
Continuous
 62
     7
370
     0
100
AcDbLine
 10
67.7074061816
 20
59.5741883475
 30
0.0
 11
84.2074061816
 21
59.5741883475
 31
0.0
  0
MTEXT
  5
16B
330
165
100
AcDbEntity
  8
0
  6
Continuous
 62
     7
370
    18
100
AcDbMText
 10
83.5139613674
 20
60.0049575783
 30
0.0
 40
1.4
 41
0.0
 71
     1
 72
     1
  1
21,50
  7
SLDTEXTSTYLE0
 11
-7.044195017643634E-15
 21
1.0
 31
0.0
 73
     1
 44
1.0
  0
ENDBLK
  5
167
330
165
100
AcDbEntity
  8
0
100
AcDbBlockEnd
  0
BLOCK
  5
16E
330
16D
100
AcDbEntity
  8
0
100
AcDbBlockBegin
  2
_D_3
 70
     0
 10
0.0
 20
0.0
 30
0.0
  3
_D_3
  1

  0
SOLID
  5
170
330
16D
100
AcDbEntity
  8
0
  6
Continuous
 62
     7
370
    18
100
AcDbTrace
 10
95.2074061816
 20
59.5741883475
 30
0.0
 11
93.8074061816
 21
59.7895729629
 31
0.0
 12
93.8074061816
 22
59.3588037321
 32
0.0
 13
93.8074061816
 23
59.3588037321
 33
0.0
  0
LINE
  5
171
330
16D
100
AcDbEntity
  8
0
  6
Continuous
 62
     7
370
     0
100
AcDbLine
 10
95.2074061816
 20
47.6583829114
 30
0.0
 11
95.2074061816
 21
60.0049575783
 31
0.0
  0
LINE
  5
172
330
16D
100
AcDbEntity
  8
0
  6
Continuous
 62
     7
370
     0
100
AcDbLine
 10
84.2074061816
 20
59.5741883475
 30
0.0
 11
95.2074061816
 21
59.5741883475
 31
0.0
  0
MTEXT
  5
173
330
16D
100
AcDbEntity
  8
0
  6
Continuous
 62
     7
370
    18
100
AcDbMText
 10
94.5139613674
 20
60.0049575783
 30
0.0
 40
1.4
 41
0.0
 71
     1
 72
     1
  1
32,50
  7
SLDTEXTSTYLE0
 11
-7.044195017643634E-15
 21
1.0
 31
0.0
 73
     1
 44
1.0
  0
ENDBLK
  5
16F
330
16D
100
AcDbEntity
  8
0
100
AcDbBlockEnd
  0
BLOCK
  5
176
330
175
100
AcDbEntity
  8
0
100
AcDbBlockBegin
  2
_D_4
 70
     0
 10
0.0
 20
0.0
 30
0.0
  3
_D_4
  1

  0
SOLID
  5
178
330
175
100
AcDbEntity
  8
0
  6
Continuous
 62
     7
370
    18
100
AcDbTrace
 10
107.7074061816
 20
59.5741883475
 30
0.0
 11
106.3074061816
 21
59.7895729629
 31
0.0
 12
106.3074061816
 22
59.3588037321
 32
0.0
 13
106.3074061816
 23
59.3588037321
 33
0.0
  0
LINE
  5
179
330
175
100
AcDbEntity
  8
0
  6
Continuous
 62
     7
370
     0
100
AcDbLine
 10
107.7074061816
 20
54.6583829114
 30
0.0
 11
107.7074061816
 21
60.0049575783
 31
0.0
  0
LINE
  5
17A
330
175
100
AcDbEntity
  8
0
  6
Continuous
 62
     7
370
     0
100
AcDbLine
 10
95.2074061816
 20
59.5741883475
 30
0.0
 11
107.7074061816
 21
59.5741883475
 31
0.0
  0
MTEXT
  5
17B
330
175
100
AcDbEntity
  8
0
  6
Continuous
 62
     7
370
    18
100
AcDbMText
 10
107.0139613674
 20
60.0049575783
 30
0.0
 40
1.4
 41
0.0
 71
     1
 72
     1
  1
45
  7
SLDTEXTSTYLE0
 11
-7.044195017643634E-15
 21
1.0
 31
0.0
 73
     1
 44
1.0
  0
ENDBLK
  5
177
330
175
100
AcDbEntity
  8
0
100
AcDbBlockEnd
  0
BLOCK
  5
17E
330
17D
100
AcDbEntity
  8
0
100
AcDbBlockBegin
  2
_D_5
 70
     0
 10
0.0
 20
0.0
 30
0.0
  3
_D_5
  1

  0
INSERT
  5
180
330
17D
100
AcDbEntity
  8
0
  6
Continuous
 62
     7
370
    18
100
AcDbBlockReference
  2
_Origin
 10
55.1381754123
 20
54.1583829114
 30
0.0
 41
0.4307692308
 42
0.4307692308
 50
0.0
  0
LINE
  5
181
330
17D
100
AcDbEntity
  8
0
  6
Continuous
 62
     7
370
     0
100
AcDbLine
 10
62.2074061816
 20
54.1583829114
 30
0.0
 11
54.7074061816
 21
54.1583829114
 31
0.0
  0
MTEXT
  5
182
330
17D
100
AcDbEntity
  8
0
  6
Continuous
 62
     7
370
    18
100
AcDbMText
 10
53.6729617507
 20
54.8518277256
 30
0.0
 40
1.4
 41
0.0
 71
     1
 72
     1
  1
0
  7
SLDTEXTSTYLE0
 73
     1
 44
1.0
  0
ENDBLK
  5
17F
330
17D
100
AcDbEntity
  8
0
100
AcDbBlockEnd
  0
BLOCK
  5
185
330
184
100
AcDbEntity
  8
0
100
AcDbBlockBegin
  2
_D_6
 70
     0
 10
0.0
 20
0.0
 30
0.0
  3
_D_6
  1

  0
SOLID
  5
187
330
184
100
AcDbEntity
  8
0
  6
Continuous
 62
     7
370
    18
100
AcDbTrace
 10
55.1381754123
 20
47.1583829114
 30
0.0
 11
55.3535600277
 21
48.5583829114
 31
0.0
 12
54.922790797
 22
48.5583829114
 32
0.0
 13
54.922790797
 23
48.5583829114
 33
0.0
  0
LINE
  5
188
330
184
100
AcDbEntity
  8
0
  6
Continuous
 62
     7
370
     0
100
AcDbLine
 10
94.7074061816
 20
47.1583829114
 30
0.0
 11
54.7074061816
 21
47.1583829114
 31
0.0
  0
LINE
  5
189
330
184
100
AcDbEntity
  8
0
  6
Continuous
 62
     7
370
     0
100
AcDbLine
 10
55.1381754123
 20
54.1583829114
 30
0.0
 11
55.1381754123
 21
47.1583829114
 31
0.0
  0
MTEXT
  5
18A
330
184
100
AcDbEntity
  8
0
  6
Continuous
 62
     7
370
    18
100
AcDbMText
 10
53.6729617507
 20
47.8518277256
 30
0.0
 40
1.4
 41
0.0
 71
     1
 72
     1
  1
7
  7
SLDTEXTSTYLE0
 73
     1
 44
1.0
  0
ENDBLK
  5
186
330
184
100
AcDbEntity
  8
0
100
AcDbBlockEnd
  0
BLOCK
  5
18D
330
18C
100
AcDbEntity
  8
0
100
AcDbBlockBegin
  2
_D_7
 70
     0
 10
0.0
 20
0.0
 30
0.0
  3
_D_7
  1

  0
SOLID
  5
18F
330
18C
100
AcDbEntity
  8
0
  6
Continuous
 62
     7
370
    18
100
AcDbTrace
 10
55.1381754123
 20
42.1583829114
 30
0.0
 11
55.3535600277
 21
43.5583829114
 31
0.0
 12
54.922790797
 22
43.5583829114
 32
0.0
 13
54.922790797
 23
43.5583829114
 33
0.0
  0
LINE
  5
190
330
18C
100
AcDbEntity
  8
0
  6
Continuous
 62
     7
370
     0
100
AcDbLine
 10
62.2074061816
 20
42.1583829114
 30
0.0
 11
54.7074061816
 21
42.1583829114
 31
0.0
  0
LINE
  5
191
330
18C
100
AcDbEntity
  8
0
  6
Continuous
 62
     7
370
     0
100
AcDbLine
 10
55.1381754123
 20
47.1583829114
 30
0.0
 11
55.1381754123
 21
42.1583829114
 31
0.0
  0
MTEXT
  5
192
330
18C
100
AcDbEntity
  8
0
  6
Continuous
 62
     7
370
    18
100
AcDbMText
 10
52.6385173199
 20
42.8518277256
 30
0.0
 40
1.4
 41
0.0
 71
     1
 72
     1
  1
12
  7
SLDTEXTSTYLE0
 73
     1
 44
1.0
  0
ENDBLK
  5
18E
330
18C
100
AcDbEntity
  8
0
100
AcDbBlockEnd
  0
BLOCK
  5
196
330
195
100
AcDbEntity
  8
0
100
AcDbBlockBegin
  2
_None
 70
     0
 10
0.0
 20
0.0
 30
0.0
  3
_None
  1

  0
ENDBLK
  5
197
330
195
100
AcDbEntity
  8
0
100
AcDbBlockEnd
  0
BLOCK
  5
199
330
198
100
AcDbEntity
  8
0
100
AcDbBlockBegin
  2
_D_8
 70
     0
 10
0.0
 20
0.0
 30
0.0
  3
_D_8
  1

  0
SOLID
  5
19B
330
198
100
AcDbEntity
  8
0
  6
Continuous
 62
     7
370
    18
100
AcDbTrace
 10
96.3324061816
 20
45.2098257529
 30
0.0
 11
96.8458776331
 21
43.8896978799
 31
0.0
 12
97.2189347301
 22
44.1050824953
 32
0.0
 13
97.2189347301
 23
44.1050824953
 33
0.0
  0
LINE
  5
19C
330
198
100
AcDbEntity
  8
0
  6
Continuous
 62
     7
370
     0
100
AcDbLine
 10
96.3324061816
 20
45.2098257529
 30
0.0
 11
102.5601168361
 21
34.4231144844
 31
0.0
  0
LINE
  5
19D
330
198
100
AcDbEntity
  8
0
  6
Continuous
 62
     7
370
     0
100
AcDbLine
 10
94.0824061816
 20
49.1069400699
 30
0.0
 11
96.3324061816
 21
45.2098257529
 31
0.0
  0
LINE
  5
19E
330
198
100
AcDbEntity
  8
0
  6
Continuous
 62
     7
370
     0
100
AcDbLine
 10
102.5601168361
 20
34.4231144844
 30
0.0
 11
121.9871859011
 21
34.4231144844
 31
0.0
  0
MTEXT
  5
1A0
330
198
100
AcDbEntity
  8
0
  6
Continuous
 62
     7
370
    18
100
AcDbMText
 10
103.3538668361
 20
38.4930873372
 30
0.0
 40
1.4
 41
0.0
 71
     1
 72
     1
  1
2 x
  7
SLDTEXTSTYLE7
 73
     1
 44
1.0
  0
MTEXT
  5
1A1
330
198
100
AcDbEntity
  8
0
  6
Continuous
 62
     7
370
    18
100
AcDbMText
 10
106.3191445955
 20
38.4716984374
 30
0.0
 40
1.4
 41
0.0
 71
     1
 72
     1
  1
%%c
  7
SLDTEXTSTYLE0
 73
     1
 44
1.0
  0
MTEXT
  5
1A2
330
198
100
AcDbEntity
  8
0
  6
Continuous
 62
     7
370
    18
100
AcDbMText
 10
108.9555196945
 20
38.4930873372
 30
0.0
 40
1.4
 41
0.0
 71
     1
 72
     1
  1
4,50 PASSANTE
  7
SLDTEXTSTYLE0
 73
     1
 44
1.0
  0
INSERT
  5
1A8
330
198
100
AcDbEntity
  8
0
  6
Continuous
 62
     7
370
    18
100
AcDbBlockReference
  2
SW_SYMBOL_HOLE_SINK
 10
105.1630759556
 20
34.6172551967
 30
0.0
 41
0.0035765625
 42
0.0035765625
 43
0.0035765625
  0
MTEXT
  5
1A9
330
198
100
AcDbEntity
  8
0
  6
Continuous
 62
     7
370
    18
100
AcDbMText
 10
108.9413259123
 20
36.2278094074
 30
0.0
 40
1.4
 41
0.0
 71
     1
 72
     1
  1
%%c
  7
SLDTEXTSTYLE0
 73
     1
 44
1.0
  0
MTEXT
  5
1AB
330
198
100
AcDbEntity
  8
0
  6
Continuous
 62
     7
370
    18
100
AcDbMText
 10
111.5777012442
 20
36.2491983071
 30
0.0
 40
1.4
 41
0.0
 71
     1
 72
     1
  1
9,18 X 90°
  7
SLDTEXTSTYLE8
 73
     1
 44
1.0
  0
ENDBLK
  5
19A
330
198
100
AcDbEntity
  8
0
100
AcDbBlockEnd
  0
BLOCK
  5
1A4
330
1A3
100
AcDbEntity
  8
0
100
AcDbBlockBegin
  2
SW_SYMBOL_HOLE_SINK
 70
     0
 10
0.0
 20
0.0
 30
0.0
  3
SW_SYMBOL_HOLE_SINK
  1

  0
LINE
  5
1A6
330
1A3
100
AcDbEntity
  8
0
  6
Continuous
 62
     0
370
    18
100
AcDbLine
 10
0.0
 20
437.5
 30
0.0
 11
400.0
 21
37.5
 31
0.0
  0
LINE
  5
1A7
330
1A3
100
AcDbEntity
  8
0
  6
Continuous
 62
     0
370
    18
100
AcDbLine
 10
400.0
 20
37.5
 30
0.0
 11
800.0
 21
437.5
 31
0.0
  0
ENDBLK
  5
1A5
330
1A3
100
AcDbEntity
  8
0
100
AcDbBlockEnd
  0
BLOCK
  5
1BE
330
1BD
100
AcDbEntity
  8
0
100
AcDbBlockBegin
  2
_D_9
 70
     0
 10
0.0
 20
0.0
 30
0.0
  3
_D_9
  1

  0
ARC
  5
1C0
330
1BD
100
AcDbEntity
  8
0
  6
Continuous
 62
     7
370
    18
100
AcDbCircle
 10
67.7074061816
 20
74.7971154174
 30
0.0
 40
7.644914891356527
100
AcDbArc
 50
180.0
 51
190.0
  0
ARC
  5
1C1
330
1BD
100
AcDbEntity
  8
0
  6
Continuous
 62
     7
370
    18
100
AcDbCircle
 10
67.7074061816
 20
74.7971154174
 30
0.0
 40
7.644914891356521
100
AcDbArc
 50
141.3476696659
 51
180.0
  0
ARC
  5
1C2
330
1BD
100
AcDbEntity
  8
0
  6
Continuous
 62
     7
370
    18
100
AcDbCircle
 10
67.7074061816
 20
74.7971154174
 30
0.0
 40
7.644914891356527
100
AcDbArc
 50
190.0
 51
209.9136502045
  0
SOLID
  5
1C3
330
1BD
100
AcDbEntity
  8
0
  6
Continuous
 62
     7
370
    18
100
AcDbTrace
 10
60.0624912902
 20
74.7971154174
 30
0.0
 11
60.4036050281
 21
76.1718997461
 31
0.0
 12
59.9746010108
 22
76.2108572012
 32
0.0
 13
59.9746010108
 23
76.2108572012
 33
0.0
  0
SOLID
  5
1C4
330
1BD
100
AcDbEntity
  8
0
  6
Continuous
 62
     7
370
    18
100
AcDbTrace
 10
60.1786347254
 20
73.4695898781
 30
0.0
 11
60.3375733813
 21
72.0620640218
 31
0.0
 12
60.7532949725
 22
72.1749253915
 32
0.0
 13
60.7532949725
 23
72.1749253915
 33
0.0
  0
LINE
  5
1C5
330
1BD
100
AcDbEntity
  8
0
  6
Continuous
 62
     7
370
     0
100
AcDbLine
 10
67.2074061816
 20
74.7971154174
 30
0.0
 11
59.5624912902
 21
74.7971154174
 31
0.0
  0
LINE
  5
1C6
330
1BD
100
AcDbEntity
  8
0
  6
Continuous
 62
     7
370
     0
100
AcDbLine
 10
62.2150023051
 20
73.828656425
 30
0.0
 11
59.6862308489
 21
73.3827657893
 31
0.0
  0
MTEXT
  5
1C7
330
1BD
100
AcDbEntity
  8
0
  6
Continuous
 62
     7
370
    18
100
AcDbMText
 10
58.715224949
 20
78.0247521589
 30
0.0
 40
1.4
 41
0.0
 71
     1
 72
     1
  1
10°
  7
SLDTEXTSTYLE0
 11
0.472834539649468
 21
0.8811512345304158
 31
0.0
 73
     1
 44
1.0
  0
ENDBLK
  5
1BF
330
1BD
100
AcDbEntity
  8
0
100
AcDbBlockEnd
  0
BLOCK
  5
1CB
330
1CA
100
AcDbEntity
  8
0
100
AcDbBlockBegin
  2
_D_10
 70
     0
 10
0.0
 20
0.0
 30
0.0
  3
_D_10
  1

  0
SOLID
  5
1CD
330
1CA
100
AcDbEntity
  8
0
  6
Continuous
 62
     7
370
    18
100
AcDbTrace
 10
54.7074061816
 20
74.7971154174
 30
0.0
 11
54.922790797
 21
76.1971154174
 31
0.0
 12
54.4920215662
 22
76.1971154174
 32
0.0
 13
54.4920215662
 23
76.1971154174
 33
0.0
  0
SOLID
  5
1CE
330
1CA
100
AcDbEntity
  8
0
  6
Continuous
 62
     7
370
    18
100
AcDbTrace
 10
54.7074061816
 20
71.7971154174
 30
0.0
 11
54.4920215662
 21
70.3971154174
 31
0.0
 12
54.922790797
 22
70.3971154174
 32
0.0
 13
54.922790797
 23
70.3971154174
 33
0.0
  0
LINE
  5
1CF
330
1CA
100
AcDbEntity
  8
0
  6
Continuous
 62
     7
370
     0
100
AcDbLine
 10
67.2074061816
 20
74.7971154174
 30
0.0
 11
54.2074061816
 21
74.7971154174
 31
0.0
  0
LINE
  5
1D0
330
1CA
100
AcDbEntity
  8
0
  6
Continuous
 62
     7
370
     0
100
AcDbLine
 10
62.2074061816
 20
71.7971154174
 30
0.0
 11
54.2074061816
 21
71.7971154174
 31
0.0
  0
LINE
  5
1D1
330
1CA
100
AcDbEntity
  8
0
  6
Continuous
 62
     7
370
     0
100
AcDbLine
 10
54.7074061816
 20
74.7971154174
 30
0.0
 11
54.7074061816
 21
77.4894231097
 31
0.0
  0
LINE
  5
1D2
330
1CA
100
AcDbEntity
  8
0
  6
Continuous
 62
     7
370
     0
100
AcDbLine
 10
54.7074061816
 20
74.7971154174
 30
0.0
 11
54.7074061816
 21
71.7971154174
 31
0.0
  0
LINE
  5
1D3
330
1CA
100
AcDbEntity
  8
0
  6
Continuous
 62
     7
370
     0
100
AcDbLine
 10
54.7074061816
 20
71.7971154174
 30
0.0
 11
54.7074061816
 21
69.1048077251
 31
0.0
  0
MTEXT
  5
1D4
330
1CA
100
AcDbEntity
  8
0
  6
Continuous
 62
     7
370
    18
100
AcDbMText
 10
52.9027113459
 20
72.779893202
 30
0.0
 40
1.4
 41
0.0
 71
     1
 72
     1
  1
3
  7
SLDTEXTSTYLE0
 11
-7.044195017643634E-15
 21
1.0
 31
0.0
 73
     1
 44
1.0
  0
ENDBLK
  5
1CC
330
1CA
100
AcDbEntity
  8
0
100
AcDbBlockEnd
  0
BLOCK
  5
1D6
330
1D5
100
AcDbEntity
  8
0
100
AcDbBlockBegin
  2
SW_NOTE_0_1
 70
     0
 10
0.0
 20
0.0
 30
0.0
  3
SW_NOTE_0_1
  1

  0
LINE
  5
1D8
330
1D5
100
AcDbEntity
  8
0
  6
Continuous
 62
     0
370
     0
100
AcDbLine
 10
17.5187505186
 20
0.0
 30
0.0
 11
0.0
 21
0.0
 31
0.0
  0
MTEXT
  5
1D9
330
1D5
100
AcDbEntity
  8
0
  6
Continuous
 62
     0
370
     0
100
AcDbMText
 10
0.2378125
 20
1.9389767261
 30
0.0
 40
1.5
 41
0.0
 71
     1
 72
     1
  1
Smussare in opera
  7
SLDTEXTSTYLE0
 73
     1
 44
1.0
  0
ENDBLK
  5
1D7
330
1D5
100
AcDbEntity
  8
0
100
AcDbBlockEnd
  0
ENDSEC
  0
SECTION
  2
ENTITIES
  0
LINE
  5
6E
330
1F
100
AcDbEntity
  8
0
  6
Continuous
 62
     7
370
    18
100
AcDbLine
 10
4.7536070691
 20
101.299132787
 30
0.0
 11
146.2536070691
 21
101.299132787
 31
0.0
  0
LINE
  5
6F
330
1F
100
AcDbEntity
  8
0
  6
Continuous
 62
     7
370
    18
100
AcDbLine
 10
4.7536070691
 20
3.299132787
 30
0.0
 11
146.2536070691
 21
3.299132787
 31
0.0
  0
LINE
  5
70
330
1F
100
AcDbEntity
  8
0
  6
Continuous
 62
     7
370
    18
100
AcDbLine
 10
4.7536070691
 20
3.299132787
 30
0.0
 11
4.7536070691
 21
98.799132787
 31
0.0
  0
LINE
  5
71
330
1F
100
AcDbEntity
  8
0
  6
Continuous
 62
     7
370
    18
100
AcDbLine
 10
4.7536070691
 20
98.799132787
 30
0.0
 11
146.2536070691
 21
98.799132787
 31
0.0
  0
LINE
  5
72
330
1F
100
AcDbEntity
  8
0
  6
Continuous
 62
     7
370
    18
100
AcDbLine
 10
146.2536070691
 20
3.299132787
 30
0.0
 11
146.2536070691
 21
98.799132787
 31
0.0
  0
LINE
  5
73
330
1F
100
AcDbEntity
  8
0
  6
Continuous
 62
     7
370
    18
100
AcDbLine
 10
2.2536070691
 20
3.299132787
 30
0.0
 11
2.2536070691
 21
98.799132787
 31
0.0
  0
LINE
  5
74
330
1F
100
AcDbEntity
  8
0
  6
Continuous
 62
     7
370
    18
100
AcDbLine
 10
146.2536070691
 20
101.299132787
 30
0.0
 11
146.2536070691
 21
98.799132787
 31
0.0
  0
LINE
  5
75
330
1F
100
AcDbEntity
  8
0
  6
Continuous
 62
     7
370
    18
100
AcDbLine
 10
2.2536070691
 20
98.799132787
 30
0.0
 11
4.7536070691
 21
98.799132787
 31
0.0
  0
LINE
  5
76
330
1F
100
AcDbEntity
  8
0
  6
Continuous
 62
     7
370
    18
100
AcDbLine
 10
2.2536070691
 20
98.799132787
 30
0.0
 11
2.2536070691
 21
101.299132787
 31
0.0
  0
LINE
  5
77
330
1F
100
AcDbEntity
  8
0
  6
Continuous
 62
     7
370
    18
100
AcDbLine
 10
2.2536070691
 20
101.299132787
 30
0.0
 11
4.7536070691
 21
101.299132787
 31
0.0
  0
LINE
  5
78
330
1F
100
AcDbEntity
  8
0
  6
Continuous
 62
     7
370
    18
100
AcDbLine
 10
4.7536070691
 20
98.799132787
 30
0.0
 11
4.7536070691
 21
101.299132787
 31
0.0
  0
LINE
  5
79
330
1F
100
AcDbEntity
  8
0
  6
Continuous
 62
     7
370
    18
100
AcDbLine
 10
2.2536070691
 20
3.299132787
 30
0.0
 11
4.7536070691
 21
3.299132787
 31
0.0
  0
LINE
  5
7A
330
1F
100
AcDbEntity
  8
0
  6
Continuous
 62
     7
370
    18
100
AcDbLine
 10
75.5036070691
 20
101.299132787
 30
0.0
 11
75.5036070691
 21
98.799132787
 31
0.0
  0
LINE
  5
7B
330
1F
100
AcDbEntity
  8
0
  6
Continuous
 62
     7
370
    18
100
AcDbLine
 10
4.7536070691
 20
51.049132787
 30
0.0
 11
2.2536070691
 21
51.049132787
 31
0.0
  0
LINE
  5
7C
330
1F
100
AcDbEntity
  8
0
  6
Continuous
 62
     7
370
    18
100
AcDbLine
 10
4.7536070691
 20
76.049132787
 30
0.0
 11
2.2536070691
 21
76.049132787
 31
0.0
  0
LINE
  5
7D
330
1F
100
AcDbEntity
  8
0
  6
Continuous
 62
     7
370
    18
100
AcDbLine
 10
4.7536070691
 20
26.049132787
 30
0.0
 11
2.2536070691
 21
26.049132787
 31
0.0
  0
LINE
  5
7E
330
1F
100
AcDbEntity
  8
0
  6
Continuous
 62
     7
370
    18
100
AcDbLine
 10
50.5036070691
 20
101.299132787
 30
0.0
 11
50.5036070691
 21
98.799132787
 31
0.0
  0
LINE
  5
7F
330
1F
100
AcDbEntity
  8
0
  6
Continuous
 62
     7
370
    18
100
AcDbLine
 10
100.5036070691
 20
101.299132787
 30
0.0
 11
100.5036070691
 21
98.799132787
 31
0.0
  0
LINE
  5
80
330
1F
100
AcDbEntity
  8
0
  6
Continuous
 62
     7
370
    18
100
AcDbLine
 10
25.5036070691
 20
101.299132787
 30
0.0
 11
25.5036070691
 21
98.799132787
 31
0.0
  0
LINE
  5
81
330
1F
100
AcDbEntity
  8
0
  6
Continuous
 62
     7
370
    18
100
AcDbLine
 10
125.5036070691
 20
101.299132787
 30
0.0
 11
125.5036070691
 21
98.799132787
 31
0.0
  0
LINE
  5
82
330
1F
100
AcDbEntity
  8
0
  6
Continuous
 62
     7
370
    18
100
AcDbLine
 10
137.748239003
 20
5.0503858309
 30
0.0
 11
146.248239003
 21
5.0503858309
 31
0.0
  0
LINE
  5
83
330
1F
100
AcDbEntity
  8
0
  6
Continuous
 62
     7
370
    18
100
AcDbLine
 10
137.748239003
 20
8.0503858309
 30
0.0
 11
146.248239003
 21
8.0503858309
 31
0.0
  0
LINE
  5
84
330
1F
100
AcDbEntity
  8
0
  6
Continuous
 62
     7
370
    18
100
AcDbLine
 10
137.748239003
 20
9.8003858309
 30
0.0
 11
146.248239003
 21
9.8003858309
 31
0.0
  0
LINE
  5
85
330
1F
100
AcDbEntity
  8
0
  6
Continuous
 62
     7
370
    18
100
AcDbLine
 10
137.748239003
 20
9.8003858309
 30
0.0
 11
137.748239003
 21
3.3003858309
 31
0.0
  0
LINE
  5
86
330
1F
100
AcDbEntity
  8
0
  6
Continuous
 62
     7
370
    18
100
AcDbLine
 10
52.6534651281
 20
3.299132787
 30
0.0
 11
146.2536070691
 21
3.299132787
 31
0.0
  0
LINE
  5
87
330
1F
100
AcDbEntity
  8
0
  6
Continuous
 62
     7
370
    18
100
AcDbLine
 10
52.648239003
 20
3.3003858309
 30
0.0
 11
146.248239003
 21
3.3003858309
 31
0.0
  0
LINE
  5
88
330
1F
100
AcDbEntity
  8
0
  6
Continuous
 62
     7
370
    18
100
AcDbLine
 10
52.6480970621
 20
3.3003858309
 30
0.0
 11
146.248239003
 21
3.3003858309
 31
0.0
  0
LINE
  5
89
330
1F
100
AcDbEntity
  8
0
  6
Continuous
 62
     7
370
    18
100
AcDbLine
 10
146.248239003
 20
25.4003858309
 30
0.0
 11
146.248239003
 21
3.3003858309
 31
0.0
  0
LINE
  5
8A
330
1F
100
AcDbEntity
  8
0
  6
Continuous
 62
     7
370
    18
100
AcDbLine
 10
137.7480970621
 20
17.3999291911
 30
0.0
 11
137.7480970621
 21
3.3003858309
 31
0.0
  0
LINE
  5
8B
330
1F
100
AcDbEntity
  8
0
  6
Continuous
 62
     7
370
    18
100
AcDbLine
 10
146.2536070691
 20
25.399132787
 30
0.0
 11
146.2536070691
 21
3.299132787
 31
0.0
  0
LINE
  5
8C
330
1F
100
AcDbEntity
  8
0
  6
Continuous
 62
     7
370
    18
100
AcDbLine
 10
137.7480970621
 20
9.8003858309
 30
0.0
 11
146.248239003
 21
9.8003858309
 31
0.0
  0
LINE
  5
8D
330
1F
100
AcDbEntity
  8
0
  6
Continuous
 62
     7
370
    18
100
AcDbLine
 10
52.6480970621
 20
25.4003858309
 30
0.0
 11
52.6480970621
 21
3.3003858309
 31
0.0
  0
LINE
  5
8E
330
1F
100
AcDbEntity
  8
0
  6
Continuous
 62
     7
370
    18
100
AcDbLine
 10
65.1813598558
 20
17.3999291911
 30
0.0
 11
65.1813598558
 21
14.4003858309
 31
0.0
  0
LINE
  5
8F
330
1F
100
AcDbEntity
  8
0
  6
Continuous
 62
     7
370
    18
100
AcDbLine
 10
52.6480970621
 20
14.4003858309
 30
0.0
 11
82.3980970621
 21
14.4003858309
 31
0.0
  0
LINE
  5
90
330
1F
100
AcDbEntity
  8
0
  6
Continuous
 62
     7
370
    18
100
AcDbLine
 10
52.6480970621
 20
6.3003858309
 30
0.0
 11
82.4308449159
 21
6.3003858309
 31
0.0
  0
LINE
  5
91
330
1F
100
AcDbEntity
  8
0
  6
Continuous
 62
     7
370
    18
100
AcDbLine
 10
82.3980970621
 20
14.4003858309
 30
0.0
 11
82.3980970621
 21
3.3003858309
 31
0.0
  0
LINE
  5
92
330
1F
100
AcDbEntity
  8
0
  6
CENTERX2
 62
     7
370
    18
100
AcDbLine
 10
138.5484407081
 20
12.1788092224
 30
0.0
 11
145.2972666519
 21
12.1788092224
 31
0.0
  0
LINE
  5
93
330
1F
100
AcDbEntity
  8
0
  6
CENTERX2
 62
     7
370
    18
100
AcDbLine
 10
143.744984411
 20
13.8048155097
 30
0.0
 11
143.744984411
 21
10.5073734654
 31
0.0
  0
LINE
  5
94
330
1F
100
AcDbEntity
  8
0
  6
Continuous
 62
     7
370
    18
100
AcDbLine
 10
82.3980970621
 20
14.4003858309
 30
0.0
 11
137.7480970621
 21
14.4003858309
 31
0.0
  0
LINE
  5
95
330
1F
100
AcDbEntity
  8
TESTO
100
AcDbLine
 10
62.623003192
 20
10.8128736949
 30
0.0
 11
60.5242329032
 21
9.2005587141
 31
0.0
  0
LINE
  5
96
330
1F
100
AcDbEntity
  8
0
  6
Continuous
 62
     7
370
    18
100
AcDbLine
 10
82.3980970621
 20
7.3003858309
 30
0.0
 11
137.7480970621
 21
7.3003858309
 31
0.0
  0
LINE
  5
97
330
1F
100
AcDbEntity
  8
TESTO
100
AcDbLine
 10
58.6243003561
 20
10.713961473
 30
0.0
 11
59.2349849559
 21
10.2360343949
 31
0.0
  0
LINE
  5
98
330
1F
100
AcDbEntity
  8
0
  6
Continuous
 62
     7
370
    18
100
AcDbLine
 10
124.5635382811
 20
14.4003858309
 30
0.0
 11
124.5635382811
 21
12.0337191642
 31
0.0
  0
LINE
  5
99
330
1F
100
AcDbEntity
  8
0
  6
Continuous
 62
     7
370
    18
100
AcDbLine
 10
124.5635382811
 20
12.0337191642
 30
0.0
 11
124.5635382811
 21
9.6670524975
 31
0.0
  0
LINE
  5
9A
330
1F
100
AcDbEntity
  8
0
  6
Continuous
 62
     7
370
    18
100
AcDbLine
 10
139.3585723089
 20
12.7895050216
 30
0.0
 11
139.3585723089
 21
11.5395050216
 31
0.0
  0
LINE
  5
9B
330
1F
100
AcDbEntity
  8
0
  6
Continuous
 62
     7
370
    18
100
AcDbLine
 10
141.4856259733
 20
13.1645050216
 30
0.0
 11
141.475448683
 21
11.1645050216
 31
0.0
  0
LINE
  5
9C
330
1F
100
AcDbEntity
  8
0
  6
Continuous
 62
     7
370
    18
100
AcDbLine
 10
141.4856259733
 20
13.1645050216
 30
0.0
 11
139.3585723089
 21
12.7895050216
 31
0.0
  0
LINE
  5
9D
330
1F
100
AcDbEntity
  8
0
  6
Continuous
 62
     7
370
    18
100
AcDbLine
 10
141.475448683
 20
11.1645050216
 30
0.0
 11
139.3585723089
 21
11.5395050216
 31
0.0
  0
LINE
  5
9E
330
1F
100
AcDbEntity
  8
0
  6
Continuous
 62
     7
370
    18
100
AcDbLine
 10
124.5635382811
 20
9.6670524975
 30
0.0
 11
124.5635382811
 21
7.3003858309
 31
0.0
  0
LINE
  5
9F
330
1F
100
AcDbEntity
  8
0
  6
Continuous
 62
     7
370
    18
100
AcDbLine
 10
124.5635382811
 20
12.0337191642
 30
0.0
 11
137.7480970621
 21
12.0337191642
 31
0.0
  0
LINE
  5
A0
330
1F
100
AcDbEntity
  8
0
  6
Continuous
 62
     7
370
    18
100
AcDbLine
 10
124.5635382811
 20
9.6670524975
 30
0.0
 11
137.7480970621
 21
9.6670524975
 31
0.0
  0
LINE
  5
A1
330
1F
100
AcDbEntity
  8
0
  6
Continuous
 62
     7
370
    18
100
AcDbLine
 10
130.4012357387
 20
7.3003858309
 30
0.0
 11
130.4012357387
 21
3.3003858309
 31
0.0
  0
LINE
  5
A2
330
1F
100
AcDbEntity
  8
0
  6
Continuous
 62
     7
370
    18
100
AcDbLine
 10
101.908557243
 20
7.3003858309
 30
0.0
 11
101.908557243
 21
3.3003858309
 31
0.0
  0
LINE
  5
A3
330
1F
100
AcDbEntity
  8
0
  6
Continuous
 62
     7
370
    18
100
AcDbLine
 10
101.908557243
 20
5.3003858309
 30
0.0
 11
82.3980970621
 21
5.3003858309
 31
0.0
  0
LINE
  5
A4
330
1F
100
AcDbEntity
  8
0
  6
Continuous
 62
     7
370
    18
100
AcDbLine
 10
82.6480970621
 20
25.4003858309
 30
0.0
 11
82.6480970621
 21
21.4003858309
 31
0.0
  0
LINE
  5
A5
330
1F
100
AcDbEntity
  8
0
  6
Continuous
 62
     7
370
    18
100
AcDbLine
 10
52.6480970621
 20
17.3999291911
 30
0.0
 11
146.248239003
 21
17.3999291911
 31
0.0
  0
LINE
  5
A6
330
1F
100
AcDbEntity
  8
TESTO
100
AcDbLine
 10
54.7238641002
 20
13.7043898675
 30
0.0
 11
65.7593952755
 21
13.7043898675
 31
0.0
  0
LINE
  5
A7
330
1F
100
AcDbEntity
  8
TESTO
100
AcDbLine
 10
54.7238641002
 20
13.7043898675
 30
0.0
 11
55.7620571918
 21
12.9068303234
 31
0.0
  0
LINE
  5
A8
330
1F
100
AcDbEntity
  8
0
  6
Continuous
 62
     7
370
    18
100
AcDbLine
 10
80.2801100995
 20
17.3999291911
 30
0.0
 11
80.2801100995
 21
14.4003858309
 31
0.0
  0
LINE
  5
A9
330
1F
100
AcDbEntity
  8
0
  6
Continuous
 62
     7
370
    18
100
AcDbLine
 10
112.6563188664
 20
17.3999291911
 30
0.0
 11
112.6563188664
 21
14.4003858309
 31
0.0
  0
LINE
  5
AA
330
1F
100
AcDbEntity
  8
0
  6
Continuous
 62
     7
370
    18
100
AcDbLine
 10
126.0538884859
 20
17.3999291911
 30
0.0
 11
126.0538884859
 21
14.4003858309
 31
0.0
  0
LINE
  5
AB
330
1F
100
AcDbEntity
  8
0
  6
Continuous
 62
     7
370
    18
100
AcDbLine
 10
52.6480970621
 20
21.4003858309
 30
0.0
 11
146.248239003
 21
21.4003858309
 31
0.0
  0
LINE
  5
AC
330
1F
100
AcDbEntity
  8
TESTO
100
AcDbLine
 10
65.7593952755
 20
13.7043898675
 30
0.0
 11
64.7120918169
 21
12.8998315675
 31
0.0
  0
LINE
  5
AD
330
1F
100
AcDbEntity
  8
TESTO
100
AcDbLine
 10
57.3386225766
 20
11.6956830142
 30
0.0
 11
58.2421512766
 21
11.0015751995
 31
0.0
  0
LINE
  5
AE
330
1F
100
AcDbEntity
  8
0
  6
Continuous
 62
     7
370
    18
100
AcDbLine
 10
52.6480970621
 20
25.4003858309
 30
0.0
 11
146.248239003
 21
25.4003858309
 31
0.0
  0
LINE
  5
AF
330
1F
100
AcDbEntity
  8
0
  6
Continuous
 62
     7
370
    18
100
AcDbLine
 10
98.1480970621
 20
25.4003858309
 30
0.0
 11
98.1480970621
 21
21.4003858309
 31
0.0
  0
LINE
  5
B0
330
1F
100
AcDbEntity
  8
0
  6
Continuous
 62
     7
370
    18
100
AcDbLine
 10
112.6480970621
 20
21.4003858309
 30
0.0
 11
112.6480970621
 21
17.3999291911
 31
0.0
  0
LINE
  5
B1
330
1F
100
AcDbEntity
  8
0
  6
Continuous
 62
     7
370
    18
100
AcDbLine
 10
112.6480970621
 20
21.4003858309
 30
0.0
 11
112.6480970621
 21
25.4003858309
 31
0.0
  0
LINE
  5
B2
330
1F
100
AcDbEntity
  8
0
  6
Continuous
 62
     7
370
    18
100
AcDbLine
 10
112.6480970621
 20
19.4003858309
 30
0.0
 11
146.248239003
 21
19.4003858309
 31
0.0
  0
LINE
  5
B3
330
1F
100
AcDbEntity
  8
0
  6
Continuous
 62
     7
370
    18
100
AcDbLine
 10
95.7701532032
 20
17.3999291911
 30
0.0
 11
95.7701532032
 21
14.4003858309
 31
0.0
  0
LINE
  5
B4
330
1F
100
AcDbEntity
  8
0
  6
Continuous
 62
     7
370
    18
100
AcDbLine
 10
146.2536070691
 20
98.799132787
 30
0.0
 11
52.6536070691
 21
98.799132787
 31
0.0
  0
LINE
  5
B5
330
1F
100
AcDbEntity
  8
0
  6
Continuous
 62
     7
370
    18
100
AcDbLine
 10
60.6536070691
 20
96.299132787
 30
0.0
 11
60.6536070691
 21
98.799132787
 31
0.0
  0
LINE
  5
B6
330
1F
100
AcDbEntity
  8
0
  6
Continuous
 62
     7
370
    18
100
AcDbLine
 10
52.6536070691
 20
96.299132787
 30
0.0
 11
146.2536070691
 21
96.299132787
 31
0.0
  0
LINE
  5
B7
330
1F
100
AcDbEntity
  8
0
  6
Continuous
 62
     7
370
    18
100
AcDbLine
 10
52.6536070691
 20
98.799132787
 30
0.0
 11
146.2536070691
 21
98.799132787
 31
0.0
  0
LINE
  5
B8
330
1F
100
AcDbEntity
  8
0
  6
Continuous
 62
     7
370
    18
100
AcDbLine
 10
146.2536070691
 20
96.299132787
 30
0.0
 11
146.2536070691
 21
98.799132787
 31
0.0
  0
LINE
  5
B9
330
1F
100
AcDbEntity
  8
0
  6
Continuous
 62
     7
370
    18
100
AcDbLine
 10
52.6536070691
 20
96.299132787
 30
0.0
 11
52.6536070691
 21
98.799132787
 31
0.0
  0
LINE
  5
BA
330
1F
100
AcDbEntity
  8
0
  6
Continuous
 62
     7
370
    18
100
AcDbLine
 10
52.6536070691
 20
98.799132787
 30
0.0
 11
146.2536070691
 21
98.799132787
 31
0.0
  0
LINE
  5
BB
330
1F
100
AcDbEntity
  8
0
  6
Continuous
 62
     7
370
    18
100
AcDbLine
 10
146.2536070691
 20
96.299132787
 30
0.0
 11
146.2536070691
 21
98.799132787
 31
0.0
  0
LINE
  5
BC
330
1F
100
AcDbEntity
  8
0
  6
Continuous
 62
     7
370
    18
100
AcDbLine
 10
138.2536070691
 20
96.299132787
 30
0.0
 11
138.2536070691
 21
98.799132787
 31
0.0
  0
LINE
  5
BD
330
1F
100
AcDbEntity
  8
0
  6
Continuous
 62
     7
370
    18
100
AcDbLine
 10
123.459563286
 20
96.299132787
 30
0.0
 11
123.459563286
 21
98.799132787
 31
0.0
  0
LINE
  5
BE
330
1F
100
AcDbEntity
  8
0
  6
Continuous
 62
     7
370
    18
100
AcDbLine
 10
52.6536070691
 20
93.799132787
 30
0.0
 11
146.2536070691
 21
93.799132787
 31
0.0
  0
LINE
  5
BF
330
1F
100
AcDbEntity
  8
0
  6
Continuous
 62
     7
370
    18
100
AcDbLine
 10
52.6536070691
 20
91.299132787
 30
0.0
 11
146.2536070691
 21
91.299132787
 31
0.0
  0
LINE
  5
C0
330
1F
100
AcDbEntity
  8
0
  6
Continuous
 62
     7
370
    18
100
AcDbLine
 10
52.6536070691
 20
88.799132787
 30
0.0
 11
146.2536070691
 21
88.799132787
 31
0.0
  0
LINE
  5
C1
330
1F
100
AcDbEntity
  8
0
  6
Continuous
 62
     7
370
    18
100
AcDbLine
 10
52.6536070691
 20
96.299132787
 30
0.0
 11
52.6536070691
 21
88.799132787
 31
0.0
  0
LINE
  5
C2
330
1F
100
AcDbEntity
  8
0
  6
Continuous
 62
     7
370
    18
100
AcDbLine
 10
146.2536070691
 20
96.299132787
 30
0.0
 11
146.2536070691
 21
88.799132787
 31
0.0
  0
LINE
  5
C3
330
1F
100
AcDbEntity
  8
0
  6
Continuous
 62
     7
370
    18
100
AcDbLine
 10
60.6536070691
 20
96.299132787
 30
0.0
 11
60.6536070691
 21
88.799132787
 31
0.0
  0
LINE
  5
C4
330
1F
100
AcDbEntity
  8
0
  6
Continuous
 62
     7
370
    18
100
AcDbLine
 10
123.459563286
 20
96.299132787
 30
0.0
 11
123.459563286
 21
88.799132787
 31
0.0
  0
LINE
  5
C5
330
1F
100
AcDbEntity
  8
0
  6
Continuous
 62
     7
370
    18
100
AcDbLine
 10
138.2536070691
 20
96.299132787
 30
0.0
 11
138.2536070691
 21
88.799132787
 31
0.0
  0
LINE
  5
C6
330
1F
100
AcDbEntity
  8
0
  6
Continuous
 62
     7
370
    18
100
AcDbLine
 10
146.2536070691
 20
96.299132787
 30
0.0
 11
146.2536070691
 21
88.799132787
 31
0.0
  0
LINE
  5
C7
330
1F
100
AcDbEntity
  8
0
  6
Continuous
 62
     7
370
    18
100
AcDbLine
 10
82.3980970621
 20
8.8503858309
 30
0.0
 11
124.5635382811
 21
8.8503858309
 31
0.0
  0
LINE
  5
C8
330
1F
100
AcDbEntity
  8
0
  6
Continuous
 62
     7
370
    18
100
AcDbLine
 10
112.6563188664
 20
8.8503858309
 30
0.0
 11
112.6563188664
 21
7.3003858309
 31
0.0
  0
CIRCLE
  5
C9
330
1F
100
AcDbEntity
  8
0
  6
Continuous
 62
     7
370
    18
100
AcDbCircle
 10
143.744984411
 20
12.1788092224
 30
0.0
 40
0.6250000000000285
  0
CIRCLE
  5
CA
330
1F
100
AcDbEntity
  8
0
  6
Continuous
 62
     7
370
    18
100
AcDbCircle
 10
143.744984411
 20
12.1788092224
 30
0.0
 40
0.999999999999997
  0
INSERT
  5
CB
330
1F
100
AcDbEntity
  8
0
  6
Continuous
 62
     7
100
AcDbBlockReference
  2
Particolare privo di bave e dif.sup.
 10
52.4974650575
 20
25.9920832535
 30
0.0
 41
0.1
 42
0.1
 43
0.1
  0
MTEXT
  5
CC
330
1F
100
AcDbEntity
  8
0
  6
Continuous
 62
     7
370
     0
100
AcDbMText
 10
140.6074137238
 20
7.4469284518
 30
0.0
 40
1.4552083333
 41
0.0
 71
     1
 72
     1
  1
A4
  7
SLDTEXTSTYLE0
 73
     1
 44
1.0
  0
MTEXT
  5
CD
330
1F
100
AcDbEntity
  8
0
  6
Continuous
 62
     7
370
     0
100
AcDbMText
 10
14.1281304119
 20
100.6506539552
 30
0.0
 40
1.190625
 41
0.0
 71
     1
 72
     1
  1
1
  7
SLDTEXTSTYLE0
 73
     1
 44
1.0
  0
MTEXT
  5
CE
330
1F
100
AcDbEntity
  8
0
  6
Continuous
 62
     7
370
     0
100
AcDbMText
 10
37.5513192136
 20
100.6506539552
 30
0.0
 40
1.190625
 41
0.0
 71
     1
 72
     1
  1
2
  7
SLDTEXTSTYLE0
 73
     1
 44
1.0
  0
MTEXT
  5
CF
330
1F
100
AcDbEntity
  8
0
  6
Continuous
 62
     7
370
     0
100
AcDbMText
 10
62.7170281701
 20
100.6506539552
 30
0.0
 40
1.190625
 41
0.0
 71
     1
 72
     1
  1
3
  7
SLDTEXTSTYLE0
 73
     1
 44
1.0
  0
MTEXT
  5
D0
330
1F
100
AcDbEntity
  8
0
  6
Continuous
 62
     7
370
     0
100
AcDbMText
 10
87.3969185903
 20
100.6506539552
 30
0.0
 40
1.190625
 41
0.0
 71
     1
 72
     1
  1
4
  7
SLDTEXTSTYLE0
 73
     1
 44
1.0
  0
MTEXT
  5
D1
330
1F
100
AcDbEntity
  8
0
  6
Continuous
 62
     7
370
     0
100
AcDbMText
 10
112.8135616031
 20
100.6506539552
 30
0.0
 40
1.190625
 41
0.0
 71
     1
 72
     1
  1
5
  7
SLDTEXTSTYLE0
 73
     1
 44
1.0
  0
MTEXT
  5
D2
330
1F
100
AcDbEntity
  8
0
  6
Continuous
 62
     7
370
     0
100
AcDbMText
 10
135.4179459623
 20
100.6506539552
 30
0.0
 40
1.190625
 41
0.0
 71
     1
 72
     1
  1
6
  7
SLDTEXTSTYLE0
 73
     1
 44
1.0
  0
MTEXT
  5
D3
330
1F
100
AcDbEntity
  8
0
  6
Continuous
 62
     7
370
     0
100
AcDbMText
 10
3.0241333589
 20
88.8202680836
 30
0.0
 40
1.190625
 41
0.0
 71
     1
 72
     1
  1
A
  7
SLDTEXTSTYLE0
 73
     1
 44
1.0
  0
MTEXT
  5
D4
330
1F
100
AcDbEntity
  8
0
  6
Continuous
 62
     7
370
     0
100
AcDbMText
 10
3.1564250531
 20
64.2227875557
 30
0.0
 40
1.190625
 41
0.0
 71
     1
 72
     1
  1
B
  7
SLDTEXTSTYLE0
 73
     1
 44
1.0
  0
MTEXT
  5
D5
330
1F
100
AcDbEntity
  8
0
  6
Continuous
 62
     7
370
     0
100
AcDbMText
 10
2.9668070202
 20
39.3896746515
 30
0.0
 40
1.190625
 41
0.0
 71
     1
 72
     1
  1
C
  7
SLDTEXTSTYLE0
 73
     1
 44
1.0
  0
MTEXT
  5
D6
330
1F
100
AcDbEntity
  8
0
  6
Continuous
 62
     7
370
     0
100
AcDbMText
 10
2.9668070202
 20
15.5359354831
 30
0.0
 40
1.190625
 41
0.0
 71
     1
 72
     1
  1
D
  7
SLDTEXTSTYLE0
 73
     1
 44
1.0
  0
MTEXT
  5
D7
330
1F
100
AcDbEntity
  8
0
  6
Continuous
 62
     7
370
     0
100
AcDbMText
 10
138.5240283973
 20
95.4207663567
 30
0.0
 40
1.0583333333
 41
0.0
 71
     1
 72
     1
  1
30/01/2026
  7
SLDTEXTSTYLE0
 73
     1
 44
1.0
  0
MTEXT
  5
D8
330
1F
100
AcDbEntity
  8
0
  6
Continuous
 62
     7
370
     0
100
AcDbMText
 10
123.9594099788
 20
95.4207663567
 30
0.0
 40
1.0583333333
 41
0.0
 71
     1
 72
     1
  1
Marco Monaco
  7
SLDTEXTSTYLE0
 73
     1
 44
1.0
  0
MTEXT
  5
D9
330
1F
100
AcDbEntity
  8
0
  6
Continuous
 62
     7
370
     0
100
AcDbMText
 10
55.8973200762
 20
95.6839270628
 30
0.0
 40
1.3229166667
 41
0.0
 71
     1
 72
     1
  1
00
  7
SLDTEXTSTYLE0
 73
     1
 44
1.0
  0
MTEXT
  5
DA
330
1F
100
AcDbEntity
  8
0
  6
Continuous
 62
     7
370
     0
100
AcDbMText
 10
61.5443490279
 20
95.6839270628
 30
0.0
 40
1.3229166667
 41
0.0
 71
     1
 72
     1
  1
EMISSIONE
  7
SLDTEXTSTYLE0
 73
     1
 44
1.0
  0
MTEXT
  5
DC
330
1F
100
AcDbEntity
  8
0
  6
Continuous
 62
     7
370
     0
100
AcDbMText
 10
53.543357489
 20
98.1135350432
 30
0.0
 40
1.0583333333
 41
0.0
 71
     1
 72
     1
  1
Revisione
  7
SLDTEXTSTYLE1
 73
     1
 44
1.0
  0
MTEXT
  5
DD
330
1F
100
AcDbEntity
  8
0
  6
Continuous
 62
     7
370
     0
100
AcDbMText
 10
61.5443490279
 20
98.1043762043
 30
0.0
 40
1.0583333333
 41
0.0
 71
     1
 72
     1
  1
Descrizione revisione
  7
SLDTEXTSTYLE1
 73
     1
 44
1.0
  0
MTEXT
  5
DE
330
1F
100
AcDbEntity
  8
0
  6
Continuous
 62
     7
370
     0
100
AcDbMText
 10
126.7907206303
 20
98.1043762043
 30
0.0
 40
1.0583333333
 41
0.0
 71
     1
 72
     1
  1
Disegnatore
  7
SLDTEXTSTYLE1
 73
     1
 44
1.0
  0
MTEXT
  5
DF
330
1F
100
AcDbEntity
  8
0
  6
Continuous
 62
     7
370
     0
100
AcDbMText
 10
139.150022975
 20
98.1043762043
 30
0.0
 40
1.0583333333
 41
0.0
 71
     1
 72
     1
  1
Data
  7
SLDTEXTSTYLE1
 73
     1
 44
1.0
  0
MTEXT
  5
E0
330
1F
100
AcDbEntity
  8
0
  6
Continuous
 62
     7
370
     0
100
AcDbMText
 10
136.6550420683
 20
9.4024655974
 30
0.0
 40
1.190625
 41
0.0
 71
     3
 72
     1
  1
3
  7
SLDTEXTSTYLE0
 73
     1
 44
1.0
  0
MTEXT
  5
E1
330
1F
100
AcDbEntity
  8
0
  6
Continuous
 62
     7
370
     0
100
AcDbMText
 10
136.6454343201
 20
13.9665514064
 30
0.0
 40
1.190625
 41
0.0
 71
     3
 72
     1
  1
45
  7
SLDTEXTSTYLE0
 73
     1
 44
1.0
  0
MTEXT
  5
E2
330
1F
100
AcDbEntity
  8
0
  6
Continuous
 62
     7
370
     0
100
AcDbMText
 10
136.749863237
 20
11.7161874256
 30
0.0
 40
1.190625
 41
0.0
 71
     3
 72
     1
  1
12
  7
SLDTEXTSTYLE0
 73
     1
 44
1.0
  0
MTEXT
  5
E3
330
1F
100
AcDbEntity
  8
0
  6
Continuous
 62
     7
370
     0
100
AcDbMText
 10
129.1496610459
 20
16.1739959433
 30
0.0
 40
1.190625
 41
0.0
 71
     1
 72
     1
  1
0.5mm
  7
SLDTEXTSTYLE0
 73
     1
 44
1.0
  0
MTEXT
  5
E4
330
1F
100
AcDbEntity
  8
0
  6
Continuous
 62
     7
370
     0
100
AcDbMText
 10
114.9290005572
 20
16.1739959433
 30
0.0
 40
1.190625
 41
0.0
 71
     1
 72
     1
  1
0.5mm x45°
  7
SLDTEXTSTYLE0
 73
     1
 44
1.0
  0
MTEXT
  5
E6
330
1F
100
AcDbEntity
  8
0
  6
Continuous
 62
     7
370
     0
100
AcDbMText
 10
106.108817124
 20
16.1681399763
 30
0.0
 40
1.3229166667
 41
0.0
 71
     1
 72
     1
  1
\U+00B10 10\U+2019
  7
SLDTEXTSTYLE2
 73
     1
 44
1.0
  0
MTEXT
  5
E8
330
1F
100
AcDbEntity
  8
0
  6
Continuous
 62
     7
370
     0
100
AcDbMText
 10
90.527018443
 20
16.1681399763
 30
0.0
 40
1.3229166667
 41
0.0
 71
     1
 72
     1
  1
IT 8
  7
SLDTEXTSTYLE3
 73
     1
 44
1.0
  0
MTEXT
  5
E9
330
1F
100
AcDbEntity
  8
0
  6
Continuous
 62
     7
370
     0
100
AcDbMText
 10
81.4329395374
 20
17.093495195
 30
0.0
 40
0.6614583333
 41
0.0
 71
     1
 72
     1
  1
Grado Tolleranza
  7
SLDTEXTSTYLE0
 73
     1
 44
1.0
  0
MTEXT
  5
EA
330
1F
100
AcDbEntity
  8
0
  6
Continuous
 62
     7
370
     0
100
AcDbMText
 10
107.3913114063
 20
24.2017985681
 30
0.0
 40
1.3229166667
 41
0.0
 71
     1
 72
     1
  1
3.2
  7
SLDTEXTSTYLE0
 73
     1
 44
1.0
  0
MTEXT
  5
EB
330
1F
100
AcDbEntity
  8
0
  6
Continuous
 62
     7
370
     0
100
AcDbMText
 10
97.477882379
 20
24.2017985681
 30
0.0
 40
1.3229166667
 41
0.0
 71
     3
 72
     1
  1
0.01
  7
SLDTEXTSTYLE0
 73
     1
 44
1.0
  0
MTEXT
  5
EC
330
1F
100
AcDbEntity
  8
0
  6
Continuous
 62
     7
370
     0
100
AcDbMText
 10
124.3571808081
 20
8.6355485987
 30
0.0
 40
0.9260416667
 41
0.0
 71
     3
 72
     1
  1
00
  7
SLDTEXTSTYLE0
 73
     1
 44
1.0
  0
MTEXT
  5
ED
330
1F
100
AcDbEntity
  8
0
  6
Continuous
 62
     7
370
     0
100
AcDbMText
 10
58.3203369889
 20
24.2017985681
 30
0.0
 40
1.3229166667
 41
0.0
 71
     1
 72
     1
  1
AISI 304
  7
SLDTEXTSTYLE0
 73
     1
 44
1.0
  0
MTEXT
  5
EE
330
1F
100
AcDbEntity
  8
0
  6
Continuous
 62
     7
370
     0
100
AcDbMText
 10
88.9162250132
 20
4.8521953092
 30
0.0
 40
0.9260416667
 41
0.0
 71
     1
 72
     1
  1
30/01/2026
  7
SLDTEXTSTYLE0
 73
     1
 44
1.0
  0
MTEXT
  5
EF
330
1F
100
AcDbEntity
  8
0
  6
Continuous
 62
     7
370
     0
100
AcDbMText
 10
88.9162250132
 20
6.861549881
 30
0.0
 40
0.9260416667
 41
0.0
 71
     1
 72
     1
  1
Marco Monaco
  7
SLDTEXTSTYLE0
 73
     1
 44
1.0
  0
MTEXT
  5
F0
330
1F
100
AcDbEntity
  8
0
  6
Continuous
 62
     7
370
     0
100
AcDbMText
 10
83.8534661996
 20
10.6831885174
 30
0.0
 40
1.0583333333
 41
0.0
 71
     1
 72
     1
  1
AISI304
  7
SLDTEXTSTYLE0
 73
     1
 44
1.0
  0
MTEXT
  5
F1
330
1F
100
AcDbEntity
  8
0
  6
Continuous
 62
     7
370
     0
100
AcDbMText
 10
83.8534661996
 20
12.3811458269
 30
0.0
 40
1.0583333333
 41
0.0
 71
     1
 72
     1
  1
Lama di contenimento 45x12 sp.3
  7
SLDTEXTSTYLE0
 73
     1
 44
1.0
  0
MTEXT
  5
F3
330
1F
100
AcDbEntity
  8
TESTO
100
AcDbMText
 10
63.3436399895
 20
13.4779786931
 30
0.0
 40
2.4
 41
0.0
 71
     1
 72
     1
  1
A
  7
SLDTEXTSTYLE4
 73
     1
 44
1.0
  0
MTEXT
  5
F5
330
1F
100
AcDbEntity
  8
FORMAT
100
AcDbMText
 10
67.5114376741
 20
10.6133346237
 30
0.0
 40
0.675
 41
0.0
 71
     1
 72
     1
  1
Tel. 0341/632080
  7
SLDTEXTSTYLE5
 73
     1
 44
1.0
  0
MTEXT
  5
F6
330
1F
100
AcDbEntity
  8
FORMAT
100
AcDbMText
 10
67.5762659425
 20
7.5714732315
 30
0.0
 40
0.675
 41
0.0
 71
     1
 72
     1
  1
E-mail: info@decasrl.biz
  7
SLDTEXTSTYLE5
 73
     1
 44
1.0
  0
MTEXT
  5
F7
330
1F
100
AcDbEntity
  8
FORMAT
100
AcDbMText
 10
55.0658636552
 20
8.9704757689
 30
0.0
 40
0.675
 41
0.0
 71
     1
 72
     1
  1
VIBROALIMENTATORI
  7
SLDTEXTSTYLE5
 73
     1
 44
1.0
  0
MTEXT
  5
F8
330
1F
100
AcDbEntity
  8
FORMAT
100
AcDbMText
 10
57.4110626816
 20
7.8494324451
 30
0.0
 40
0.675
 41
0.0
 71
     1
 72
     1
  1
ELEVATORI
  7
SLDTEXTSTYLE5
 73
     1
 44
1.0
  0
MTEXT
  5
F9
330
1F
100
AcDbEntity
  8
FORMAT
100
AcDbMText
 10
67.4109861016
 20
12.579906342
 30
0.0
 40
0.675
 41
0.0
 71
     1
 72
     1
  1
23804 Monte Marenzo (Lc)
  7
SLDTEXTSTYLE5
 73
     1
 44
1.0
  0
MTEXT
  5
FA
330
1F
100
AcDbEntity
  8
FORMAT
100
AcDbMText
 10
67.4109861016
 20
13.8597870339
 30
0.0
 40
0.675
 41
0.0
 71
     1
 72
     1
  1
Via Della Fontana,6
  7
SLDTEXTSTYLE5
 73
     1
 44
1.0
  0
MTEXT
  5
FB
330
1F
100
AcDbEntity
  8
TESTO
100
AcDbMText
 10
60.894789734
 20
13.5479785276
 30
0.0
 40
2.4
 41
0.0
 71
     1
 72
     1
  1
C
  7
SLDTEXTSTYLE4
 73
     1
 44
1.0
  0
MTEXT
  5
FC
330
1F
100
AcDbEntity
  8
TESTO
100
AcDbMText
 10
58.3203369889
 20
13.4248756844
 30
0.0
 40
2.4
 41
0.0
 71
     1
 72
     1
  1
E
  7
SLDTEXTSTYLE4
 73
     1
 44
1.0
  0
MTEXT
  5
FD
330
1F
100
AcDbEntity
  8
TESTO
100
AcDbMText
 10
59.3382592837
 20
10.5567835669
 30
0.0
 40
1.0
 41
0.0
 71
     1
 72
     1
  1
s.r.l.
  7
SLDTEXTSTYLE4
 73
     1
 44
1.0
  0
MTEXT
  5
FE
330
1F
100
AcDbEntity
  8
TESTO
100
AcDbMText
 10
55.8695203392
 20
13.4779786931
 30
0.0
 40
2.4
 41
0.0
 71
     1
 72
     1
  1
D
  7
SLDTEXTSTYLE4
 73
     1
 44
1.0
  0
MTEXT
  5
FF
330
1F
100
AcDbEntity
  8
0
  6
Continuous
 62
     7
370
     0
100
AcDbMText
 10
52.9188880305
 20
5.6630096753
 30
0.0
 40
0.5291666667
 41
0.0
 71
     1
 72
     1
  1
Deca S.r.l. si riserva tutti i diritti sul presente documento e con quanto rappresentato.^JE' vietato riprodurlo, utilizzarlo e renderlo accessibile a terzi senza autorizzazione scritta
  7
SLDTEXTSTYLE0
 73
     1
 44
1.0
  0
MTEXT
  5
100
330
1F
100
AcDbEntity
  8
0
  6
Continuous
 62
     7
370
     0
100
AcDbMText
 10
131.0731321294
 20
6.8341732208
 30
0.0
 40
0.6614583333
 41
0.0
 71
     1
 72
     1
  1
Revisione
  7
SLDTEXTSTYLE0
 73
     1
 44
1.0
  0
MTEXT
  5
101
330
1F
100
AcDbEntity
  8
0
  6
Continuous
 62
     7
370
     0
100
AcDbMText
 10
83.3184006963
 20
8.3723878198
 30
0.0
 40
0.6614583333
 41
0.0
 71
     1
 72
     1
  1
Disegno
  7
SLDTEXTSTYLE0
 73
     1
 44
1.0
  0
MTEXT
  5
102
330
1F
100
AcDbEntity
  8
0
  6
Continuous
 62
     7
370
     0
100
AcDbMText
 10
125.0317739839
 20
13.4402298632
 30
0.0
 40
0.6614583333
 41
0.0
 71
     1
 72
     1
  1
Lunghezza:
  7
SLDTEXTSTYLE0
 73
     1
 44
1.0
  0
MTEXT
  5
103
330
1F
100
AcDbEntity
  8
0
  6
Continuous
 62
     7
370
     0
100
AcDbMText
 10
125.0397389559
 20
11.1898658824
 30
0.0
 40
0.6614583333
 41
0.0
 71
     1
 72
     1
  1
Larghezza:
  7
SLDTEXTSTYLE0
 73
     1
 44
1.0
  0
MTEXT
  5
104
330
1F
100
AcDbEntity
  8
0
  6
Continuous
 62
     7
370
     0
100
AcDbMText
 10
125.0397389559
 20
8.8761440542
 30
0.0
 40
0.6614583333
 41
0.0
 71
     1
 72
     1
  1
Sp./Ø:
  7
SLDTEXTSTYLE0
 73
     1
 44
1.0
  0
MTEXT
  5
105
330
1F
100
AcDbEntity
  8
0
  6
Continuous
 62
     7
370
     0
100
AcDbMText
 10
83.3184006963
 20
6.5983891021
 30
0.0
 40
0.6614583333
 41
0.0
 71
     1
 72
     1
  1
Disegnatore
  7
SLDTEXTSTYLE0
 73
     1
 44
1.0
  0
MTEXT
  5
106
330
1F
100
AcDbEntity
  8
0
  6
Continuous
 62
     7
370
     0
100
AcDbMText
 10
83.3184006963
 20
4.5890345303
 30
0.0
 40
0.6614583333
 41
0.0
 71
     1
 72
     1
  1
Data
  7
SLDTEXTSTYLE0
 73
     1
 44
1.0
  0
MTEXT
  5
107
330
1F
100
AcDbEntity
  8
0
  6
Continuous
 62
     7
370
     0
100
AcDbMText
 10
83.3184006963
 20
13.4402298632
 30
0.0
 40
0.6614583333
 41
0.0
 71
     1
 72
     1
  1
Descrizione
  7
SLDTEXTSTYLE0
 73
     1
 44
1.0
  0
MTEXT
  5
108
330
1F
100
AcDbEntity
  8
0
  6
Continuous
 62
     7
370
     0
100
AcDbMText
 10
139.9838370596
 20
16.6116994179
 30
0.0
 40
0.6614583333
 41
0.0
 71
     1
 72
     1
  1
Sistema E^JUNI  3970
  7
SLDTEXTSTYLE0
 73
     1
 44
1.0
  0
MTEXT
  5
109
330
1F
100
AcDbEntity
  8
0
  6
Continuous
 62
     7
370
     0
100
AcDbMText
 10
53.1207700407
 20
17.093495195
 30
0.0
 40
0.6614583333
 41
0.0
 71
     1
 72
     1
  1
Tolleranze generali lineari
  7
SLDTEXTSTYLE0
 73
     1
 44
1.0
  0
MTEXT
  5
10A
330
1F
100
AcDbEntity
  8
0
  6
Continuous
 62
     7
370
     0
100
AcDbMText
 10
96.3933348289
 20
17.093495195
 30
0.0
 40
0.6614583333
 41
0.0
 71
     1
 72
     1
  1
Tolleranze angolari
  7
SLDTEXTSTYLE0
 73
     1
 44
1.0
  0
MTEXT
  5
10B
330
1F
100
AcDbEntity
  8
0
  6
Continuous
 62
     7
370
     0
100
AcDbMText
 10
115.0898873734
 20
17.093495195
 30
0.0
 40
0.6614583333
 41
0.0
 71
     1
 72
     1
  1
Smussi non quotati
  7
SLDTEXTSTYLE0
 73
     1
 44
1.0
  0
MTEXT
  5
10C
330
1F
100
AcDbEntity
  8
0
  6
Continuous
 62
     7
370
     0
100
AcDbMText
 10
127.871209402
 20
17.093495195
 30
0.0
 40
0.6614583333
 41
0.0
 71
     1
 72
     1
  1
Raggi non quotati
  7
SLDTEXTSTYLE0
 73
     1
 44
1.0
  0
MTEXT
  5
10D
330
1F
100
AcDbEntity
  8
0
  6
Continuous
 62
     7
370
     0
100
AcDbMText
 10
66.052972444
 20
17.093495195
 30
0.0
 40
0.6614583333
 41
0.0
 71
     1
 72
     1
  1
Tolleranze generali geometriche
  7
SLDTEXTSTYLE0
 73
     1
 44
1.0
  0
MTEXT
  5
10F
330
1F
100
AcDbEntity
  8
0
  6
Continuous
 62
     7
370
     0
100
AcDbMText
 10
68.7103099553
 20
15.7733988298
 30
0.0
 40
0.9260416667
 41
0.0
 71
     1
 72
     1
  1
UNI EN 2768 H
  7
SLDTEXTSTYLE6
 73
     1
 44
1.0
  0
MTEXT
  5
110
330
1F
100
AcDbEntity
  8
0
  6
Continuous
 62
     7
370
     0
100
AcDbMText
 10
53.4861820188
 20
15.7733988298
 30
0.0
 40
0.9260416667
 41
0.0
 71
     1
 72
     1
  1
ISO 286-1 ISO 8015
  7
SLDTEXTSTYLE0
 73
     1
 44
1.0
  0
MTEXT
  5
111
330
1F
100
AcDbEntity
  8
0
  6
Continuous
 62
     7
370
     0
100
AcDbMText
 10
53.2393011539
 20
21.0201843264
 30
0.0
 40
0.6614583333
 41
0.0
 71
     1
 72
     1
  1
Note
  7
SLDTEXTSTYLE0
 73
     1
 44
1.0
  0
MTEXT
  5
112
330
1F
100
AcDbEntity
  8
0
  6
Continuous
 62
     7
370
     0
100
AcDbMText
 10
53.2393011539
 20
24.786756475
 30
0.0
 40
0.6614583333
 41
0.0
 71
     1
 72
     1
  1
Materiale
  7
SLDTEXTSTYLE0
 73
     1
 44
1.0
  0
MTEXT
  5
113
330
1F
100
AcDbEntity
  8
0
  6
Continuous
 62
     7
370
     0
100
AcDbMText
 10
83.082848494
 20
24.786756475
 30
0.0
 40
0.6614583333
 41
0.0
 71
     1
 72
     1
  1
Peso Kg
  7
SLDTEXTSTYLE0
 73
     1
 44
1.0
  0
MTEXT
  5
114
330
1F
100
AcDbEntity
  8
0
  6
Continuous
 62
     7
370
     0
100
AcDbMText
 10
113.1480970621
 20
24.786756475
 30
0.0
 40
0.6614583333
 41
0.0
 71
     1
 72
     1
  1
Trattamento
  7
SLDTEXTSTYLE0
 73
     1
 44
1.0
  0
MTEXT
  5
115
330
1F
100
AcDbEntity
  8
0
  6
Continuous
 62
     7
370
     0
100
AcDbMText
 10
113.1436313839
 20
20.5811866099
 30
0.0
 40
0.6614583333
 41
0.0
 71
     1
 72
     1
  1
Durezza
  7
SLDTEXTSTYLE0
 73
     1
 44
1.0
  0
MTEXT
  5
116
330
1F
100
AcDbEntity
  8
0
  6
Continuous
 62
     7
370
     0
100
AcDbMText
 10
113.1436313839
 20
18.45476813
 30
0.0
 40
0.6614583333
 41
0.0
 71
     1
 72
     1
  1
Profondità
  7
SLDTEXTSTYLE0
 73
     1
 44
1.0
  0
MTEXT
  5
117
330
1F
100
AcDbEntity
  8
0
  6
Continuous
 62
     7
370
     0
100
AcDbMText
 10
98.6808348955
 20
24.786756475
 30
0.0
 40
0.6614583333
 41
0.0
 71
     1
 72
     1
  1
Grado di finitura
  7
SLDTEXTSTYLE0
 73
     1
 44
1.0
  0
MTEXT
  5
118
330
1F
100
AcDbEntity
  8
0
  6
Continuous
 62
     7
370
     0
100
AcDbMText
 10
139.5734290531
 20
9.3602452257
 30
0.0
 40
0.75
 41
0.0
 71
     1
 72
     1
  1
SCALA:2:1
  7
SLDTEXTSTYLE0
 73
     1
 44
1.0
  0
MTEXT
  5
119
330
1F
100
AcDbEntity
  8
0
  6
Continuous
 62
     7
370
     0
100
AcDbMText
 10
138.6098306076
 20
4.5426267193
 30
0.0
 40
0.75
 41
0.0
 71
     1
 72
     1
  1
FOGLIO 1 DI 1
  7
SLDTEXTSTYLE6
 73
     1
 44
1.0
  0
MTEXT
  5
11A
330
1F
100
AcDbEntity
  8
0
  6
Continuous
 62
     7
370
     0
100
AcDbMText
 10
102.8984859062
 20
6.5983891021
 30
0.0
 40
0.6614583333
 41
0.0
 71
     1
 72
     1
  1
Codice
  7
SLDTEXTSTYLE0
 73
     1
 44
1.0
  0
MTEXT
  5
11B
330
1F
100
AcDbEntity
  8
0
  6
Continuous
 62
     7
370
     0
100
AcDbMText
 10
113.1436313839
 20
8.3723878198
 30
0.0
 40
0.6614583333
 41
0.0
 71
     1
 72
     1
  1
Revisione disegno
  7
SLDTEXTSTYLE0
 73
     1
 44
1.0
  0
MTEXT
  5
11C
330
1F
100
AcDbEntity
  8
0
  6
Continuous
 62
     7
370
     0
100
AcDbMText
 10
106.6421235001
 20
5.2469364266
 30
0.0
 40
1.3229166667
 41
0.0
 71
     1
 72
     1
  1
38APA253
  7
SLDTEXTSTYLE0
 73
     1
 44
1.0
  0
MTEXT
  5
11D
330
1F
100
AcDbEntity
  8
0
  6
Continuous
 62
     7
370
     0
100
AcDbMText
 10
136.8807705774
 20
5.2469364266
 30
0.0
 40
1.3229166667
 41
0.0
 71
     3
 72
     1
  1
00
  7
SLDTEXTSTYLE0
 73
     1
 44
1.0
  0
LINE
  5
11E
330
1F
100
AcDbEntity
  8
0
  6
Continuous
 62
     7
370
    25
100
AcDbLine
 10
44.4559687953
 20
17.2028472018
 30
0.0
 11
42.3346484517
 21
15.9782350341
 31
0.0
  0
LINE
  5
11F
330
1F
100
AcDbEntity
  8
0
  6
Continuous
 62
     7
370
    25
100
AcDbLine
 10
44.4559687953
 20
7.4043574592
 30
0.0
 11
44.4559687953
 21
17.2028472018
 31
0.0
  0
LINE
  5
120
330
1F
100
AcDbEntity
  8
0
  6
Continuous
 62
     7
370
    25
100
AcDbLine
 10
44.4559687953
 20
7.4043574592
 30
0.0
 11
42.3346484517
 21
6.1797452915
 31
0.0
  0
LINE
  5
121
330
1F
100
AcDbEntity
  8
0
  6
Continuous
 62
     7
370
    25
100
AcDbLine
 10
42.3346484517
 20
6.1797452915
 30
0.0
 11
42.3346484517
 21
15.9782350341
 31
0.0
  0
LINE
  5
122
330
1F
100
AcDbEntity
  8
0
  6
Continuous
 62
     7
370
    25
100
AcDbLine
 10
44.4559687953
 20
17.2028472018
 30
0.0
 11
12.6361636419
 21
35.5720297179
 31
0.0
  0
LINE
  5
123
330
1F
100
AcDbEntity
  8
0
  6
Continuous
 62
     7
370
    25
100
AcDbLine
 10
42.3346484517
 20
15.9782350341
 30
0.0
 11
14.0503772043
 21
32.3063972706
 31
0.0
  0
LINE
  5
124
330
1F
100
AcDbEntity
  8
0
  6
Continuous
 62
     7
370
    25
100
AcDbLine
 10
11.1382533172
 20
34.7073044936
 30
0.0
 11
14.0503772043
 21
32.3063972706
 31
0.0
  0
LINE
  5
125
330
1F
100
AcDbEntity
  8
0
  6
Continuous
 62
     7
370
    25
100
AcDbLine
 10
12.6361636419
 20
35.5720297179
 30
0.0
 11
11.1382533172
 21
34.7073044936
 31
0.0
  0
LINE
  5
126
330
1F
100
AcDbEntity
  8
0
  6
Continuous
 62
     7
370
    25
100
AcDbLine
 10
14.0503772043
 20
22.5079075279
 30
0.0
 11
42.3346484517
 21
6.1797452915
 31
0.0
  0
LINE
  5
127
330
1F
100
AcDbEntity
  8
0
  6
Continuous
 62
     7
370
    25
100
AcDbLine
 10
14.0503772043
 20
32.3063972706
 30
0.0
 11
14.0503772043
 21
22.5079075279
 31
0.0
  0
LWPOLYLINE
  5
128
330
1F
100
AcDbEntity
  8
0
  6
Continuous
 62
     7
370
    25
100
AcDbPolyline
 90
       76
 70
   128
 43
0.0
 10
28.9632592195
 20
17.9815880482
 10
28.9518763729
 20
18.3017772829
 10
28.9178076756
 20
18.6328629752
 10
28.861292095
 20
18.9725227967
 10
28.7827260473
 20
19.3183742779
 10
28.6826606169
 20
19.6679915191
 10
28.5617976908
 20
20.0189222066
 10
28.4209850358
 20
20.3687048138
 10
28.2612103513
 20
20.7148858669
 10
28.083594342
 20
21.0550371546
 10
27.8893828565
 20
21.3867727601
 10
27.679938149
 20
21.7077657964
 10
27.4567293235
 20
22.015764728
 10
27.2213220296
 20
22.3086091636
 10
26.9753674802
 20
22.5842450101
 10
26.72059087
 20
22.8407388799
 10
26.4587792736
 20
23.0762916529
 10
26.1917691114
 20
23.2892510955
 10
25.9214332677
 20
23.4781234504
 10
25.6496679544
 20
23.6415839137
 10
25.3783794098
 20
23.7784859276
 10
25.1094705281
 20
23.8878692228
 10
24.8448275119
 20
23.9689665543
 10
24.5863066418
 20
24.0212090824
 10
24.3357212561
 20
24.0442303633
 10
24.094829031
 20
24.0378689193
 10
23.8653196526
 20
24.0021693715
 10
23.6488029642
 20
23.9373821263
 10
23.4467976747
 20
23.8439616199
 10
23.2607207062
 20
23.7225631299
 10
23.0918772549
 20
23.5740381796
 10
22.9414516363
 20
23.3994285647
 10
22.810498978
 20
23.1999590462
 10
22.6999378189
 20
22.9770287596
 10
22.610543666
 20
22.7322014005
 10
22.5429435551
 20
22.467194257
 10
22.4976116523
 20
22.1838661637
 10
22.4748659285
 20
21.8842044638
 10
22.4748659285
 20
21.5703110687
 10
22.4976116523
 20
21.2443877151
 10
22.5429435551
 20
20.908720521
 10
22.610543666
 20
20.5656639508
 10
22.6999378189
 20
20.2176242996
 10
22.810498978
 20
19.8670428158
 10
22.9414516363
 20
19.5163785763
 10
23.0918772549
 20
19.168091239
 10
23.2607207062
 20
18.8246237893
 10
23.4467976747
 20
18.4883854045
 10
23.6488029642
 20
18.1617345553
 10
23.8653196526
 20
17.8469624628
 10
24.094829031
 20
17.5462770269
 10
24.3357212561
 20
17.2617873401
 10
24.5863066418
 20
16.995488893
 10
24.8448275119
 20
16.7492495779
 10
25.1094705281
 20
16.5247965866
 10
25.3783794098
 20
16.3237042958
 10
25.6496679544
 20
16.1473832232
 10
25.9214332677
 20
15.9970701345
 10
26.1917691114
 20
15.873819368
 10
26.4587792736
 20
15.7784954394
 10
26.72059087
 20
15.7117669774
 10
26.9753674802
 20
15.6741020344
 10
27.2213220296
 20
15.6657648027
 10
27.4567293235
 20
15.6868137621
 10
27.679938149
 20
15.7371012693
 10
27.8893828565
 20
15.8162745936
 10
28.083594342
 20
15.9237783908
 10
28.2612103513
 20
16.0588585993
 10
28.4209850358
 20
16.2205677283
 10
28.5617976908
 20
16.4077715045
 10
28.6826606169
 20
16.6191568279
 10
28.7827260473
 20
16.8532409824
 10
28.861292095
 20
17.1083820357
 10
28.9178076756
 20
17.3827903568
 10
28.9518763729
 20
17.6745411684
 10
28.9632592195
 20
17.9815880482
  0
LWPOLYLINE
  5
129
330
1F
100
AcDbEntity
  8
0
  6
Continuous
 62
     7
370
    25
100
AcDbPolyline
 90
       76
 70
   128
 43
0.0
 10
36.7414338126
 20
13.4913434332
 10
36.7300509659
 20
13.8115326679
 10
36.6959822686
 20
14.1426183602
 10
36.639466688
 20
14.4822781817
 10
36.5609006403
 20
14.8281296629
 10
36.4608352099
 20
15.1777469041
 10
36.3399722839
 20
15.5286775916
 10
36.1991596288
 20
15.8784601987
 10
36.0393849443
 20
16.2246412519
 10
35.861768935
 20
16.5647925396
 10
35.6675574496
 20
16.8965281451
 10
35.4581127421
 20
17.2175211814
 10
35.2349039165
 20
17.5255201129
 10
34.9994966226
 20
17.8183645486
 10
34.7535420733
 20
18.0940003951
 10
34.498765463
 20
18.3504942649
 10
34.2369538666
 20
18.5860470378
 10
33.9699437044
 20
18.7990064805
 10
33.6996078608
 20
18.9878788354
 10
33.4278425475
 20
19.1513392986
 10
33.1565540028
 20
19.2882413125
 10
32.8876451211
 20
19.3976246078
 10
32.6230021049
 20
19.4787219392
 10
32.3644812349
 20
19.5309644673
 10
32.1138958491
 20
19.5539857483
 10
31.8730036241
 20
19.5476243043
 10
31.6434942456
 20
19.5119247564
 10
31.4269775572
 20
19.4471375113
 10
31.2249722678
 20
19.3537170049
 10
31.0388952993
 20
19.2323185149
 10
30.870051848
 20
19.0837935646
 10
30.7196262294
 20
18.9091839497
 10
30.5886735711
 20
18.7097144312
 10
30.478112412
 20
18.4867841445
 10
30.388718259
 20
18.2419567854
 10
30.3211181481
 20
17.9769496419
 10
30.2757862454
 20
17.6936215487
 10
30.2530405215
 20
17.3939598488
 10
30.2530405215
 20
17.0800664537
 10
30.2757862454
 20
16.7541431
 10
30.3211181481
 20
16.418475906
 10
30.388718259
 20
16.0754193357
 10
30.478112412
 20
15.7273796846
 10
30.5886735711
 20
15.3767982007
 10
30.7196262294
 20
15.0261339613
 10
30.870051848
 20
14.677846624
 10
31.0388952993
 20
14.3343791743
 10
31.2249722678
 20
13.9981407895
 10
31.4269775572
 20
13.6714899403
 10
31.6434942456
 20
13.3567178477
 10
31.8730036241
 20
13.0560324119
 10
32.1138958491
 20
12.7715427251
 10
32.3644812349
 20
12.5052442779
 10
32.6230021049
 20
12.2590049628
 10
32.8876451211
 20
12.0345519716
 10
33.1565540028
 20
11.8334596807
 10
33.4278425475
 20
11.6571386081
 10
33.6996078608
 20
11.5068255194
 10
33.9699437044
 20
11.383574753
 10
34.2369538666
 20
11.2882508244
 10
34.498765463
 20
11.2215223624
 10
34.7535420733
 20
11.1838574193
 10
34.9994966226
 20
11.1755201877
 10
35.2349039165
 20
11.1965691471
 10
35.4581127421
 20
11.2468566543
 10
35.6675574496
 20
11.3260299785
 10
35.861768935
 20
11.4335337758
 10
36.0393849443
 20
11.5686139843
 10
36.1991596288
 20
11.7303231133
 10
36.3399722839
 20
11.9175268895
 10
36.4608352099
 20
12.1289122129
 10
36.5609006403
 20
12.3629963673
 10
36.639466688
 20
12.6181374207
 10
36.6959822686
 20
12.8925457418
 10
36.7300509659
 20
13.1842965534
 10
36.7414338126
 20
13.4913434332
  0
LWPOLYLINE
  5
12A
330
1F
100
AcDbEntity
  8
0
  6
Continuous
 62
     7
370
    25
100
AcDbPolyline
 90
       34
 70
   128
 43
0.0
 10
34.474405615
 20
18.3735744466
 10
34.4110735156
 20
18.3738014886
 10
34.2466580771
 20
18.3539415979
 10
34.095421866
 20
18.3044251392
 10
33.9595702468
 20
18.225974174
 10
33.841084242
 20
18.119732694
 10
33.7416916445
 20
17.9872499393
 10
33.662841822
 20
17.8304578068
 10
33.6056845826
 20
17.6516426788
 10
33.5710534075
 20
17.4534120825
 10
33.5594532972
 20
17.2386566664
 10
33.5710534075
 20
17.0105080481
 10
33.6056845826
 20
16.7722931481
 10
33.662841822
 20
16.5274856762
 10
33.7416916445
 20
16.2796554764
 10
33.841084242
 20
16.0324164713
 10
33.9595702468
 20
15.7893739621
 10
34.095421866
 20
15.5540720561
 10
34.2466580771
 20
15.3299419848
 10
34.4110735156
 20
15.1202520693
 10
34.5862706343
 20
14.9280600609
 10
34.7696946645
 20
14.7561685517
 10
34.9586708709
 20
14.6070841071
 10
35.1504435549
 20
14.4829807139
 10
35.3422162389
 20
14.3856680791
 10
35.5311924453
 20
14.3165652401
 10
35.7146164755
 20
14.2766798717
 10
35.8898135941
 20
14.2665935926
 10
36.0542290327
 20
14.2864534834
 10
36.2054652438
 20
14.3359699421
 10
36.341316863
 20
14.4144209073
 10
36.4598028677
 20
14.5206623872
 10
36.5591954653
 20
14.6531451419
 10
36.5905498611
 20
14.7079079137
  0
LWPOLYLINE
  5
12B
330
1F
100
AcDbEntity
  8
0
  6
Continuous
 62
     7
370
    25
100
AcDbPolyline
 90
       24
 70
   128
 43
0.0
 10
34.2833402492
 20
18.3611442125
 10
34.2083821201
 20
18.2566646162
 10
34.1295322976
 20
18.0998724837
 10
34.0723750582
 20
17.9210573557
 10
34.0377438831
 20
17.7228267594
 10
34.0261437728
 20
17.5080713433
 10
34.0377438831
 20
17.279922725
 10
34.0723750582
 20
17.041707825
 10
34.1295322976
 20
16.7969003531
 10
34.2083821201
 20
16.5490701533
 10
34.3077747176
 20
16.3018311482
 10
34.4262607224
 20
16.058788639
 10
34.5621123416
 20
15.823486733
 10
34.7133485527
 20
15.5993566617
 10
34.8777639912
 20
15.3896667462
 10
35.0529611099
 20
15.1974747378
 10
35.2363851401
 20
15.0255832286
 10
35.4253613465
 20
14.876498784
 10
35.6171340305
 20
14.7523953908
 10
35.8089067144
 20
14.655082756
 10
35.9978829209
 20
14.585979917
 10
36.1813069511
 20
14.5460945486
 10
36.3565040697
 20
14.5360082695
 10
36.4842373361
 20
14.5486655457
  0
LWPOLYLINE
  5
12C
330
1F
100
AcDbEntity
  8
0
  6
Continuous
 62
     7
370
    25
100
AcDbPolyline
 90
       34
 70
   128
 43
0.0
 10
26.6962310219
 20
22.8638190617
 10
26.6328989226
 20
22.8640461037
 10
26.4684834841
 20
22.8441862129
 10
26.3172472729
 20
22.7946697542
 10
26.1813956537
 20
22.716218789
 10
26.062909649
 20
22.609977309
 10
25.9635170514
 20
22.4774945544
 10
25.884667229
 20
22.3207024218
 10
25.8275099895
 20
22.1418872938
 10
25.7928788144
 20
21.9436566975
 10
25.7812787042
 20
21.7289012815
 10
25.7928788144
 20
21.5007526631
 10
25.8275099895
 20
21.2625377632
 10
25.884667229
 20
21.0177302912
 10
25.9635170514
 20
20.7699000915
 10
26.062909649
 20
20.5226610863
 10
26.1813956537
 20
20.2796185772
 10
26.3172472729
 20
20.0443166711
 10
26.4684834841
 20
19.8201865998
 10
26.6328989226
 20
19.6104966843
 10
26.8080960412
 20
19.4183046759
 10
26.9915200714
 20
19.2464131667
 10
27.1804962779
 20
19.0973287221
 10
27.3722689618
 20
18.9732253289
 10
27.5640416458
 20
18.8759126941
 10
27.7530178522
 20
18.8068098551
 10
27.9364418824
 20
18.7669244868
 10
28.1116390011
 20
18.7568382077
 10
28.2760544396
 20
18.7766980984
 10
28.4272906507
 20
18.8262145571
 10
28.5631422699
 20
18.9046655223
 10
28.6816282747
 20
19.0109070023
 10
28.7810208722
 20
19.1433897569
 10
28.812375268
 20
19.1981525287
  0
LWPOLYLINE
  5
12D
330
1F
100
AcDbEntity
  8
0
  6
Continuous
 62
     7
370
    25
100
AcDbPolyline
 90
       24
 70
   128
 43
0.0
 10
26.5051656562
 20
22.8513888275
 10
26.430207527
 20
22.7469092313
 10
26.3513577045
 20
22.5901170987
 10
26.2942004651
 20
22.4113019707
 10
26.25956929
 20
22.2130713744
 10
26.2479691797
 20
21.9983159584
 10
26.25956929
 20
21.77016734
 10
26.2942004651
 20
21.5319524401
 10
26.3513577045
 20
21.2871449681
 10
26.430207527
 20
21.0393147684
 10
26.5296001246
 20
20.7920757632
 10
26.6480861293
 20
20.5490332541
 10
26.7839377485
 20
20.313731348
 10
26.9351739596
 20
20.0896012767
 10
27.0995893982
 20
19.8799113612
 10
27.2747865168
 20
19.6877193528
 10
27.458210547
 20
19.5158278436
 10
27.6471867534
 20
19.366743399
 10
27.8389594374
 20
19.2426400058
 10
28.0307321214
 20
19.145327371
 10
28.2197083278
 20
19.076224532
 10
28.403132358
 20
19.0363391637
 10
28.5783294766
 20
19.0262528846
 10
28.7060627431
 20
19.0389101607
  0
LINE
  5
12E
330
1F
100
AcDbEntity
  8
0
  6
Continuous
 62
     7
370
    25
100
AcDbLine
 10
11.1382533172
 20
24.9088147509
 30
0.0
 11
11.1382533172
 21
34.7073044936
 31
0.0
  0
LINE
  5
12F
330
1F
100
AcDbEntity
  8
0
  6
Continuous
 62
     7
370
    25
100
AcDbLine
 10
14.0503772043
 20
22.5079075279
 30
0.0
 11
11.1382533172
 21
24.9088147509
 31
0.0
  0
ARC
  5
130
330
1F
100
AcDbEntity
  8
0
  6
HIDDEN
 62
     7
370
    18
100
AcDbCircle
 10
33.705023749
 20
15.4360558838
 30
0.0
 40
3.036603985166325
100
AcDbArc
 50
359.3524713788
 51
75.3230270423
  0
ARC
  5
131
330
1F
100
AcDbEntity
  8
0
  6
HIDDEN
 62
     7
370
    18
100
AcDbCircle
 10
35.277742707
 20
15.3567189645
 30
0.0
 40
1.464383284317677
100
AcDbArc
 50
333.7006544311
 51
1.7617184081
  0
LINE
  5
132
330
1F
100
AcDbEntity
  8
0
  6
HIDDEN
 62
     7
370
    18
100
AcDbLine
 10
12.6361636419
 20
25.7735399752
 30
0.0
 11
44.4559687953
 21
7.4043574592
 31
0.0
  0
LWPOLYLINE
  5
133
330
1F
100
AcDbEntity
  8
0
  6
HIDDEN
 62
     7
370
    18
100
AcDbPolyline
 90
       23
 70
   128
 43
0.0
 10
37.2081242881
 20
15.6711530917
 10
37.1965241779
 20
15.8993017101
 10
37.1618930028
 20
16.13751661
 10
37.1047357633
 20
16.382324082
 10
37.0258859409
 20
16.6301542817
 10
36.9264933433
 20
16.8773932869
 10
36.8080073386
 20
17.120435796
 10
36.6721557194
 20
17.3557377021
 10
36.5209195082
 20
17.5798677734
 10
36.3565040697
 20
17.7895576889
 10
36.1813069511
 20
17.9817496973
 10
35.9978829209
 20
18.1536412065
 10
35.8089067144
 20
18.3027256511
 10
35.6171340305
 20
18.4268290443
 10
35.4253613465
 20
18.5241416791
 10
35.2363851401
 20
18.5932445181
 10
35.0529611099
 20
18.6331298864
 10
34.8777639912
 20
18.6432161655
 10
34.7133485527
 20
18.6233562748
 10
34.5621123416
 20
18.5738398161
 10
34.4262607224
 20
18.4953888509
 10
34.3077747176
 20
18.3891473709
 10
34.2833402492
 20
18.3611442125
  0
ARC
  5
134
330
1F
100
AcDbEntity
  8
0
  6
HIDDEN
 62
     7
370
    18
100
AcDbCircle
 10
36.213123124
 20
15.5181652517
 30
0.0
 40
1.006693893855503
100
AcDbArc
 50
285.6232994091
 51
8.7411410019
  0
ARC
  5
135
330
1F
100
AcDbEntity
  8
0
  6
HIDDEN
 62
     7
370
    18
100
AcDbCircle
 10
25.9268491559
 20
19.9263004988
 30
0.0
 40
3.036603985166307
100
AcDbArc
 50
359.3524713788
 51
75.3230270423
  0
ARC
  5
136
330
1F
100
AcDbEntity
  8
0
  6
HIDDEN
 62
     7
370
    18
100
AcDbCircle
 10
27.4995681139
 20
19.8469635795
 30
0.0
 40
1.464383284317426
100
AcDbArc
 50
333.7006544311
 51
1.7617184081
  0
LWPOLYLINE
  5
137
330
1F
100
AcDbEntity
  8
0
  6
HIDDEN
 62
     7
370
    18
100
AcDbPolyline
 90
       23
 70
   128
 43
0.0
 10
29.4299496951
 20
20.1613977068
 10
29.4183495848
 20
20.3895463251
 10
29.3837184097
 20
20.6277612251
 10
29.3265611703
 20
20.872568697
 10
29.2477113478
 20
21.1203988968
 10
29.1483187503
 20
21.3676379019
 10
29.0298327455
 20
21.6106804111
 10
28.8939811263
 20
21.8459823171
 10
28.7427449152
 20
22.0701123884
 10
28.5783294766
 20
22.2798023039
 10
28.403132358
 20
22.4719943123
 10
28.2197083278
 20
22.6438858215
 10
28.0307321214
 20
22.7929702661
 10
27.8389594374
 20
22.9170736593
 10
27.6471867534
 20
23.0143862941
 10
27.458210547
 20
23.0834891331
 10
27.2747865168
 20
23.1233745015
 10
27.0995893982
 20
23.1334607806
 10
26.9351739596
 20
23.1136008898
 10
26.7839377485
 20
23.0640844311
 10
26.6480861293
 20
22.9856334659
 10
26.5296001246
 20
22.8793919859
 10
26.5051656562
 20
22.8513888275
  0
ARC
  5
138
330
1F
100
AcDbEntity
  8
0
  6
HIDDEN
 62
     7
370
    18
100
AcDbCircle
 10
28.4349485309
 20
20.0084098667
 30
0.0
 40
1.006693893855514
100
AcDbArc
 50
285.6232994091
 51
8.7411410019
  0
LINE
  5
139
330
1F
100
AcDbEntity
  8
0
  6
HIDDEN
 62
     7
370
    18
100
AcDbLine
 10
12.6361636419
 20
25.7735399752
 30
0.0
 11
11.1382533172
 21
24.9088147509
 31
0.0
  0
LINE
  5
13A
330
1F
100
AcDbEntity
  8
0
  6
HIDDEN
 62
     7
370
    18
100
AcDbLine
 10
12.6361636419
 20
35.5720297179
 30
0.0
 11
12.6361636419
 21
25.7735399752
 31
0.0
  0
LINE
  5
13B
330
1F
100
AcDbEntity
  8
0
  6
HIDDEN
 62
     7
370
    18
100
AcDbLine
 10
36.7414338126
 20
13.4913434332
 30
0.0
 11
36.7414338126
 21
15.4017384148
 31
0.0
  0
LINE
  5
13C
330
1F
100
AcDbEntity
  8
0
  6
HIDDEN
 62
     7
370
    18
100
AcDbLine
 10
35.1507021355
 20
18.1572650677
 30
0.0
 11
33.4963411915
 21
19.112617805
 31
0.0
  0
LINE
  5
13D
330
1F
100
AcDbEntity
  8
0
  6
HIDDEN
 62
     7
370
    18
100
AcDbLine
 10
36.2753521291
 20
14.3715876003
 30
0.0
 11
36.7420426047
 21
14.6410022772
 31
0.0
  0
LINE
  5
13E
330
1F
100
AcDbEntity
  8
0
  6
HIDDEN
 62
     7
370
    18
100
AcDbLine
 10
34.4922254562
 20
18.5382221579
 30
0.0
 11
34.0255349807
 21
18.268807481
 31
0.0
  0
LINE
  5
13F
330
1F
100
AcDbEntity
  8
0
  6
HIDDEN
 62
     7
370
    18
100
AcDbLine
 10
28.9632592195
 20
17.9815880482
 30
0.0
 11
28.9632592195
 21
19.8919830299
 31
0.0
  0
LINE
  5
140
330
1F
100
AcDbEntity
  8
0
  6
HIDDEN
 62
     7
370
    18
100
AcDbLine
 10
27.3725275425
 20
22.6475096827
 30
0.0
 11
25.7181665984
 21
23.60286242
 31
0.0
  0
LINE
  5
141
330
1F
100
AcDbEntity
  8
0
  6
HIDDEN
 62
     7
370
    18
100
AcDbLine
 10
28.497177536
 20
18.8618322153
 30
0.0
 11
28.9638680116
 21
19.1312468922
 31
0.0
  0
LINE
  5
142
330
1F
100
AcDbEntity
  8
0
  6
HIDDEN
 62
     7
370
    18
100
AcDbLine
 10
26.7140508632
 20
23.0284667729
 30
0.0
 11
26.2473603876
 21
22.759052096
 31
0.0
  0
LINE
  5
143
330
1F
100
AcDbEntity
  8
0
  6
Continuous
 62
     7
370
    25
100
AcDbLine
 10
67.7074061816
 20
54.1583829114
 30
0.0
 11
67.7074061816
 21
42.1583829114
 31
0.0
  0
LINE
  5
144
330
1F
100
AcDbEntity
  8
0
  6
Continuous
 62
     7
370
    25
100
AcDbLine
 10
62.7074061816
 20
42.1583829114
 30
0.0
 11
62.7074061816
 21
54.1583829114
 31
0.0
  0
LINE
  5
145
330
1F
100
AcDbEntity
  8
0
  6
Continuous
 62
     7
370
    25
100
AcDbLine
 10
62.7074061816
 20
54.1583829114
 30
0.0
 11
67.7074061816
 21
54.1583829114
 31
0.0
  0
LINE
  5
146
330
1F
100
AcDbEntity
  8
0
  6
Continuous
 62
     7
370
    25
100
AcDbLine
 10
67.7074061816
 20
42.1583829114
 30
0.0
 11
62.7074061816
 21
42.1583829114
 31
0.0
  0
CIRCLE
  5
147
330
1F
100
AcDbEntity
  8
0
  6
Continuous
 62
     7
370
    25
100
AcDbCircle
 10
84.2074061816
 20
47.1583829114
 30
0.0
 40
4.590000000000003
  0
CIRCLE
  5
148
330
1F
100
AcDbEntity
  8
0
  6
Continuous
 62
     7
370
    25
100
AcDbCircle
 10
84.2074061816
 20
47.1583829114
 30
0.0
 40
2.25
  0
CIRCLE
  5
149
330
1F
100
AcDbEntity
  8
0
  6
Continuous
 62
     7
370
    25
100
AcDbCircle
 10
95.2074061816
 20
47.1583829114
 30
0.0
 40
4.590000000000003
  0
LINE
  5
14A
330
1F
100
AcDbEntity
  8
0
  6
Continuous
 62
     7
370
    25
100
AcDbLine
 10
107.7074061816
 20
54.1583829114
 30
0.0
 11
67.7074061816
 21
54.1583829114
 31
0.0
  0
LINE
  5
14B
330
1F
100
AcDbEntity
  8
0
  6
Continuous
 62
     7
370
    25
100
AcDbLine
 10
67.7074061816
 20
42.1583829114
 30
0.0
 11
107.7074061816
 21
42.1583829114
 31
0.0
  0
LINE
  5
14C
330
1F
100
AcDbEntity
  8
0
  6
Continuous
 62
     7
370
    25
100
AcDbLine
 10
107.7074061816
 20
42.1583829114
 30
0.0
 11
107.7074061816
 21
54.1583829114
 31
0.0
  0
CIRCLE
  5
14D
330
1F
100
AcDbEntity
  8
0
  6
Continuous
 62
     7
370
    25
100
AcDbCircle
 10
95.2074061816
 20
47.1583829114
 30
0.0
 40
2.25
  0
DIMENSION
  5
14E
330
1F
100
AcDbEntity
  8
0
  6
Continuous
 62
     7
370
    18
100
AcDbDimension
  2
_D
 10
62.7074061816
 20
54.1583829114
 30
0.0
 11
62.7074061816
 21
60.5221797937
 31
0.0
 70
   102
  1
<>
 71
     5
 42
-1.0
  3
SLDDIMSTYLE0
100
AcDbOrdinateDimension
 13
62.7074061816
 23
54.1583829114
 33
0.0
 14
62.7074061816
 24
60.0049575783
 34
0.0
  0
DIMENSION
  5
15B
330
1F
100
AcDbEntity
  8
0
  6
Continuous
 62
     7
370
    18
100
AcDbDimension
  2
_D_1
 10
62.7074061816
 20
54.1583829114
 30
0.0
 11
67.7074061816
 21
60.5221797937
 31
0.0
 70
   102
  1
<>
 71
     5
 42
-1.0
  3
SLDDIMSTYLE1
100
AcDbOrdinateDimension
 13
67.7074061816
 23
54.1583829114
 33
0.0
 14
67.7074061816
 24
60.0049575783
 34
0.0
  0
DIMENSION
  5
164
330
1F
100
AcDbEntity
  8
0
  6
Continuous
 62
     7
370
    18
100
AcDbDimension
  2
_D_2
 10
62.7074061816
 20
54.1583829114
 30
0.0
 11
84.2074061816
 21
62.3324574894
 31
0.0
 70
   102
  1
<>
 71
     5
 42
-1.0
  3
SLDDIMSTYLE1
100
AcDbOrdinateDimension
 13
84.2074061816
 23
47.1583829114
 33
0.0
 14
84.2074061816
 24
60.0049575783
 34
0.0
  0
DIMENSION
  5
16C
330
1F
100
AcDbEntity
  8
0
  6
Continuous
 62
     7
370
    18
100
AcDbDimension
  2
_D_3
 10
62.7074061816
 20
54.1583829114
 30
0.0
 11
95.2074061816
 21
62.3324574894
 31
0.0
 70
   102
  1
<>
 71
     5
 42
-1.0
  3
SLDDIMSTYLE1
100
AcDbOrdinateDimension
 13
95.2074061816
 23
47.1583829114
 33
0.0
 14
95.2074061816
 24
60.0049575783
 34
0.0
  0
DIMENSION
  5
174
330
1F
100
AcDbEntity
  8
0
  6
Continuous
 62
     7
370
    18
100
AcDbDimension
  2
_D_4
 10
62.7074061816
 20
54.1583829114
 30
0.0
 11
107.7074061816
 21
61.0394020091
 31
0.0
 70
   102
  1
<>
 71
     5
 42
-1.0
  3
SLDDIMSTYLE1
100
AcDbOrdinateDimension
 13
107.7074061816
 23
54.1583829114
 33
0.0
 14
107.7074061816
 24
60.0049575783
 34
0.0
  0
DIMENSION
  5
17C
330
1F
100
AcDbEntity
  8
0
  6
Continuous
 62
     7
370
    18
100
AcDbDimension
  2
_D_5
 10
62.7074061816
 20
54.1583829114
 30
0.0
 11
54.1901839662
 21
54.1583829114
 31
0.0
 70
    38
  1
<>
 71
     5
 42
-1.0
  3
SLDDIMSTYLE0
100
AcDbOrdinateDimension
 13
62.7074061816
 23
54.1583829114
 33
0.0
 14
54.7074061816
 24
54.1583829114
 34
0.0
  0
DIMENSION
  5
183
330
1F
100
AcDbEntity
  8
0
  6
Continuous
 62
     7
370
    18
100
AcDbDimension
  2
_D_6
 10
62.7074061816
 20
54.1583829114
 30
0.0
 11
54.1901839662
 21
47.1583829114
 31
0.0
 70
    38
  1
<>
 71
     5
 42
-1.0
  3
SLDDIMSTYLE1
100
AcDbOrdinateDimension
 13
95.2074061816
 23
47.1583829114
 33
0.0
 14
54.7074061816
 24
47.1583829114
 34
0.0
  0
DIMENSION
  5
18B
330
1F
100
AcDbEntity
  8
0
  6
Continuous
 62
     7
370
    18
100
AcDbDimension
  2
_D_7
 10
62.7074061816
 20
54.1583829114
 30
0.0
 11
53.6729617507
 21
42.1583829114
 31
0.0
 70
    38
  1
<>
 71
     5
 42
-1.0
  3
SLDDIMSTYLE1
100
AcDbOrdinateDimension
 13
62.7074061816
 23
42.1583829114
 33
0.0
 14
54.7074061816
 24
42.1583829114
 34
0.0
  0
DIMENSION
  5
193
330
1F
100
AcDbEntity
  8
0
  6
Continuous
 62
     7
370
    18
100
AcDbDimension
  2
_D_8
 10
94.0824061816
 20
49.1069400699
 30
0.0
 11
112.6705263686
 21
36.6670035144
 31
0.0
 70
   163
  1
2 x <> PASSANTE\P{\fGDT;w}%%c 9.18 X 90°\P
 71
     1
 42
-1.0
  3
SLDDIMSTYLE2
100
AcDbDiametricDimension
 15
96.3324061816
 25
45.2098257529
 35
0.0
 40
0.0
  0
LINE
  5
1AC
330
1F
100
AcDbEntity
  8
0
  6
Continuous
 62
     7
370
    25
100
AcDbLine
 10
62.7074061816
 20
71.7971154174
 30
0.0
 11
107.7074061816
 21
71.7971154174
 31
0.0
  0
LINE
  5
1AD
330
1F
100
AcDbEntity
  8
0
  6
Continuous
 62
     7
370
    25
100
AcDbLine
 10
62.7074061816
 20
71.7971154174
 30
0.0
 11
62.7074061816
 21
73.9154805139
 31
0.0
  0
LINE
  5
1AE
330
1F
100
AcDbEntity
  8
0
  6
Continuous
 62
     7
370
    25
100
AcDbLine
 10
67.7074061816
 20
74.7971154174
 30
0.0
 11
62.7074061816
 21
73.9154805139
 31
0.0
  0
LINE
  5
1AF
330
1F
100
AcDbEntity
  8
0
  6
Continuous
 62
     7
370
    25
100
AcDbLine
 10
67.7074061816
 20
74.7971154174
 30
0.0
 11
107.7074061816
 21
74.7971154174
 31
0.0
  0
LINE
  5
1B0
330
1F
100
AcDbEntity
  8
0
  6
Continuous
 62
     7
370
    25
100
AcDbLine
 10
107.7074061816
 20
71.7971154174
 30
0.0
 11
107.7074061816
 21
74.7971154174
 31
0.0
  0
LINE
  5
1B1
330
1F
100
AcDbEntity
  8
0
  6
HIDDEN
 62
     7
370
    18
100
AcDbLine
 10
81.9574061816
 20
72.4571154174
 30
0.0
 11
86.4574061816
 21
72.4571154174
 31
0.0
  0
LINE
  5
1B2
330
1F
100
AcDbEntity
  8
0
  6
HIDDEN
 62
     7
370
    18
100
AcDbLine
 10
92.9574061816
 20
72.4571154174
 30
0.0
 11
97.4574061816
 21
72.4571154174
 31
0.0
  0
LINE
  5
1B3
330
1F
100
AcDbEntity
  8
0
  6
HIDDEN
 62
     7
370
    18
100
AcDbLine
 10
79.6174061816
 20
74.7971154174
 30
0.0
 11
81.9574061816
 21
72.4571154174
 31
0.0
  0
LINE
  5
1B4
330
1F
100
AcDbEntity
  8
0
  6
HIDDEN
 62
     7
370
    18
100
AcDbLine
 10
86.4574061816
 20
72.4571154174
 30
0.0
 11
88.7974061816
 21
74.7971154174
 31
0.0
  0
LINE
  5
1B5
330
1F
100
AcDbEntity
  8
0
  6
HIDDEN
 62
     7
370
    18
100
AcDbLine
 10
90.6174061816
 20
74.7971154174
 30
0.0
 11
92.9574061816
 21
72.4571154174
 31
0.0
  0
LINE
  5
1B6
330
1F
100
AcDbEntity
  8
0
  6
HIDDEN
 62
     7
370
    18
100
AcDbLine
 10
97.4574061816
 20
72.4571154174
 30
0.0
 11
99.7974061816
 21
74.7971154174
 31
0.0
  0
LINE
  5
1B7
330
1F
100
AcDbEntity
  8
0
  6
HIDDEN
 62
     7
370
    18
100
AcDbLine
 10
81.9574061816
 20
72.4571154174
 30
0.0
 11
81.9574061816
 21
71.7971154174
 31
0.0
  0
LINE
  5
1B8
330
1F
100
AcDbEntity
  8
0
  6
HIDDEN
 62
     7
370
    18
100
AcDbLine
 10
86.4574061816
 20
71.7971154174
 30
0.0
 11
86.4574061816
 21
72.4571154174
 31
0.0
  0
LINE
  5
1B9
330
1F
100
AcDbEntity
  8
0
  6
HIDDEN
 62
     7
370
    18
100
AcDbLine
 10
92.9574061816
 20
72.4571154174
 30
0.0
 11
92.9574061816
 21
71.7971154174
 31
0.0
  0
LINE
  5
1BA
330
1F
100
AcDbEntity
  8
0
  6
HIDDEN
 62
     7
370
    18
100
AcDbLine
 10
97.4574061816
 20
71.7971154174
 30
0.0
 11
97.4574061816
 21
72.4571154174
 31
0.0
  0
DIMENSION
  5
1BB
330
1F
100
AcDbEntity
  8
0
  6
Continuous
 62
     7
370
    18
100
AcDbDimension
  2
_D_9
 10
67.7074061816
 20
74.7971154174
 30
0.0
 11
60.9710799872
 21
78.4118952307
 31
0.0
 70
   162
  1
<>
 71
     1
 42
-1.0
  3
SLDDIMSTYLE3
100
AcDb2LineAngularDimension
 13
67.7074061816
 23
74.7971154174
 33
0.0
 14
62.7074061816
 24
73.9154805139
 34
0.0
 15
107.7074061816
 25
74.7971154174
 35
0.0
 16
60.0915824994
 26
74.1308171818
 36
0.0
  0
DIMENSION
  5
1C8
330
1F
100
AcDbEntity
  8
0
  6
Continuous
 62
     7
370
    18
100
AcDbDimension
  2
_D_10
 10
54.7074061816
 20
71.7971154174
 30
0.0
 11
54.7074061816
 21
73.2971154174
 31
0.0
 70
   160
  1
<>
 71
     2
 42
-1.0
  3
SLDDIMSTYLE4
100
AcDbAlignedDimension
 13
67.7074061816
 23
74.7971154174
 33
0.0
 14
62.7074061816
 24
71.7971154174
 34
0.0
 50
90.0
100
AcDbRotatedDimension
  0
INSERT
  5
1DA
330
1F
100
AcDbEntity
  8
0
  6
Continuous
 62
     7
370
     0
100
AcDbBlockReference
  2
SW_NOTE_0_1
 10
71.0
 20
81.687499905
 30
0.0
  0
LEADER
  5
1DC
330
1F
100
AcDbEntity
  8
0
  6
Continuous
 62
     7
370
     0
100
AcDbLeader
  3
SLDDIMSTYLE5
 76
     2
 10
65.6197347051
 20
74.4290026092
 30
0.0
 10
71.0
 20
81.687499905
 30
0.0
  0
ENDSEC
  0
SECTION
  2
OBJECTS
  0
DICTIONARY
  5
C
330
0
100
AcDbDictionary
281
     1
  3
ACAD_GROUP
350
D
  3
ACAD_LAYOUT
350
1A
  3
ACAD_MLINESTYLE
350
17
  3
ACAD_PLOTSETTINGS
350
19
  3
ACAD_PLOTSTYLENAME
350
E
  3
ACAD_SCALELIST
350
47
  3
DWGPROPS
350
1DD
  0
DICTIONARY
  5
D
102
{ACAD_REACTORS
330
C
102
}
330
C
100
AcDbDictionary
281
     1
  0
DICTIONARY
  5
1A
102
{ACAD_REACTORS
330
C
102
}
330
C
100
AcDbDictionary
281
     1
  3
Layout1
350
1E
  3
Layout2
350
26
  3
Model
350
22
  0
DICTIONARY
  5
17
102
{ACAD_REACTORS
330
C
102
}
330
C
100
AcDbDictionary
281
     1
  3
Standard
350
18
  0
DICTIONARY
  5
19
102
{ACAD_REACTORS
330
C
102
}
330
C
100
AcDbDictionary
281
     1
  0
ACDBDICTIONARYWDFLT
  5
E
102
{ACAD_REACTORS
330
C
102
}
330
C
100
AcDbDictionary
281
     1
  3
Normal
350
F
100
AcDbDictionaryWithDefault
340
F
  0
DICTIONARY
  5
47
102
{ACAD_REACTORS
330
C
102
}
330
C
100
AcDbDictionary
281
     1
  3
A0
350
48
  3
A1
350
49
  3
A2
350
4A
  3
A3
350
4B
  3
A4
350
4C
  3
A5
350
4D
  3
A6
350
4E
  3
A7
350
4F
  3
A8
350
50
  3
A9
350
51
  3
B0
350
52
  3
B1
350
53
  3
B2
350
54
  3
B3
350
55
  3
B4
350
56
  3
B5
350
57
  3
B6
350
58
  0
XRECORD
  5
1DD
102
{ACAD_REACTORS
330
C
102
}
330
C
100
AcDbXrecord
280
     1
  1
DWGPROPS COOKIE
  2

  3

  4

  6

  7

  8
Marco Monaco
  9

300
=
301
=
302
=
303
=
304
=
305
=
306
=
307
=
308
=
309
=
 40
0.0
 41
2461082.336994584
 42
2461082.336996157
  1

 90
        0
  0
LAYOUT
  5
1E
102
{ACAD_REACTORS
330
1A
102
}
330
1A
100
AcDbPlotSettings
  1

  2
none_device
  4

  6

 40
0.0
 41
0.0
 42
0.0
 43
0.0
 44
0.0
 45
0.0
 46
0.0
 47
0.0
 48
0.0
 49
0.0
140
0.0
141
0.0
142
1.0
143
1.0
 70
   688
 72
     1
 73
     0
 74
     5
  7

 75
    16
147
1.0
148
0.0
149
0.0
100
AcDbLayout
  1
Layout1
 70
     1
 71
     1
 10
0.0
 20
0.0
 11
420.0
 21
297.0
 12
0.0
 22
0.0
 32
0.0
 14
1.0000000000E+20
 24
1.0000000000E+20
 34
1.0000000000E+20
 15
-1.0000000000E+20
 25
-1.0000000000E+20
 35
-1.0000000000E+20
146
0.0
 13
0.0
 23
0.0
 33
0.0
 16
1.0
 26
0.0
 36
0.0
 17
0.0
 27
1.0
 37
0.0
 76
     0
330
1B
  0
LAYOUT
  5
26
102
{ACAD_REACTORS
330
1A
102
}
330
1A
100
AcDbPlotSettings
  1

  2
none_device
  4

  6

 40
0.0
 41
0.0
 42
0.0
 43
0.0
 44
0.0
 45
0.0
 46
0.0
 47
0.0
 48
0.0
 49
0.0
140
0.0
141
0.0
142
1.0
143
1.0
 70
   688
 72
     1
 73
     0
 74
     5
  7

 75
    16
147
1.0
148
0.0
149
0.0
100
AcDbLayout
  1
Layout2
 70
     1
 71
     2
 10
0.0
 20
0.0
 11
0.0
 21
0.0
 12
0.0
 22
0.0
 32
0.0
 14
0.0
 24
0.0
 34
0.0
 15
0.0
 25
0.0
 35
0.0
146
0.0
 13
0.0
 23
0.0
 33
0.0
 16
1.0
 26
0.0
 36
0.0
 17
0.0
 27
1.0
 37
0.0
 76
     0
330
23
  0
LAYOUT
  5
22
102
{ACAD_REACTORS
330
1A
102
}
330
1A
100
AcDbPlotSettings
  1

  2
none_device
  4
Letter_(8.50_x_11.00_Inches)
  6

 40
6.35
 41
6.35
 42
6.35000508
 43
6.35000508
 44
215.9
 45
279.4
 46
0.0
 47
0.0
 48
0.0
 49
0.0
140
0.0
141
0.0
142
1.0
143
1.0
 70
  1712
 72
     1
 73
     0
 74
     0
  7

 75
     0
147
1.0
148
0.0
149
0.0
100
AcDbLayout
  1
Model
 70
     1
 71
     0
 10
0.0
 20
0.0
 11
148.5
 21
105.0
 12
0.0
 22
0.0
 32
0.0
 14
0.0
 24
0.0
 34
0.0
 15
148.5
 25
105.0
 35
0.0
146
0.0
 13
0.0
 23
0.0
 33
0.0
 16
1.0
 26
0.0
 36
0.0
 17
0.0
 27
1.0
 37
0.0
 76
     0
330
1F
331
29
  0
MLINESTYLE
  5
18
102
{ACAD_REACTORS
330
17
102
}
330
17
100
AcDbMlineStyle
  2
Standard
 70
     0
  3

 62
   256
 51
90.0
 52
90.0
 71
     2
 49
0.5
 62
   256
  6
BYLAYER
 49
-0.5
 62
   256
  6
BYLAYER
  0
ACDBPLACEHOLDER
  5
F
102
{ACAD_REACTORS
330
E
102
}
330
E
  0
SCALE
  5
48
102
{ACAD_REACTORS
330
47
102
}
330
47
100
AcDbScale
 70
     0
300
1:1
140
1.0
141
1.0
290
     1
  0
SCALE
  5
49
102
{ACAD_REACTORS
330
47
102
}
330
47
100
AcDbScale
 70
     0
300
1:2
140
1.0
141
2.0
290
     0
  0
SCALE
  5
4A
102
{ACAD_REACTORS
330
47
102
}
330
47
100
AcDbScale
 70
     0
300
1:4
140
1.0
141
4.0
290
     0
  0
SCALE
  5
4B
102
{ACAD_REACTORS
330
47
102
}
330
47
100
AcDbScale
 70
     0
300
1:5
140
1.0
141
5.0
290
     0
  0
SCALE
  5
4C
102
{ACAD_REACTORS
330
47
102
}
330
47
100
AcDbScale
 70
     0
300
1:8
140
1.0
141
8.0
290
     0
  0
SCALE
  5
4D
102
{ACAD_REACTORS
330
47
102
}
330
47
100
AcDbScale
 70
     0
300
1:10
140
1.0
141
10.0
290
     0
  0
SCALE
  5
4E
102
{ACAD_REACTORS
330
47
102
}
330
47
100
AcDbScale
 70
     0
300
1:16
140
1.0
141
16.0
290
     0
  0
SCALE
  5
4F
102
{ACAD_REACTORS
330
47
102
}
330
47
100
AcDbScale
 70
     0
300
1:20
140
1.0
141
20.0
290
     0
  0
SCALE
  5
50
102
{ACAD_REACTORS
330
47
102
}
330
47
100
AcDbScale
 70
     0
300
1:30
140
1.0
141
30.0
290
     0
  0
SCALE
  5
51
102
{ACAD_REACTORS
330
47
102
}
330
47
100
AcDbScale
 70
     0
300
1:40
140
1.0
141
40.0
290
     0
  0
SCALE
  5
52
102
{ACAD_REACTORS
330
47
102
}
330
47
100
AcDbScale
 70
     0
300
1:50
140
1.0
141
50.0
290
     0
  0
SCALE
  5
53
102
{ACAD_REACTORS
330
47
102
}
330
47
100
AcDbScale
 70
     0
300
1:100
140
1.0
141
100.0
290
     0
  0
SCALE
  5
54
102
{ACAD_REACTORS
330
47
102
}
330
47
100
AcDbScale
 70
     0
300
2:1
140
2.0
141
1.0
290
     0
  0
SCALE
  5
55
102
{ACAD_REACTORS
330
47
102
}
330
47
100
AcDbScale
 70
     0
300
4:1
140
4.0
141
1.0
290
     0
  0
SCALE
  5
56
102
{ACAD_REACTORS
330
47
102
}
330
47
100
AcDbScale
 70
     0
300
8:1
140
8.0
141
1.0
290
     0
  0
SCALE
  5
57
102
{ACAD_REACTORS
330
47
102
}
330
47
100
AcDbScale
 70
     0
300
10:1
140
10.0
141
1.0
290
     0
  0
SCALE
  5
58
102
{ACAD_REACTORS
330
47
102
}
330
47
100
AcDbScale
 70
     0
300
100:1
140
100.0
141
1.0
290
     0
  0
ENDSEC
  0
EOF
